<svg width="346" height="386" viewBox="0 0 346 386" fill="none" xmlns="http://www.w3.org/2000/svg">
<g filter="url(#filter0_d)">
<path d="M326.235 30.9587C327.684 33.1303 330.101 32.5874 333 32.0445L333 361C333 367.627 327.627 373 321 373L25.0031 373C18.3745 373 13.0014 367.626 13.0031 360.997L13.081 58.6468C13.4031 59.0087 15.3373 59.7326 16.497 59.7326C17.9467 59.7326 20.3627 59.7326 20.8459 58.6468C21.3292 57.561 25.1948 57.0181 26.1613 57.0181L30.5102 57.0181C31.9598 57.0181 33.8926 53.7607 34.859 52.6749C35.8255 51.5891 40.6575 52.132 41.1407 52.132C41.624 52.132 45.4897 53.2178 46.4561 53.7607C47.4225 54.3036 49.3553 52.132 50.3218 51.5891C51.0949 51.1547 52.8989 50.6842 53.7043 50.5033C55.6371 49.2365 59.6961 46.5943 60.4692 46.16C61.4356 45.6171 61.9189 45.6171 63.8517 45.6171C65.7845 45.6171 66.7509 45.6171 68.2006 46.16C69.6502 46.7029 72.0663 46.16 73.9991 46.16C75.9319 46.16 78.831 45.6171 79.7974 46.16C80.7638 46.7029 85.5959 47.7887 86.0791 47.2458C86.4657 46.8115 88.8173 47.4268 89.9448 47.7887L93.3273 47.7887C94.2937 47.7887 95.7433 45.6171 96.2266 45.6171C96.7098 45.6171 98.1594 46.16 99.1258 47.2458C100.092 48.3316 101.542 47.2458 102.508 47.2458C103.475 47.2458 103.958 47.2458 105.408 47.7887C106.857 48.3316 108.307 49.4174 109.273 48.8745C110.24 48.3316 111.206 47.7887 113.139 47.7887C115.072 47.7887 117.005 49.4175 118.454 49.4175C119.614 49.4175 120.87 50.8652 121.354 51.5891C121.837 50.8652 122.996 49.4175 123.77 49.4175C124.736 49.4175 126.186 47.2458 126.669 46.16C127.152 45.0742 128.118 47.2458 129.568 47.2458C131.018 47.2458 131.984 46.7029 132.467 46.16C132.951 45.6171 134.4 42.9026 135.367 42.9026C136.14 42.9026 138.91 42.1787 140.199 41.8168L143.098 43.4455L145.031 42.9026L147.93 41.2739L148.897 44.5313L150.346 45.6171L151.796 41.8168L155.178 41.8168C155.444 41.3688 157.704 40.4966 157.836 40.2503C157.644 40.2135 157.551 40.1911 157.594 40.1881C157.797 40.174 157.864 40.1981 157.836 40.2503C158.791 40.4331 162.186 40.9726 163.393 41.2739L164.842 42.3597L166.775 42.3597L168.708 39.6452C169.514 39.4642 171.318 39.1023 172.091 39.1023C173.057 39.1023 175.473 41.2739 175.956 41.2739L179.822 41.2739C181.272 41.2739 181.272 40.1881 184.171 40.1881C187.07 40.1881 186.729 42.3597 187.553 42.3597C187.785 42.3597 189.486 40.1881 189.969 39.1023C190.13 38.7424 192.274 36.5081 192.538 37.1009C192.911 37.9386 197.218 36.9307 197.701 35.3019C197.862 34.759 199.634 33.6732 202.05 34.759C204.466 35.8448 208.331 31.5016 209.298 29.8729C210.264 28.2442 215.58 25.5297 216.546 24.4439C217.512 23.358 223.794 21.7293 225.244 20.6435C226.693 19.5577 228.626 18.4719 229.593 17.3861C230.559 16.3003 232.492 16.3003 234.425 17.929C236.358 19.5577 239.257 19.0148 241.673 19.5577C244.089 20.1006 244.089 18.4719 246.022 18.4719L254.72 18.4719C256.652 18.4719 260.035 16.8432 261.485 16.3003C262.934 15.7574 266.8 16.3003 269.216 16.3003C271.632 16.3003 274.531 15.2145 275.981 14.6716C277.43 14.1287 276.464 12.5 277.914 12.5C279.363 12.5 280.813 13.5858 283.229 14.6716C285.645 15.7574 286.612 15.2145 287.578 15.2145C288.544 15.2145 289.994 12.5 291.927 12.5C293.86 12.5 295.793 13.5858 297.242 13.5858C298.692 13.5858 301.108 13.5858 302.557 14.6716C304.007 15.7574 304.49 16.8432 306.423 17.3861C308.356 17.929 308.839 17.3861 310.772 18.4719C312.705 19.5577 314.638 19.5577 316.087 19.5577C317.537 19.5577 318.987 23.901 320.919 24.4439C322.852 24.9868 324.785 28.7871 326.235 30.9587Z" fill="#679A7C"/>
<path d="M326.235 30.9587C327.684 33.1303 330.101 32.5874 333 32.0445L333 361C333 367.627 327.627 373 321 373L25.0031 373C18.3745 373 13.0014 367.626 13.0031 360.997L13.081 58.6468C13.4031 59.0087 15.3373 59.7326 16.497 59.7326C17.9467 59.7326 20.3627 59.7326 20.8459 58.6468C21.3292 57.561 25.1948 57.0181 26.1613 57.0181L30.5102 57.0181C31.9598 57.0181 33.8926 53.7607 34.859 52.6749C35.8255 51.5891 40.6575 52.132 41.1407 52.132C41.624 52.132 45.4897 53.2178 46.4561 53.7607C47.4225 54.3036 49.3553 52.132 50.3218 51.5891C51.0949 51.1547 52.8989 50.6842 53.7043 50.5033C55.6371 49.2365 59.6961 46.5943 60.4692 46.16C61.4356 45.6171 61.9189 45.6171 63.8517 45.6171C65.7845 45.6171 66.7509 45.6171 68.2006 46.16C69.6502 46.7029 72.0663 46.16 73.9991 46.16C75.9319 46.16 78.831 45.6171 79.7974 46.16C80.7638 46.7029 85.5959 47.7887 86.0791 47.2458C86.4657 46.8115 88.8173 47.4268 89.9448 47.7887L93.3273 47.7887C94.2937 47.7887 95.7433 45.6171 96.2266 45.6171C96.7098 45.6171 98.1594 46.16 99.1258 47.2458C100.092 48.3316 101.542 47.2458 102.508 47.2458C103.475 47.2458 103.958 47.2458 105.408 47.7887C106.857 48.3316 108.307 49.4174 109.273 48.8745C110.24 48.3316 111.206 47.7887 113.139 47.7887C115.072 47.7887 117.005 49.4175 118.454 49.4175C119.614 49.4175 120.87 50.8652 121.354 51.5891C121.837 50.8652 122.996 49.4175 123.77 49.4175C124.736 49.4175 126.186 47.2458 126.669 46.16C127.152 45.0742 128.118 47.2458 129.568 47.2458C131.018 47.2458 131.984 46.7029 132.467 46.16C132.951 45.6171 134.4 42.9026 135.367 42.9026C136.14 42.9026 138.91 42.1787 140.199 41.8168L143.098 43.4455L145.031 42.9026L147.93 41.2739L148.897 44.5313L150.346 45.6171L151.796 41.8168L155.178 41.8168C155.444 41.3688 157.704 40.4966 157.836 40.2503C157.644 40.2135 157.551 40.1911 157.594 40.1881C157.797 40.174 157.864 40.1981 157.836 40.2503C158.791 40.4331 162.186 40.9726 163.393 41.2739L164.842 42.3597L166.775 42.3597L168.708 39.6452C169.514 39.4642 171.318 39.1023 172.091 39.1023C173.057 39.1023 175.473 41.2739 175.956 41.2739L179.822 41.2739C181.272 41.2739 181.272 40.1881 184.171 40.1881C187.07 40.1881 186.729 42.3597 187.553 42.3597C187.785 42.3597 189.486 40.1881 189.969 39.1023C190.13 38.7424 192.274 36.5081 192.538 37.1009C192.911 37.9386 197.218 36.9307 197.701 35.3019C197.862 34.759 199.634 33.6732 202.05 34.759C204.466 35.8448 208.331 31.5016 209.298 29.8729C210.264 28.2442 215.58 25.5297 216.546 24.4439C217.512 23.358 223.794 21.7293 225.244 20.6435C226.693 19.5577 228.626 18.4719 229.593 17.3861C230.559 16.3003 232.492 16.3003 234.425 17.929C236.358 19.5577 239.257 19.0148 241.673 19.5577C244.089 20.1006 244.089 18.4719 246.022 18.4719L254.72 18.4719C256.652 18.4719 260.035 16.8432 261.485 16.3003C262.934 15.7574 266.8 16.3003 269.216 16.3003C271.632 16.3003 274.531 15.2145 275.981 14.6716C277.43 14.1287 276.464 12.5 277.914 12.5C279.363 12.5 280.813 13.5858 283.229 14.6716C285.645 15.7574 286.612 15.2145 287.578 15.2145C288.544 15.2145 289.994 12.5 291.927 12.5C293.86 12.5 295.793 13.5858 297.242 13.5858C298.692 13.5858 301.108 13.5858 302.557 14.6716C304.007 15.7574 304.49 16.8432 306.423 17.3861C308.356 17.929 308.839 17.3861 310.772 18.4719C312.705 19.5577 314.638 19.5577 316.087 19.5577C317.537 19.5577 318.987 23.901 320.919 24.4439C322.852 24.9868 324.785 28.7871 326.235 30.9587Z" fill="#E2DDD8" fill-opacity="0.1"/>
</g>
<mask id="mask0" mask-type="alpha" maskUnits="userSpaceOnUse" x="13" y="12" width="320" height="361">
<path d="M326.235 30.9587C327.684 33.1303 330.101 32.5874 333 32.0445L333 361C333 367.627 327.627 373 321 373L25.0031 373C18.3745 373 13.0014 367.626 13.0031 360.997L13.081 58.6468C13.4031 59.0087 15.3373 59.7326 16.497 59.7326C17.9467 59.7326 20.3627 59.7326 20.8459 58.6468C21.3292 57.561 25.1948 57.0181 26.1613 57.0181L30.5102 57.0181C31.9598 57.0181 33.8926 53.7607 34.859 52.6749C35.8255 51.5891 40.6575 52.132 41.1407 52.132C41.624 52.132 45.4897 53.2178 46.4561 53.7607C47.4225 54.3036 49.3553 52.132 50.3218 51.5891C51.0949 51.1547 52.8989 50.6842 53.7043 50.5033C55.6371 49.2365 59.6961 46.5943 60.4692 46.16C61.4356 45.6171 61.9189 45.6171 63.8517 45.6171C65.7845 45.6171 66.7509 45.6171 68.2006 46.16C69.6502 46.7029 72.0663 46.16 73.9991 46.16C75.9319 46.16 78.831 45.6171 79.7974 46.16C80.7638 46.7029 85.5959 47.7887 86.0791 47.2458C86.4657 46.8115 88.8173 47.4268 89.9448 47.7887L93.3273 47.7887C94.2937 47.7887 95.7433 45.6171 96.2266 45.6171C96.7098 45.6171 98.1594 46.16 99.1258 47.2458C100.092 48.3316 101.542 47.2458 102.508 47.2458C103.475 47.2458 103.958 47.2458 105.408 47.7887C106.857 48.3316 108.307 49.4174 109.273 48.8745C110.24 48.3316 111.206 47.7887 113.139 47.7887C115.072 47.7887 117.005 49.4175 118.454 49.4175C119.614 49.4175 120.87 50.8652 121.354 51.5891C121.837 50.8652 122.996 49.4175 123.77 49.4175C124.736 49.4175 126.186 47.2458 126.669 46.16C127.152 45.0742 128.118 47.2458 129.568 47.2458C131.018 47.2458 131.984 46.7029 132.467 46.16C132.951 45.6171 134.4 42.9026 135.367 42.9026C136.14 42.9026 138.91 42.1787 140.199 41.8168L143.098 43.4455L145.031 42.9026L147.93 41.2739L148.897 44.5313L150.346 45.6171L151.796 41.8168L155.178 41.8168C155.444 41.3688 157.704 40.4966 157.836 40.2503C157.644 40.2135 157.551 40.1911 157.594 40.1881C157.797 40.174 157.864 40.1981 157.836 40.2503C158.791 40.4331 162.186 40.9726 163.393 41.2739L164.842 42.3597L166.775 42.3597L168.708 39.6452C169.514 39.4642 171.318 39.1023 172.091 39.1023C173.057 39.1023 175.473 41.2739 175.956 41.2739L179.822 41.2739C181.272 41.2739 181.272 40.1881 184.171 40.1881C187.07 40.1881 186.729 42.3597 187.553 42.3597C187.785 42.3597 189.486 40.1881 189.969 39.1023C190.13 38.7424 192.274 36.5081 192.538 37.1009C192.911 37.9386 197.218 36.9307 197.701 35.3019C197.862 34.759 199.634 33.6732 202.05 34.759C204.466 35.8448 208.331 31.5016 209.298 29.8729C210.264 28.2442 215.58 25.5297 216.546 24.4439C217.512 23.358 223.794 21.7293 225.244 20.6435C226.693 19.5577 228.626 18.4719 229.593 17.3861C230.559 16.3003 232.492 16.3003 234.425 17.929C236.358 19.5577 239.257 19.0148 241.673 19.5577C244.089 20.1006 244.089 18.4719 246.022 18.4719L254.72 18.4719C256.652 18.4719 260.035 16.8432 261.485 16.3003C262.934 15.7574 266.8 16.3003 269.216 16.3003C271.632 16.3003 274.531 15.2145 275.981 14.6716C277.43 14.1287 276.464 12.5 277.914 12.5C279.363 12.5 280.813 13.5858 283.229 14.6716C285.645 15.7574 286.612 15.2145 287.578 15.2145C288.544 15.2145 289.994 12.5 291.927 12.5C293.86 12.5 295.793 13.5858 297.242 13.5858C298.692 13.5858 301.108 13.5858 302.557 14.6716C304.007 15.7574 304.49 16.8432 306.423 17.3861C308.356 17.929 308.839 17.3861 310.772 18.4719C312.705 19.5577 314.638 19.5577 316.087 19.5577C317.537 19.5577 318.987 23.901 320.919 24.4439C322.852 24.9868 324.785 28.7871 326.235 30.9587Z" fill="#679A7C"/>
<path d="M326.235 30.9587C327.684 33.1303 330.101 32.5874 333 32.0445L333 361C333 367.627 327.627 373 321 373L25.0031 373C18.3745 373 13.0014 367.626 13.0031 360.997L13.081 58.6468C13.4031 59.0087 15.3373 59.7326 16.497 59.7326C17.9467 59.7326 20.3627 59.7326 20.8459 58.6468C21.3292 57.561 25.1948 57.0181 26.1613 57.0181L30.5102 57.0181C31.9598 57.0181 33.8926 53.7607 34.859 52.6749C35.8255 51.5891 40.6575 52.132 41.1407 52.132C41.624 52.132 45.4897 53.2178 46.4561 53.7607C47.4225 54.3036 49.3553 52.132 50.3218 51.5891C51.0949 51.1547 52.8989 50.6842 53.7043 50.5033C55.6371 49.2365 59.6961 46.5943 60.4692 46.16C61.4356 45.6171 61.9189 45.6171 63.8517 45.6171C65.7845 45.6171 66.7509 45.6171 68.2006 46.16C69.6502 46.7029 72.0663 46.16 73.9991 46.16C75.9319 46.16 78.831 45.6171 79.7974 46.16C80.7638 46.7029 85.5959 47.7887 86.0791 47.2458C86.4657 46.8115 88.8173 47.4268 89.9448 47.7887L93.3273 47.7887C94.2937 47.7887 95.7433 45.6171 96.2266 45.6171C96.7098 45.6171 98.1594 46.16 99.1258 47.2458C100.092 48.3316 101.542 47.2458 102.508 47.2458C103.475 47.2458 103.958 47.2458 105.408 47.7887C106.857 48.3316 108.307 49.4174 109.273 48.8745C110.24 48.3316 111.206 47.7887 113.139 47.7887C115.072 47.7887 117.005 49.4175 118.454 49.4175C119.614 49.4175 120.87 50.8652 121.354 51.5891C121.837 50.8652 122.996 49.4175 123.77 49.4175C124.736 49.4175 126.186 47.2458 126.669 46.16C127.152 45.0742 128.118 47.2458 129.568 47.2458C131.018 47.2458 131.984 46.7029 132.467 46.16C132.951 45.6171 134.4 42.9026 135.367 42.9026C136.14 42.9026 138.91 42.1787 140.199 41.8168L143.098 43.4455L145.031 42.9026L147.93 41.2739L148.897 44.5313L150.346 45.6171L151.796 41.8168L155.178 41.8168C155.444 41.3688 157.704 40.4966 157.836 40.2503C157.644 40.2135 157.551 40.1911 157.594 40.1881C157.797 40.174 157.864 40.1981 157.836 40.2503C158.791 40.4331 162.186 40.9726 163.393 41.2739L164.842 42.3597L166.775 42.3597L168.708 39.6452C169.514 39.4642 171.318 39.1023 172.091 39.1023C173.057 39.1023 175.473 41.2739 175.956 41.2739L179.822 41.2739C181.272 41.2739 181.272 40.1881 184.171 40.1881C187.07 40.1881 186.729 42.3597 187.553 42.3597C187.785 42.3597 189.486 40.1881 189.969 39.1023C190.13 38.7424 192.274 36.5081 192.538 37.1009C192.911 37.9386 197.218 36.9307 197.701 35.3019C197.862 34.759 199.634 33.6732 202.05 34.759C204.466 35.8448 208.331 31.5016 209.298 29.8729C210.264 28.2442 215.58 25.5297 216.546 24.4439C217.512 23.358 223.794 21.7293 225.244 20.6435C226.693 19.5577 228.626 18.4719 229.593 17.3861C230.559 16.3003 232.492 16.3003 234.425 17.929C236.358 19.5577 239.257 19.0148 241.673 19.5577C244.089 20.1006 244.089 18.4719 246.022 18.4719L254.72 18.4719C256.652 18.4719 260.035 16.8432 261.485 16.3003C262.934 15.7574 266.8 16.3003 269.216 16.3003C271.632 16.3003 274.531 15.2145 275.981 14.6716C277.43 14.1287 276.464 12.5 277.914 12.5C279.363 12.5 280.813 13.5858 283.229 14.6716C285.645 15.7574 286.612 15.2145 287.578 15.2145C288.544 15.2145 289.994 12.5 291.927 12.5C293.86 12.5 295.793 13.5858 297.242 13.5858C298.692 13.5858 301.108 13.5858 302.557 14.6716C304.007 15.7574 304.49 16.8432 306.423 17.3861C308.356 17.929 308.839 17.3861 310.772 18.4719C312.705 19.5577 314.638 19.5577 316.087 19.5577C317.537 19.5577 318.987 23.901 320.919 24.4439C322.852 24.9868 324.785 28.7871 326.235 30.9587Z" fill="#E2DDD8" fill-opacity="0.1"/>
</mask>
<g mask="url(#mask0)">
<g filter="url(#filter1_d)">
<path d="M13 25.0178C13 18.3806 18.3805 13 25.0178 13H320.982C327.619 13 333 18.3805 333 25.0178V429H13V25.0178Z" fill="white"/>
</g>
<rect x="268" y="228" width="45" height="13" rx="6.5" fill="#C48B7F"/>
<path d="M35.208 233.272C35.208 230.424 36.568 228.552 38.92 228.552C40.84 228.552 41.672 229.624 41.928 230.904H43.272C42.904 228.824 41.416 227.384 38.92 227.384C35.976 227.384 33.8 229.688 33.8 233.272C33.8 236.872 35.976 239.192 38.92 239.192C41.416 239.192 42.904 237.752 43.272 235.672H41.928C41.672 236.952 40.84 238.024 38.92 238.024C36.568 238.024 35.208 236.12 35.208 233.272ZM52.2888 234.984C52.2888 232.392 50.6888 230.76 48.4648 230.76C46.2408 230.76 44.6408 232.392 44.6408 234.984C44.6408 237.576 46.2408 239.192 48.4648 239.192C50.6888 239.192 52.2888 237.576 52.2888 234.984ZM45.9528 234.984C45.9528 233.048 46.8968 231.832 48.4648 231.832C50.0328 231.832 50.9768 233.048 50.9768 234.984C50.9768 236.92 50.0328 238.12 48.4648 238.12C46.8968 238.12 45.9528 236.92 45.9528 234.984ZM60.6573 232.488C60.3053 231.416 59.5693 230.76 58.2093 230.76C57.0413 230.76 56.0493 231.4 55.6653 232.424V230.952H54.3853V239H55.7133V234.568C55.7133 232.712 56.6253 231.848 57.8413 231.848C59.0573 231.848 59.5853 232.6 59.5853 234.104V239H60.9293V234.568C60.9293 232.712 61.8413 231.848 63.0413 231.848C64.2413 231.848 64.7853 232.6 64.7853 234.104V239H66.1293V233.816C66.1293 231.928 65.2173 230.76 63.3613 230.76C62.1773 230.76 61.1533 231.4 60.6573 232.488ZM74.9973 232.488C74.6453 231.416 73.9093 230.76 72.5493 230.76C71.3813 230.76 70.3893 231.4 70.0053 232.424V230.952H68.7253V239H70.0533V234.568C70.0533 232.712 70.9653 231.848 72.1813 231.848C73.3973 231.848 73.9253 232.6 73.9253 234.104V239H75.2693V234.568C75.2693 232.712 76.1813 231.848 77.3813 231.848C78.5813 231.848 79.1253 232.6 79.1253 234.104V239H80.4693V233.816C80.4693 231.928 79.5573 230.76 77.7013 230.76C76.5173 230.76 75.4933 231.4 74.9973 232.488ZM89.6893 239V230.952H88.3453V235.384C88.3453 237.32 87.4333 238.152 86.2173 238.152C84.9533 238.152 84.3293 237.368 84.3293 235.88V230.952H82.9853V236.136C82.9853 238.088 84.0093 239.192 85.8333 239.192C87.0493 239.192 88.0093 238.552 88.3933 237.544V239H89.6893ZM96.118 237.816C95.606 237.976 95.254 238.008 94.95 238.008C94.214 238.008 93.782 237.72 93.782 236.872V231.96H95.91V230.952H93.798V228.904H92.486V230.952H91.302V231.96H92.486V236.936C92.486 238.424 93.238 239.128 94.71 239.128C95.062 239.128 95.526 239.08 96.118 238.904V237.816ZM104.635 236.632H103.387C103.051 237.608 102.395 238.136 101.307 238.136C99.7705 238.136 98.7945 237.112 98.7305 235.256H104.683V234.728C104.683 232.664 103.611 230.76 101.227 230.76C99.0825 230.76 97.4345 232.392 97.4345 235.016C97.4345 237.608 99.0345 239.192 101.307 239.192C102.875 239.192 104.267 238.344 104.635 236.632ZM101.227 231.832C102.667 231.832 103.355 232.904 103.387 234.296H98.7785C99.0025 232.648 99.9625 231.832 101.227 231.832ZM114.194 227.576H110.146V239H114.194C117.506 239 119.762 236.728 119.762 233.288C119.762 229.864 117.506 227.576 114.194 227.576ZM114.194 228.728C116.85 228.728 118.338 230.536 118.338 233.288C118.338 236.056 116.85 237.848 114.194 237.848H111.506V228.728H114.194ZM121.732 229.272H123.236V227.656H121.732V229.272ZM121.828 239H123.156V230.952H121.828V239ZM125.152 236.616C125.296 238.344 126.736 239.192 128.656 239.192C130.464 239.192 131.792 238.152 131.792 236.744C131.792 235.448 131.024 234.808 129.712 234.552L128.112 234.248C127.184 234.072 126.704 233.784 126.704 233.096C126.704 232.312 127.392 231.784 128.464 231.784C129.568 231.784 130.288 232.264 130.384 233.08H131.616C131.456 231.56 130.32 230.76 128.464 230.76C126.688 230.76 125.472 231.816 125.472 233.176C125.472 234.584 126.416 235.112 127.712 235.352L129.136 235.64C130.16 235.832 130.544 236.216 130.544 236.808C130.544 237.672 129.744 238.184 128.64 238.184C127.552 238.184 126.528 237.72 126.432 236.616H125.152ZM137.674 237.816C137.162 237.976 136.81 238.008 136.506 238.008C135.77 238.008 135.338 237.72 135.338 236.872V231.96H137.466V230.952H135.354V228.904H134.042V230.952H132.858V231.96H134.042V236.936C134.042 238.424 134.794 239.128 136.266 239.128C136.618 239.128 137.082 239.08 137.674 238.904V237.816ZM144.604 239H145.932C145.772 238.472 145.74 237.912 145.74 237.32V233.624C145.74 231.688 144.524 230.76 142.572 230.76C140.86 230.76 139.58 231.688 139.42 233.32H140.7C140.796 232.392 141.468 231.832 142.54 231.832C143.644 231.832 144.428 232.376 144.428 233.656V234.12L141.836 234.456C140.204 234.648 139.052 235.32 139.052 236.872C139.052 238.36 140.252 239.176 141.66 239.176C143.004 239.176 144.108 238.584 144.46 237.64C144.46 238.024 144.508 238.552 144.604 239ZM141.932 238.168C140.924 238.168 140.396 237.592 140.396 236.84C140.396 235.752 141.228 235.496 142.236 235.352L144.428 235.112V235.832C144.428 237.384 143.18 238.168 141.932 238.168ZM149.624 230.952H148.344V239H149.672V234.568C149.672 232.632 150.648 231.848 151.88 231.848C153.144 231.848 153.8 232.616 153.8 234.104V239H155.128V233.816C155.128 231.896 154.056 230.76 152.248 230.76C151.016 230.76 150.008 231.432 149.624 232.424V230.952ZM157.139 234.984C157.139 237.56 158.691 239.192 160.931 239.192C162.723 239.192 163.907 238.184 164.163 236.456H162.899C162.675 237.528 162.019 238.12 160.931 238.12C159.347 238.12 158.451 236.872 158.451 234.984C158.451 233.096 159.347 231.832 160.931 231.832C162.019 231.832 162.675 232.424 162.899 233.496H164.163C163.907 231.784 162.723 230.76 160.931 230.76C158.691 230.76 157.139 232.408 157.139 234.984ZM172.804 236.632H171.556C171.22 237.608 170.564 238.136 169.476 238.136C167.94 238.136 166.964 237.112 166.9 235.256H172.852V234.728C172.852 232.664 171.78 230.76 169.396 230.76C167.252 230.76 165.604 232.392 165.604 235.016C165.604 237.608 167.204 239.192 169.476 239.192C171.044 239.192 172.436 238.344 172.804 236.632ZM169.396 231.832C170.836 231.832 171.524 232.904 171.556 234.296H166.948C167.172 232.648 168.132 231.832 169.396 231.832Z" fill="#2D2828"/>
<path d="M275.32 235.579L279.469 237.388V236.407L276.229 235.03L279.469 233.644V232.672L275.32 234.481V235.579ZM280.866 233.311H282.18V238H283.368V231.556H282.549C282.396 232.222 281.964 232.519 280.866 232.519V233.311ZM284.846 234.787C284.846 236.713 285.908 238.108 287.582 238.108C289.256 238.108 290.309 236.713 290.309 234.787C290.309 232.861 289.256 231.466 287.582 231.466C285.908 231.466 284.846 232.861 284.846 234.787ZM286.052 234.787C286.052 233.329 286.556 232.402 287.582 232.402C288.599 232.402 289.103 233.329 289.103 234.787C289.103 236.245 288.599 237.172 287.582 237.172C286.556 237.172 286.052 236.245 286.052 234.787ZM295.981 238H297.421L294.514 234.364L297.169 231.574H295.801L292.831 234.805V231.574H291.634V238H292.831V236.137L293.722 235.201L295.981 238ZM302.274 238L304.101 232.951H304.119V238H305.262V231.574H303.624L301.896 236.407H301.878L300.15 231.574H298.458V238H299.556V232.951H299.574L301.41 238H302.274Z" fill="white"/>
<rect x="33" y="252" width="291" height="30.1176" fill="white"/>
<path d="M38.536 261.576H34.488V273H38.536C41.848 273 44.104 270.728 44.104 267.288C44.104 263.864 41.848 261.576 38.536 261.576ZM38.536 262.728C41.192 262.728 42.68 264.536 42.68 267.288C42.68 270.056 41.192 271.848 38.536 271.848H35.848V262.728H38.536ZM52.7783 270.632H51.5303C51.1943 271.608 50.5383 272.136 49.4503 272.136C47.9143 272.136 46.9383 271.112 46.8743 269.256H52.8263V268.728C52.8263 266.664 51.7543 264.76 49.3703 264.76C47.2263 264.76 45.5783 266.392 45.5783 269.016C45.5783 271.608 47.1783 273.192 49.4503 273.192C51.0183 273.192 52.4103 272.344 52.7783 270.632ZM49.3703 265.832C50.8103 265.832 51.4983 266.904 51.5303 268.296H46.9223C47.1463 266.648 48.1063 265.832 49.3703 265.832ZM58.6605 271.816C58.1485 271.976 57.7965 272.008 57.4925 272.008C56.7565 272.008 56.3245 271.72 56.3245 270.872V265.96H58.4525V264.952H56.3405V262.904H55.0285V264.952H53.8445V265.96H55.0285V270.936C55.0285 272.424 55.7805 273.128 57.2525 273.128C57.6045 273.128 58.0685 273.08 58.6605 272.904V271.816ZM65.5908 273H66.9188C66.7588 272.472 66.7268 271.912 66.7268 271.32V267.624C66.7268 265.688 65.5108 264.76 63.5588 264.76C61.8468 264.76 60.5668 265.688 60.4068 267.32H61.6868C61.7828 266.392 62.4548 265.832 63.5268 265.832C64.6308 265.832 65.4148 266.376 65.4148 267.656V268.12L62.8228 268.456C61.1908 268.648 60.0388 269.32 60.0388 270.872C60.0388 272.36 61.2388 273.176 62.6468 273.176C63.9908 273.176 65.0948 272.584 65.4468 271.64C65.4468 272.024 65.4948 272.552 65.5908 273ZM62.9188 272.168C61.9108 272.168 61.3828 271.592 61.3828 270.84C61.3828 269.752 62.2148 269.496 63.2228 269.352L65.4148 269.112V269.832C65.4148 271.384 64.1668 272.168 62.9188 272.168ZM68.7389 268.984C68.7389 271.56 70.2909 273.192 72.5309 273.192C74.3229 273.192 75.5069 272.184 75.7629 270.456H74.4989C74.2749 271.528 73.6189 272.12 72.5309 272.12C70.9469 272.12 70.0509 270.872 70.0509 268.984C70.0509 267.096 70.9469 265.832 72.5309 265.832C73.6189 265.832 74.2749 266.424 74.4989 267.496H75.7629C75.5069 265.784 74.3229 264.76 72.5309 264.76C70.2909 264.76 68.7389 266.408 68.7389 268.984ZM79.1239 266.424V261.224H77.7959V273H79.1239V268.568C79.1239 266.632 80.0999 265.848 81.3319 265.848C82.5959 265.848 83.2519 266.616 83.2519 268.104V273H84.5799V267.816C84.5799 265.896 83.5079 264.76 81.6999 264.76C80.4679 264.76 79.5079 265.4 79.1239 266.424ZM93.7908 270.632H92.5428C92.2068 271.608 91.5508 272.136 90.4628 272.136C88.9268 272.136 87.9508 271.112 87.8868 269.256H93.8388V268.728C93.8388 266.664 92.7668 264.76 90.3828 264.76C88.2388 264.76 86.5908 266.392 86.5908 269.016C86.5908 271.608 88.1908 273.192 90.4628 273.192C92.0308 273.192 93.4228 272.344 93.7908 270.632ZM90.3828 265.832C91.8228 265.832 92.5108 266.904 92.5428 268.296H87.9348C88.1588 266.648 89.1188 265.832 90.3828 265.832ZM101.657 273H102.937V261.224H101.609V266.376C101.241 265.56 100.329 264.76 98.9366 264.76C96.8886 264.76 95.3526 266.424 95.3526 268.984C95.3526 271.528 96.8886 273.192 98.9366 273.192C100.265 273.192 101.257 272.408 101.657 271.592V273ZM101.673 269.08C101.673 270.904 100.777 272.152 99.2086 272.152C97.6246 272.152 96.6966 270.856 96.6966 268.984C96.6966 267.096 97.6246 265.8 99.2086 265.8C100.777 265.8 101.673 267.032 101.673 268.856V269.08ZM109.001 273H110.377V267.768H117.065V273H118.441V261.576H117.065V266.616H110.377V261.576H109.001V273ZM128.255 268.984C128.255 266.392 126.655 264.76 124.431 264.76C122.207 264.76 120.607 266.392 120.607 268.984C120.607 271.576 122.207 273.192 124.431 273.192C126.655 273.192 128.255 271.576 128.255 268.984ZM121.919 268.984C121.919 267.048 122.863 265.832 124.431 265.832C125.999 265.832 126.943 267.048 126.943 268.984C126.943 270.92 125.999 272.12 124.431 272.12C122.863 272.12 121.919 270.92 121.919 268.984ZM136.623 266.488C136.271 265.416 135.535 264.76 134.175 264.76C133.007 264.76 132.015 265.4 131.631 266.424V264.952H130.351V273H131.679V268.568C131.679 266.712 132.591 265.848 133.807 265.848C135.023 265.848 135.551 266.6 135.551 268.104V273H136.895V268.568C136.895 266.712 137.807 265.848 139.007 265.848C140.207 265.848 140.751 266.6 140.751 268.104V273H142.095V267.816C142.095 265.928 141.183 264.76 139.327 264.76C138.143 264.76 137.119 265.4 136.623 266.488ZM151.3 270.632H150.052C149.716 271.608 149.06 272.136 147.972 272.136C146.436 272.136 145.46 271.112 145.396 269.256H151.348V268.728C151.348 266.664 150.276 264.76 147.892 264.76C145.748 264.76 144.1 266.392 144.1 269.016C144.1 271.608 145.7 273.192 147.972 273.192C149.54 273.192 150.932 272.344 151.3 270.632ZM147.892 265.832C149.332 265.832 150.02 266.904 150.052 268.296H145.444C145.668 266.648 146.628 265.832 147.892 265.832Z" fill="#2D2828"/>
<rect x="278" y="261" width="36" height="13" rx="6.5" fill="#E2DDD8"/>
<path d="M284.729 271H285.926V268.426H288.833V267.481H285.926V265.519H289.166V264.574H284.729V271ZM290.848 271H292.045V264.574H290.848V271ZM295.122 271V268.597H296.562L298.029 271H299.334L297.723 268.417C298.452 268.183 299.091 267.589 299.091 266.59C299.091 265.276 298.209 264.574 296.706 264.574H293.952V271H295.122ZM295.122 267.661V265.519H296.571C297.462 265.519 297.912 265.888 297.912 266.59C297.912 267.292 297.462 267.661 296.571 267.661H295.122ZM304.599 271L306.426 265.951H306.444V271H307.587V264.574H305.949L304.221 269.407H304.203L302.475 264.574H300.783V271H301.881V265.951H301.899L303.735 271H304.599Z" fill="#2D2828"/>
<rect x="33" y="286" width="291" height="30.1176" fill="white"/>
<path d="M41.368 298.712C41.368 297.016 40.152 295.384 37.752 295.384C35.352 295.384 33.976 297.08 33.864 299.096H35.16C35.256 297.72 36.168 296.536 37.736 296.536C39.432 296.536 40.056 297.624 40.056 298.712C40.056 300.04 38.824 300.888 37.304 301.864C35.608 302.92 33.64 304.344 33.64 306.376V307H41.48V305.848H35.112C35.112 304.808 36.488 303.848 37.88 302.92C39.592 301.816 41.368 300.856 41.368 298.712ZM48.009 305.592C48.409 306.408 49.401 307.192 50.729 307.192C52.777 307.192 54.313 305.528 54.313 302.984C54.313 300.424 52.777 298.76 50.729 298.76C49.337 298.76 48.425 299.56 48.057 300.376V295.224H46.729V307H48.009V305.592ZM47.993 302.856C47.993 301.032 48.889 299.8 50.457 299.8C52.041 299.8 52.969 301.096 52.969 302.984C52.969 304.856 52.041 306.152 50.457 306.152C48.889 306.152 47.993 304.904 47.993 303.08V302.856ZM63.0364 304.632H61.7884C61.4524 305.608 60.7964 306.136 59.7084 306.136C58.1724 306.136 57.1964 305.112 57.1324 303.256H63.0844V302.728C63.0844 300.664 62.0124 298.76 59.6284 298.76C57.4844 298.76 55.8364 300.392 55.8364 303.016C55.8364 305.608 57.4364 307.192 59.7084 307.192C61.2764 307.192 62.6684 306.344 63.0364 304.632ZM59.6284 299.832C61.0684 299.832 61.7564 300.904 61.7884 302.296H57.1804C57.4044 300.648 58.3644 299.832 59.6284 299.832ZM70.9023 307H72.1823V295.224H70.8543V300.376C70.4863 299.56 69.5743 298.76 68.1823 298.76C66.1343 298.76 64.5983 300.424 64.5983 302.984C64.5983 305.528 66.1343 307.192 68.1823 307.192C69.5103 307.192 70.5023 306.408 70.9023 305.592V307ZM70.9183 303.08C70.9183 304.904 70.0223 306.152 68.4543 306.152C66.8703 306.152 65.9423 304.856 65.9423 302.984C65.9423 301.096 66.8703 299.8 68.4543 299.8C70.0223 299.8 70.9183 301.032 70.9183 302.856V303.08ZM79.338 298.84C79.146 298.792 78.922 298.776 78.714 298.776C77.53 298.776 76.506 299.528 76.154 300.856V298.952H74.874V307H76.202V303.032C76.202 301 77.37 299.992 78.65 299.992C78.858 299.992 79.146 300.008 79.338 300.056V298.84ZM87.77 302.984C87.77 300.392 86.17 298.76 83.946 298.76C81.722 298.76 80.122 300.392 80.122 302.984C80.122 305.576 81.722 307.192 83.946 307.192C86.17 307.192 87.77 305.576 87.77 302.984ZM81.434 302.984C81.434 301.048 82.378 299.832 83.946 299.832C85.514 299.832 86.458 301.048 86.458 302.984C86.458 304.92 85.514 306.12 83.946 306.12C82.378 306.12 81.434 304.92 81.434 302.984ZM96.9381 302.984C96.9381 300.392 95.3381 298.76 93.1141 298.76C90.8901 298.76 89.2901 300.392 89.2901 302.984C89.2901 305.576 90.8901 307.192 93.1141 307.192C95.3381 307.192 96.9381 305.576 96.9381 302.984ZM90.6021 302.984C90.6021 301.048 91.5461 299.832 93.1141 299.832C94.6821 299.832 95.6261 301.048 95.6261 302.984C95.6261 304.92 94.6821 306.12 93.1141 306.12C91.5461 306.12 90.6021 304.92 90.6021 302.984ZM105.307 300.488C104.955 299.416 104.219 298.76 102.859 298.76C101.691 298.76 100.699 299.4 100.315 300.424V298.952H99.0346V307H100.363V302.568C100.363 300.712 101.275 299.848 102.491 299.848C103.707 299.848 104.235 300.6 104.235 302.104V307H105.579V302.568C105.579 300.712 106.491 299.848 107.691 299.848C108.891 299.848 109.435 300.6 109.435 302.104V307H110.779V301.816C110.779 299.928 109.867 298.76 108.011 298.76C106.827 298.76 105.803 299.4 105.307 300.488ZM112.687 304.616C112.831 306.344 114.271 307.192 116.191 307.192C117.999 307.192 119.327 306.152 119.327 304.744C119.327 303.448 118.559 302.808 117.247 302.552L115.647 302.248C114.719 302.072 114.239 301.784 114.239 301.096C114.239 300.312 114.927 299.784 115.999 299.784C117.103 299.784 117.823 300.264 117.919 301.08H119.151C118.991 299.56 117.855 298.76 115.999 298.76C114.223 298.76 113.007 299.816 113.007 301.176C113.007 302.584 113.951 303.112 115.247 303.352L116.671 303.64C117.695 303.832 118.079 304.216 118.079 304.808C118.079 305.672 117.279 306.184 116.175 306.184C115.087 306.184 114.063 305.72 113.967 304.616H112.687Z" fill="#2D2828"/>
<rect x="278" y="295" width="36" height="13" rx="6.5" fill="#E2DDD8"/>
<path d="M284.729 305H285.926V302.426H288.833V301.481H285.926V299.519H289.166V298.574H284.729V305ZM290.848 305H292.045V298.574H290.848V305ZM295.122 305V302.597H296.562L298.029 305H299.334L297.723 302.417C298.452 302.183 299.091 301.589 299.091 300.59C299.091 299.276 298.209 298.574 296.706 298.574H293.952V305H295.122ZM295.122 301.661V299.519H296.571C297.462 299.519 297.912 299.888 297.912 300.59C297.912 301.292 297.462 301.661 296.571 301.661H295.122ZM304.599 305L306.426 299.951H306.444V305H307.587V298.574H305.949L304.221 303.407H304.203L302.475 298.574H300.783V305H301.881V299.951H301.899L303.735 305H304.599Z" fill="#2D2828"/>
<rect x="33" y="320" width="291" height="30.1176" fill="white"/>
<path d="M41.368 332.712C41.368 331.016 40.152 329.384 37.752 329.384C35.352 329.384 33.976 331.08 33.864 333.096H35.16C35.256 331.72 36.168 330.536 37.736 330.536C39.432 330.536 40.056 331.624 40.056 332.712C40.056 334.04 38.824 334.888 37.304 335.864C35.608 336.92 33.64 338.344 33.64 340.376V341H41.48V339.848H35.112C35.112 338.808 36.488 337.848 37.88 336.92C39.592 335.816 41.368 334.856 41.368 332.712ZM48.009 339.592C48.409 340.408 49.401 341.192 50.729 341.192C52.777 341.192 54.313 339.528 54.313 336.984C54.313 334.424 52.777 332.76 50.729 332.76C49.337 332.76 48.425 333.56 48.057 334.376V329.224H46.729V341H48.009V339.592ZM47.993 336.856C47.993 335.032 48.889 333.8 50.457 333.8C52.041 333.8 52.969 335.096 52.969 336.984C52.969 338.856 52.041 340.152 50.457 340.152C48.889 340.152 47.993 338.904 47.993 337.08V336.856ZM61.3408 341H62.6688C62.5088 340.472 62.4768 339.912 62.4768 339.32V335.624C62.4768 333.688 61.2608 332.76 59.3088 332.76C57.5968 332.76 56.3168 333.688 56.1568 335.32H57.4368C57.5328 334.392 58.2048 333.832 59.2768 333.832C60.3808 333.832 61.1648 334.376 61.1648 335.656V336.12L58.5728 336.456C56.9408 336.648 55.7888 337.32 55.7888 338.872C55.7888 340.36 56.9888 341.176 58.3968 341.176C59.7408 341.176 60.8448 340.584 61.1968 339.64C61.1968 340.024 61.2448 340.552 61.3408 341ZM58.6688 340.168C57.6608 340.168 57.1328 339.592 57.1328 338.84C57.1328 337.752 57.9648 337.496 58.9728 337.352L61.1648 337.112V337.832C61.1648 339.384 59.9168 340.168 58.6688 340.168ZM68.8249 339.816C68.3129 339.976 67.9609 340.008 67.6569 340.008C66.9209 340.008 66.4889 339.72 66.4889 338.872V333.96H68.6169V332.952H66.5049V330.904H65.1929V332.952H64.0089V333.96H65.1929V338.936C65.1929 340.424 65.9449 341.128 67.4169 341.128C67.7689 341.128 68.2329 341.08 68.8249 340.904V339.816ZM72.1551 334.424V329.224H70.8271V341H72.1551V336.568C72.1551 334.632 73.1311 333.848 74.3631 333.848C75.6271 333.848 76.2831 334.616 76.2831 336.104V341H77.6111V335.816C77.6111 333.896 76.5391 332.76 74.7311 332.76C73.4991 332.76 72.5391 333.4 72.1551 334.424ZM84.678 332.84C84.486 332.792 84.262 332.776 84.054 332.776C82.87 332.776 81.846 333.528 81.494 334.856V332.952H80.214V341H81.542V337.032C81.542 335 82.71 333.992 83.99 333.992C84.198 333.992 84.486 334.008 84.678 334.056V332.84ZM93.11 336.984C93.11 334.392 91.51 332.76 89.286 332.76C87.062 332.76 85.462 334.392 85.462 336.984C85.462 339.576 87.062 341.192 89.286 341.192C91.51 341.192 93.11 339.576 93.11 336.984ZM86.774 336.984C86.774 335.048 87.718 333.832 89.286 333.832C90.854 333.832 91.798 335.048 91.798 336.984C91.798 338.92 90.854 340.12 89.286 340.12C87.718 340.12 86.774 338.92 86.774 336.984ZM102.278 336.984C102.278 334.392 100.678 332.76 98.4541 332.76C96.2301 332.76 94.6301 334.392 94.6301 336.984C94.6301 339.576 96.2301 341.192 98.4541 341.192C100.678 341.192 102.278 339.576 102.278 336.984ZM95.9421 336.984C95.9421 335.048 96.8861 333.832 98.4541 333.832C100.022 333.832 100.966 335.048 100.966 336.984C100.966 338.92 100.022 340.12 98.4541 340.12C96.8861 340.12 95.9421 338.92 95.9421 336.984ZM110.647 334.488C110.295 333.416 109.559 332.76 108.199 332.76C107.031 332.76 106.039 333.4 105.655 334.424V332.952H104.375V341H105.703V336.568C105.703 334.712 106.615 333.848 107.831 333.848C109.047 333.848 109.575 334.6 109.575 336.104V341H110.919V336.568C110.919 334.712 111.831 333.848 113.031 333.848C114.231 333.848 114.775 334.6 114.775 336.104V341H116.119V335.816C116.119 333.928 115.207 332.76 113.351 332.76C112.167 332.76 111.143 333.4 110.647 334.488ZM118.027 338.616C118.171 340.344 119.611 341.192 121.531 341.192C123.339 341.192 124.667 340.152 124.667 338.744C124.667 337.448 123.899 336.808 122.587 336.552L120.987 336.248C120.059 336.072 119.579 335.784 119.579 335.096C119.579 334.312 120.267 333.784 121.339 333.784C122.443 333.784 123.163 334.264 123.259 335.08H124.491C124.331 333.56 123.195 332.76 121.339 332.76C119.563 332.76 118.347 333.816 118.347 335.176C118.347 336.584 119.291 337.112 120.587 337.352L122.011 337.64C123.035 337.832 123.419 338.216 123.419 338.808C123.419 339.672 122.619 340.184 121.515 340.184C120.427 340.184 119.403 339.72 119.307 338.616H118.027Z" fill="#2D2828"/>
<rect x="255" y="330" width="59" height="13" rx="6.5" fill="#D1DBD5"/>
<path d="M261.729 340H262.926V337.426H265.833V336.481H262.926V334.519H266.166V333.574H261.729V340ZM267.848 340H272.357V339.055H269.045V333.574H267.848V340ZM278.646 340V339.055H275.163V337.255H278.214V336.31H275.163V334.519H278.61V333.574H273.993V340H278.646ZM284.75 340H286.109L283.553 336.58L285.821 333.574H284.561L282.932 335.77L281.312 333.574H279.953L282.248 336.661L279.728 340H280.988L282.869 337.48L284.75 340ZM287.391 340H288.588V333.574H287.391V340ZM293.313 340C294.798 340 295.662 339.379 295.662 338.173C295.662 337.426 295.131 336.859 294.429 336.67C294.951 336.517 295.401 335.896 295.401 335.329C295.401 334.177 294.582 333.574 293.079 333.574H290.496V340H293.313ZM291.666 336.292V334.456H293.079C293.862 334.456 294.249 334.789 294.249 335.374C294.249 335.932 293.871 336.292 293.07 336.292H291.666ZM291.666 337.147H293.214C294.042 337.147 294.483 337.525 294.483 338.128C294.483 338.749 294.051 339.118 293.223 339.118H291.666V337.147ZM297.212 340H301.721V339.055H298.409V333.574H297.212V340ZM308.011 340V339.055H304.528V337.255H307.579V336.31H304.528V334.519H307.975V333.574H303.358V340H308.011Z" fill="#72987F"/>
<path d="M131.263 102.966C136.046 90.4658 150.513 82.0287 163.615 76.771C181.994 72.8581 197.728 80.2107 206.893 94.8305C213.512 106.73 211.594 118.152 200.561 131.404C191.027 142.856 163.615 143.288 147.085 139.892C131.949 136.783 127.392 113.08 131.263 102.966Z" fill="#72987F"/>
<path d="M171.967 128.774V108.759M171.967 128.774H190.804V108.759L181.385 97.574M171.967 128.774H149.597V108.759M171.967 108.759L181.385 97.574M171.967 108.759H149.597M181.385 97.574H159.605L149.597 108.759" stroke="#FBF8F5" stroke-width="1.44944"/>
<rect x="178.771" y="112.971" width="5.67264" height="15.8023" stroke="#FBF8F5" stroke-width="1.44944"/>
<rect x="153.649" y="112.971" width="5.67264" height="5.67264" stroke="#FBF8F5" stroke-width="1.44944"/>
<path d="M159.743 91.2931L159.26 88.3943" stroke="white" stroke-width="1.27322" stroke-linecap="round" stroke-linejoin="round"/>
<path d="M166.024 90.81L165.541 85.4954" stroke="white" stroke-width="1.27322" stroke-linecap="round" stroke-linejoin="round"/>
<path d="M172.305 90.3268L172.788 83.5628" stroke="white" stroke-width="1.27322" stroke-linecap="round" stroke-linejoin="round"/>
<path d="M177.62 90.81L179.069 86.9448" stroke="white" stroke-width="1.27322" stroke-linecap="round" stroke-linejoin="round"/>
<path d="M183.417 92.2594L184.867 89.3605" stroke="white" stroke-width="1.27322" stroke-linecap="round" stroke-linejoin="round"/>
<path d="M188.249 96.6077L190.181 94.6751" stroke="white" stroke-width="1.27322" stroke-linecap="round" stroke-linejoin="round"/>
<path d="M191.63 101.439L194.046 99.9897" stroke="white" stroke-width="1.27322" stroke-linecap="round" stroke-linejoin="round"/>
<path d="M75.0511 167.944C78.9781 167.944 80.6791 165.718 80.6791 163.156C80.6791 160.888 79.0831 158.62 74.5471 158.62H66.9661V159.313C68.5411 159.376 69.5701 159.586 69.5701 161.056V172.564C69.5701 174.034 68.5411 174.244 66.9661 174.307V175H74.4421V174.307C72.5941 174.202 71.2711 174.034 71.2711 172.564V167.944H75.0511ZM71.2711 159.544H74.3791C77.4451 159.544 78.7891 160.972 78.7891 163.282C78.7891 165.949 77.4661 167.02 74.3371 167.02H71.2711V159.544ZM84.932 159.796L85.037 157.99H84.344L81.656 159.124V159.523L83.336 159.859V173.194C83.336 174.16 82.517 174.265 81.551 174.391V175H86.717V174.391C85.751 174.265 84.932 174.16 84.932 173.194V159.796ZM92.0101 174.097C90.8551 174.097 90.0361 173.446 90.0361 172.123C90.0361 171.22 90.5611 170.716 91.3591 170.464L95.4751 169.204V172.375C94.4041 173.32 93.3961 174.097 92.0101 174.097ZM97.0711 167.629C97.0711 164.941 95.4121 163.807 92.9761 163.807C90.7501 163.807 88.9021 164.815 88.9021 166.432C88.9021 166.81 89.0701 167.251 89.3431 167.44L90.7291 167.293C90.6241 166.978 90.6031 166.705 90.6031 166.453C90.6031 165.277 91.2751 164.773 92.5771 164.773C94.6141 164.773 95.4751 166.222 95.4751 167.839V168.343L91.3381 169.54C89.7841 169.981 88.2931 170.401 88.2931 172.396C88.2931 173.95 89.3851 175.231 91.5271 175.231C93.6061 175.231 94.7611 174.013 95.5381 173.152C95.6011 174.454 96.3571 175.21 97.3651 175.21C98.0581 175.21 98.6671 174.874 99.2761 174.307L99.0661 173.908C98.7511 174.034 98.4151 174.097 98.1421 174.097C97.4491 174.097 97.0711 173.551 97.0711 172.627V167.629ZM109.974 173.194C109.974 174.16 109.155 174.265 108.189 174.391V175H113.355V174.391C112.389 174.265 111.57 174.16 111.57 173.194V167.251C111.57 164.752 110.1 163.807 108.063 163.807C106.278 163.807 104.661 164.962 103.737 165.97L103.842 163.849H103.149L100.461 164.857V165.277L102.141 165.823V173.194C102.141 174.16 101.322 174.265 100.356 174.391V175H105.522V174.391C104.556 174.265 103.737 174.16 103.737 173.194V166.81C104.703 165.928 106.257 165.151 107.538 165.151C109.029 165.151 109.974 165.76 109.974 167.482V173.194ZM124.308 175.021L123.552 176.953C123.048 178.255 122.334 178.612 121.221 178.612H119.898V179.536C120.087 179.956 120.696 180.271 121.41 180.271C122.46 180.271 123.468 179.809 124.308 177.709L129.18 165.55C129.39 165.046 129.516 165.004 130.524 164.626V164.017H126.45V164.626C127.563 164.773 128.046 164.878 128.046 165.382C128.046 165.55 128.004 165.676 127.899 165.949L125.085 173.236L121.851 165.949C121.725 165.676 121.704 165.55 121.704 165.382C121.704 164.878 122.187 164.773 123.3 164.626V164.017H118.575V164.626C119.625 165.025 119.688 165.067 119.919 165.55L124.308 175.021ZM136.579 174.097C133.849 174.097 132.274 172.27 132.274 169.141C132.274 166.852 133.492 164.92 135.844 164.92C138.574 164.92 140.149 166.747 140.149 169.876C140.149 172.165 138.931 174.097 136.579 174.097ZM136.033 175.21C139.057 175.21 141.829 172.921 141.829 169.288C141.829 166.075 139.603 163.807 136.39 163.807C133.366 163.807 130.594 166.096 130.594 169.729C130.594 172.942 132.82 175.21 136.033 175.21ZM151.785 175.21H151.953L155.397 174.454V173.824L154.809 173.74C153.738 173.593 153.486 173.551 153.486 172.837V166.033L153.591 163.807H153.129L149.937 164.017V164.71L150.336 164.731C151.491 164.857 151.89 164.962 151.89 165.76V172.207C150.924 173.089 149.79 173.992 148.404 173.992C147.018 173.992 146.031 173.257 146.031 171.535V166.033L146.136 163.807H145.674L142.503 164.017V164.71L142.881 164.731C144.036 164.857 144.435 164.962 144.435 165.76V171.703C144.435 174.265 145.947 175.21 147.9 175.21C149.769 175.21 150.966 174.097 151.89 173.089L151.785 175.21ZM160.267 163.849H159.553L156.886 164.857V165.277L158.566 165.823V173.194C158.566 174.16 157.747 174.265 156.781 174.391V175H162.367V174.391C160.729 174.223 160.162 174.16 160.162 173.068V167.692C161.548 165.97 162.262 165.445 163.795 165.445H164.446V164.101C164.278 163.933 164.005 163.807 163.522 163.807C162.031 163.807 161.002 165.508 160.162 166.873L160.267 163.849ZM173.873 166.096L173.978 163.849H173.285L170.597 164.857V165.277L172.277 165.823V173.194C172.277 174.16 171.458 174.265 170.492 174.391V175H175.658V174.391C174.692 174.265 173.873 174.16 173.873 173.194V166.096ZM171.689 160.447C171.689 161.14 172.214 161.665 172.907 161.665C173.6 161.665 174.146 161.14 174.146 160.447C174.146 159.754 173.6 159.208 172.907 159.208C172.214 159.208 171.689 159.754 171.689 160.447ZM182.392 164.815C184.534 164.815 185.815 165.865 185.815 167.944V172.396C185.038 173.299 183.778 173.95 182.392 173.95C179.788 173.95 178.486 171.892 178.486 169.435C178.486 166.474 180.061 164.815 182.392 164.815ZM189.301 174.454V173.824L188.713 173.74C187.621 173.593 187.39 173.551 187.39 172.837V159.796L187.495 157.99H186.781L184.135 159.124V159.523L185.815 159.859V164.794C185.143 164.248 184.114 163.807 182.644 163.807C179.515 163.807 176.827 166.201 176.827 170.044C176.827 172.774 178.633 175.21 181.93 175.21C183.463 175.21 184.807 174.433 185.815 173.299L185.71 175.21H185.857L189.301 174.454ZM195.6 163.807C192.366 163.807 190.203 166.306 190.203 169.876C190.203 172.669 192.072 175.21 195.558 175.21C198.183 175.21 199.611 173.782 200.199 172.165L199.674 171.976C198.729 173.173 197.763 173.866 195.957 173.866C193.248 173.866 191.463 171.829 191.673 168.7H200.157V168.196C200.157 165.697 198.603 163.807 195.6 163.807ZM195.18 164.878C197.28 164.878 198.414 166.138 198.414 167.797H191.82C192.177 166.075 193.458 164.878 195.18 164.878ZM205.42 174.097C204.265 174.097 203.446 173.446 203.446 172.123C203.446 171.22 203.971 170.716 204.769 170.464L208.885 169.204V172.375C207.814 173.32 206.806 174.097 205.42 174.097ZM210.481 167.629C210.481 164.941 208.822 163.807 206.386 163.807C204.16 163.807 202.312 164.815 202.312 166.432C202.312 166.81 202.48 167.251 202.753 167.44L204.139 167.293C204.034 166.978 204.013 166.705 204.013 166.453C204.013 165.277 204.685 164.773 205.987 164.773C208.024 164.773 208.885 166.222 208.885 167.839V168.343L204.748 169.54C203.194 169.981 201.703 170.401 201.703 172.396C201.703 173.95 202.795 175.231 204.937 175.231C207.016 175.231 208.171 174.013 208.948 173.152C209.011 174.454 209.767 175.21 210.775 175.21C211.468 175.21 212.077 174.874 212.686 174.307L212.476 173.908C212.161 174.034 211.825 174.097 211.552 174.097C210.859 174.097 210.481 173.551 210.481 172.627V167.629ZM216.79 159.796L216.895 157.99H216.202L213.514 159.124V159.523L215.194 159.859V173.194C215.194 174.16 214.375 174.265 213.409 174.391V175H218.575V174.391C217.609 174.265 216.79 174.16 216.79 173.194V159.796ZM226.444 159.859V173.194C226.444 174.16 225.625 174.265 224.659 174.391V175H229.804V174.391C228.838 174.265 228.04 174.16 228.04 173.194V166.81C229.006 165.928 230.56 165.151 231.841 165.151C233.332 165.151 234.277 165.76 234.277 167.482V173.194C234.277 174.16 233.458 174.265 232.492 174.391V175H237.658V174.391C236.692 174.265 235.873 174.16 235.873 173.194V167.251C235.873 164.752 234.403 163.807 232.366 163.807C230.581 163.807 228.964 164.962 228.04 165.97V159.796L228.145 157.99H227.431L224.764 159.124V159.523L226.444 159.859ZM244.636 174.097C241.906 174.097 240.331 172.27 240.331 169.141C240.331 166.852 241.549 164.92 243.901 164.92C246.631 164.92 248.206 166.747 248.206 169.876C248.206 172.165 246.988 174.097 244.636 174.097ZM244.09 175.21C247.114 175.21 249.886 172.921 249.886 169.288C249.886 166.075 247.66 163.807 244.447 163.807C241.423 163.807 238.651 166.096 238.651 169.729C238.651 172.942 240.877 175.21 244.09 175.21ZM261.984 166.033C261.648 164.584 260.619 163.807 258.981 163.807C257.07 163.807 255.705 164.962 254.781 165.97L254.886 163.849H254.193L251.505 164.857V165.277L253.185 165.823V173.194C253.185 174.16 252.366 174.265 251.4 174.391V175H256.566V174.391C255.6 174.265 254.781 174.16 254.781 173.194V166.81C255.747 165.928 257.049 165.151 258.33 165.151C259.821 165.151 260.493 165.844 260.493 167.482V173.194C260.493 174.16 259.674 174.265 258.708 174.391V175H263.874V174.391C262.908 174.265 262.089 174.16 262.089 173.194V166.81C263.055 165.928 264.357 165.151 265.638 165.151C267.129 165.151 267.801 165.844 267.801 167.482V173.194C267.801 174.16 266.982 174.265 266.016 174.391V175H271.182V174.391C270.216 174.265 269.397 174.16 269.397 173.194V167.125C269.397 164.962 268.305 163.807 266.289 163.807C264.378 163.807 262.908 165.025 261.984 166.033ZM277.569 163.807C274.335 163.807 272.172 166.306 272.172 169.876C272.172 172.669 274.041 175.21 277.527 175.21C280.152 175.21 281.58 173.782 282.168 172.165L281.643 171.976C280.698 173.173 279.732 173.866 277.926 173.866C275.217 173.866 273.432 171.829 273.642 168.7H282.126V168.196C282.126 165.697 280.572 163.807 277.569 163.807ZM277.149 164.878C279.249 164.878 280.383 166.138 280.383 167.797H273.789C274.146 166.075 275.427 164.878 277.149 164.878Z" fill="#2D2828"/>
<line x1="33" y1="196.75" x2="313" y2="196.75" stroke="#E0DFDD" stroke-width="0.5"/>
</g>
<defs>
<filter id="filter0_d" x="0.98515" y="0.482175" width="344.032" height="384.536" filterUnits="userSpaceOnUse" color-interpolation-filters="sRGB">
<feFlood flood-opacity="0" result="BackgroundImageFix"/>
<feColorMatrix in="SourceAlpha" type="matrix" values="0 0 0 0 0 0 0 0 0 0 0 0 0 0 0 0 0 0 127 0"/>
<feOffset/>
<feGaussianBlur stdDeviation="6.00889"/>
<feColorMatrix type="matrix" values="0 0 0 0 0 0 0 0 0 0 0 0 0 0 0 0 0 0 0.05 0"/>
<feBlend mode="normal" in2="BackgroundImageFix" result="effect1_dropShadow"/>
<feBlend mode="normal" in="SourceGraphic" in2="effect1_dropShadow" result="shape"/>
</filter>
<filter id="filter1_d" x="0.982221" y="0.982221" width="344.036" height="440.036" filterUnits="userSpaceOnUse" color-interpolation-filters="sRGB">
<feFlood flood-opacity="0" result="BackgroundImageFix"/>
<feColorMatrix in="SourceAlpha" type="matrix" values="0 0 0 0 0 0 0 0 0 0 0 0 0 0 0 0 0 0 127 0"/>
<feOffset/>
<feGaussianBlur stdDeviation="6.00889"/>
<feColorMatrix type="matrix" values="0 0 0 0 0 0 0 0 0 0 0 0 0 0 0 0 0 0 0.2 0"/>
<feBlend mode="normal" in2="BackgroundImageFix" result="effect1_dropShadow"/>
<feBlend mode="normal" in="SourceGraphic" in2="effect1_dropShadow" result="shape"/>
</filter>
</defs>
</svg>
