<svg width="281" height="377" viewBox="0 0 281 377" fill="none" xmlns="http://www.w3.org/2000/svg">
<rect x="44.1707" y="2.27302" width="191.851" height="373.098" rx="21.6917" stroke="#DCD9D7" stroke-width="2.89223"/>
<rect x="61.0422" y="19.1443" width="26.0301" height="3.85631" rx="1.92815" fill="#DCD9D7"/>
<rect x="111.174" y="362.355" width="57.8446" height="3.85631" rx="1.92815" fill="#DCD9D7"/>
<rect x="194.085" y="19.1443" width="23.1378" height="3.85631" rx="1.92815" fill="#DCD9D7"/>
<g filter="url(#filter0_d)">
<rect x="12.193" y="47.1836" width="255.807" height="283.276" rx="12.0178" fill="white"/>
</g>
<path d="M117.447 111.264V105.651H116.51V108.742C116.51 110.092 115.874 110.672 115.026 110.672C114.144 110.672 113.709 110.125 113.709 109.088V105.651H112.772V109.266C112.772 110.628 113.486 111.398 114.758 111.398C115.606 111.398 116.276 110.951 116.543 110.248V111.264H117.447ZM120.101 105.651H119.208V111.264H120.134V108.173C120.134 106.822 120.815 106.275 121.674 106.275C122.556 106.275 123.014 106.811 123.014 107.849V111.264H123.94V107.648C123.94 106.309 123.192 105.517 121.931 105.517C121.072 105.517 120.369 105.985 120.101 106.677V105.651ZM128.255 110.438C127.898 110.549 127.652 110.572 127.44 110.572C126.927 110.572 126.626 110.371 126.626 109.779V106.354H128.11V105.651H126.637V104.222H125.722V105.651H124.896V106.354H125.722V109.824C125.722 110.862 126.246 111.353 127.273 111.353C127.518 111.353 127.842 111.319 128.255 111.197V110.438ZM129.473 104.479H130.522V103.352H129.473V104.479ZM129.54 111.264H130.466V105.651H129.54V111.264ZM133.153 111.264V103.05H132.226V111.264H133.153ZM138.035 106.677V103.05H137.109V111.264H138.035V108.173C138.035 106.822 138.716 106.275 139.575 106.275C140.457 106.275 140.914 106.811 140.914 107.849V111.264H141.841V107.648C141.841 106.309 141.093 105.517 139.832 105.517C138.973 105.517 138.303 105.963 138.035 106.677ZM148.466 108.463C148.466 106.655 147.35 105.517 145.799 105.517C144.247 105.517 143.131 106.655 143.131 108.463C143.131 110.27 144.247 111.398 145.799 111.398C147.35 111.398 148.466 110.27 148.466 108.463ZM144.047 108.463C144.047 107.112 144.705 106.264 145.799 106.264C146.892 106.264 147.551 107.112 147.551 108.463C147.551 109.813 146.892 110.65 145.799 110.65C144.705 110.65 144.047 109.813 144.047 108.463ZM154.191 106.722C153.945 105.974 153.432 105.517 152.483 105.517C151.669 105.517 150.977 105.963 150.709 106.677V105.651H149.816V111.264H150.743V108.173C150.743 106.878 151.379 106.275 152.227 106.275C153.075 106.275 153.443 106.8 153.443 107.849V111.264H154.38V108.173C154.38 106.878 155.017 106.275 155.854 106.275C156.69 106.275 157.07 106.8 157.07 107.849V111.264H158.007V107.648C158.007 106.331 157.371 105.517 156.077 105.517C155.251 105.517 154.537 105.963 154.191 106.722ZM164.315 109.612H163.445C163.21 110.293 162.753 110.661 161.994 110.661C160.923 110.661 160.242 109.947 160.197 108.652H164.349V108.284C164.349 106.845 163.601 105.517 161.938 105.517C160.443 105.517 159.293 106.655 159.293 108.485C159.293 110.293 160.409 111.398 161.994 111.398C163.088 111.398 164.058 110.806 164.315 109.612ZM161.938 106.264C162.942 106.264 163.422 107.012 163.445 107.983H160.231C160.387 106.833 161.057 106.264 161.938 106.264Z" fill="#68615F"/>
<path d="M31.0591 263.203H32.0188V256.038H34.9983V255.235H28.0907V256.038H31.0591V263.203ZM37.1433 258.616V254.989H36.2171V263.203H37.1433V260.112C37.1433 258.761 37.8241 258.215 38.6833 258.215C39.5649 258.215 40.0225 258.75 40.0225 259.788V263.203H40.9487V259.587C40.9487 258.248 40.201 257.456 38.94 257.456C38.0807 257.456 37.4112 257.902 37.1433 258.616ZM47.2613 261.551H46.3909C46.1565 262.232 45.699 262.6 44.9402 262.6C43.8689 262.6 43.1882 261.886 43.1435 260.591H47.2948V260.223C47.2948 258.784 46.5471 257.456 44.8844 257.456C43.389 257.456 42.2396 258.594 42.2396 260.424C42.2396 262.232 43.3555 263.337 44.9402 263.337C46.0338 263.337 47.0047 262.745 47.2613 261.551ZM44.8844 258.203C45.8887 258.203 46.3686 258.951 46.3909 259.922H43.177C43.3332 258.772 44.0028 258.203 44.8844 258.203ZM56.5731 263.203H57.5775L54.3412 255.235H53.2588L50.0337 263.203H50.9934L51.875 260.982H55.6915L56.5731 263.203ZM53.7721 256.195H53.8056L55.3791 260.19H52.1875L53.7721 256.195ZM59.4295 257.59H58.5367V263.203H59.463V260.112C59.463 258.761 60.1437 258.215 61.0029 258.215C61.8845 258.215 62.3421 258.75 62.3421 259.788V263.203H63.2683V259.587C63.2683 258.248 62.5206 257.456 61.2596 257.456C60.4003 257.456 59.6973 257.924 59.4295 258.616V257.59ZM65.8649 257.59H64.9721V263.203H65.8983V260.112C65.8983 258.761 66.5791 258.215 67.4383 258.215C68.3199 258.215 68.7775 258.75 68.7775 259.788V263.203H69.7037V259.587C69.7037 258.248 68.956 257.456 67.695 257.456C66.8357 257.456 66.1327 257.924 65.8649 258.616V257.59ZM76.0163 261.551H75.1459C74.9115 262.232 74.454 262.6 73.6952 262.6C72.6239 262.6 71.9431 261.886 71.8985 260.591H76.0498V260.223C76.0498 258.784 75.3021 257.456 73.6394 257.456C72.144 257.456 70.9946 258.594 70.9946 260.424C70.9946 262.232 72.1105 263.337 73.6952 263.337C74.7888 263.337 75.7596 262.745 76.0163 261.551ZM73.6394 258.203C74.6437 258.203 75.1236 258.951 75.1459 259.922H71.932C72.0882 258.772 72.7578 258.203 73.6394 258.203ZM77.5695 263.203L79.1987 260.949L80.8615 263.203H81.9439L79.779 260.268L81.7654 257.59H80.761L79.2768 259.654L77.7815 257.59H76.6879L78.7077 260.312L76.5763 263.203H77.5695Z" fill="#68615F"/>
<path d="M239.309 256.141C238.044 257.765 236.901 259.823 236.864 262.203H237.732C237.751 259.918 238.601 257.982 240.206 256.037V255.461H235.173V256.141H239.309ZM245.93 257.312C245.93 256.311 245.212 255.347 243.796 255.347C242.38 255.347 241.567 256.348 241.501 257.538H242.266C242.323 256.726 242.861 256.027 243.786 256.027C244.787 256.027 245.156 256.669 245.156 257.312C245.156 258.095 244.429 258.596 243.532 259.172C242.531 259.795 241.369 260.635 241.369 261.834V262.203H245.996V261.523H242.238C242.238 260.909 243.05 260.343 243.871 259.795C244.882 259.143 245.93 258.577 245.93 257.312ZM246.762 256.821C246.762 257.633 247.414 258.294 248.226 258.294C249.047 258.294 249.708 257.633 249.708 256.821C249.708 256.008 249.047 255.347 248.226 255.347C247.414 255.347 246.762 256.008 246.762 256.821ZM251.512 255.461L247.14 262.193H247.82L252.192 255.461H251.512ZM247.338 256.821C247.338 256.311 247.744 255.905 248.226 255.905C248.726 255.905 249.123 256.311 249.123 256.821C249.123 257.34 248.726 257.736 248.226 257.736C247.744 257.736 247.338 257.34 247.338 256.821ZM249.746 260.852C249.746 261.674 250.407 262.326 251.219 262.326C252.041 262.326 252.692 261.674 252.692 260.852C252.692 260.04 252.041 259.37 251.219 259.37C250.407 259.37 249.746 260.04 249.746 260.852ZM250.332 260.852C250.332 260.343 250.728 259.937 251.219 259.937C251.72 259.937 252.116 260.343 252.116 260.852C252.116 261.362 251.72 261.759 251.219 261.759C250.728 261.759 250.332 261.362 250.332 260.852Z" fill="#68615F"/>
<path d="M80.2053 76.6166H84.3807V92.2191H86.0288V72.4962H85.1773C84.7103 74.5289 83.5566 75.4904 80.2053 75.4904V76.6166ZM90.9677 76.6166H95.143V92.2191H96.7912V72.4962H95.9396C95.4726 74.5289 94.3189 75.4904 90.9677 75.4904V76.6166ZM119.523 81.2314C118.946 79.3086 117.71 78.1549 115.375 78.1549C113.369 78.1549 111.639 79.2536 110.98 81.1216V78.4845H109.469V92.2191H111.062V84.5827C111.062 81.149 112.793 79.5009 115.073 79.5009C117.353 79.5009 118.314 80.9018 118.314 83.6762V92.2191H119.935V84.5827C119.935 81.149 121.665 79.5009 123.945 79.5009C126.198 79.5009 127.186 80.9018 127.186 83.6762V92.2191H128.807V83.3466C128.807 80.1601 127.324 78.1549 124.137 78.1549C122.105 78.1549 120.347 79.2536 119.523 81.2314ZM144.291 85.3518C144.291 80.9567 141.627 78.1549 138.001 78.1549C134.375 78.1549 131.711 80.9567 131.711 85.3518C131.711 89.7744 134.375 92.5487 138.001 92.5487C141.627 92.5487 144.291 89.7744 144.291 85.3518ZM133.276 85.3518C133.276 81.8083 135.062 79.5558 138.001 79.5558C140.94 79.5558 142.726 81.8083 142.726 85.3518C142.726 88.9228 140.94 91.1478 138.001 91.1478C135.062 91.1478 133.276 88.9228 133.276 85.3518ZM148.886 78.4845H147.375V92.2191H148.969V84.5827C148.969 80.9842 150.809 79.5009 153.116 79.5009C155.479 79.5009 156.715 80.9293 156.715 83.6762V92.2191H158.308V83.3466C158.308 80.0777 156.495 78.1549 153.446 78.1549C151.303 78.1549 149.518 79.3086 148.886 81.1216V78.4845ZM168.197 90.6534C167.263 90.9555 166.604 91.0379 166.082 91.0379C164.791 91.0379 163.994 90.4886 163.994 88.9503V79.7756H167.813V78.4845H164.022V74.941H162.429V78.4845H160.341V79.7756H162.429V88.8129C162.429 91.2577 163.665 92.4389 165.972 92.4389C166.412 92.4389 167.208 92.3839 168.197 92.0543V90.6534ZM172.604 81.1216V72.0018H171.011V92.2191H172.604V84.5827C172.604 80.9842 174.444 79.5009 176.752 79.5009C179.114 79.5009 180.35 80.9293 180.35 83.6762V92.2191H181.943V83.3466C181.943 80.0777 180.13 78.1549 177.081 78.1549C174.939 78.1549 173.263 79.2536 172.604 81.1216ZM184.718 88.2086C184.938 91.1203 187.328 92.5487 190.432 92.5487C193.426 92.5487 195.568 90.7632 195.568 88.4833C195.568 86.2858 194.25 85.3243 192.107 84.8574L189.36 84.308C187.657 83.9784 186.778 83.429 186.778 82.1104C186.778 80.5722 188.069 79.5009 190.129 79.5009C192.245 79.5009 193.536 80.3799 193.728 81.9731H195.239C194.964 79.4185 193.096 78.1549 190.129 78.1549C187.218 78.1549 185.295 79.9678 185.295 82.1379C185.295 84.5003 186.861 85.2969 189.058 85.7364L191.475 86.2308C193.371 86.6154 194.057 87.412 194.057 88.5108C194.057 90.1864 192.547 91.2028 190.432 91.2028C188.371 91.2028 186.449 90.3512 186.256 88.2086H184.718Z" fill="#73A185"/>
<path d="M29.6307 288.955V285.73H31.7509L33.8154 288.955H34.8979L32.7106 285.585C33.648 285.373 34.5519 284.648 34.5519 283.353C34.5519 281.824 33.5364 280.987 31.7509 280.987H28.6821V288.955H29.6307ZM29.6307 284.927V281.791H31.6951C32.9003 281.791 33.5811 282.349 33.5811 283.353C33.5811 284.391 32.9003 284.927 31.6951 284.927H29.6307ZM41.0294 286.154C41.0294 284.346 39.9135 283.208 38.3623 283.208C36.8112 283.208 35.6952 284.346 35.6952 286.154C35.6952 287.962 36.8112 289.089 38.3623 289.089C39.9135 289.089 41.0294 287.962 41.0294 286.154ZM36.6103 286.154C36.6103 284.804 37.2687 283.956 38.3623 283.956C39.456 283.956 40.1144 284.804 40.1144 286.154C40.1144 287.504 39.456 288.341 38.3623 288.341C37.2687 288.341 36.6103 287.504 36.6103 286.154ZM43.2728 283.342H42.3801V288.955H43.3063V285.864C43.3063 284.514 43.987 283.967 44.8463 283.967C45.7279 283.967 46.1854 284.503 46.1854 285.54V288.955H47.1116V285.34C47.1116 284 46.3639 283.208 45.1029 283.208C44.2437 283.208 43.5406 283.677 43.2728 284.369V283.342ZM48.4025 286.154C48.4025 287.951 49.485 289.089 51.0473 289.089C52.2972 289.089 53.123 288.386 53.3015 287.181H52.4199C52.2637 287.929 51.8061 288.341 51.0473 288.341C49.9425 288.341 49.3176 287.471 49.3176 286.154C49.3176 284.837 49.9425 283.956 51.0473 283.956C51.8061 283.956 52.2637 284.369 52.4199 285.116H53.3015C53.123 283.922 52.2972 283.208 51.0473 283.208C49.485 283.208 48.4025 284.358 48.4025 286.154ZM59.2167 287.304H58.3462C58.1119 287.984 57.6544 288.353 56.8955 288.353C55.8242 288.353 55.1435 287.638 55.0989 286.344H59.2501V285.976C59.2501 284.536 58.5025 283.208 56.8397 283.208C55.3444 283.208 54.1949 284.346 54.1949 286.177C54.1949 287.984 55.3109 289.089 56.8955 289.089C57.9891 289.089 58.96 288.498 59.2167 287.304ZM56.8397 283.956C57.8441 283.956 58.3239 284.703 58.3462 285.674H55.1323C55.2886 284.525 55.9581 283.956 56.8397 283.956ZM60.171 287.292C60.2715 288.498 61.2758 289.089 62.615 289.089C63.876 289.089 64.8022 288.364 64.8022 287.382C64.8022 286.478 64.2665 286.031 63.3515 285.853L62.2355 285.641C61.5883 285.518 61.2535 285.317 61.2535 284.837C61.2535 284.291 61.7334 283.922 62.481 283.922C63.251 283.922 63.7532 284.257 63.8202 284.826H64.6794C64.5678 283.766 63.7755 283.208 62.481 283.208C61.2423 283.208 60.3942 283.945 60.3942 284.893C60.3942 285.875 61.0526 286.243 61.9565 286.411L62.9497 286.612C63.6639 286.746 63.9318 287.013 63.9318 287.426C63.9318 288.029 63.3738 288.386 62.6038 288.386C61.845 288.386 61.1308 288.062 61.0638 287.292H60.171ZM67.6787 288.955H68.7165L70.8703 283.342H69.944L68.2143 288.04H68.192L66.3842 283.342H65.4357L67.6787 288.955ZM75.2696 288.955H76.1958C76.0842 288.587 76.0619 288.196 76.0619 287.783V285.206C76.0619 283.855 75.2138 283.208 73.8523 283.208C72.6583 283.208 71.7655 283.855 71.654 284.994H72.5467C72.6137 284.346 73.0824 283.956 73.83 283.956C74.6 283.956 75.1468 284.335 75.1468 285.228V285.552L73.339 285.786C72.2008 285.92 71.3973 286.389 71.3973 287.471C71.3973 288.509 72.2342 289.078 73.2163 289.078C74.1536 289.078 74.9236 288.665 75.1692 288.007C75.1692 288.274 75.2026 288.643 75.2696 288.955ZM73.406 288.375C72.7029 288.375 72.3347 287.973 72.3347 287.449C72.3347 286.69 72.915 286.511 73.618 286.411L75.1468 286.243V286.746C75.1468 287.828 74.2764 288.375 73.406 288.375ZM78.6928 288.955V280.742H77.7666V288.955H78.6928ZM81.3793 288.955V280.742H80.4531V288.955H81.3793ZM87.7485 287.304H86.878C86.6437 287.984 86.1861 288.353 85.4273 288.353C84.356 288.353 83.6753 287.638 83.6307 286.344H87.7819V285.976C87.7819 284.536 87.0343 283.208 85.3715 283.208C83.8762 283.208 82.7267 284.346 82.7267 286.177C82.7267 287.984 83.8427 289.089 85.4273 289.089C86.5209 289.089 87.4918 288.498 87.7485 287.304ZM85.3715 283.956C86.3759 283.956 86.8557 284.703 86.878 285.674H83.6641C83.8204 284.525 84.4899 283.956 85.3715 283.956ZM88.7028 287.292C88.8033 288.498 89.8076 289.089 91.1468 289.089C92.4078 289.089 93.334 288.364 93.334 287.382C93.334 286.478 92.7983 286.031 91.8833 285.853L90.7673 285.641C90.1201 285.518 89.7853 285.317 89.7853 284.837C89.7853 284.291 90.2652 283.922 91.0128 283.922C91.7828 283.922 92.285 284.257 92.352 284.826H93.2112C93.0996 283.766 92.3073 283.208 91.0128 283.208C89.7741 283.208 88.926 283.945 88.926 284.893C88.926 285.875 89.5844 286.243 90.4883 286.411L91.4815 286.612C92.1957 286.746 92.4636 287.013 92.4636 287.426C92.4636 288.029 91.9056 288.386 91.1356 288.386C90.3768 288.386 89.6626 288.062 89.5956 287.292H88.7028Z" fill="#68615F"/>
<path d="M237.628 281.958C236.373 281.958 235.409 282.657 235.409 283.818C235.409 284.583 235.863 285.131 236.524 285.395C235.806 285.528 235.107 286.179 235.107 286.972C235.107 288.134 236.099 288.927 237.628 288.927C239.177 288.927 240.159 288.134 240.159 286.972C240.159 286.179 239.46 285.528 238.743 285.395C239.413 285.131 239.857 284.583 239.857 283.818C239.857 282.657 238.894 281.958 237.628 281.958ZM237.628 285.046C236.826 285.046 236.155 284.649 236.155 283.818C236.155 282.997 236.826 282.6 237.628 282.6C238.441 282.6 239.111 282.997 239.111 283.818C239.111 284.649 238.441 285.046 237.628 285.046ZM237.628 288.275C236.571 288.275 235.919 287.765 235.919 286.972C235.919 286.189 236.571 285.698 237.628 285.698C238.705 285.698 239.347 286.189 239.347 286.972C239.347 287.765 238.705 288.275 237.628 288.275ZM243.683 288.927C245.278 288.927 246.308 287.463 246.308 285.443C246.308 283.422 245.278 281.958 243.683 281.958C242.087 281.958 241.058 283.422 241.058 285.443C241.058 287.463 242.087 288.927 243.683 288.927ZM243.683 288.228C242.474 288.228 241.86 287.095 241.86 285.443C241.86 283.79 242.474 282.657 243.683 282.657C244.891 282.657 245.505 283.79 245.505 285.443C245.505 287.095 244.891 288.228 243.683 288.228ZM246.762 283.431C246.762 284.243 247.414 284.904 248.226 284.904C249.047 284.904 249.708 284.243 249.708 283.431C249.708 282.619 249.047 281.958 248.226 281.958C247.414 281.958 246.762 282.619 246.762 283.431ZM251.512 282.072L247.14 288.804H247.82L252.192 282.072H251.512ZM247.338 283.431C247.338 282.921 247.744 282.515 248.226 282.515C248.726 282.515 249.123 282.921 249.123 283.431C249.123 283.951 248.726 284.347 248.226 284.347C247.744 284.347 247.338 283.951 247.338 283.431ZM249.746 287.463C249.746 288.285 250.407 288.936 251.219 288.936C252.041 288.936 252.692 288.285 252.692 287.463C252.692 286.651 252.041 285.981 251.219 285.981C250.407 285.981 249.746 286.651 249.746 287.463ZM250.332 287.463C250.332 286.953 250.728 286.547 251.219 286.547C251.72 286.547 252.116 286.953 252.116 287.463C252.116 287.973 251.72 288.37 251.219 288.37C250.728 288.37 250.332 287.973 250.332 287.463Z" fill="#68615F"/>
<path d="M34.0498 314.708H35.2103L31.5277 310.244L34.9983 306.74H33.8377L29.6418 311.07V306.74H28.6821V314.708H29.6418V312.152L30.8582 310.913L34.0498 314.708ZM36.2482 307.923H37.2972V306.796H36.2482V307.923ZM36.3152 314.708H37.2414V309.094H36.3152V314.708ZM39.8945 309.094H39.0017V314.708H39.928V311.616C39.928 310.266 40.6087 309.719 41.468 309.719C42.3495 309.719 42.8071 310.255 42.8071 311.293V314.708H43.7333V311.092C43.7333 309.753 42.9856 308.96 41.7246 308.96C40.8653 308.96 40.1623 309.429 39.8945 310.121V309.094ZM49.3652 314.35C49.3652 315.522 48.7403 316.114 47.6355 316.114C46.8767 316.114 46.2852 315.89 46.0955 315.187H45.1581C45.3813 316.281 46.2964 316.828 47.6467 316.828C49.142 316.828 50.3026 316.069 50.3026 314.283V309.094H49.3987V310.076C49.1309 309.541 48.4836 308.96 47.5016 308.96C46.062 308.96 45.0131 310.088 45.0131 311.773C45.0131 313.525 46.062 314.607 47.5016 314.607C48.4836 314.607 49.1085 314.071 49.3652 313.525V314.35ZM49.4322 311.907C49.4322 313.067 48.7068 313.871 47.669 313.871C46.5754 313.871 45.9281 313.011 45.9281 311.773C45.9281 310.523 46.5754 309.686 47.669 309.686C48.7068 309.686 49.4322 310.478 49.4322 311.639V311.907ZM60.5029 314.708H61.5965L63.8395 306.74H62.8798L61.0608 313.513H61.0385L59.2307 306.74H58.2152L56.4185 313.513H56.3962L54.5661 306.74H53.5506L55.7936 314.708H56.8761L58.6839 308.012H58.7062L60.5029 314.708ZM69.0796 313.056H68.2092C67.9748 313.737 67.5173 314.105 66.7585 314.105C65.6872 314.105 65.0065 313.391 64.9618 312.096H69.1131V311.728C69.1131 310.288 68.3654 308.96 66.7027 308.96C65.2073 308.96 64.0579 310.099 64.0579 311.929C64.0579 313.737 65.1738 314.841 66.7585 314.841C67.8521 314.841 68.823 314.25 69.0796 313.056ZM66.7027 309.708C67.707 309.708 68.1869 310.456 68.2092 311.427H64.9953C65.1515 310.277 65.8211 309.708 66.7027 309.708ZM70.034 313.045C70.1344 314.25 71.1388 314.841 72.4779 314.841C73.7389 314.841 74.6652 314.116 74.6652 313.134C74.6652 312.23 74.1295 311.784 73.2144 311.605L72.0985 311.393C71.4513 311.27 71.1165 311.07 71.1165 310.59C71.1165 310.043 71.5963 309.675 72.344 309.675C73.114 309.675 73.6162 310.009 73.6831 310.579H74.5424C74.4308 309.518 73.6385 308.96 72.344 308.96C71.1053 308.96 70.2572 309.697 70.2572 310.646C70.2572 311.628 70.9156 311.996 71.8195 312.163L72.8127 312.364C73.5269 312.498 73.7947 312.766 73.7947 313.179C73.7947 313.781 73.2368 314.138 72.4668 314.138C71.7079 314.138 70.9937 313.815 70.9268 313.045H70.034ZM78.656 313.882C78.2989 313.993 78.0534 314.016 77.8414 314.016C77.3281 314.016 77.0268 313.815 77.0268 313.223V309.797H78.5109V309.094H77.0379V307.666H76.1228V309.094H75.2971V309.797H76.1228V313.268C76.1228 314.306 76.6473 314.797 77.674 314.797C77.9195 314.797 78.2431 314.763 78.656 314.641V313.882ZM83.0633 311.203C83.0633 309.53 83.8333 307.889 84.8599 306.494H83.956C82.8289 307.878 82.137 309.485 82.137 311.203C82.137 312.933 82.8289 314.529 83.956 315.913H84.8599C83.7663 314.518 83.0633 312.877 83.0633 311.203ZM85.5697 308.559H87.2436V314.708H88.2033V306.706H87.6118C87.4221 307.532 86.9311 307.911 85.5697 307.911V308.559ZM95.5353 314.708C97.2985 314.708 98.3363 313.938 98.3363 312.476C98.3363 311.538 97.7226 310.813 96.7406 310.567C97.4213 310.367 97.9792 309.608 97.9792 308.871C97.9792 307.476 96.9526 306.74 95.1782 306.74H92.3772V314.708H95.5353ZM93.3258 310.255V307.521H95.2452C96.4281 307.521 97.0084 308.001 97.0084 308.882C97.0084 309.753 96.4169 310.255 95.234 310.255H93.3258ZM93.3258 311.003H95.4684C96.6848 311.003 97.3766 311.561 97.3766 312.476C97.3766 313.391 96.7071 313.926 95.4907 313.926H93.3258V311.003ZM102.497 306.74H99.6736V314.708H102.497C104.807 314.708 106.38 313.123 106.38 310.724C106.38 308.336 104.807 306.74 102.497 306.74ZM102.497 307.543C104.349 307.543 105.387 308.804 105.387 310.724C105.387 312.654 104.349 313.904 102.497 313.904H100.622V307.543H102.497ZM107.375 315.913H108.279C109.406 314.529 110.098 312.933 110.098 311.203C110.098 309.485 109.406 307.878 108.279 306.494H107.375C108.402 307.889 109.172 309.53 109.172 311.203C109.172 312.877 108.469 314.518 107.375 315.913Z" fill="#68615F"/>
<path d="M237.628 307.711C236.373 307.711 235.409 308.409 235.409 309.571C235.409 310.336 235.863 310.883 236.524 311.148C235.806 311.28 235.107 311.931 235.107 312.725C235.107 313.886 236.099 314.679 237.628 314.679C239.177 314.679 240.159 313.886 240.159 312.725C240.159 311.931 239.46 311.28 238.743 311.148C239.413 310.883 239.857 310.336 239.857 309.571C239.857 308.409 238.894 307.711 237.628 307.711ZM237.628 310.798C236.826 310.798 236.155 310.402 236.155 309.571C236.155 308.749 236.826 308.353 237.628 308.353C238.441 308.353 239.111 308.749 239.111 309.571C239.111 310.402 238.441 310.798 237.628 310.798ZM237.628 314.028C236.571 314.028 235.919 313.518 235.919 312.725C235.919 311.941 236.571 311.45 237.628 311.45C238.705 311.45 239.347 311.941 239.347 312.725C239.347 313.518 238.705 314.028 237.628 314.028ZM243.89 308.39C244.693 308.39 245.156 308.787 245.316 309.552H246.062C245.911 308.419 245.099 307.711 243.9 307.711C242.351 307.711 241.237 309.174 241.237 311.308C241.237 313.376 242.304 314.679 243.796 314.679C245.203 314.679 246.128 313.697 246.128 312.337C246.128 311.044 245.231 310.062 243.9 310.062C242.871 310.062 242.21 310.732 241.992 311.431C241.992 309.684 242.644 308.39 243.89 308.39ZM243.796 314.018C242.852 314.018 242.21 313.31 242.21 312.366C242.21 311.412 242.852 310.723 243.796 310.723C244.759 310.723 245.363 311.412 245.363 312.366C245.363 313.31 244.759 314.018 243.796 314.018ZM246.762 309.184C246.762 309.996 247.414 310.657 248.226 310.657C249.047 310.657 249.708 309.996 249.708 309.184C249.708 308.372 249.047 307.711 248.226 307.711C247.414 307.711 246.762 308.372 246.762 309.184ZM251.512 307.824L247.14 314.556H247.82L252.192 307.824H251.512ZM247.338 309.184C247.338 308.674 247.744 308.268 248.226 308.268C248.726 308.268 249.123 308.674 249.123 309.184C249.123 309.703 248.726 310.1 248.226 310.1C247.744 310.1 247.338 309.703 247.338 309.184ZM249.746 313.216C249.746 314.037 250.407 314.689 251.219 314.689C252.041 314.689 252.692 314.037 252.692 313.216C252.692 312.404 252.041 311.733 251.219 311.733C250.407 311.733 249.746 312.404 249.746 313.216ZM250.332 313.216C250.332 312.706 250.728 312.3 251.219 312.3C251.72 312.3 252.116 312.706 252.116 313.216C252.116 313.726 251.72 314.122 251.219 314.122C250.728 314.122 250.332 313.726 250.332 313.216Z" fill="#68615F"/>
<path d="M27.6443 271.229H253.407" stroke="#E0DDDA" stroke-width="0.214603"/>
<path d="M34.0498 236.592H35.2103L31.5277 232.128L34.9983 228.624H33.8377L29.6418 232.954V228.624H28.6821V236.592H29.6418V234.036L30.8582 232.798L34.0498 236.592ZM36.2482 229.807H37.2972V228.68H36.2482V229.807ZM36.3152 236.592H37.2414V230.979H36.3152V236.592ZM39.8945 230.979H39.0017V236.592H39.928V233.501C39.928 232.15 40.6087 231.604 41.468 231.604C42.3495 231.604 42.8071 232.139 42.8071 233.177V236.592H43.7333V232.976C43.7333 231.637 42.9856 230.845 41.7246 230.845C40.8653 230.845 40.1623 231.314 39.8945 232.005V230.979ZM49.3652 236.235C49.3652 237.407 48.7403 237.998 47.6355 237.998C46.8767 237.998 46.2852 237.775 46.0955 237.072H45.1581C45.3813 238.165 46.2964 238.712 47.6467 238.712C49.142 238.712 50.3026 237.953 50.3026 236.168V230.979H49.3987V231.961C49.1309 231.425 48.4836 230.845 47.5016 230.845C46.062 230.845 45.0131 231.972 45.0131 233.657C45.0131 235.409 46.062 236.491 47.5016 236.491C48.4836 236.491 49.1085 235.956 49.3652 235.409V236.235ZM49.4322 233.791C49.4322 234.951 48.7068 235.755 47.669 235.755C46.5754 235.755 45.9281 234.896 45.9281 233.657C45.9281 232.407 46.5754 231.57 47.669 231.57C48.7068 231.57 49.4322 232.363 49.4322 233.523V233.791ZM60.5029 236.592H61.5965L63.8395 228.624H62.8798L61.0608 235.398H61.0385L59.2307 228.624H58.2152L56.4185 235.398H56.3962L54.5661 228.624H53.5506L55.7936 236.592H56.8761L58.6839 229.896H58.7062L60.5029 236.592ZM69.0796 234.94H68.2092C67.9748 235.621 67.5173 235.989 66.7585 235.989C65.6872 235.989 65.0065 235.275 64.9618 233.981H69.1131V233.612C69.1131 232.173 68.3654 230.845 66.7027 230.845C65.2073 230.845 64.0579 231.983 64.0579 233.813C64.0579 235.621 65.1738 236.726 66.7585 236.726C67.8521 236.726 68.823 236.134 69.0796 234.94ZM66.7027 231.593C67.707 231.593 68.1869 232.34 68.2092 233.311H64.9953C65.1515 232.162 65.8211 231.593 66.7027 231.593ZM70.034 234.929C70.1344 236.134 71.1388 236.726 72.4779 236.726C73.7389 236.726 74.6652 236 74.6652 235.018C74.6652 234.115 74.1295 233.668 73.2144 233.49L72.0985 233.278C71.4513 233.155 71.1165 232.954 71.1165 232.474C71.1165 231.927 71.5963 231.559 72.344 231.559C73.114 231.559 73.6162 231.894 73.6831 232.463H74.5424C74.4308 231.403 73.6385 230.845 72.344 230.845C71.1053 230.845 70.2572 231.581 70.2572 232.53C70.2572 233.512 70.9156 233.88 71.8195 234.048L72.8127 234.248C73.5269 234.382 73.7947 234.65 73.7947 235.063C73.7947 235.666 73.2368 236.023 72.4668 236.023C71.7079 236.023 70.9937 235.699 70.9268 234.929H70.034ZM78.656 235.766C78.2989 235.878 78.0534 235.9 77.8414 235.9C77.3281 235.9 77.0268 235.699 77.0268 235.108V231.682H78.5109V230.979H77.0379V229.55H76.1228V230.979H75.2971V231.682H76.1228V235.152C76.1228 236.19 76.6473 236.681 77.674 236.681C77.9195 236.681 78.2431 236.648 78.656 236.525V235.766Z" fill="#68615F"/>
<path d="M237.666 231.768C238.733 231.768 239.234 232.542 239.234 233.401C239.234 234.261 238.733 235.044 237.676 235.044C236.722 235.044 236.099 234.449 236.033 233.59H235.23C235.334 234.893 236.306 235.705 237.666 235.705C239.139 235.705 240.017 234.685 240.017 233.401C240.017 232.127 239.139 231.107 237.732 231.107C237.109 231.107 236.524 231.409 236.24 231.768L236.467 229.539H239.677V228.85H235.882L235.504 232.523H236.231C236.486 232.117 236.958 231.768 237.666 231.768ZM243.673 228.737C242.417 228.737 241.454 229.435 241.454 230.597C241.454 231.362 241.907 231.909 242.568 232.174C241.851 232.306 241.152 232.957 241.152 233.751C241.152 234.912 242.143 235.705 243.673 235.705C245.222 235.705 246.204 234.912 246.204 233.751C246.204 232.957 245.505 232.306 244.787 232.174C245.458 231.909 245.902 231.362 245.902 230.597C245.902 229.435 244.938 228.737 243.673 228.737ZM243.673 231.824C242.871 231.824 242.2 231.428 242.2 230.597C242.2 229.775 242.871 229.379 243.673 229.379C244.485 229.379 245.156 229.775 245.156 230.597C245.156 231.428 244.485 231.824 243.673 231.824ZM243.673 235.054C242.616 235.054 241.964 234.544 241.964 233.751C241.964 232.967 242.616 232.476 243.673 232.476C244.75 232.476 245.392 232.967 245.392 233.751C245.392 234.544 244.75 235.054 243.673 235.054ZM246.762 230.21C246.762 231.022 247.414 231.683 248.226 231.683C249.047 231.683 249.708 231.022 249.708 230.21C249.708 229.398 249.047 228.737 248.226 228.737C247.414 228.737 246.762 229.398 246.762 230.21ZM251.512 228.85L247.14 235.582H247.82L252.192 228.85H251.512ZM247.338 230.21C247.338 229.7 247.744 229.294 248.226 229.294C248.726 229.294 249.123 229.7 249.123 230.21C249.123 230.729 248.726 231.126 248.226 231.126C247.744 231.126 247.338 230.729 247.338 230.21ZM249.746 234.242C249.746 235.063 250.407 235.715 251.219 235.715C252.041 235.715 252.692 235.063 252.692 234.242C252.692 233.43 252.041 232.759 251.219 232.759C250.407 232.759 249.746 233.43 249.746 234.242ZM250.332 234.242C250.332 233.732 250.728 233.326 251.219 233.326C251.72 233.326 252.116 233.732 252.116 234.242C252.116 234.752 251.72 235.148 251.219 235.148C250.728 235.148 250.332 234.752 250.332 234.242Z" fill="#68615F"/>
<rect x="170.999" y="230.026" width="54.08" height="2.57524" rx="1.28762" fill="#E0DDDA"/>
<rect x="170.999" y="230.026" width="32.448" height="2.57524" rx="1.28762" fill="#73A185"/>
<rect x="170.999" y="256.636" width="54.08" height="2.57524" rx="1.28762" fill="#E0DDDA"/>
<rect x="170.999" y="256.636" width="39.4714" height="2.57524" rx="1.28762" fill="#73A185"/>
<rect x="170.999" y="283.247" width="54.08" height="2.57524" rx="1.28762" fill="#E0DDDA"/>
<rect x="170.999" y="283.247" width="41.5784" height="2.57524" rx="1.28762" fill="#73A185"/>
<rect x="170.999" y="309" width="54.08" height="2.57524" rx="1.28762" fill="#E0DDDA"/>
<rect x="170.999" y="309" width="45.0901" height="2.57524" rx="1.28762" fill="#73A185"/>
<path d="M27.6443 244.619H253.407" stroke="#E0DDDA" stroke-width="0.214603"/>
<path d="M27.6443 218.008H253.407" stroke="#E0DDDA" stroke-width="0.214603"/>
<path d="M27.6443 297.84H253.407" stroke="#E0DDDA" stroke-width="0.214603"/>
<path d="M47.5853 199.243C47.5853 198.333 46.9329 197.457 45.6453 197.457C44.3577 197.457 43.6195 198.367 43.5594 199.449H44.2547C44.3062 198.71 44.7955 198.075 45.6367 198.075C46.5466 198.075 46.8814 198.659 46.8814 199.243C46.8814 199.955 46.2204 200.41 45.405 200.934C44.495 201.5 43.4392 202.264 43.4392 203.354V203.689H47.6454V203.071H44.2289C44.2289 202.513 44.9672 201.998 45.714 201.5C46.6325 200.908 47.5853 200.393 47.5853 199.243ZM50.9766 202.934C51.1912 203.371 51.7234 203.792 52.4359 203.792C53.5347 203.792 54.3587 202.899 54.3587 201.534C54.3587 200.161 53.5347 199.268 52.4359 199.268C51.6891 199.268 51.1998 199.697 51.0023 200.135V197.371H50.2899V203.689H50.9766V202.934ZM50.968 201.466C50.968 200.487 51.4487 199.826 52.29 199.826C53.1398 199.826 53.6377 200.522 53.6377 201.534C53.6377 202.539 53.1398 203.234 52.29 203.234C51.4487 203.234 50.968 202.565 50.968 201.586V201.466ZM58.9531 202.419H58.2835C58.1032 202.942 57.7513 203.226 57.1676 203.226C56.3435 203.226 55.8199 202.676 55.7855 201.68H58.9788V201.397C58.9788 200.29 58.4037 199.268 57.1246 199.268C55.9744 199.268 55.0902 200.144 55.0902 201.552C55.0902 202.942 55.9486 203.792 57.1676 203.792C58.0088 203.792 58.7556 203.337 58.9531 202.419ZM57.1246 199.843C57.8972 199.843 58.2663 200.419 58.2835 201.165H55.8113C55.9314 200.281 56.4465 199.843 57.1246 199.843ZM63.0873 203.689H63.7741V197.371H63.0616V200.135C62.8641 199.697 62.3748 199.268 61.628 199.268C60.5293 199.268 59.7052 200.161 59.7052 201.534C59.7052 202.899 60.5293 203.792 61.628 203.792C62.3405 203.792 62.8727 203.371 63.0873 202.934V203.689ZM63.0959 201.586C63.0959 202.565 62.6152 203.234 61.774 203.234C60.9241 203.234 60.4262 202.539 60.4262 201.534C60.4262 200.522 60.9241 199.826 61.774 199.826C62.6152 199.826 63.0959 200.487 63.0959 201.466V201.586ZM67.5273 199.311C67.4243 199.285 67.3041 199.277 67.1925 199.277C66.5573 199.277 66.0079 199.68 65.8191 200.393V199.371H65.1324V203.689H65.8448V201.56C65.8448 200.47 66.4715 199.929 67.1582 199.929C67.2698 199.929 67.4243 199.938 67.5273 199.964V199.311ZM71.9653 201.534C71.9653 200.144 71.1069 199.268 69.9137 199.268C68.7205 199.268 67.8621 200.144 67.8621 201.534C67.8621 202.925 68.7205 203.792 69.9137 203.792C71.1069 203.792 71.9653 202.925 71.9653 201.534ZM68.566 201.534C68.566 200.496 69.0725 199.843 69.9137 199.843C70.755 199.843 71.2614 200.496 71.2614 201.534C71.2614 202.573 70.755 203.217 69.9137 203.217C69.0725 203.217 68.566 202.573 68.566 201.534ZM76.7983 201.534C76.7983 200.144 75.9398 199.268 74.7466 199.268C73.5535 199.268 72.695 200.144 72.695 201.534C72.695 202.925 73.5535 203.792 74.7466 203.792C75.9398 203.792 76.7983 202.925 76.7983 201.534ZM73.3989 201.534C73.3989 200.496 73.9054 199.843 74.7466 199.843C75.5879 199.843 76.0944 200.496 76.0944 201.534C76.0944 202.573 75.5879 203.217 74.7466 203.217C73.9054 203.217 73.3989 202.573 73.3989 201.534ZM81.2022 200.195C81.0133 199.62 80.6185 199.268 79.8888 199.268C79.2622 199.268 78.7299 199.612 78.5239 200.161V199.371H77.8372V203.689H78.5497V201.311C78.5497 200.316 79.039 199.852 79.6914 199.852C80.3438 199.852 80.627 200.255 80.627 201.062V203.689H81.3481V201.311C81.3481 200.316 81.8374 199.852 82.4812 199.852C83.125 199.852 83.4169 200.255 83.4169 201.062V203.689H84.1379V200.908C84.1379 199.895 83.6487 199.268 82.6529 199.268C82.0177 199.268 81.4683 199.612 81.2022 200.195Z" fill="#68615F"/>
<g clip-path="url(#clip0)">
<path d="M28.932 198.694L32.7949 195.689L36.6577 198.694V203.415C36.6577 203.642 36.5673 203.861 36.4063 204.022C36.2453 204.183 36.027 204.273 35.7993 204.273H29.7904C29.5628 204.273 29.3444 204.183 29.1834 204.022C29.0224 203.861 28.932 203.642 28.932 203.415V198.694Z" stroke="black" stroke-width="0.858413" stroke-linecap="round" stroke-linejoin="round"/>
<path d="M31.5072 204.273V199.981H34.0824V204.273" stroke="black" stroke-width="0.858413" stroke-linecap="round" stroke-linejoin="round"/>
</g>
<path d="M116.971 203.689H117.709V198.178H120.001V197.56H114.687V198.178H116.971V203.689ZM123.911 201.534C123.911 200.144 123.053 199.268 121.859 199.268C120.666 199.268 119.808 200.144 119.808 201.534C119.808 202.925 120.666 203.792 121.859 203.792C123.053 203.792 123.911 202.925 123.911 201.534ZM120.512 201.534C120.512 200.496 121.018 199.843 121.859 199.843C122.701 199.843 123.207 200.496 123.207 201.534C123.207 202.573 122.701 203.217 121.859 203.217C121.018 203.217 120.512 202.573 120.512 201.534ZM127.345 199.311C127.242 199.285 127.122 199.277 127.01 199.277C126.375 199.277 125.826 199.68 125.637 200.393V199.371H124.95V203.689H125.662V201.56C125.662 200.47 126.289 199.929 126.976 199.929C127.087 199.929 127.242 199.938 127.345 199.964V199.311ZM131.783 201.534C131.783 200.144 130.925 199.268 129.731 199.268C128.538 199.268 127.68 200.144 127.68 201.534C127.68 202.925 128.538 203.792 129.731 203.792C130.925 203.792 131.783 202.925 131.783 201.534ZM128.384 201.534C128.384 200.496 128.89 199.843 129.731 199.843C130.573 199.843 131.079 200.496 131.079 201.534C131.079 202.573 130.573 203.217 129.731 203.217C128.89 203.217 128.384 202.573 128.384 201.534ZM133.509 199.371H132.822V203.689H133.534V201.311C133.534 200.273 134.058 199.852 134.719 199.852C135.397 199.852 135.749 200.264 135.749 201.062V203.689H136.462V200.908C136.462 199.878 135.886 199.268 134.916 199.268C134.255 199.268 133.715 199.629 133.509 200.161V199.371ZM139.781 203.054C139.506 203.14 139.317 203.157 139.154 203.157C138.759 203.157 138.528 203.002 138.528 202.547V199.912H139.669V199.371H138.536V198.273H137.832V199.371H137.197V199.912H137.832V202.582C137.832 203.38 138.236 203.758 139.025 203.758C139.214 203.758 139.463 203.732 139.781 203.638V203.054ZM144.505 201.534C144.505 200.144 143.646 199.268 142.453 199.268C141.26 199.268 140.401 200.144 140.401 201.534C140.401 202.925 141.26 203.792 142.453 203.792C143.646 203.792 144.505 202.925 144.505 201.534ZM141.105 201.534C141.105 200.496 141.612 199.843 142.453 199.843C143.294 199.843 143.801 200.496 143.801 201.534C143.801 202.573 143.294 203.217 142.453 203.217C141.612 203.217 141.105 202.573 141.105 201.534ZM147.945 200.994C147.945 199.706 148.538 198.444 149.327 197.371H148.632C147.765 198.436 147.233 199.672 147.233 200.994C147.233 202.324 147.765 203.552 148.632 204.616H149.327C148.486 203.543 147.945 202.281 147.945 200.994ZM152.886 203.689C154.243 203.689 155.041 203.097 155.041 201.972C155.041 201.251 154.569 200.693 153.813 200.504C154.337 200.35 154.766 199.766 154.766 199.2C154.766 198.127 153.977 197.56 152.612 197.56H150.457V203.689H152.886ZM151.187 200.264V198.161H152.663C153.573 198.161 154.019 198.53 154.019 199.208C154.019 199.878 153.565 200.264 152.655 200.264H151.187ZM151.187 200.839H152.835C153.771 200.839 154.303 201.268 154.303 201.972C154.303 202.676 153.788 203.088 152.852 203.088H151.187V200.839ZM155.984 198.47H156.791V197.603H155.984V198.47ZM156.035 203.689H156.748V199.371H156.035V203.689ZM161.012 203.689H161.87L159.887 201.2L161.793 199.371H160.943L158.814 201.44V197.371H158.102V203.689H158.814V202.195L159.372 201.655L161.012 203.689ZM162.665 198.47H163.472V197.603H162.665V198.47ZM162.717 203.689H163.429V199.371H162.717V203.689ZM165.47 199.371H164.783V203.689H165.496V201.311C165.496 200.273 166.019 199.852 166.68 199.852C167.359 199.852 167.711 200.264 167.711 201.062V203.689H168.423V200.908C168.423 199.878 167.848 199.268 166.878 199.268C166.217 199.268 165.676 199.629 165.47 200.161V199.371ZM172.755 203.414C172.755 204.316 172.275 204.771 171.425 204.771C170.841 204.771 170.386 204.599 170.24 204.058H169.519C169.691 204.899 170.395 205.32 171.433 205.32C172.584 205.32 173.476 204.736 173.476 203.363V199.371H172.781V200.127C172.575 199.715 172.077 199.268 171.322 199.268C170.214 199.268 169.407 200.135 169.407 201.431C169.407 202.779 170.214 203.612 171.322 203.612C172.077 203.612 172.558 203.2 172.755 202.779V203.414ZM172.807 201.534C172.807 202.427 172.249 203.045 171.45 203.045C170.609 203.045 170.111 202.384 170.111 201.431C170.111 200.47 170.609 199.826 171.45 199.826C172.249 199.826 172.807 200.436 172.807 201.328V201.534ZM176.945 200.616C176.945 199.088 177.674 198.084 178.936 198.084C179.966 198.084 180.413 198.659 180.55 199.346H181.271C181.074 198.23 180.275 197.457 178.936 197.457C177.357 197.457 176.189 198.693 176.189 200.616C176.189 202.547 177.357 203.792 178.936 203.792C180.275 203.792 181.074 203.02 181.271 201.904H180.55C180.413 202.59 179.966 203.165 178.936 203.165C177.674 203.165 176.945 202.144 176.945 200.616ZM186.023 201.534C186.023 200.144 185.165 199.268 183.971 199.268C182.778 199.268 181.92 200.144 181.92 201.534C181.92 202.925 182.778 203.792 183.971 203.792C185.165 203.792 186.023 202.925 186.023 201.534ZM182.624 201.534C182.624 200.496 183.13 199.843 183.971 199.843C184.813 199.843 185.319 200.496 185.319 201.534C185.319 202.573 184.813 203.217 183.971 203.217C183.13 203.217 182.624 202.573 182.624 201.534ZM190.427 200.195C190.238 199.62 189.843 199.268 189.113 199.268C188.487 199.268 187.955 199.612 187.749 200.161V199.371H187.062V203.689H187.774V201.311C187.774 200.316 188.264 199.852 188.916 199.852C189.568 199.852 189.852 200.255 189.852 201.062V203.689H190.573V201.311C190.573 200.316 191.062 199.852 191.706 199.852C192.35 199.852 192.642 200.255 192.642 201.062V203.689H193.363V200.908C193.363 199.895 192.873 199.268 191.878 199.268C191.242 199.268 190.693 199.612 190.427 200.195ZM198.035 200.195C197.846 199.62 197.451 199.268 196.721 199.268C196.095 199.268 195.562 199.612 195.356 200.161V199.371H194.67V203.689H195.382V201.311C195.382 200.316 195.871 199.852 196.524 199.852C197.176 199.852 197.459 200.255 197.459 201.062V203.689H198.18V201.311C198.18 200.316 198.67 199.852 199.314 199.852C199.957 199.852 200.249 200.255 200.249 201.062V203.689H200.97V200.908C200.97 199.895 200.481 199.268 199.485 199.268C198.85 199.268 198.301 199.612 198.035 200.195ZM205.831 203.689V199.371H205.11V201.749C205.11 202.788 204.621 203.234 203.968 203.234C203.29 203.234 202.955 202.814 202.955 202.015V199.371H202.234V202.153C202.234 203.2 202.784 203.792 203.762 203.792C204.415 203.792 204.93 203.449 205.136 202.908V203.689H205.831ZM209.194 203.054C208.92 203.14 208.731 203.157 208.568 203.157C208.173 203.157 207.941 203.002 207.941 202.547V199.912H209.083V199.371H207.95V198.273H207.246V199.371H206.61V199.912H207.246V202.582C207.246 203.38 207.649 203.758 208.439 203.758C208.628 203.758 208.877 203.732 209.194 203.638V203.054ZM213.678 202.419H213.008C212.828 202.942 212.476 203.226 211.892 203.226C211.068 203.226 210.544 202.676 210.51 201.68H213.703V201.397C213.703 200.29 213.128 199.268 211.849 199.268C210.699 199.268 209.815 200.144 209.815 201.552C209.815 202.942 210.673 203.792 211.892 203.792C212.733 203.792 213.48 203.337 213.678 202.419ZM211.849 199.843C212.622 199.843 212.991 200.419 213.008 201.165H210.536C210.656 200.281 211.171 199.843 211.849 199.843ZM214.481 204.616H215.177C216.044 203.552 216.576 202.324 216.576 200.994C216.576 199.672 216.044 198.436 215.177 197.371H214.481C215.271 198.444 215.864 199.706 215.864 200.994C215.864 202.281 215.323 203.543 214.481 204.616Z" fill="#68615F"/>
<g clip-path="url(#clip1)">
<path d="M108.764 199.123C108.764 202.127 104.902 204.702 104.902 204.702C104.902 204.702 101.039 202.127 101.039 199.123C101.039 198.098 101.446 197.116 102.17 196.391C102.895 195.667 103.877 195.26 104.902 195.26C105.926 195.26 106.909 195.667 107.633 196.391C108.357 197.116 108.764 198.098 108.764 199.123Z" stroke="black" stroke-width="0.858413" stroke-linecap="round" stroke-linejoin="round"/>
<path d="M104.902 200.41C105.613 200.41 106.189 199.834 106.189 199.123C106.189 198.412 105.613 197.835 104.902 197.835C104.19 197.835 103.614 198.412 103.614 199.123C103.614 199.834 104.19 200.41 104.902 200.41Z" stroke="black" stroke-width="0.858413" stroke-linecap="round" stroke-linejoin="round"/>
</g>
<path opacity="0.2" d="M40.0914 169.742C37.3445 170.549 30.935 172.544 28.0736 173.441V176.804H249.544V111.565C235.666 114.927 207.568 122.057 206.194 123.671C204.477 125.689 173.575 130.733 168.424 132.414C163.274 134.096 140.526 147.547 137.092 150.91C133.658 154.273 108.764 157.636 104.902 158.645C101.039 159.653 83.8704 163.689 79.1492 164.698C74.4279 165.707 58.9765 166.715 55.972 167.052C52.9676 167.388 43.525 168.733 40.0914 169.742Z" fill="#73A185"/>
<path opacity="0.2" d="M40.0914 169.742C37.3445 170.549 30.935 172.544 28.0736 173.441V176.804H168.424V132.414C163.274 134.096 140.526 147.547 137.092 150.91C133.658 154.273 108.764 157.636 104.902 158.645C101.039 159.653 83.8704 163.689 79.1492 164.698C74.4279 165.707 58.9765 166.715 55.972 167.052C52.9676 167.388 43.525 168.733 40.0914 169.742Z" fill="#73A185"/>
<path d="M28.0736 173.441C30.935 172.544 37.3445 170.549 40.0914 169.742C43.525 168.733 52.9676 167.388 55.972 167.052C58.9765 166.715 74.4279 165.707 79.1492 164.698C83.8704 163.689 101.039 159.653 104.902 158.645C108.764 157.636 132.955 153.746 137.092 150.91C143.959 146.202 163.274 134.096 168.424 132.414" stroke="#73A185" stroke-width="1.71683"/>
<path d="M168.424 132.414C173.575 130.733 203.463 124.812 206.194 123.671C212.632 120.981 235.666 114.927 249.544 111.565" stroke="#73A185" stroke-width="1.71683" stroke-dasharray="3.43 3.43"/>
<defs>
<filter id="filter0_d" x="0.175214" y="35.1658" width="279.843" height="307.312" filterUnits="userSpaceOnUse" color-interpolation-filters="sRGB">
<feFlood flood-opacity="0" result="BackgroundImageFix"/>
<feColorMatrix in="SourceAlpha" type="matrix" values="0 0 0 0 0 0 0 0 0 0 0 0 0 0 0 0 0 0 127 0"/>
<feOffset/>
<feGaussianBlur stdDeviation="6.00889"/>
<feColorMatrix type="matrix" values="0 0 0 0 0 0 0 0 0 0 0 0 0 0 0 0 0 0 0.02 0"/>
<feBlend mode="normal" in2="BackgroundImageFix" result="effect1_dropShadow"/>
<feBlend mode="normal" in="SourceGraphic" in2="effect1_dropShadow" result="shape"/>
</filter>
<clipPath id="clip0">
<rect width="10.301" height="10.301" fill="white" transform="translate(27.6443 194.831)"/>
</clipPath>
<clipPath id="clip1">
<rect width="10.301" height="10.301" fill="white" transform="translate(99.7511 194.831)"/>
</clipPath>
</defs>
</svg>
