<svg width="346" height="443" viewBox="0 0 346 443" fill="none" xmlns="http://www.w3.org/2000/svg">
<rect x="62.75" y="1.75" width="219.757" height="439.5" rx="24.7755" stroke="#DCD9D7" stroke-width="3.5"/>
<rect x="81.9995" y="21.5819" width="29.8412" height="4.54359" rx="2.27179" fill="#DCD9D7"/>
<rect x="81.75" y="58.75" width="182.5" height="37.0498" rx="7.25" stroke="#DCD9D7" stroke-width="3.5"/>
<rect x="139.471" y="423.906" width="66.3138" height="4.54359" rx="2.27179" fill="#DCD9D7"/>
<rect x="234.521" y="21.5819" width="26.5255" height="4.54359" rx="2.27179" fill="#DCD9D7"/>
<g filter="url(#filter0_d)">
<mask id="mask0" mask-type="alpha" maskUnits="userSpaceOnUse" x="13" y="34" width="320" height="361">
<path d="M326.235 52.9587C327.684 55.1304 330.101 54.5875 333 54.0446L333 383C333 389.627 327.627 395 321 395L25.0031 395C18.3745 395 13.0014 389.626 13.0031 382.997L13.081 80.6468C13.4031 81.0088 15.3373 81.7327 16.497 81.7327C17.9467 81.7327 20.3627 81.7327 20.8459 80.6468C21.3292 79.561 25.1948 79.0181 26.1613 79.0181L30.5102 79.0181C31.9598 79.0181 33.8926 75.7607 34.859 74.6749C35.8255 73.5891 40.6575 74.132 41.1407 74.132C41.624 74.132 45.4897 75.2178 46.4561 75.7607C47.4225 76.3036 49.3553 74.132 50.3218 73.5891C51.0949 73.1548 52.8989 72.6843 53.7043 72.5033C55.6371 71.2365 59.6961 68.5944 60.4692 68.1601C61.4356 67.6171 61.9189 67.6171 63.8517 67.6171C65.7845 67.6171 66.7509 67.6171 68.2006 68.1601C69.6502 68.703 72.0663 68.1601 73.9991 68.1601C75.9319 68.1601 78.831 67.6171 79.7974 68.1601C80.7638 68.703 85.5959 69.7888 86.0791 69.2459C86.4657 68.8115 88.8173 69.4268 89.9448 69.7888L93.3273 69.7888C94.2937 69.7888 95.7433 67.6172 96.2266 67.6172C96.7098 67.6172 98.1594 68.1601 99.1258 69.2459C100.092 70.3317 101.542 69.2459 102.508 69.2459C103.475 69.2459 103.958 69.2459 105.408 69.7888C106.857 70.3317 108.307 71.4175 109.273 70.8746C110.24 70.3317 111.206 69.7888 113.139 69.7888C115.072 69.7888 117.005 71.4175 118.454 71.4175C119.614 71.4175 120.87 72.8652 121.354 73.5891C121.837 72.8652 122.996 71.4175 123.77 71.4175C124.736 71.4175 126.186 69.2459 126.669 68.1601C127.152 67.0742 128.118 69.2459 129.568 69.2459C131.018 69.2459 131.984 68.703 132.467 68.1601C132.951 67.6172 134.4 64.9026 135.367 64.9026C136.14 64.9026 138.91 64.1788 140.199 63.8168L143.098 65.4455L145.031 64.9026L147.93 63.2739L148.897 66.5313L150.346 67.6172L151.796 63.8168L155.178 63.8168C155.444 63.3689 157.704 62.4966 157.836 62.2503C157.644 62.2135 157.551 62.1911 157.594 62.1881C157.797 62.174 157.864 62.1981 157.836 62.2503C158.791 62.4332 162.186 62.9727 163.393 63.2739L164.842 64.3597L166.775 64.3597L168.708 61.6452C169.514 61.4642 171.318 61.1023 172.091 61.1023C173.057 61.1023 175.473 63.2739 175.956 63.2739L179.822 63.2739C181.272 63.2739 181.272 62.1881 184.171 62.1881C187.07 62.1881 186.729 64.3597 187.553 64.3597C187.785 64.3597 189.486 62.1881 189.969 61.1023C190.13 60.7424 192.274 58.5081 192.538 59.1009C192.911 59.9386 197.218 58.9307 197.701 57.302C197.862 56.7591 199.634 55.6733 202.05 56.7591C204.466 57.8449 208.331 53.5016 209.298 51.8729C210.264 50.2442 215.58 47.5297 216.546 46.4439C217.512 45.3581 223.794 43.7294 225.244 42.6436C226.693 41.5577 228.626 40.4719 229.593 39.3861C230.559 38.3003 232.492 38.3003 234.425 39.929C236.358 41.5578 239.257 41.0148 241.673 41.5578C244.089 42.1007 244.089 40.4719 246.022 40.4719L254.72 40.4719C256.652 40.4719 260.035 38.8432 261.485 38.3003C262.934 37.7574 266.8 38.3003 269.216 38.3003C271.632 38.3003 274.531 37.2145 275.981 36.6716C277.43 36.1287 276.464 34.5 277.914 34.5C279.363 34.5 280.813 35.5858 283.229 36.6716C285.645 37.7574 286.612 37.2145 287.578 37.2145C288.544 37.2145 289.994 34.5 291.927 34.5C293.86 34.5 295.793 35.5858 297.242 35.5858C298.692 35.5858 301.108 35.5858 302.557 36.6716C304.007 37.7574 304.49 38.8432 306.423 39.3861C308.356 39.929 308.839 39.3861 310.772 40.4719C312.705 41.5578 314.638 41.5578 316.087 41.5578C317.537 41.5578 318.987 45.901 320.919 46.4439C322.852 46.9868 324.785 50.7871 326.235 52.9587Z" fill="#679A7C"/>
<path d="M326.235 52.9587C327.684 55.1304 330.101 54.5875 333 54.0446L333 383C333 389.627 327.627 395 321 395L25.0031 395C18.3745 395 13.0014 389.626 13.0031 382.997L13.081 80.6468C13.4031 81.0088 15.3373 81.7327 16.497 81.7327C17.9467 81.7327 20.3627 81.7327 20.8459 80.6468C21.3292 79.561 25.1948 79.0181 26.1613 79.0181L30.5102 79.0181C31.9598 79.0181 33.8926 75.7607 34.859 74.6749C35.8255 73.5891 40.6575 74.132 41.1407 74.132C41.624 74.132 45.4897 75.2178 46.4561 75.7607C47.4225 76.3036 49.3553 74.132 50.3218 73.5891C51.0949 73.1548 52.8989 72.6843 53.7043 72.5033C55.6371 71.2365 59.6961 68.5944 60.4692 68.1601C61.4356 67.6171 61.9189 67.6171 63.8517 67.6171C65.7845 67.6171 66.7509 67.6171 68.2006 68.1601C69.6502 68.703 72.0663 68.1601 73.9991 68.1601C75.9319 68.1601 78.831 67.6171 79.7974 68.1601C80.7638 68.703 85.5959 69.7888 86.0791 69.2459C86.4657 68.8115 88.8173 69.4268 89.9448 69.7888L93.3273 69.7888C94.2937 69.7888 95.7433 67.6172 96.2266 67.6172C96.7098 67.6172 98.1594 68.1601 99.1258 69.2459C100.092 70.3317 101.542 69.2459 102.508 69.2459C103.475 69.2459 103.958 69.2459 105.408 69.7888C106.857 70.3317 108.307 71.4175 109.273 70.8746C110.24 70.3317 111.206 69.7888 113.139 69.7888C115.072 69.7888 117.005 71.4175 118.454 71.4175C119.614 71.4175 120.87 72.8652 121.354 73.5891C121.837 72.8652 122.996 71.4175 123.77 71.4175C124.736 71.4175 126.186 69.2459 126.669 68.1601C127.152 67.0742 128.118 69.2459 129.568 69.2459C131.018 69.2459 131.984 68.703 132.467 68.1601C132.951 67.6172 134.4 64.9026 135.367 64.9026C136.14 64.9026 138.91 64.1788 140.199 63.8168L143.098 65.4455L145.031 64.9026L147.93 63.2739L148.897 66.5313L150.346 67.6172L151.796 63.8168L155.178 63.8168C155.444 63.3689 157.704 62.4966 157.836 62.2503C157.644 62.2135 157.551 62.1911 157.594 62.1881C157.797 62.174 157.864 62.1981 157.836 62.2503C158.791 62.4332 162.186 62.9727 163.393 63.2739L164.842 64.3597L166.775 64.3597L168.708 61.6452C169.514 61.4642 171.318 61.1023 172.091 61.1023C173.057 61.1023 175.473 63.2739 175.956 63.2739L179.822 63.2739C181.272 63.2739 181.272 62.1881 184.171 62.1881C187.07 62.1881 186.729 64.3597 187.553 64.3597C187.785 64.3597 189.486 62.1881 189.969 61.1023C190.13 60.7424 192.274 58.5081 192.538 59.1009C192.911 59.9386 197.218 58.9307 197.701 57.302C197.862 56.7591 199.634 55.6733 202.05 56.7591C204.466 57.8449 208.331 53.5016 209.298 51.8729C210.264 50.2442 215.58 47.5297 216.546 46.4439C217.512 45.3581 223.794 43.7294 225.244 42.6436C226.693 41.5577 228.626 40.4719 229.593 39.3861C230.559 38.3003 232.492 38.3003 234.425 39.929C236.358 41.5578 239.257 41.0148 241.673 41.5578C244.089 42.1007 244.089 40.4719 246.022 40.4719L254.72 40.4719C256.652 40.4719 260.035 38.8432 261.485 38.3003C262.934 37.7574 266.8 38.3003 269.216 38.3003C271.632 38.3003 274.531 37.2145 275.981 36.6716C277.43 36.1287 276.464 34.5 277.914 34.5C279.363 34.5 280.813 35.5858 283.229 36.6716C285.645 37.7574 286.612 37.2145 287.578 37.2145C288.544 37.2145 289.994 34.5 291.927 34.5C293.86 34.5 295.793 35.5858 297.242 35.5858C298.692 35.5858 301.108 35.5858 302.557 36.6716C304.007 37.7574 304.49 38.8432 306.423 39.3861C308.356 39.929 308.839 39.3861 310.772 40.4719C312.705 41.5578 314.638 41.5578 316.087 41.5578C317.537 41.5578 318.987 45.901 320.919 46.4439C322.852 46.9868 324.785 50.7871 326.235 52.9587Z" fill="#E2DDD8" fill-opacity="0.1"/>
</mask>
<g mask="url(#mask0)">
<path d="M13 47.0178C13 40.3806 18.3805 35 25.0178 35H320.982C327.619 35 333 40.3805 333 47.0178V451H13V47.0178Z" fill="white"/>
<rect x="268" y="250" width="45" height="13" rx="6.5" fill="#C48B7F"/>
<path d="M35.208 255.272C35.208 252.424 36.568 250.552 38.92 250.552C40.84 250.552 41.672 251.624 41.928 252.904H43.272C42.904 250.824 41.416 249.384 38.92 249.384C35.976 249.384 33.8 251.688 33.8 255.272C33.8 258.872 35.976 261.192 38.92 261.192C41.416 261.192 42.904 259.752 43.272 257.672H41.928C41.672 258.952 40.84 260.024 38.92 260.024C36.568 260.024 35.208 258.12 35.208 255.272ZM52.2888 256.984C52.2888 254.392 50.6888 252.76 48.4648 252.76C46.2408 252.76 44.6408 254.392 44.6408 256.984C44.6408 259.576 46.2408 261.192 48.4648 261.192C50.6888 261.192 52.2888 259.576 52.2888 256.984ZM45.9528 256.984C45.9528 255.048 46.8968 253.832 48.4648 253.832C50.0328 253.832 50.9768 255.048 50.9768 256.984C50.9768 258.92 50.0328 260.12 48.4648 260.12C46.8968 260.12 45.9528 258.92 45.9528 256.984ZM60.6573 254.488C60.3053 253.416 59.5693 252.76 58.2093 252.76C57.0413 252.76 56.0493 253.4 55.6653 254.424V252.952H54.3853V261H55.7133V256.568C55.7133 254.712 56.6253 253.848 57.8413 253.848C59.0573 253.848 59.5853 254.6 59.5853 256.104V261H60.9293V256.568C60.9293 254.712 61.8413 253.848 63.0413 253.848C64.2413 253.848 64.7853 254.6 64.7853 256.104V261H66.1293V255.816C66.1293 253.928 65.2173 252.76 63.3613 252.76C62.1773 252.76 61.1533 253.4 60.6573 254.488ZM74.9973 254.488C74.6453 253.416 73.9093 252.76 72.5493 252.76C71.3813 252.76 70.3893 253.4 70.0053 254.424V252.952H68.7253V261H70.0533V256.568C70.0533 254.712 70.9653 253.848 72.1813 253.848C73.3973 253.848 73.9253 254.6 73.9253 256.104V261H75.2693V256.568C75.2693 254.712 76.1813 253.848 77.3813 253.848C78.5813 253.848 79.1253 254.6 79.1253 256.104V261H80.4693V255.816C80.4693 253.928 79.5573 252.76 77.7013 252.76C76.5173 252.76 75.4933 253.4 74.9973 254.488ZM89.6893 261V252.952H88.3453V257.384C88.3453 259.32 87.4333 260.152 86.2173 260.152C84.9533 260.152 84.3293 259.368 84.3293 257.88V252.952H82.9853V258.136C82.9853 260.088 84.0093 261.192 85.8333 261.192C87.0493 261.192 88.0093 260.552 88.3933 259.544V261H89.6893ZM96.118 259.816C95.606 259.976 95.254 260.008 94.95 260.008C94.214 260.008 93.782 259.72 93.782 258.872V253.96H95.91V252.952H93.798V250.904H92.486V252.952H91.302V253.96H92.486V258.936C92.486 260.424 93.238 261.128 94.71 261.128C95.062 261.128 95.526 261.08 96.118 260.904V259.816ZM104.635 258.632H103.387C103.051 259.608 102.395 260.136 101.307 260.136C99.7705 260.136 98.7945 259.112 98.7305 257.256H104.683V256.728C104.683 254.664 103.611 252.76 101.227 252.76C99.0825 252.76 97.4345 254.392 97.4345 257.016C97.4345 259.608 99.0345 261.192 101.307 261.192C102.875 261.192 104.267 260.344 104.635 258.632ZM101.227 253.832C102.667 253.832 103.355 254.904 103.387 256.296H98.7785C99.0025 254.648 99.9625 253.832 101.227 253.832ZM114.194 249.576H110.146V261H114.194C117.506 261 119.762 258.728 119.762 255.288C119.762 251.864 117.506 249.576 114.194 249.576ZM114.194 250.728C116.85 250.728 118.338 252.536 118.338 255.288C118.338 258.056 116.85 259.848 114.194 259.848H111.506V250.728H114.194ZM121.732 251.272H123.236V249.656H121.732V251.272ZM121.828 261H123.156V252.952H121.828V261ZM125.152 258.616C125.296 260.344 126.736 261.192 128.656 261.192C130.464 261.192 131.792 260.152 131.792 258.744C131.792 257.448 131.024 256.808 129.712 256.552L128.112 256.248C127.184 256.072 126.704 255.784 126.704 255.096C126.704 254.312 127.392 253.784 128.464 253.784C129.568 253.784 130.288 254.264 130.384 255.08H131.616C131.456 253.56 130.32 252.76 128.464 252.76C126.688 252.76 125.472 253.816 125.472 255.176C125.472 256.584 126.416 257.112 127.712 257.352L129.136 257.64C130.16 257.832 130.544 258.216 130.544 258.808C130.544 259.672 129.744 260.184 128.64 260.184C127.552 260.184 126.528 259.72 126.432 258.616H125.152ZM137.674 259.816C137.162 259.976 136.81 260.008 136.506 260.008C135.77 260.008 135.338 259.72 135.338 258.872V253.96H137.466V252.952H135.354V250.904H134.042V252.952H132.858V253.96H134.042V258.936C134.042 260.424 134.794 261.128 136.266 261.128C136.618 261.128 137.082 261.08 137.674 260.904V259.816ZM144.604 261H145.932C145.772 260.472 145.74 259.912 145.74 259.32V255.624C145.74 253.688 144.524 252.76 142.572 252.76C140.86 252.76 139.58 253.688 139.42 255.32H140.7C140.796 254.392 141.468 253.832 142.54 253.832C143.644 253.832 144.428 254.376 144.428 255.656V256.12L141.836 256.456C140.204 256.648 139.052 257.32 139.052 258.872C139.052 260.36 140.252 261.176 141.66 261.176C143.004 261.176 144.108 260.584 144.46 259.64C144.46 260.024 144.508 260.552 144.604 261ZM141.932 260.168C140.924 260.168 140.396 259.592 140.396 258.84C140.396 257.752 141.228 257.496 142.236 257.352L144.428 257.112V257.832C144.428 259.384 143.18 260.168 141.932 260.168ZM149.624 252.952H148.344V261H149.672V256.568C149.672 254.632 150.648 253.848 151.88 253.848C153.144 253.848 153.8 254.616 153.8 256.104V261H155.128V255.816C155.128 253.896 154.056 252.76 152.248 252.76C151.016 252.76 150.008 253.432 149.624 254.424V252.952ZM157.139 256.984C157.139 259.56 158.691 261.192 160.931 261.192C162.723 261.192 163.907 260.184 164.163 258.456H162.899C162.675 259.528 162.019 260.12 160.931 260.12C159.347 260.12 158.451 258.872 158.451 256.984C158.451 255.096 159.347 253.832 160.931 253.832C162.019 253.832 162.675 254.424 162.899 255.496H164.163C163.907 253.784 162.723 252.76 160.931 252.76C158.691 252.76 157.139 254.408 157.139 256.984ZM172.804 258.632H171.556C171.22 259.608 170.564 260.136 169.476 260.136C167.94 260.136 166.964 259.112 166.9 257.256H172.852V256.728C172.852 254.664 171.78 252.76 169.396 252.76C167.252 252.76 165.604 254.392 165.604 257.016C165.604 259.608 167.204 261.192 169.476 261.192C171.044 261.192 172.436 260.344 172.804 258.632ZM169.396 253.832C170.836 253.832 171.524 254.904 171.556 256.296H166.948C167.172 254.648 168.132 253.832 169.396 253.832Z" fill="#2D2828"/>
<path d="M275.32 257.579L279.469 259.388V258.407L276.229 257.03L279.469 255.644V254.672L275.32 256.481V257.579ZM280.866 255.311H282.18V260H283.368V253.556H282.549C282.396 254.222 281.964 254.519 280.866 254.519V255.311ZM284.846 256.787C284.846 258.713 285.908 260.108 287.582 260.108C289.256 260.108 290.309 258.713 290.309 256.787C290.309 254.861 289.256 253.466 287.582 253.466C285.908 253.466 284.846 254.861 284.846 256.787ZM286.052 256.787C286.052 255.329 286.556 254.402 287.582 254.402C288.599 254.402 289.103 255.329 289.103 256.787C289.103 258.245 288.599 259.172 287.582 259.172C286.556 259.172 286.052 258.245 286.052 256.787ZM295.981 260H297.421L294.514 256.364L297.169 253.574H295.801L292.831 256.805V253.574H291.634V260H292.831V258.137L293.722 257.201L295.981 260ZM302.274 260L304.101 254.951H304.119V260H305.262V253.574H303.624L301.896 258.407H301.878L300.15 253.574H298.458V260H299.556V254.951H299.574L301.41 260H302.274Z" fill="white"/>
<rect x="33" y="274" width="291" height="30.1176" fill="white"/>
<path d="M38.536 283.576H34.488V295H38.536C41.848 295 44.104 292.728 44.104 289.288C44.104 285.864 41.848 283.576 38.536 283.576ZM38.536 284.728C41.192 284.728 42.68 286.536 42.68 289.288C42.68 292.056 41.192 293.848 38.536 293.848H35.848V284.728H38.536ZM52.7783 292.632H51.5303C51.1943 293.608 50.5383 294.136 49.4503 294.136C47.9143 294.136 46.9383 293.112 46.8743 291.256H52.8263V290.728C52.8263 288.664 51.7543 286.76 49.3703 286.76C47.2263 286.76 45.5783 288.392 45.5783 291.016C45.5783 293.608 47.1783 295.192 49.4503 295.192C51.0183 295.192 52.4103 294.344 52.7783 292.632ZM49.3703 287.832C50.8103 287.832 51.4983 288.904 51.5303 290.296H46.9223C47.1463 288.648 48.1063 287.832 49.3703 287.832ZM58.6605 293.816C58.1485 293.976 57.7965 294.008 57.4925 294.008C56.7565 294.008 56.3245 293.72 56.3245 292.872V287.96H58.4525V286.952H56.3405V284.904H55.0285V286.952H53.8445V287.96H55.0285V292.936C55.0285 294.424 55.7805 295.128 57.2525 295.128C57.6045 295.128 58.0685 295.08 58.6605 294.904V293.816ZM65.5908 295H66.9188C66.7588 294.472 66.7268 293.912 66.7268 293.32V289.624C66.7268 287.688 65.5108 286.76 63.5588 286.76C61.8468 286.76 60.5668 287.688 60.4068 289.32H61.6868C61.7828 288.392 62.4548 287.832 63.5268 287.832C64.6308 287.832 65.4148 288.376 65.4148 289.656V290.12L62.8228 290.456C61.1908 290.648 60.0388 291.32 60.0388 292.872C60.0388 294.36 61.2388 295.176 62.6468 295.176C63.9908 295.176 65.0948 294.584 65.4468 293.64C65.4468 294.024 65.4948 294.552 65.5908 295ZM62.9188 294.168C61.9108 294.168 61.3828 293.592 61.3828 292.84C61.3828 291.752 62.2148 291.496 63.2228 291.352L65.4148 291.112V291.832C65.4148 293.384 64.1668 294.168 62.9188 294.168ZM68.7389 290.984C68.7389 293.56 70.2909 295.192 72.5309 295.192C74.3229 295.192 75.5069 294.184 75.7629 292.456H74.4989C74.2749 293.528 73.6189 294.12 72.5309 294.12C70.9469 294.12 70.0509 292.872 70.0509 290.984C70.0509 289.096 70.9469 287.832 72.5309 287.832C73.6189 287.832 74.2749 288.424 74.4989 289.496H75.7629C75.5069 287.784 74.3229 286.76 72.5309 286.76C70.2909 286.76 68.7389 288.408 68.7389 290.984ZM79.1239 288.424V283.224H77.7959V295H79.1239V290.568C79.1239 288.632 80.0999 287.848 81.3319 287.848C82.5959 287.848 83.2519 288.616 83.2519 290.104V295H84.5799V289.816C84.5799 287.896 83.5079 286.76 81.6999 286.76C80.4679 286.76 79.5079 287.4 79.1239 288.424ZM93.7908 292.632H92.5428C92.2068 293.608 91.5508 294.136 90.4628 294.136C88.9268 294.136 87.9508 293.112 87.8868 291.256H93.8388V290.728C93.8388 288.664 92.7668 286.76 90.3828 286.76C88.2388 286.76 86.5908 288.392 86.5908 291.016C86.5908 293.608 88.1908 295.192 90.4628 295.192C92.0308 295.192 93.4228 294.344 93.7908 292.632ZM90.3828 287.832C91.8228 287.832 92.5108 288.904 92.5428 290.296H87.9348C88.1588 288.648 89.1188 287.832 90.3828 287.832ZM101.657 295H102.937V283.224H101.609V288.376C101.241 287.56 100.329 286.76 98.9366 286.76C96.8886 286.76 95.3526 288.424 95.3526 290.984C95.3526 293.528 96.8886 295.192 98.9366 295.192C100.265 295.192 101.257 294.408 101.657 293.592V295ZM101.673 291.08C101.673 292.904 100.777 294.152 99.2086 294.152C97.6246 294.152 96.6966 292.856 96.6966 290.984C96.6966 289.096 97.6246 287.8 99.2086 287.8C100.777 287.8 101.673 289.032 101.673 290.856V291.08ZM109.001 295H110.377V289.768H117.065V295H118.441V283.576H117.065V288.616H110.377V283.576H109.001V295ZM128.255 290.984C128.255 288.392 126.655 286.76 124.431 286.76C122.207 286.76 120.607 288.392 120.607 290.984C120.607 293.576 122.207 295.192 124.431 295.192C126.655 295.192 128.255 293.576 128.255 290.984ZM121.919 290.984C121.919 289.048 122.863 287.832 124.431 287.832C125.999 287.832 126.943 289.048 126.943 290.984C126.943 292.92 125.999 294.12 124.431 294.12C122.863 294.12 121.919 292.92 121.919 290.984ZM136.623 288.488C136.271 287.416 135.535 286.76 134.175 286.76C133.007 286.76 132.015 287.4 131.631 288.424V286.952H130.351V295H131.679V290.568C131.679 288.712 132.591 287.848 133.807 287.848C135.023 287.848 135.551 288.6 135.551 290.104V295H136.895V290.568C136.895 288.712 137.807 287.848 139.007 287.848C140.207 287.848 140.751 288.6 140.751 290.104V295H142.095V289.816C142.095 287.928 141.183 286.76 139.327 286.76C138.143 286.76 137.119 287.4 136.623 288.488ZM151.3 292.632H150.052C149.716 293.608 149.06 294.136 147.972 294.136C146.436 294.136 145.46 293.112 145.396 291.256H151.348V290.728C151.348 288.664 150.276 286.76 147.892 286.76C145.748 286.76 144.1 288.392 144.1 291.016C144.1 293.608 145.7 295.192 147.972 295.192C149.54 295.192 150.932 294.344 151.3 292.632ZM147.892 287.832C149.332 287.832 150.02 288.904 150.052 290.296H145.444C145.668 288.648 146.628 287.832 147.892 287.832Z" fill="#2D2828"/>
<rect x="278" y="283" width="36" height="13" rx="6.5" fill="#E2DDD8"/>
<path d="M284.729 293H285.926V290.426H288.833V289.481H285.926V287.519H289.166V286.574H284.729V293ZM290.848 293H292.045V286.574H290.848V293ZM295.122 293V290.597H296.562L298.029 293H299.334L297.723 290.417C298.452 290.183 299.091 289.589 299.091 288.59C299.091 287.276 298.209 286.574 296.706 286.574H293.952V293H295.122ZM295.122 289.661V287.519H296.571C297.462 287.519 297.912 287.888 297.912 288.59C297.912 289.292 297.462 289.661 296.571 289.661H295.122ZM304.599 293L306.426 287.951H306.444V293H307.587V286.574H305.949L304.221 291.407H304.203L302.475 286.574H300.783V293H301.881V287.951H301.899L303.735 293H304.599Z" fill="#2D2828"/>
<rect x="33" y="308" width="291" height="30.1176" fill="white"/>
<path d="M41.368 320.712C41.368 319.016 40.152 317.384 37.752 317.384C35.352 317.384 33.976 319.08 33.864 321.096H35.16C35.256 319.72 36.168 318.536 37.736 318.536C39.432 318.536 40.056 319.624 40.056 320.712C40.056 322.04 38.824 322.888 37.304 323.864C35.608 324.92 33.64 326.344 33.64 328.376V329H41.48V327.848H35.112C35.112 326.808 36.488 325.848 37.88 324.92C39.592 323.816 41.368 322.856 41.368 320.712ZM48.009 327.592C48.409 328.408 49.401 329.192 50.729 329.192C52.777 329.192 54.313 327.528 54.313 324.984C54.313 322.424 52.777 320.76 50.729 320.76C49.337 320.76 48.425 321.56 48.057 322.376V317.224H46.729V329H48.009V327.592ZM47.993 324.856C47.993 323.032 48.889 321.8 50.457 321.8C52.041 321.8 52.969 323.096 52.969 324.984C52.969 326.856 52.041 328.152 50.457 328.152C48.889 328.152 47.993 326.904 47.993 325.08V324.856ZM63.0364 326.632H61.7884C61.4524 327.608 60.7964 328.136 59.7084 328.136C58.1724 328.136 57.1964 327.112 57.1324 325.256H63.0844V324.728C63.0844 322.664 62.0124 320.76 59.6284 320.76C57.4844 320.76 55.8364 322.392 55.8364 325.016C55.8364 327.608 57.4364 329.192 59.7084 329.192C61.2764 329.192 62.6684 328.344 63.0364 326.632ZM59.6284 321.832C61.0684 321.832 61.7564 322.904 61.7884 324.296H57.1804C57.4044 322.648 58.3644 321.832 59.6284 321.832ZM70.9023 329H72.1823V317.224H70.8543V322.376C70.4863 321.56 69.5743 320.76 68.1823 320.76C66.1343 320.76 64.5983 322.424 64.5983 324.984C64.5983 327.528 66.1343 329.192 68.1823 329.192C69.5103 329.192 70.5023 328.408 70.9023 327.592V329ZM70.9183 325.08C70.9183 326.904 70.0223 328.152 68.4543 328.152C66.8703 328.152 65.9423 326.856 65.9423 324.984C65.9423 323.096 66.8703 321.8 68.4543 321.8C70.0223 321.8 70.9183 323.032 70.9183 324.856V325.08ZM79.338 320.84C79.146 320.792 78.922 320.776 78.714 320.776C77.53 320.776 76.506 321.528 76.154 322.856V320.952H74.874V329H76.202V325.032C76.202 323 77.37 321.992 78.65 321.992C78.858 321.992 79.146 322.008 79.338 322.056V320.84ZM87.77 324.984C87.77 322.392 86.17 320.76 83.946 320.76C81.722 320.76 80.122 322.392 80.122 324.984C80.122 327.576 81.722 329.192 83.946 329.192C86.17 329.192 87.77 327.576 87.77 324.984ZM81.434 324.984C81.434 323.048 82.378 321.832 83.946 321.832C85.514 321.832 86.458 323.048 86.458 324.984C86.458 326.92 85.514 328.12 83.946 328.12C82.378 328.12 81.434 326.92 81.434 324.984ZM96.9381 324.984C96.9381 322.392 95.3381 320.76 93.1141 320.76C90.8901 320.76 89.2901 322.392 89.2901 324.984C89.2901 327.576 90.8901 329.192 93.1141 329.192C95.3381 329.192 96.9381 327.576 96.9381 324.984ZM90.6021 324.984C90.6021 323.048 91.5461 321.832 93.1141 321.832C94.6821 321.832 95.6261 323.048 95.6261 324.984C95.6261 326.92 94.6821 328.12 93.1141 328.12C91.5461 328.12 90.6021 326.92 90.6021 324.984ZM105.307 322.488C104.955 321.416 104.219 320.76 102.859 320.76C101.691 320.76 100.699 321.4 100.315 322.424V320.952H99.0346V329H100.363V324.568C100.363 322.712 101.275 321.848 102.491 321.848C103.707 321.848 104.235 322.6 104.235 324.104V329H105.579V324.568C105.579 322.712 106.491 321.848 107.691 321.848C108.891 321.848 109.435 322.6 109.435 324.104V329H110.779V323.816C110.779 321.928 109.867 320.76 108.011 320.76C106.827 320.76 105.803 321.4 105.307 322.488ZM112.687 326.616C112.831 328.344 114.271 329.192 116.191 329.192C117.999 329.192 119.327 328.152 119.327 326.744C119.327 325.448 118.559 324.808 117.247 324.552L115.647 324.248C114.719 324.072 114.239 323.784 114.239 323.096C114.239 322.312 114.927 321.784 115.999 321.784C117.103 321.784 117.823 322.264 117.919 323.08H119.151C118.991 321.56 117.855 320.76 115.999 320.76C114.223 320.76 113.007 321.816 113.007 323.176C113.007 324.584 113.951 325.112 115.247 325.352L116.671 325.64C117.695 325.832 118.079 326.216 118.079 326.808C118.079 327.672 117.279 328.184 116.175 328.184C115.087 328.184 114.063 327.72 113.967 326.616H112.687Z" fill="#2D2828"/>
<rect x="278" y="317" width="36" height="13" rx="6.5" fill="#E2DDD8"/>
<path d="M284.729 327H285.926V324.426H288.833V323.481H285.926V321.519H289.166V320.574H284.729V327ZM290.848 327H292.045V320.574H290.848V327ZM295.122 327V324.597H296.562L298.029 327H299.334L297.723 324.417C298.452 324.183 299.091 323.589 299.091 322.59C299.091 321.276 298.209 320.574 296.706 320.574H293.952V327H295.122ZM295.122 323.661V321.519H296.571C297.462 321.519 297.912 321.888 297.912 322.59C297.912 323.292 297.462 323.661 296.571 323.661H295.122ZM304.599 327L306.426 321.951H306.444V327H307.587V320.574H305.949L304.221 325.407H304.203L302.475 320.574H300.783V327H301.881V321.951H301.899L303.735 327H304.599Z" fill="#2D2828"/>
<rect x="33" y="342" width="291" height="30.1176" fill="white"/>
<path d="M41.368 354.712C41.368 353.016 40.152 351.384 37.752 351.384C35.352 351.384 33.976 353.08 33.864 355.096H35.16C35.256 353.72 36.168 352.536 37.736 352.536C39.432 352.536 40.056 353.624 40.056 354.712C40.056 356.04 38.824 356.888 37.304 357.864C35.608 358.92 33.64 360.344 33.64 362.376V363H41.48V361.848H35.112C35.112 360.808 36.488 359.848 37.88 358.92C39.592 357.816 41.368 356.856 41.368 354.712ZM48.009 361.592C48.409 362.408 49.401 363.192 50.729 363.192C52.777 363.192 54.313 361.528 54.313 358.984C54.313 356.424 52.777 354.76 50.729 354.76C49.337 354.76 48.425 355.56 48.057 356.376V351.224H46.729V363H48.009V361.592ZM47.993 358.856C47.993 357.032 48.889 355.8 50.457 355.8C52.041 355.8 52.969 357.096 52.969 358.984C52.969 360.856 52.041 362.152 50.457 362.152C48.889 362.152 47.993 360.904 47.993 359.08V358.856ZM61.3408 363H62.6688C62.5088 362.472 62.4768 361.912 62.4768 361.32V357.624C62.4768 355.688 61.2608 354.76 59.3088 354.76C57.5968 354.76 56.3168 355.688 56.1568 357.32H57.4368C57.5328 356.392 58.2048 355.832 59.2768 355.832C60.3808 355.832 61.1648 356.376 61.1648 357.656V358.12L58.5728 358.456C56.9408 358.648 55.7888 359.32 55.7888 360.872C55.7888 362.36 56.9888 363.176 58.3968 363.176C59.7408 363.176 60.8448 362.584 61.1968 361.64C61.1968 362.024 61.2448 362.552 61.3408 363ZM58.6688 362.168C57.6608 362.168 57.1328 361.592 57.1328 360.84C57.1328 359.752 57.9648 359.496 58.9728 359.352L61.1648 359.112V359.832C61.1648 361.384 59.9168 362.168 58.6688 362.168ZM68.8249 361.816C68.3129 361.976 67.9609 362.008 67.6569 362.008C66.9209 362.008 66.4889 361.72 66.4889 360.872V355.96H68.6169V354.952H66.5049V352.904H65.1929V354.952H64.0089V355.96H65.1929V360.936C65.1929 362.424 65.9449 363.128 67.4169 363.128C67.7689 363.128 68.2329 363.08 68.8249 362.904V361.816ZM72.1551 356.424V351.224H70.8271V363H72.1551V358.568C72.1551 356.632 73.1311 355.848 74.3631 355.848C75.6271 355.848 76.2831 356.616 76.2831 358.104V363H77.6111V357.816C77.6111 355.896 76.5391 354.76 74.7311 354.76C73.4991 354.76 72.5391 355.4 72.1551 356.424ZM84.678 354.84C84.486 354.792 84.262 354.776 84.054 354.776C82.87 354.776 81.846 355.528 81.494 356.856V354.952H80.214V363H81.542V359.032C81.542 357 82.71 355.992 83.99 355.992C84.198 355.992 84.486 356.008 84.678 356.056V354.84ZM93.11 358.984C93.11 356.392 91.51 354.76 89.286 354.76C87.062 354.76 85.462 356.392 85.462 358.984C85.462 361.576 87.062 363.192 89.286 363.192C91.51 363.192 93.11 361.576 93.11 358.984ZM86.774 358.984C86.774 357.048 87.718 355.832 89.286 355.832C90.854 355.832 91.798 357.048 91.798 358.984C91.798 360.92 90.854 362.12 89.286 362.12C87.718 362.12 86.774 360.92 86.774 358.984ZM102.278 358.984C102.278 356.392 100.678 354.76 98.4541 354.76C96.2301 354.76 94.6301 356.392 94.6301 358.984C94.6301 361.576 96.2301 363.192 98.4541 363.192C100.678 363.192 102.278 361.576 102.278 358.984ZM95.9421 358.984C95.9421 357.048 96.8861 355.832 98.4541 355.832C100.022 355.832 100.966 357.048 100.966 358.984C100.966 360.92 100.022 362.12 98.4541 362.12C96.8861 362.12 95.9421 360.92 95.9421 358.984ZM110.647 356.488C110.295 355.416 109.559 354.76 108.199 354.76C107.031 354.76 106.039 355.4 105.655 356.424V354.952H104.375V363H105.703V358.568C105.703 356.712 106.615 355.848 107.831 355.848C109.047 355.848 109.575 356.6 109.575 358.104V363H110.919V358.568C110.919 356.712 111.831 355.848 113.031 355.848C114.231 355.848 114.775 356.6 114.775 358.104V363H116.119V357.816C116.119 355.928 115.207 354.76 113.351 354.76C112.167 354.76 111.143 355.4 110.647 356.488ZM118.027 360.616C118.171 362.344 119.611 363.192 121.531 363.192C123.339 363.192 124.667 362.152 124.667 360.744C124.667 359.448 123.899 358.808 122.587 358.552L120.987 358.248C120.059 358.072 119.579 357.784 119.579 357.096C119.579 356.312 120.267 355.784 121.339 355.784C122.443 355.784 123.163 356.264 123.259 357.08H124.491C124.331 355.56 123.195 354.76 121.339 354.76C119.563 354.76 118.347 355.816 118.347 357.176C118.347 358.584 119.291 359.112 120.587 359.352L122.011 359.64C123.035 359.832 123.419 360.216 123.419 360.808C123.419 361.672 122.619 362.184 121.515 362.184C120.427 362.184 119.403 361.72 119.307 360.616H118.027Z" fill="#2D2828"/>
<rect x="255" y="352" width="59" height="13" rx="6.5" fill="#D1DBD5"/>
<path d="M261.729 362H262.926V359.426H265.833V358.481H262.926V356.519H266.166V355.574H261.729V362ZM267.848 362H272.357V361.055H269.045V355.574H267.848V362ZM278.646 362V361.055H275.163V359.255H278.214V358.31H275.163V356.519H278.61V355.574H273.993V362H278.646ZM284.75 362H286.109L283.553 358.58L285.821 355.574H284.561L282.932 357.77L281.312 355.574H279.953L282.248 358.661L279.728 362H280.988L282.869 359.48L284.75 362ZM287.391 362H288.588V355.574H287.391V362ZM293.313 362C294.798 362 295.662 361.379 295.662 360.173C295.662 359.426 295.131 358.859 294.429 358.67C294.951 358.517 295.401 357.896 295.401 357.329C295.401 356.177 294.582 355.574 293.079 355.574H290.496V362H293.313ZM291.666 358.292V356.456H293.079C293.862 356.456 294.249 356.789 294.249 357.374C294.249 357.932 293.871 358.292 293.07 358.292H291.666ZM291.666 359.147H293.214C294.042 359.147 294.483 359.525 294.483 360.128C294.483 360.749 294.051 361.118 293.223 361.118H291.666V359.147ZM297.212 362H301.721V361.055H298.409V355.574H297.212V362ZM308.011 362V361.055H304.528V359.255H307.579V358.31H304.528V356.519H307.975V355.574H303.358V362H308.011Z" fill="#72987F"/>
<path d="M131.263 124.966C136.046 112.466 150.513 104.029 163.615 98.7711C181.994 94.8582 197.728 102.211 206.893 116.831C213.512 128.73 211.594 140.152 200.561 153.404C191.027 164.856 163.615 165.288 147.085 161.892C131.949 158.783 127.392 135.08 131.263 124.966Z" fill="#72987F"/>
<path d="M171.967 150.773V130.759M171.967 150.773H190.804V130.759L181.385 119.574M171.967 150.773H149.597V130.759M171.967 130.759L181.385 119.574M171.967 130.759H149.597M181.385 119.574H159.605L149.597 130.759" stroke="#FBF8F5" stroke-width="1.44944"/>
<rect x="178.771" y="134.971" width="5.67264" height="15.8023" stroke="#FBF8F5" stroke-width="1.44944"/>
<rect x="153.649" y="134.971" width="5.67264" height="5.67264" stroke="#FBF8F5" stroke-width="1.44944"/>
<path d="M159.744 113.293L159.26 110.394" stroke="white" stroke-width="1.27322" stroke-linecap="round" stroke-linejoin="round"/>
<path d="M166.024 112.81L165.541 107.495" stroke="white" stroke-width="1.27322" stroke-linecap="round" stroke-linejoin="round"/>
<path d="M172.305 112.327L172.788 105.563" stroke="white" stroke-width="1.27322" stroke-linecap="round" stroke-linejoin="round"/>
<path d="M177.62 112.81L179.069 108.945" stroke="white" stroke-width="1.27322" stroke-linecap="round" stroke-linejoin="round"/>
<path d="M183.418 114.259L184.867 111.361" stroke="white" stroke-width="1.27322" stroke-linecap="round" stroke-linejoin="round"/>
<path d="M188.249 118.608L190.181 116.675" stroke="white" stroke-width="1.27322" stroke-linecap="round" stroke-linejoin="round"/>
<path d="M191.631 123.439L194.046 121.99" stroke="white" stroke-width="1.27322" stroke-linecap="round" stroke-linejoin="round"/>
<path d="M75.0511 189.944C78.9781 189.944 80.6791 187.718 80.6791 185.156C80.6791 182.888 79.0831 180.62 74.5471 180.62H66.9661V181.313C68.5411 181.376 69.5701 181.586 69.5701 183.056V194.564C69.5701 196.034 68.5411 196.244 66.9661 196.307V197H74.4421V196.307C72.5941 196.202 71.2711 196.034 71.2711 194.564V189.944H75.0511ZM71.2711 181.544H74.3791C77.4451 181.544 78.7891 182.972 78.7891 185.282C78.7891 187.949 77.4661 189.02 74.3371 189.02H71.2711V181.544ZM84.932 181.796L85.037 179.99H84.344L81.656 181.124V181.523L83.336 181.859V195.194C83.336 196.16 82.517 196.265 81.551 196.391V197H86.717V196.391C85.751 196.265 84.932 196.16 84.932 195.194V181.796ZM92.0101 196.097C90.8551 196.097 90.0361 195.446 90.0361 194.123C90.0361 193.22 90.5611 192.716 91.3591 192.464L95.4751 191.204V194.375C94.4041 195.32 93.3961 196.097 92.0101 196.097ZM97.0711 189.629C97.0711 186.941 95.4121 185.807 92.9761 185.807C90.7501 185.807 88.9021 186.815 88.9021 188.432C88.9021 188.81 89.0701 189.251 89.3431 189.44L90.7291 189.293C90.6241 188.978 90.6031 188.705 90.6031 188.453C90.6031 187.277 91.2751 186.773 92.5771 186.773C94.6141 186.773 95.4751 188.222 95.4751 189.839V190.343L91.3381 191.54C89.7841 191.981 88.2931 192.401 88.2931 194.396C88.2931 195.95 89.3851 197.231 91.5271 197.231C93.6061 197.231 94.7611 196.013 95.5381 195.152C95.6011 196.454 96.3571 197.21 97.3651 197.21C98.0581 197.21 98.6671 196.874 99.2761 196.307L99.0661 195.908C98.7511 196.034 98.4151 196.097 98.1421 196.097C97.4491 196.097 97.0711 195.551 97.0711 194.627V189.629ZM109.974 195.194C109.974 196.16 109.155 196.265 108.189 196.391V197H113.355V196.391C112.389 196.265 111.57 196.16 111.57 195.194V189.251C111.57 186.752 110.1 185.807 108.063 185.807C106.278 185.807 104.661 186.962 103.737 187.97L103.842 185.849H103.149L100.461 186.857V187.277L102.141 187.823V195.194C102.141 196.16 101.322 196.265 100.356 196.391V197H105.522V196.391C104.556 196.265 103.737 196.16 103.737 195.194V188.81C104.703 187.928 106.257 187.151 107.538 187.151C109.029 187.151 109.974 187.76 109.974 189.482V195.194ZM124.308 197.021L123.552 198.953C123.048 200.255 122.334 200.612 121.221 200.612H119.898V201.536C120.087 201.956 120.696 202.271 121.41 202.271C122.46 202.271 123.468 201.809 124.308 199.709L129.18 187.55C129.39 187.046 129.516 187.004 130.524 186.626V186.017H126.45V186.626C127.563 186.773 128.046 186.878 128.046 187.382C128.046 187.55 128.004 187.676 127.899 187.949L125.085 195.236L121.851 187.949C121.725 187.676 121.704 187.55 121.704 187.382C121.704 186.878 122.187 186.773 123.3 186.626V186.017H118.575V186.626C119.625 187.025 119.688 187.067 119.919 187.55L124.308 197.021ZM136.579 196.097C133.849 196.097 132.274 194.27 132.274 191.141C132.274 188.852 133.492 186.92 135.844 186.92C138.574 186.92 140.149 188.747 140.149 191.876C140.149 194.165 138.931 196.097 136.579 196.097ZM136.033 197.21C139.057 197.21 141.829 194.921 141.829 191.288C141.829 188.075 139.603 185.807 136.39 185.807C133.366 185.807 130.594 188.096 130.594 191.729C130.594 194.942 132.82 197.21 136.033 197.21ZM151.785 197.21H151.953L155.397 196.454V195.824L154.809 195.74C153.738 195.593 153.486 195.551 153.486 194.837V188.033L153.591 185.807H153.129L149.937 186.017V186.71L150.336 186.731C151.491 186.857 151.89 186.962 151.89 187.76V194.207C150.924 195.089 149.79 195.992 148.404 195.992C147.018 195.992 146.031 195.257 146.031 193.535V188.033L146.136 185.807H145.674L142.503 186.017V186.71L142.881 186.731C144.036 186.857 144.435 186.962 144.435 187.76V193.703C144.435 196.265 145.947 197.21 147.9 197.21C149.769 197.21 150.966 196.097 151.89 195.089L151.785 197.21ZM160.267 185.849H159.553L156.886 186.857V187.277L158.566 187.823V195.194C158.566 196.16 157.747 196.265 156.781 196.391V197H162.367V196.391C160.729 196.223 160.162 196.16 160.162 195.068V189.692C161.548 187.97 162.262 187.445 163.795 187.445H164.446V186.101C164.278 185.933 164.005 185.807 163.522 185.807C162.031 185.807 161.002 187.508 160.162 188.873L160.267 185.849ZM173.873 188.096L173.978 185.849H173.285L170.597 186.857V187.277L172.277 187.823V195.194C172.277 196.16 171.458 196.265 170.492 196.391V197H175.658V196.391C174.692 196.265 173.873 196.16 173.873 195.194V188.096ZM171.689 182.447C171.689 183.14 172.214 183.665 172.907 183.665C173.6 183.665 174.146 183.14 174.146 182.447C174.146 181.754 173.6 181.208 172.907 181.208C172.214 181.208 171.689 181.754 171.689 182.447ZM182.392 186.815C184.534 186.815 185.815 187.865 185.815 189.944V194.396C185.038 195.299 183.778 195.95 182.392 195.95C179.788 195.95 178.486 193.892 178.486 191.435C178.486 188.474 180.061 186.815 182.392 186.815ZM189.301 196.454V195.824L188.713 195.74C187.621 195.593 187.39 195.551 187.39 194.837V181.796L187.495 179.99H186.781L184.135 181.124V181.523L185.815 181.859V186.794C185.143 186.248 184.114 185.807 182.644 185.807C179.515 185.807 176.827 188.201 176.827 192.044C176.827 194.774 178.633 197.21 181.93 197.21C183.463 197.21 184.807 196.433 185.815 195.299L185.71 197.21H185.857L189.301 196.454ZM195.6 185.807C192.366 185.807 190.203 188.306 190.203 191.876C190.203 194.669 192.072 197.21 195.558 197.21C198.183 197.21 199.611 195.782 200.199 194.165L199.674 193.976C198.729 195.173 197.763 195.866 195.957 195.866C193.248 195.866 191.463 193.829 191.673 190.7H200.157V190.196C200.157 187.697 198.603 185.807 195.6 185.807ZM195.18 186.878C197.28 186.878 198.414 188.138 198.414 189.797H191.82C192.177 188.075 193.458 186.878 195.18 186.878ZM205.42 196.097C204.265 196.097 203.446 195.446 203.446 194.123C203.446 193.22 203.971 192.716 204.769 192.464L208.885 191.204V194.375C207.814 195.32 206.806 196.097 205.42 196.097ZM210.481 189.629C210.481 186.941 208.822 185.807 206.386 185.807C204.16 185.807 202.312 186.815 202.312 188.432C202.312 188.81 202.48 189.251 202.753 189.44L204.139 189.293C204.034 188.978 204.013 188.705 204.013 188.453C204.013 187.277 204.685 186.773 205.987 186.773C208.024 186.773 208.885 188.222 208.885 189.839V190.343L204.748 191.54C203.194 191.981 201.703 192.401 201.703 194.396C201.703 195.95 202.795 197.231 204.937 197.231C207.016 197.231 208.171 196.013 208.948 195.152C209.011 196.454 209.767 197.21 210.775 197.21C211.468 197.21 212.077 196.874 212.686 196.307L212.476 195.908C212.161 196.034 211.825 196.097 211.552 196.097C210.859 196.097 210.481 195.551 210.481 194.627V189.629ZM216.79 181.796L216.895 179.99H216.202L213.514 181.124V181.523L215.194 181.859V195.194C215.194 196.16 214.375 196.265 213.409 196.391V197H218.575V196.391C217.609 196.265 216.79 196.16 216.79 195.194V181.796ZM226.444 181.859V195.194C226.444 196.16 225.625 196.265 224.659 196.391V197H229.804V196.391C228.838 196.265 228.04 196.16 228.04 195.194V188.81C229.006 187.928 230.56 187.151 231.841 187.151C233.332 187.151 234.277 187.76 234.277 189.482V195.194C234.277 196.16 233.458 196.265 232.492 196.391V197H237.658V196.391C236.692 196.265 235.873 196.16 235.873 195.194V189.251C235.873 186.752 234.403 185.807 232.366 185.807C230.581 185.807 228.964 186.962 228.04 187.97V181.796L228.145 179.99H227.431L224.764 181.124V181.523L226.444 181.859ZM244.636 196.097C241.906 196.097 240.331 194.27 240.331 191.141C240.331 188.852 241.549 186.92 243.901 186.92C246.631 186.92 248.206 188.747 248.206 191.876C248.206 194.165 246.988 196.097 244.636 196.097ZM244.09 197.21C247.114 197.21 249.886 194.921 249.886 191.288C249.886 188.075 247.66 185.807 244.447 185.807C241.423 185.807 238.651 188.096 238.651 191.729C238.651 194.942 240.877 197.21 244.09 197.21ZM261.984 188.033C261.648 186.584 260.619 185.807 258.981 185.807C257.07 185.807 255.705 186.962 254.781 187.97L254.886 185.849H254.193L251.505 186.857V187.277L253.185 187.823V195.194C253.185 196.16 252.366 196.265 251.4 196.391V197H256.566V196.391C255.6 196.265 254.781 196.16 254.781 195.194V188.81C255.747 187.928 257.049 187.151 258.33 187.151C259.821 187.151 260.493 187.844 260.493 189.482V195.194C260.493 196.16 259.674 196.265 258.708 196.391V197H263.874V196.391C262.908 196.265 262.089 196.16 262.089 195.194V188.81C263.055 187.928 264.357 187.151 265.638 187.151C267.129 187.151 267.801 187.844 267.801 189.482V195.194C267.801 196.16 266.982 196.265 266.016 196.391V197H271.182V196.391C270.216 196.265 269.397 196.16 269.397 195.194V189.125C269.397 186.962 268.305 185.807 266.289 185.807C264.378 185.807 262.908 187.025 261.984 188.033ZM277.569 185.807C274.335 185.807 272.172 188.306 272.172 191.876C272.172 194.669 274.041 197.21 277.527 197.21C280.152 197.21 281.58 195.782 282.168 194.165L281.643 193.976C280.698 195.173 279.732 195.866 277.926 195.866C275.217 195.866 273.432 193.829 273.642 190.7H282.126V190.196C282.126 187.697 280.572 185.807 277.569 185.807ZM277.149 186.878C279.249 186.878 280.383 188.138 280.383 189.797H273.789C274.146 188.075 275.427 186.878 277.149 186.878Z" fill="#2D2828"/>
<line x1="33" y1="218.75" x2="313" y2="218.75" stroke="#E0DFDD" stroke-width="0.5"/>
</g>
</g>
<defs>
<filter id="filter0_d" x="0.982221" y="22.9822" width="344.036" height="384.036" filterUnits="userSpaceOnUse" color-interpolation-filters="sRGB">
<feFlood flood-opacity="0" result="BackgroundImageFix"/>
<feColorMatrix in="SourceAlpha" type="matrix" values="0 0 0 0 0 0 0 0 0 0 0 0 0 0 0 0 0 0 127 0"/>
<feOffset/>
<feGaussianBlur stdDeviation="6.00889"/>
<feColorMatrix type="matrix" values="0 0 0 0 0 0 0 0 0 0 0 0 0 0 0 0 0 0 0.02 0"/>
<feBlend mode="normal" in2="BackgroundImageFix" result="effect1_dropShadow"/>
<feBlend mode="normal" in="SourceGraphic" in2="effect1_dropShadow" result="shape"/>
</filter>
</defs>
</svg>
