<svg fill="none" height="386" viewBox="0 0 346 386" width="346" xmlns="http://www.w3.org/2000/svg" xmlns:xlink="http://www.w3.org/1999/xlink"><filter id="a" color-interpolation-filters="sRGB" filterUnits="userSpaceOnUse" height="384.536" width="344.032" x=".98515" y=".482175"><feFlood flood-opacity="0" result="BackgroundImageFix"/><feColorMatrix in="SourceAlpha" type="matrix" values="0 0 0 0 0 0 0 0 0 0 0 0 0 0 0 0 0 0 127 0"/><feOffset/><feGaussianBlur stdDeviation="6.00889"/><feColorMatrix type="matrix" values="0 0 0 0 0 0 0 0 0 0 0 0 0 0 0 0 0 0 0.05 0"/><feBlend in2="BackgroundImageFix" mode="normal" result="effect1_dropShadow"/><feBlend in="SourceGraphic" in2="effect1_dropShadow" mode="normal" result="shape"/></filter><filter id="b" color-interpolation-filters="sRGB" filterUnits="userSpaceOnUse" height="440.036" width="344.036" x=".982221" y=".982221"><feFlood flood-opacity="0" result="BackgroundImageFix"/><feColorMatrix in="SourceAlpha" type="matrix" values="0 0 0 0 0 0 0 0 0 0 0 0 0 0 0 0 0 0 127 0"/><feOffset/><feGaussianBlur stdDeviation="6.00889"/><feColorMatrix type="matrix" values="0 0 0 0 0 0 0 0 0 0 0 0 0 0 0 0 0 0 0.2 0"/><feBlend in2="BackgroundImageFix" mode="normal" result="effect1_dropShadow"/><feBlend in="SourceGraphic" in2="effect1_dropShadow" mode="normal" result="shape"/></filter><mask id="c" height="361" maskUnits="userSpaceOnUse" width="320" x="13" y="12"><path d="m326.235 30.9587c1.449 2.1716 3.866 1.6287 6.765 1.0858v328.9555c0 6.627-5.373 12-12 12h-295.9969c-6.6286 0-12.0017-5.374-12-12.003l.0779-302.3502c.3221.3619 2.2563 1.0858 3.416 1.0858 1.4497 0 3.8657 0 4.3489-1.0858.4833-1.0858 4.3489-1.6287 5.3154-1.6287h4.3489c1.4496 0 3.3824-3.2574 4.3488-4.3432.9665-1.0858 5.7985-.5429 6.2817-.5429.4833 0 4.349 1.0858 5.3154 1.6287s2.8992-1.6287 3.8657-2.1716c.7731-.4344 2.5771-.9049 3.3825-1.0858 1.9328-1.2668 5.9918-3.909 6.7649-4.3433.9664-.5429 1.4497-.5429 3.3825-.5429s2.8992 0 4.3489.5429c1.4496.5429 3.8657 0 5.7985 0s4.8319-.5429 5.7983 0 5.7985 1.6287 6.2817 1.0858c.3866-.4343 2.7382.181 3.8657.5429h3.3825c.9664 0 2.416-2.1716 2.8993-2.1716.4832 0 1.9328.5429 2.8992 1.6287.9662 1.0858 2.4162 0 3.3822 0 .967 0 1.45 0 2.9.5429 1.449.5429 2.899 1.6287 3.865 1.0858.967-.5429 1.933-1.0858 3.866-1.0858s3.866 1.6288 5.315 1.6288c1.16 0 2.416 1.4477 2.9 2.1716.483-.7239 1.642-2.1716 2.416-2.1716.966 0 2.416-2.1717 2.899-3.2575s1.449 1.0858 2.899 1.0858 2.416-.5429 2.899-1.0858c.484-.5429 1.933-3.2574 2.9-3.2574.773 0 3.543-.7239 4.832-1.0858l2.899 1.6287 1.933-.5429 2.899-1.6287.967 3.2574 1.449 1.0858 1.45-3.8003h3.382c.266-.448 2.526-1.3202 2.658-1.5665-.192-.0368-.285-.0592-.242-.0622.203-.0141.27.01.242.0622.955.1828 4.35.7223 5.557 1.0236l1.449 1.0858h1.933l1.933-2.7145c.806-.181 2.61-.5429 3.383-.5429.966 0 3.382 2.1716 3.865 2.1716h3.866c1.45 0 1.45-1.0858 4.349-1.0858s2.558 2.1716 3.382 2.1716c.232 0 1.933-2.1716 2.416-3.2574.161-.3599 2.305-2.5942 2.569-2.0014.373.8377 4.68-.1702 5.163-1.799.161-.5429 1.933-1.6287 4.349-.5429s6.281-3.2574 7.248-4.8861c.966-1.6287 6.282-4.3432 7.248-5.429.966-1.0859 7.248-2.7146 8.698-3.8004 1.449-1.0858 3.382-2.1716 4.349-3.2574.966-1.0858 2.899-1.0858 4.832.5429s4.832 1.0858 7.248 1.6287 2.416-1.0858 4.349-1.0858h8.698c1.932 0 5.315-1.6287 6.765-2.1716 1.449-.5429 5.315 0 7.731 0s5.315-1.0858 6.765-1.6287c1.449-.5429.483-2.1716 1.933-2.1716 1.449 0 2.899 1.0858 5.315 2.1716s3.383.5429 4.349.5429 2.416-2.7145 4.349-2.7145 3.866 1.0858 5.315 1.0858c1.45 0 3.866 0 5.315 1.0858 1.45 1.0858 1.933 2.1716 3.866 2.7145s2.416 0 4.349 1.0858 3.866 1.0858 5.315 1.0858c1.45 0 2.9 4.3433 4.832 4.8862 1.933.5429 3.866 4.3432 5.316 6.5148z" fill="#679a7c"/><path d="m326.235 30.9587c1.449 2.1716 3.866 1.6287 6.765 1.0858v328.9555c0 6.627-5.373 12-12 12h-295.9969c-6.6286 0-12.0017-5.374-12-12.003l.0779-302.3502c.3221.3619 2.2563 1.0858 3.416 1.0858 1.4497 0 3.8657 0 4.3489-1.0858.4833-1.0858 4.3489-1.6287 5.3154-1.6287h4.3489c1.4496 0 3.3824-3.2574 4.3488-4.3432.9665-1.0858 5.7985-.5429 6.2817-.5429.4833 0 4.349 1.0858 5.3154 1.6287s2.8992-1.6287 3.8657-2.1716c.7731-.4344 2.5771-.9049 3.3825-1.0858 1.9328-1.2668 5.9918-3.909 6.7649-4.3433.9664-.5429 1.4497-.5429 3.3825-.5429s2.8992 0 4.3489.5429c1.4496.5429 3.8657 0 5.7985 0s4.8319-.5429 5.7983 0 5.7985 1.6287 6.2817 1.0858c.3866-.4343 2.7382.181 3.8657.5429h3.3825c.9664 0 2.416-2.1716 2.8993-2.1716.4832 0 1.9328.5429 2.8992 1.6287.9662 1.0858 2.4162 0 3.3822 0 .967 0 1.45 0 2.9.5429 1.449.5429 2.899 1.6287 3.865 1.0858.967-.5429 1.933-1.0858 3.866-1.0858s3.866 1.6288 5.315 1.6288c1.16 0 2.416 1.4477 2.9 2.1716.483-.7239 1.642-2.1716 2.416-2.1716.966 0 2.416-2.1717 2.899-3.2575s1.449 1.0858 2.899 1.0858 2.416-.5429 2.899-1.0858c.484-.5429 1.933-3.2574 2.9-3.2574.773 0 3.543-.7239 4.832-1.0858l2.899 1.6287 1.933-.5429 2.899-1.6287.967 3.2574 1.449 1.0858 1.45-3.8003h3.382c.266-.448 2.526-1.3202 2.658-1.5665-.192-.0368-.285-.0592-.242-.0622.203-.0141.27.01.242.0622.955.1828 4.35.7223 5.557 1.0236l1.449 1.0858h1.933l1.933-2.7145c.806-.181 2.61-.5429 3.383-.5429.966 0 3.382 2.1716 3.865 2.1716h3.866c1.45 0 1.45-1.0858 4.349-1.0858s2.558 2.1716 3.382 2.1716c.232 0 1.933-2.1716 2.416-3.2574.161-.3599 2.305-2.5942 2.569-2.0014.373.8377 4.68-.1702 5.163-1.799.161-.5429 1.933-1.6287 4.349-.5429s6.281-3.2574 7.248-4.8861c.966-1.6287 6.282-4.3432 7.248-5.429.966-1.0859 7.248-2.7146 8.698-3.8004 1.449-1.0858 3.382-2.1716 4.349-3.2574.966-1.0858 2.899-1.0858 4.832.5429s4.832 1.0858 7.248 1.6287 2.416-1.0858 4.349-1.0858h8.698c1.932 0 5.315-1.6287 6.765-2.1716 1.449-.5429 5.315 0 7.731 0s5.315-1.0858 6.765-1.6287c1.449-.5429.483-2.1716 1.933-2.1716 1.449 0 2.899 1.0858 5.315 2.1716s3.383.5429 4.349.5429 2.416-2.7145 4.349-2.7145 3.866 1.0858 5.315 1.0858c1.45 0 3.866 0 5.315 1.0858 1.45 1.0858 1.933 2.1716 3.866 2.7145s2.416 0 4.349 1.0858 3.866 1.0858 5.315 1.0858c1.45 0 2.9 4.3433 4.832 4.8862 1.933.5429 3.866 4.3432 5.316 6.5148z" fill="#e2ddd8" fill-opacity=".1"/></mask><g filter="url(#a)"><path d="m326.235 30.9587c1.449 2.1716 3.866 1.6287 6.765 1.0858v328.9555c0 6.627-5.373 12-12 12h-295.9969c-6.6286 0-12.0017-5.374-12-12.003l.0779-302.3502c.3221.3619 2.2563 1.0858 3.416 1.0858 1.4497 0 3.8657 0 4.3489-1.0858.4833-1.0858 4.3489-1.6287 5.3154-1.6287h4.3489c1.4496 0 3.3824-3.2574 4.3488-4.3432.9665-1.0858 5.7985-.5429 6.2817-.5429.4833 0 4.349 1.0858 5.3154 1.6287s2.8992-1.6287 3.8657-2.1716c.7731-.4344 2.5771-.9049 3.3825-1.0858 1.9328-1.2668 5.9918-3.909 6.7649-4.3433.9664-.5429 1.4497-.5429 3.3825-.5429s2.8992 0 4.3489.5429c1.4496.5429 3.8657 0 5.7985 0s4.8319-.5429 5.7983 0 5.7985 1.6287 6.2817 1.0858c.3866-.4343 2.7382.181 3.8657.5429h3.3825c.9664 0 2.416-2.1716 2.8993-2.1716.4832 0 1.9328.5429 2.8992 1.6287.9662 1.0858 2.4162 0 3.3822 0 .967 0 1.45 0 2.9.5429 1.449.5429 2.899 1.6287 3.865 1.0858.967-.5429 1.933-1.0858 3.866-1.0858s3.866 1.6288 5.315 1.6288c1.16 0 2.416 1.4477 2.9 2.1716.483-.7239 1.642-2.1716 2.416-2.1716.966 0 2.416-2.1717 2.899-3.2575s1.449 1.0858 2.899 1.0858 2.416-.5429 2.899-1.0858c.484-.5429 1.933-3.2574 2.9-3.2574.773 0 3.543-.7239 4.832-1.0858l2.899 1.6287 1.933-.5429 2.899-1.6287.967 3.2574 1.449 1.0858 1.45-3.8003h3.382c.266-.448 2.526-1.3202 2.658-1.5665-.192-.0368-.285-.0592-.242-.0622.203-.0141.27.01.242.0622.955.1828 4.35.7223 5.557 1.0236l1.449 1.0858h1.933l1.933-2.7145c.806-.181 2.61-.5429 3.383-.5429.966 0 3.382 2.1716 3.865 2.1716h3.866c1.45 0 1.45-1.0858 4.349-1.0858s2.558 2.1716 3.382 2.1716c.232 0 1.933-2.1716 2.416-3.2574.161-.3599 2.305-2.5942 2.569-2.0014.373.8377 4.68-.1702 5.163-1.799.161-.5429 1.933-1.6287 4.349-.5429s6.281-3.2574 7.248-4.8861c.966-1.6287 6.282-4.3432 7.248-5.429.966-1.0859 7.248-2.7146 8.698-3.8004 1.449-1.0858 3.382-2.1716 4.349-3.2574.966-1.0858 2.899-1.0858 4.832.5429s4.832 1.0858 7.248 1.6287 2.416-1.0858 4.349-1.0858h8.698c1.932 0 5.315-1.6287 6.765-2.1716 1.449-.5429 5.315 0 7.731 0s5.315-1.0858 6.765-1.6287c1.449-.5429.483-2.1716 1.933-2.1716 1.449 0 2.899 1.0858 5.315 2.1716s3.383.5429 4.349.5429 2.416-2.7145 4.349-2.7145 3.866 1.0858 5.315 1.0858c1.45 0 3.866 0 5.315 1.0858 1.45 1.0858 1.933 2.1716 3.866 2.7145s2.416 0 4.349 1.0858 3.866 1.0858 5.315 1.0858c1.45 0 2.9 4.3433 4.832 4.8862 1.933.5429 3.866 4.3432 5.316 6.5148z" fill="#679a7c"/><path d="m326.235 30.9587c1.449 2.1716 3.866 1.6287 6.765 1.0858v328.9555c0 6.627-5.373 12-12 12h-295.9969c-6.6286 0-12.0017-5.374-12-12.003l.0779-302.3502c.3221.3619 2.2563 1.0858 3.416 1.0858 1.4497 0 3.8657 0 4.3489-1.0858.4833-1.0858 4.3489-1.6287 5.3154-1.6287h4.3489c1.4496 0 3.3824-3.2574 4.3488-4.3432.9665-1.0858 5.7985-.5429 6.2817-.5429.4833 0 4.349 1.0858 5.3154 1.6287s2.8992-1.6287 3.8657-2.1716c.7731-.4344 2.5771-.9049 3.3825-1.0858 1.9328-1.2668 5.9918-3.909 6.7649-4.3433.9664-.5429 1.4497-.5429 3.3825-.5429s2.8992 0 4.3489.5429c1.4496.5429 3.8657 0 5.7985 0s4.8319-.5429 5.7983 0 5.7985 1.6287 6.2817 1.0858c.3866-.4343 2.7382.181 3.8657.5429h3.3825c.9664 0 2.416-2.1716 2.8993-2.1716.4832 0 1.9328.5429 2.8992 1.6287.9662 1.0858 2.4162 0 3.3822 0 .967 0 1.45 0 2.9.5429 1.449.5429 2.899 1.6287 3.865 1.0858.967-.5429 1.933-1.0858 3.866-1.0858s3.866 1.6288 5.315 1.6288c1.16 0 2.416 1.4477 2.9 2.1716.483-.7239 1.642-2.1716 2.416-2.1716.966 0 2.416-2.1717 2.899-3.2575s1.449 1.0858 2.899 1.0858 2.416-.5429 2.899-1.0858c.484-.5429 1.933-3.2574 2.9-3.2574.773 0 3.543-.7239 4.832-1.0858l2.899 1.6287 1.933-.5429 2.899-1.6287.967 3.2574 1.449 1.0858 1.45-3.8003h3.382c.266-.448 2.526-1.3202 2.658-1.5665-.192-.0368-.285-.0592-.242-.0622.203-.0141.27.01.242.0622.955.1828 4.35.7223 5.557 1.0236l1.449 1.0858h1.933l1.933-2.7145c.806-.181 2.61-.5429 3.383-.5429.966 0 3.382 2.1716 3.865 2.1716h3.866c1.45 0 1.45-1.0858 4.349-1.0858s2.558 2.1716 3.382 2.1716c.232 0 1.933-2.1716 2.416-3.2574.161-.3599 2.305-2.5942 2.569-2.0014.373.8377 4.68-.1702 5.163-1.799.161-.5429 1.933-1.6287 4.349-.5429s6.281-3.2574 7.248-4.8861c.966-1.6287 6.282-4.3432 7.248-5.429.966-1.0859 7.248-2.7146 8.698-3.8004 1.449-1.0858 3.382-2.1716 4.349-3.2574.966-1.0858 2.899-1.0858 4.832.5429s4.832 1.0858 7.248 1.6287 2.416-1.0858 4.349-1.0858h8.698c1.932 0 5.315-1.6287 6.765-2.1716 1.449-.5429 5.315 0 7.731 0s5.315-1.0858 6.765-1.6287c1.449-.5429.483-2.1716 1.933-2.1716 1.449 0 2.899 1.0858 5.315 2.1716s3.383.5429 4.349.5429 2.416-2.7145 4.349-2.7145 3.866 1.0858 5.315 1.0858c1.45 0 3.866 0 5.315 1.0858 1.45 1.0858 1.933 2.1716 3.866 2.7145s2.416 0 4.349 1.0858 3.866 1.0858 5.315 1.0858c1.45 0 2.9 4.3433 4.832 4.8862 1.933.5429 3.866 4.3432 5.316 6.5148z" fill="#e2ddd8" fill-opacity=".1"/></g><g mask="url(#c)"><g filter="url(#b)"><path d="m13 25.0178c0-6.6372 5.3805-12.0178 12.0178-12.0178h295.9642c6.637 0 12.018 5.3805 12.018 12.0178v403.9822h-320z" fill="#fff"/></g><rect fill="#c48b7f" height="13" rx="6.5" width="45" x="268" y="228"/><path d="m35.208 233.272c0-2.848 1.36-4.72 3.712-4.72 1.92 0 2.752 1.072 3.008 2.352h1.344c-.368-2.08-1.856-3.52-4.352-3.52-2.944 0-5.12 2.304-5.12 5.888 0 3.6 2.176 5.92 5.12 5.92 2.496 0 3.984-1.44 4.352-3.52h-1.344c-.256 1.28-1.088 2.352-3.008 2.352-2.352 0-3.712-1.904-3.712-4.752zm17.0808 1.712c0-2.592-1.6-4.224-3.824-4.224s-3.824 1.632-3.824 4.224 1.6 4.208 3.824 4.208 3.824-1.616 3.824-4.208zm-6.336 0c0-1.936.944-3.152 2.512-3.152s2.512 1.216 2.512 3.152-.944 3.136-2.512 3.136-2.512-1.2-2.512-3.136zm14.7045-2.496c-.352-1.072-1.088-1.728-2.448-1.728-1.168 0-2.16.64-2.544 1.664v-1.472h-1.28v8.048h1.328v-4.432c0-1.856.912-2.72 2.128-2.72s1.744.752 1.744 2.256v4.896h1.344v-4.432c0-1.856.912-2.72 2.112-2.72s1.744.752 1.744 2.256v4.896h1.344v-5.184c0-1.888-.912-3.056-2.768-3.056-1.184 0-2.208.64-2.704 1.728zm14.34 0c-.352-1.072-1.088-1.728-2.448-1.728-1.168 0-2.16.64-2.544 1.664v-1.472h-1.28v8.048h1.328v-4.432c0-1.856.912-2.72 2.128-2.72s1.744.752 1.744 2.256v4.896h1.344v-4.432c0-1.856.912-2.72 2.112-2.72s1.744.752 1.744 2.256v4.896h1.344v-5.184c0-1.888-.912-3.056-2.768-3.056-1.184 0-2.208.64-2.704 1.728zm14.692 6.512v-8.048h-1.344v4.432c0 1.936-.912 2.768-2.128 2.768-1.264 0-1.888-.784-1.888-2.272v-4.928h-1.344v5.184c0 1.952 1.024 3.056 2.848 3.056 1.216 0 2.176-.64 2.56-1.648v1.456zm6.4287-1.184c-.512.16-.864.192-1.168.192-.736 0-1.168-.288-1.168-1.136v-4.912h2.128v-1.008h-2.112v-2.048h-1.312v2.048h-1.184v1.008h1.184v4.976c0 1.488.752 2.192 2.224 2.192.352 0 .816-.048 1.408-.224zm8.517-1.184h-1.248c-.336.976-.992 1.504-2.08 1.504-1.5365 0-2.5125-1.024-2.5765-2.88h5.9525v-.528c0-2.064-1.072-3.968-3.456-3.968-2.1445 0-3.7925 1.632-3.7925 4.256 0 2.592 1.6 4.176 3.8725 4.176 1.568 0 2.96-.848 3.328-2.56zm-3.408-4.8c1.44 0 2.128 1.072 2.16 2.464h-4.6085c.224-1.648 1.184-2.464 2.4485-2.464zm12.967-4.256h-4.048v11.424h4.048c3.312 0 5.568-2.272 5.568-5.712 0-3.424-2.256-5.712-5.568-5.712zm0 1.152c2.656 0 4.144 1.808 4.144 4.56 0 2.768-1.488 4.56-4.144 4.56h-2.688v-9.12zm7.538.544h1.504v-1.616h-1.504zm.096 9.728h1.328v-8.048h-1.328zm3.324-2.384c.144 1.728 1.584 2.576 3.504 2.576 1.808 0 3.136-1.04 3.136-2.448 0-1.296-.768-1.936-2.08-2.192l-1.6-.304c-.928-.176-1.408-.464-1.408-1.152 0-.784.688-1.312 1.76-1.312 1.104 0 1.824.48 1.92 1.296h1.232c-.16-1.52-1.296-2.32-3.152-2.32-1.776 0-2.992 1.056-2.992 2.416 0 1.408.944 1.936 2.24 2.176l1.424.288c1.024.192 1.408.576 1.408 1.168 0 .864-.8 1.376-1.904 1.376-1.088 0-2.112-.464-2.208-1.568zm12.522 1.2c-.512.16-.864.192-1.168.192-.736 0-1.168-.288-1.168-1.136v-4.912h2.128v-1.008h-2.112v-2.048h-1.312v2.048h-1.184v1.008h1.184v4.976c0 1.488.752 2.192 2.224 2.192.352 0 .816-.048 1.408-.224zm6.93 1.184h1.328c-.16-.528-.192-1.088-.192-1.68v-3.696c0-1.936-1.216-2.864-3.168-2.864-1.712 0-2.992.928-3.152 2.56h1.28c.096-.928.768-1.488 1.84-1.488 1.104 0 1.888.544 1.888 1.824v.464l-2.592.336c-1.632.192-2.784.864-2.784 2.416 0 1.488 1.2 2.304 2.608 2.304 1.344 0 2.448-.592 2.8-1.536 0 .384.048.912.144 1.36zm-2.672-.832c-1.008 0-1.536-.576-1.536-1.328 0-1.088.832-1.344 1.84-1.488l2.192-.24v.72c0 1.552-1.248 2.336-2.496 2.336zm7.692-7.216h-1.28v8.048h1.328v-4.432c0-1.936.976-2.72 2.208-2.72 1.264 0 1.92.768 1.92 2.256v4.896h1.328v-5.184c0-1.92-1.072-3.056-2.88-3.056-1.232 0-2.24.672-2.624 1.664zm7.515 4.032c0 2.576 1.552 4.208 3.792 4.208 1.792 0 2.976-1.008 3.232-2.736h-1.264c-.224 1.072-.88 1.664-1.968 1.664-1.584 0-2.48-1.248-2.48-3.136s.896-3.152 2.48-3.152c1.088 0 1.744.592 1.968 1.664h1.264c-.256-1.712-1.44-2.736-3.232-2.736-2.24 0-3.792 1.648-3.792 4.224zm15.665 1.648h-1.248c-.336.976-.992 1.504-2.08 1.504-1.536 0-2.512-1.024-2.576-2.88h5.952v-.528c0-2.064-1.072-3.968-3.456-3.968-2.144 0-3.792 1.632-3.792 4.256 0 2.592 1.6 4.176 3.872 4.176 1.568 0 2.96-.848 3.328-2.56zm-3.408-4.8c1.44 0 2.128 1.072 2.16 2.464h-4.608c.224-1.648 1.184-2.464 2.448-2.464z" fill="#2d2828"/><path d="m275.32 235.579 4.149 1.809v-.981l-3.24-1.377 3.24-1.386v-.972l-4.149 1.809zm5.546-2.268h1.314v4.689h1.188v-6.444h-.819c-.153.666-.585.963-1.683.963zm3.98 1.476c0 1.926 1.062 3.321 2.736 3.321s2.727-1.395 2.727-3.321-1.053-3.321-2.727-3.321-2.736 1.395-2.736 3.321zm1.206 0c0-1.458.504-2.385 1.53-2.385 1.017 0 1.521.927 1.521 2.385s-.504 2.385-1.521 2.385c-1.026 0-1.53-.927-1.53-2.385zm9.929 3.213h1.44l-2.907-3.636 2.655-2.79h-1.368l-2.97 3.231v-3.231h-1.197v6.426h1.197v-1.863l.891-.936zm6.293 0 1.827-5.049h.018v5.049h1.143v-6.426h-1.638l-1.728 4.833h-.018l-1.728-4.833h-1.692v6.426h1.098v-5.049h.018l1.836 5.049z" fill="#fff"/><path d="m33 252h291v30.1176h-291z" fill="#fff"/><path d="m38.536 261.576h-4.048v11.424h4.048c3.312 0 5.568-2.272 5.568-5.712 0-3.424-2.256-5.712-5.568-5.712zm0 1.152c2.656 0 4.144 1.808 4.144 4.56 0 2.768-1.488 4.56-4.144 4.56h-2.688v-9.12zm14.2423 7.904h-1.248c-.336.976-.992 1.504-2.08 1.504-1.536 0-2.512-1.024-2.576-2.88h5.952v-.528c0-2.064-1.072-3.968-3.456-3.968-2.144 0-3.792 1.632-3.792 4.256 0 2.592 1.6 4.176 3.872 4.176 1.568 0 2.96-.848 3.328-2.56zm-3.408-4.8c1.44 0 2.128 1.072 2.16 2.464h-4.608c.224-1.648 1.184-2.464 2.448-2.464zm9.2902 5.984c-.512.16-.864.192-1.168.192-.736 0-1.168-.288-1.168-1.136v-4.912h2.128v-1.008h-2.112v-2.048h-1.312v2.048h-1.184v1.008h1.184v4.976c0 1.488.752 2.192 2.224 2.192.352 0 .816-.048 1.408-.224zm6.9303 1.184h1.328c-.16-.528-.192-1.088-.192-1.68v-3.696c0-1.936-1.216-2.864-3.168-2.864-1.712 0-2.992.928-3.152 2.56h1.28c.096-.928.768-1.488 1.84-1.488 1.104 0 1.888.544 1.888 1.824v.464l-2.592.336c-1.632.192-2.784.864-2.784 2.416 0 1.488 1.2 2.304 2.608 2.304 1.344 0 2.448-.592 2.8-1.536 0 .384.048.912.144 1.36zm-2.672-.832c-1.008 0-1.536-.576-1.536-1.328 0-1.088.832-1.344 1.84-1.488l2.192-.24v.72c0 1.552-1.248 2.336-2.496 2.336zm5.8201-3.184c0 2.576 1.552 4.208 3.792 4.208 1.792 0 2.976-1.008 3.232-2.736h-1.264c-.224 1.072-.88 1.664-1.968 1.664-1.584 0-2.48-1.248-2.48-3.136s.896-3.152 2.48-3.152c1.088 0 1.744.592 1.968 1.664h1.264c-.256-1.712-1.44-2.736-3.232-2.736-2.24 0-3.792 1.648-3.792 4.224zm10.385-2.56v-5.2h-1.328v11.776h1.328v-4.432c0-1.936.976-2.72 2.208-2.72 1.264 0 1.92.768 1.92 2.256v4.896h1.328v-5.184c0-1.92-1.072-3.056-2.88-3.056-1.232 0-2.192.64-2.576 1.664zm14.6669 4.208h-1.248c-.336.976-.992 1.504-2.08 1.504-1.536 0-2.512-1.024-2.576-2.88h5.952v-.528c0-2.064-1.072-3.968-3.456-3.968-2.144 0-3.792 1.632-3.792 4.256 0 2.592 1.6 4.176 3.872 4.176 1.568 0 2.96-.848 3.328-2.56zm-3.408-4.8c1.44 0 2.128 1.072 2.16 2.464h-4.608c.224-1.648 1.184-2.464 2.448-2.464zm11.2742 7.168h1.28v-11.776h-1.328v5.152c-.368-.816-1.28-1.616-2.6724-1.616-2.048 0-3.584 1.664-3.584 4.224 0 2.544 1.536 4.208 3.584 4.208 1.3284 0 2.3204-.784 2.7204-1.6zm.016-3.92c0 1.824-.896 3.072-2.4644 3.072-1.584 0-2.512-1.296-2.512-3.168 0-1.888.928-3.184 2.512-3.184 1.5684 0 2.4644 1.232 2.4644 3.056zm7.328 3.92h1.376v-5.232h6.688v5.232h1.376v-11.424h-1.376v5.04h-6.688v-5.04h-1.376zm19.254-4.016c0-2.592-1.6-4.224-3.824-4.224s-3.824 1.632-3.824 4.224 1.6 4.208 3.824 4.208 3.824-1.616 3.824-4.208zm-6.336 0c0-1.936.944-3.152 2.512-3.152s2.512 1.216 2.512 3.152-.944 3.136-2.512 3.136-2.512-1.2-2.512-3.136zm14.704-2.496c-.352-1.072-1.088-1.728-2.448-1.728-1.168 0-2.16.64-2.544 1.664v-1.472h-1.28v8.048h1.328v-4.432c0-1.856.912-2.72 2.128-2.72s1.744.752 1.744 2.256v4.896h1.344v-4.432c0-1.856.912-2.72 2.112-2.72s1.744.752 1.744 2.256v4.896h1.344v-5.184c0-1.888-.912-3.056-2.768-3.056-1.184 0-2.208.64-2.704 1.728zm14.677 4.144h-1.248c-.336.976-.992 1.504-2.08 1.504-1.536 0-2.512-1.024-2.576-2.88h5.952v-.528c0-2.064-1.072-3.968-3.456-3.968-2.144 0-3.792 1.632-3.792 4.256 0 2.592 1.6 4.176 3.872 4.176 1.568 0 2.96-.848 3.328-2.56zm-3.408-4.8c1.44 0 2.128 1.072 2.16 2.464h-4.608c.224-1.648 1.184-2.464 2.448-2.464z" fill="#2d2828"/><rect fill="#e2ddd8" height="13" rx="6.5" width="36" x="278" y="261"/><path d="m284.729 271h1.197v-2.574h2.907v-.945h-2.907v-1.962h3.24v-.945h-4.437zm6.119 0h1.197v-6.426h-1.197zm4.274 0v-2.403h1.44l1.467 2.403h1.305l-1.611-2.583c.729-.234 1.368-.828 1.368-1.827 0-1.314-.882-2.016-2.385-2.016h-2.754v6.426zm0-3.339v-2.142h1.449c.891 0 1.341.369 1.341 1.071s-.45 1.071-1.341 1.071zm9.477 3.339 1.827-5.049h.018v5.049h1.143v-6.426h-1.638l-1.728 4.833h-.018l-1.728-4.833h-1.692v6.426h1.098v-5.049h.018l1.836 5.049z" fill="#2d2828"/><path d="m33 286h291v30.1176h-291z" fill="#fff"/><path d="m41.368 298.712c0-1.696-1.216-3.328-3.616-3.328s-3.776 1.696-3.888 3.712h1.296c.096-1.376 1.008-2.56 2.576-2.56 1.696 0 2.32 1.088 2.32 2.176 0 1.328-1.232 2.176-2.752 3.152-1.696 1.056-3.664 2.48-3.664 4.512v.624h7.84v-1.152h-6.368c0-1.04 1.376-2 2.768-2.928 1.712-1.104 3.488-2.064 3.488-4.208zm6.641 6.88c.4.816 1.392 1.6 2.72 1.6 2.048 0 3.584-1.664 3.584-4.208 0-2.56-1.536-4.224-3.584-4.224-1.392 0-2.304.8-2.672 1.616v-5.152h-1.328v11.776h1.28zm-.016-2.736c0-1.824.896-3.056 2.464-3.056 1.584 0 2.512 1.296 2.512 3.184 0 1.872-.928 3.168-2.512 3.168-1.568 0-2.464-1.248-2.464-3.072zm15.0434 1.776h-1.248c-.336.976-.992 1.504-2.08 1.504-1.536 0-2.512-1.024-2.576-2.88h5.952v-.528c0-2.064-1.072-3.968-3.456-3.968-2.144 0-3.792 1.632-3.792 4.256 0 2.592 1.6 4.176 3.872 4.176 1.568 0 2.96-.848 3.328-2.56zm-3.408-4.8c1.44 0 2.128 1.072 2.16 2.464h-4.608c.224-1.648 1.184-2.464 2.448-2.464zm11.2739 7.168h1.28v-11.776h-1.328v5.152c-.368-.816-1.28-1.616-2.672-1.616-2.048 0-3.584 1.664-3.584 4.224 0 2.544 1.536 4.208 3.584 4.208 1.328 0 2.32-.784 2.72-1.6zm.016-3.92c0 1.824-.896 3.072-2.464 3.072-1.584 0-2.512-1.296-2.512-3.168 0-1.888.928-3.184 2.512-3.184 1.568 0 2.464 1.232 2.464 3.056zm8.4197-4.24c-.192-.048-.416-.064-.624-.064-1.184 0-2.208.752-2.56 2.08v-1.904h-1.28v8.048h1.328v-3.968c0-2.032 1.168-3.04 2.448-3.04.208 0 .496.016.688.064zm8.432 4.144c0-2.592-1.6-4.224-3.824-4.224s-3.824 1.632-3.824 4.224 1.6 4.208 3.824 4.208 3.824-1.616 3.824-4.208zm-6.336 0c0-1.936.944-3.152 2.512-3.152s2.512 1.216 2.512 3.152-.944 3.136-2.512 3.136-2.512-1.2-2.512-3.136zm15.5041 0c0-2.592-1.6-4.224-3.824-4.224s-3.824 1.632-3.824 4.224 1.6 4.208 3.824 4.208 3.824-1.616 3.824-4.208zm-6.336 0c0-1.936.944-3.152 2.512-3.152s2.512 1.216 2.512 3.152-.944 3.136-2.512 3.136-2.512-1.2-2.512-3.136zm14.7049-2.496c-.352-1.072-1.088-1.728-2.448-1.728-1.168 0-2.16.64-2.544 1.664v-1.472h-1.2804v8.048h1.3284v-4.432c0-1.856.912-2.72 2.128-2.72s1.744.752 1.744 2.256v4.896h1.344v-4.432c0-1.856.912-2.72 2.112-2.72s1.744.752 1.744 2.256v4.896h1.344v-5.184c0-1.888-.912-3.056-2.768-3.056-1.184 0-2.208.64-2.704 1.728zm7.38 4.128c.144 1.728 1.584 2.576 3.504 2.576 1.808 0 3.136-1.04 3.136-2.448 0-1.296-.768-1.936-2.08-2.192l-1.6-.304c-.928-.176-1.408-.464-1.408-1.152 0-.784.688-1.312 1.76-1.312 1.104 0 1.824.48 1.92 1.296h1.232c-.16-1.52-1.296-2.32-3.152-2.32-1.776 0-2.992 1.056-2.992 2.416 0 1.408.944 1.936 2.24 2.176l1.424.288c1.024.192 1.408.576 1.408 1.168 0 .864-.8 1.376-1.904 1.376-1.088 0-2.112-.464-2.208-1.568z" fill="#2d2828"/><rect fill="#e2ddd8" height="13" rx="6.5" width="36" x="278" y="295"/><path d="m284.729 305h1.197v-2.574h2.907v-.945h-2.907v-1.962h3.24v-.945h-4.437zm6.119 0h1.197v-6.426h-1.197zm4.274 0v-2.403h1.44l1.467 2.403h1.305l-1.611-2.583c.729-.234 1.368-.828 1.368-1.827 0-1.314-.882-2.016-2.385-2.016h-2.754v6.426zm0-3.339v-2.142h1.449c.891 0 1.341.369 1.341 1.071s-.45 1.071-1.341 1.071zm9.477 3.339 1.827-5.049h.018v5.049h1.143v-6.426h-1.638l-1.728 4.833h-.018l-1.728-4.833h-1.692v6.426h1.098v-5.049h.018l1.836 5.049z" fill="#2d2828"/><path d="m33 320h291v30.1176h-291z" fill="#fff"/><path d="m41.368 332.712c0-1.696-1.216-3.328-3.616-3.328s-3.776 1.696-3.888 3.712h1.296c.096-1.376 1.008-2.56 2.576-2.56 1.696 0 2.32 1.088 2.32 2.176 0 1.328-1.232 2.176-2.752 3.152-1.696 1.056-3.664 2.48-3.664 4.512v.624h7.84v-1.152h-6.368c0-1.04 1.376-2 2.768-2.928 1.712-1.104 3.488-2.064 3.488-4.208zm6.641 6.88c.4.816 1.392 1.6 2.72 1.6 2.048 0 3.584-1.664 3.584-4.208 0-2.56-1.536-4.224-3.584-4.224-1.392 0-2.304.8-2.672 1.616v-5.152h-1.328v11.776h1.28zm-.016-2.736c0-1.824.896-3.056 2.464-3.056 1.584 0 2.512 1.296 2.512 3.184 0 1.872-.928 3.168-2.512 3.168-1.568 0-2.464-1.248-2.464-3.072zm13.3478 4.144h1.328c-.16-.528-.192-1.088-.192-1.68v-3.696c0-1.936-1.216-2.864-3.168-2.864-1.712 0-2.992.928-3.152 2.56h1.28c.096-.928.768-1.488 1.84-1.488 1.104 0 1.888.544 1.888 1.824v.464l-2.592.336c-1.632.192-2.784.864-2.784 2.416 0 1.488 1.2 2.304 2.608 2.304 1.344 0 2.448-.592 2.8-1.536 0 .384.048.912.144 1.36zm-2.672-.832c-1.008 0-1.536-.576-1.536-1.328 0-1.088.832-1.344 1.84-1.488l2.192-.24v.72c0 1.552-1.248 2.336-2.496 2.336zm10.1561-.352c-.512.16-.864.192-1.168.192-.736 0-1.168-.288-1.168-1.136v-4.912h2.128v-1.008h-2.112v-2.048h-1.312v2.048h-1.184v1.008h1.184v4.976c0 1.488.752 2.192 2.224 2.192.352 0 .816-.048 1.408-.224zm3.3302-5.392v-5.2h-1.328v11.776h1.328v-4.432c0-1.936.976-2.72 2.208-2.72 1.264 0 1.92.768 1.92 2.256v4.896h1.328v-5.184c0-1.92-1.072-3.056-2.88-3.056-1.232 0-2.192.64-2.576 1.664zm12.5229-1.584c-.192-.048-.416-.064-.624-.064-1.184 0-2.208.752-2.56 2.08v-1.904h-1.28v8.048h1.328v-3.968c0-2.032 1.168-3.04 2.448-3.04.208 0 .496.016.688.064zm8.432 4.144c0-2.592-1.6-4.224-3.824-4.224s-3.824 1.632-3.824 4.224 1.6 4.208 3.824 4.208 3.824-1.616 3.824-4.208zm-6.336 0c0-1.936.944-3.152 2.512-3.152s2.512 1.216 2.512 3.152-.944 3.136-2.512 3.136-2.512-1.2-2.512-3.136zm15.504 0c0-2.592-1.6-4.224-3.8239-4.224-2.224 0-3.824 1.632-3.824 4.224s1.6 4.208 3.824 4.208c2.2239 0 3.8239-1.616 3.8239-4.208zm-6.3359 0c0-1.936.944-3.152 2.512-3.152 1.5679 0 2.5119 1.216 2.5119 3.152s-.944 3.136-2.5119 3.136c-1.568 0-2.512-1.2-2.512-3.136zm14.7049-2.496c-.352-1.072-1.088-1.728-2.448-1.728-1.168 0-2.16.64-2.544 1.664v-1.472h-1.28v8.048h1.328v-4.432c0-1.856.912-2.72 2.128-2.72s1.744.752 1.744 2.256v4.896h1.344v-4.432c0-1.856.912-2.72 2.112-2.72s1.744.752 1.744 2.256v4.896h1.344v-5.184c0-1.888-.912-3.056-2.768-3.056-1.184 0-2.208.64-2.704 1.728zm7.38 4.128c.144 1.728 1.584 2.576 3.504 2.576 1.808 0 3.136-1.04 3.136-2.448 0-1.296-.768-1.936-2.08-2.192l-1.6-.304c-.928-.176-1.408-.464-1.408-1.152 0-.784.688-1.312 1.76-1.312 1.104 0 1.824.48 1.92 1.296h1.232c-.16-1.52-1.296-2.32-3.152-2.32-1.776 0-2.992 1.056-2.992 2.416 0 1.408.944 1.936 2.24 2.176l1.424.288c1.024.192 1.408.576 1.408 1.168 0 .864-.8 1.376-1.904 1.376-1.088 0-2.112-.464-2.208-1.568z" fill="#2d2828"/><rect fill="#d1dbd5" height="13" rx="6.5" width="59" x="255" y="330"/><path d="m261.729 340h1.197v-2.574h2.907v-.945h-2.907v-1.962h3.24v-.945h-4.437zm6.119 0h4.509v-.945h-3.312v-5.481h-1.197zm10.798 0v-.945h-3.483v-1.8h3.051v-.945h-3.051v-1.791h3.447v-.945h-4.617v6.426zm6.104 0h1.359l-2.556-3.42 2.268-3.006h-1.26l-1.629 2.196-1.62-2.196h-1.359l2.295 3.087-2.52 3.339h1.26l1.881-2.52zm2.641 0h1.197v-6.426h-1.197zm5.922 0c1.485 0 2.349-.621 2.349-1.827 0-.747-.531-1.314-1.233-1.503.522-.153.972-.774.972-1.341 0-1.152-.819-1.755-2.322-1.755h-2.583v6.426zm-1.647-3.708v-1.836h1.413c.783 0 1.17.333 1.17.918 0 .558-.378.918-1.179.918zm0 .855h1.548c.828 0 1.269.378 1.269.981 0 .621-.432.99-1.26.99h-1.557zm5.546 2.853h4.509v-.945h-3.312v-5.481h-1.197zm10.799 0v-.945h-3.483v-1.8h3.051v-.945h-3.051v-1.791h3.447v-.945h-4.617v6.426z" fill="#72987f"/><path d="m131.263 102.966c4.783-12.5002 19.25-20.9373 32.352-26.195 18.379-3.9129 34.113 3.4397 43.278 18.0595 6.619 11.8995 4.701 23.3215-6.332 36.5735-9.534 11.452-36.946 11.884-53.476 8.488-15.136-3.109-19.693-26.812-15.822-36.926z" fill="#72987f"/><path d="m171.967 128.774v-20.015m0 20.015h18.837v-20.015l-9.419-11.185m-9.418 31.2h-22.37v-20.015m22.37 0 9.418-11.185m-9.418 11.185h-22.37m31.788-11.185h-21.78l-10.008 11.185" stroke="#fbf8f5" stroke-width="1.44944"/><path d="m178.771 112.971h5.67264v15.8023h-5.67264z" stroke="#fbf8f5" stroke-width="1.44944"/><path d="m153.649 112.971h5.67264v5.67264h-5.67264z" stroke="#fbf8f5" stroke-width="1.44944"/><g stroke="#fff" stroke-linecap="round" stroke-linejoin="round" stroke-width="1.27322"><path d="m159.743 91.2931-.483-2.8988"/><path d="m166.024 90.81-.483-5.3146"/><path d="m172.305 90.3268.483-6.764"/><path d="m177.62 90.81 1.449-3.8652"/><path d="m183.417 92.2594 1.45-2.8989"/><path d="m188.249 96.6077 1.932-1.9326"/><path d="m191.63 101.439 2.416-1.4493"/></g><path d="m75.0511 167.944c3.927 0 5.628-2.226 5.628-4.788 0-2.268-1.596-4.536-6.132-4.536h-7.581v.693c1.575.063 2.604.273 2.604 1.743v11.508c0 1.47-1.029 1.68-2.604 1.743v.693h7.476v-.693c-1.848-.105-3.171-.273-3.171-1.743v-4.62zm-3.78-8.4h3.108c3.066 0 4.41 1.428 4.41 3.738 0 2.667-1.323 3.738-4.452 3.738h-3.066zm13.6609.252.105-1.806h-.693l-2.688 1.134v.399l1.68.336v13.335c0 .966-.819 1.071-1.785 1.197v.609h5.166v-.609c-.966-.126-1.785-.231-1.785-1.197zm7.0781 14.301c-1.155 0-1.974-.651-1.974-1.974 0-.903.525-1.407 1.323-1.659l4.116-1.26v3.171c-1.071.945-2.079 1.722-3.465 1.722zm5.061-6.468c0-2.688-1.659-3.822-4.095-3.822-2.226 0-4.074 1.008-4.074 2.625 0 .378.168.819.441 1.008l1.386-.147c-.105-.315-.126-.588-.126-.84 0-1.176.672-1.68 1.974-1.68 2.037 0 2.898 1.449 2.898 3.066v.504l-4.137 1.197c-1.554.441-3.045.861-3.045 2.856 0 1.554 1.092 2.835 3.234 2.835 2.079 0 3.234-1.218 4.011-2.079.063 1.302.819 2.058 1.827 2.058.693 0 1.302-.336 1.911-.903l-.21-.399c-.315.126-.651.189-.924.189-.693 0-1.071-.546-1.071-1.47zm12.9029 5.565c0 .966-.819 1.071-1.785 1.197v.609h5.166v-.609c-.966-.126-1.785-.231-1.785-1.197v-5.943c0-2.499-1.47-3.444-3.507-3.444-1.785 0-3.402 1.155-4.326 2.163l.105-2.121h-.693l-2.688 1.008v.42l1.68.546v7.371c0 .966-.819 1.071-1.785 1.197v.609h5.166v-.609c-.966-.126-1.785-.231-1.785-1.197v-6.384c.966-.882 2.52-1.659 3.801-1.659 1.491 0 2.436.609 2.436 2.331zm14.334 1.827-.756 1.932c-.504 1.302-1.218 1.659-2.331 1.659h-1.323v.924c.189.42.798.735 1.512.735 1.05 0 2.058-.462 2.898-2.562l4.872-12.159c.21-.504.336-.546 1.344-.924v-.609h-4.074v.609c1.113.147 1.596.252 1.596.756 0 .168-.042.294-.147.567l-2.814 7.287-3.234-7.287c-.126-.273-.147-.399-.147-.567 0-.504.483-.609 1.596-.756v-.609h-4.725v.609c1.05.399 1.113.441 1.344.924zm12.271-.924c-2.73 0-4.305-1.827-4.305-4.956 0-2.289 1.218-4.221 3.57-4.221 2.73 0 4.305 1.827 4.305 4.956 0 2.289-1.218 4.221-3.57 4.221zm-.546 1.113c3.024 0 5.796-2.289 5.796-5.922 0-3.213-2.226-5.481-5.439-5.481-3.024 0-5.796 2.289-5.796 5.922 0 3.213 2.226 5.481 5.439 5.481zm15.752 0h.168l3.444-.756v-.63l-.588-.084c-1.071-.147-1.323-.189-1.323-.903v-6.804l.105-2.226h-.462l-3.192.21v.693l.399.021c1.155.126 1.554.231 1.554 1.029v6.447c-.966.882-2.1 1.785-3.486 1.785s-2.373-.735-2.373-2.457v-5.502l.105-2.226h-.462l-3.171.21v.693l.378.021c1.155.126 1.554.231 1.554 1.029v5.943c0 2.562 1.512 3.507 3.465 3.507 1.869 0 3.066-1.113 3.99-2.121zm8.482-11.361h-.714l-2.667 1.008v.42l1.68.546v7.371c0 .966-.819 1.071-1.785 1.197v.609h5.586v-.609c-1.638-.168-2.205-.231-2.205-1.323v-5.376c1.386-1.722 2.1-2.247 3.633-2.247h.651v-1.344c-.168-.168-.441-.294-.924-.294-1.491 0-2.52 1.701-3.36 3.066zm13.606 2.247.105-2.247h-.693l-2.688 1.008v.42l1.68.546v7.371c0 .966-.819 1.071-1.785 1.197v.609h5.166v-.609c-.966-.126-1.785-.231-1.785-1.197zm-2.184-5.649c0 .693.525 1.218 1.218 1.218s1.239-.525 1.239-1.218-.546-1.239-1.239-1.239-1.218.546-1.218 1.239zm10.703 4.368c2.142 0 3.423 1.05 3.423 3.129v4.452c-.777.903-2.037 1.554-3.423 1.554-2.604 0-3.906-2.058-3.906-4.515 0-2.961 1.575-4.62 3.906-4.62zm6.909 9.639v-.63l-.588-.084c-1.092-.147-1.323-.189-1.323-.903v-13.041l.105-1.806h-.714l-2.646 1.134v.399l1.68.336v4.935c-.672-.546-1.701-.987-3.171-.987-3.129 0-5.817 2.394-5.817 6.237 0 2.73 1.806 5.166 5.103 5.166 1.533 0 2.877-.777 3.885-1.911l-.105 1.911h.147zm6.299-10.647c-3.234 0-5.397 2.499-5.397 6.069 0 2.793 1.869 5.334 5.355 5.334 2.625 0 4.053-1.428 4.641-3.045l-.525-.189c-.945 1.197-1.911 1.89-3.717 1.89-2.709 0-4.494-2.037-4.284-5.166h8.484v-.504c0-2.499-1.554-4.389-4.557-4.389zm-.42 1.071c2.1 0 3.234 1.26 3.234 2.919h-6.594c.357-1.722 1.638-2.919 3.36-2.919zm10.24 9.219c-1.155 0-1.974-.651-1.974-1.974 0-.903.525-1.407 1.323-1.659l4.116-1.26v3.171c-1.071.945-2.079 1.722-3.465 1.722zm5.061-6.468c0-2.688-1.659-3.822-4.095-3.822-2.226 0-4.074 1.008-4.074 2.625 0 .378.168.819.441 1.008l1.386-.147c-.105-.315-.126-.588-.126-.84 0-1.176.672-1.68 1.974-1.68 2.037 0 2.898 1.449 2.898 3.066v.504l-4.137 1.197c-1.554.441-3.045.861-3.045 2.856 0 1.554 1.092 2.835 3.234 2.835 2.079 0 3.234-1.218 4.011-2.079.063 1.302.819 2.058 1.827 2.058.693 0 1.302-.336 1.911-.903l-.21-.399c-.315.126-.651.189-.924.189-.693 0-1.071-.546-1.071-1.47zm6.309-7.833.105-1.806h-.693l-2.688 1.134v.399l1.68.336v13.335c0 .966-.819 1.071-1.785 1.197v.609h5.166v-.609c-.966-.126-1.785-.231-1.785-1.197zm9.654.063v13.335c0 .966-.819 1.071-1.785 1.197v.609h5.145v-.609c-.966-.126-1.764-.231-1.764-1.197v-6.384c.966-.882 2.52-1.659 3.801-1.659 1.491 0 2.436.609 2.436 2.331v5.712c0 .966-.819 1.071-1.785 1.197v.609h5.166v-.609c-.966-.126-1.785-.231-1.785-1.197v-5.943c0-2.499-1.47-3.444-3.507-3.444-1.785 0-3.402 1.155-4.326 2.163v-6.174l.105-1.806h-.714l-2.667 1.134v.399zm18.192 14.238c-2.73 0-4.305-1.827-4.305-4.956 0-2.289 1.218-4.221 3.57-4.221 2.73 0 4.305 1.827 4.305 4.956 0 2.289-1.218 4.221-3.57 4.221zm-.546 1.113c3.024 0 5.796-2.289 5.796-5.922 0-3.213-2.226-5.481-5.439-5.481-3.024 0-5.796 2.289-5.796 5.922 0 3.213 2.226 5.481 5.439 5.481zm17.894-9.177c-.336-1.449-1.365-2.226-3.003-2.226-1.911 0-3.276 1.155-4.2 2.163l.105-2.121h-.693l-2.688 1.008v.42l1.68.546v7.371c0 .966-.819 1.071-1.785 1.197v.609h5.166v-.609c-.966-.126-1.785-.231-1.785-1.197v-6.384c.966-.882 2.268-1.659 3.549-1.659 1.491 0 2.163.693 2.163 2.331v5.712c0 .966-.819 1.071-1.785 1.197v.609h5.166v-.609c-.966-.126-1.785-.231-1.785-1.197v-6.384c.966-.882 2.268-1.659 3.549-1.659 1.491 0 2.163.693 2.163 2.331v5.712c0 .966-.819 1.071-1.785 1.197v.609h5.166v-.609c-.966-.126-1.785-.231-1.785-1.197v-6.069c0-2.163-1.092-3.318-3.108-3.318-1.911 0-3.381 1.218-4.305 2.226zm15.585-2.226c-3.234 0-5.397 2.499-5.397 6.069 0 2.793 1.869 5.334 5.355 5.334 2.625 0 4.053-1.428 4.641-3.045l-.525-.189c-.945 1.197-1.911 1.89-3.717 1.89-2.709 0-4.494-2.037-4.284-5.166h8.484v-.504c0-2.499-1.554-4.389-4.557-4.389zm-.42 1.071c2.1 0 3.234 1.26 3.234 2.919h-6.594c.357-1.722 1.638-2.919 3.36-2.919z" fill="#2d2828"/><path d="m33 196.75h280" stroke="#e0dfdd" stroke-width=".5"/></g></svg>