<svg width="320" height="360" viewBox="0 0 320 360" fill="none" xmlns="http://www.w3.org/2000/svg">
<mask id="mask0" mask-type="alpha" maskUnits="userSpaceOnUse" x="0" y="-1" width="320" height="361">
<path d="M313.235 17.9587C314.684 20.1304 317.101 19.5875 320 19.0446L320 348C320 354.627 314.627 360 308 360L12.0031 360C5.37447 360 0.00135777 354.626 0.00306704 347.997L0.0809611 45.6468C0.403105 46.0088 2.33731 46.7327 3.49701 46.7327C4.94665 46.7327 7.36273 46.7327 7.84595 45.6468C8.32916 44.561 12.1948 44.0181 13.1613 44.0181L17.5102 44.0181C18.9598 44.0181 20.8926 40.7607 21.859 39.6749C22.8255 38.5891 27.6575 39.132 28.1407 39.132C28.624 39.132 32.4897 40.2178 33.4561 40.7607C34.4225 41.3036 36.3553 39.132 37.3218 38.5891C38.0949 38.1548 39.8989 37.6843 40.7043 37.5033C42.6371 36.2365 46.6961 33.5944 47.4692 33.1601C48.4356 32.6171 48.9189 32.6171 50.8517 32.6171C52.7845 32.6171 53.7509 32.6171 55.2006 33.1601C56.6502 33.703 59.0663 33.1601 60.9991 33.1601C62.9319 33.1601 65.831 32.6171 66.7974 33.1601C67.7638 33.703 72.5959 34.7888 73.0791 34.2459C73.4657 33.8115 75.8173 34.4268 76.9448 34.7888L80.3273 34.7888C81.2937 34.7888 82.7433 32.6172 83.2266 32.6172C83.7098 32.6172 85.1594 33.1601 86.1258 34.2459C87.0922 35.3317 88.5419 34.2459 89.5083 34.2459C90.4747 34.2459 90.9579 34.2459 92.4076 34.7888C93.8572 35.3317 95.3068 36.4175 96.2732 35.8746C97.2397 35.3317 98.2061 34.7888 100.139 34.7888C102.072 34.7888 104.005 36.4175 105.454 36.4175C106.614 36.4175 107.87 37.8652 108.354 38.5891C108.837 37.8652 109.996 36.4175 110.77 36.4175C111.736 36.4175 113.186 34.2459 113.669 33.1601C114.152 32.0742 115.118 34.2459 116.568 34.2459C118.018 34.2459 118.984 33.703 119.467 33.1601C119.951 32.6172 121.4 29.9026 122.367 29.9026C123.14 29.9026 125.91 29.1788 127.199 28.8168L130.098 30.4455L132.031 29.9026L134.93 28.2739L135.897 31.5313L137.346 32.6172L138.796 28.8168L142.178 28.8168C142.444 28.3689 144.704 27.4966 144.836 27.2503C144.644 27.2135 144.551 27.1911 144.594 27.1881C144.797 27.174 144.864 27.1981 144.836 27.2503C145.791 27.4332 149.186 27.9727 150.393 28.2739L151.842 29.3597L153.775 29.3597L155.708 26.6452C156.514 26.4642 158.318 26.1023 159.091 26.1023C160.057 26.1023 162.473 28.2739 162.956 28.2739L166.822 28.2739C168.272 28.2739 168.272 27.1881 171.171 27.1881C174.07 27.1881 173.729 29.3597 174.553 29.3597C174.785 29.3597 176.486 27.1881 176.969 26.1023C177.13 25.7424 179.274 23.5081 179.538 24.1009C179.911 24.9386 184.218 23.9307 184.701 22.302C184.862 21.7591 186.634 20.6733 189.05 21.7591C191.466 22.8449 195.331 18.5016 196.298 16.8729C197.264 15.2442 202.58 12.5297 203.546 11.4439C204.512 10.3581 210.794 8.72937 212.244 7.64356C213.693 6.55775 215.626 5.47194 216.593 4.38613C217.559 3.30032 219.492 3.30032 221.425 4.92904C223.358 6.55775 226.257 6.01485 228.673 6.55775C231.089 7.10066 231.089 5.47194 233.022 5.47194L241.72 5.47194C243.652 5.47194 247.035 3.84323 248.485 3.30033C249.934 2.75742 253.8 3.30033 256.216 3.30033C258.632 3.30033 261.531 2.21452 262.981 1.67161C264.43 1.12871 263.464 -0.500002 264.914 -0.500002C266.363 -0.500002 267.813 0.585806 270.229 1.67161C272.645 2.75742 273.612 2.21452 274.578 2.21452C275.544 2.21452 276.994 -0.500002 278.927 -0.500002C280.86 -0.500002 282.793 0.585807 284.242 0.585807C285.692 0.585807 288.108 0.585807 289.557 1.67162C291.007 2.75742 291.49 3.84323 293.423 4.38614C295.356 4.92904 295.839 4.38614 297.772 5.47195C299.705 6.55775 301.638 6.55775 303.087 6.55775C304.537 6.55775 305.987 10.901 307.919 11.4439C309.852 11.9868 311.785 15.7871 313.235 17.9587Z" fill="#679A7C"/>
<path d="M313.235 17.9587C314.684 20.1304 317.101 19.5875 320 19.0446L320 348C320 354.627 314.627 360 308 360L12.0031 360C5.37447 360 0.00135777 354.626 0.00306704 347.997L0.0809611 45.6468C0.403105 46.0088 2.33731 46.7327 3.49701 46.7327C4.94665 46.7327 7.36273 46.7327 7.84595 45.6468C8.32916 44.561 12.1948 44.0181 13.1613 44.0181L17.5102 44.0181C18.9598 44.0181 20.8926 40.7607 21.859 39.6749C22.8255 38.5891 27.6575 39.132 28.1407 39.132C28.624 39.132 32.4897 40.2178 33.4561 40.7607C34.4225 41.3036 36.3553 39.132 37.3218 38.5891C38.0949 38.1548 39.8989 37.6843 40.7043 37.5033C42.6371 36.2365 46.6961 33.5944 47.4692 33.1601C48.4356 32.6171 48.9189 32.6171 50.8517 32.6171C52.7845 32.6171 53.7509 32.6171 55.2006 33.1601C56.6502 33.703 59.0663 33.1601 60.9991 33.1601C62.9319 33.1601 65.831 32.6171 66.7974 33.1601C67.7638 33.703 72.5959 34.7888 73.0791 34.2459C73.4657 33.8115 75.8173 34.4268 76.9448 34.7888L80.3273 34.7888C81.2937 34.7888 82.7433 32.6172 83.2266 32.6172C83.7098 32.6172 85.1594 33.1601 86.1258 34.2459C87.0922 35.3317 88.5419 34.2459 89.5083 34.2459C90.4747 34.2459 90.9579 34.2459 92.4076 34.7888C93.8572 35.3317 95.3068 36.4175 96.2732 35.8746C97.2397 35.3317 98.2061 34.7888 100.139 34.7888C102.072 34.7888 104.005 36.4175 105.454 36.4175C106.614 36.4175 107.87 37.8652 108.354 38.5891C108.837 37.8652 109.996 36.4175 110.77 36.4175C111.736 36.4175 113.186 34.2459 113.669 33.1601C114.152 32.0742 115.118 34.2459 116.568 34.2459C118.018 34.2459 118.984 33.703 119.467 33.1601C119.951 32.6172 121.4 29.9026 122.367 29.9026C123.14 29.9026 125.91 29.1788 127.199 28.8168L130.098 30.4455L132.031 29.9026L134.93 28.2739L135.897 31.5313L137.346 32.6172L138.796 28.8168L142.178 28.8168C142.444 28.3689 144.704 27.4966 144.836 27.2503C144.644 27.2135 144.551 27.1911 144.594 27.1881C144.797 27.174 144.864 27.1981 144.836 27.2503C145.791 27.4332 149.186 27.9727 150.393 28.2739L151.842 29.3597L153.775 29.3597L155.708 26.6452C156.514 26.4642 158.318 26.1023 159.091 26.1023C160.057 26.1023 162.473 28.2739 162.956 28.2739L166.822 28.2739C168.272 28.2739 168.272 27.1881 171.171 27.1881C174.07 27.1881 173.729 29.3597 174.553 29.3597C174.785 29.3597 176.486 27.1881 176.969 26.1023C177.13 25.7424 179.274 23.5081 179.538 24.1009C179.911 24.9386 184.218 23.9307 184.701 22.302C184.862 21.7591 186.634 20.6733 189.05 21.7591C191.466 22.8449 195.331 18.5016 196.298 16.8729C197.264 15.2442 202.58 12.5297 203.546 11.4439C204.512 10.3581 210.794 8.72937 212.244 7.64356C213.693 6.55775 215.626 5.47194 216.593 4.38613C217.559 3.30032 219.492 3.30032 221.425 4.92904C223.358 6.55775 226.257 6.01485 228.673 6.55775C231.089 7.10066 231.089 5.47194 233.022 5.47194L241.72 5.47194C243.652 5.47194 247.035 3.84323 248.485 3.30033C249.934 2.75742 253.8 3.30033 256.216 3.30033C258.632 3.30033 261.531 2.21452 262.981 1.67161C264.43 1.12871 263.464 -0.500002 264.914 -0.500002C266.363 -0.500002 267.813 0.585806 270.229 1.67161C272.645 2.75742 273.612 2.21452 274.578 2.21452C275.544 2.21452 276.994 -0.500002 278.927 -0.500002C280.86 -0.500002 282.793 0.585807 284.242 0.585807C285.692 0.585807 288.108 0.585807 289.557 1.67162C291.007 2.75742 291.49 3.84323 293.423 4.38614C295.356 4.92904 295.839 4.38614 297.772 5.47195C299.705 6.55775 301.638 6.55775 303.087 6.55775C304.537 6.55775 305.987 10.901 307.919 11.4439C309.852 11.9868 311.785 15.7871 313.235 17.9587Z" fill="#E2DDD8" fill-opacity="0.1"/>
</mask>
<g mask="url(#mask0)">
<path d="M0 12.0178C0 5.38056 5.38054 0 12.0178 0H307.982C314.619 0 320 5.38054 320 12.0178V416H0V12.0178Z" fill="white"/>
<rect x="255" y="215" width="45" height="13" rx="6.5" fill="#C48B7F"/>
<path d="M22.208 220.272C22.208 217.424 23.568 215.552 25.92 215.552C27.84 215.552 28.672 216.624 28.928 217.904H30.272C29.904 215.824 28.416 214.384 25.92 214.384C22.976 214.384 20.8 216.688 20.8 220.272C20.8 223.872 22.976 226.192 25.92 226.192C28.416 226.192 29.904 224.752 30.272 222.672H28.928C28.672 223.952 27.84 225.024 25.92 225.024C23.568 225.024 22.208 223.12 22.208 220.272ZM39.2888 221.984C39.2888 219.392 37.6888 217.76 35.4648 217.76C33.2408 217.76 31.6408 219.392 31.6408 221.984C31.6408 224.576 33.2408 226.192 35.4648 226.192C37.6888 226.192 39.2888 224.576 39.2888 221.984ZM32.9528 221.984C32.9528 220.048 33.8968 218.832 35.4648 218.832C37.0328 218.832 37.9768 220.048 37.9768 221.984C37.9768 223.92 37.0328 225.12 35.4648 225.12C33.8968 225.12 32.9528 223.92 32.9528 221.984ZM47.6573 219.488C47.3053 218.416 46.5693 217.76 45.2093 217.76C44.0413 217.76 43.0493 218.4 42.6653 219.424V217.952H41.3853V226H42.7133V221.568C42.7133 219.712 43.6253 218.848 44.8413 218.848C46.0573 218.848 46.5853 219.6 46.5853 221.104V226H47.9293V221.568C47.9293 219.712 48.8413 218.848 50.0413 218.848C51.2413 218.848 51.7853 219.6 51.7853 221.104V226H53.1293V220.816C53.1293 218.928 52.2173 217.76 50.3613 217.76C49.1773 217.76 48.1533 218.4 47.6573 219.488ZM61.9973 219.488C61.6453 218.416 60.9093 217.76 59.5493 217.76C58.3813 217.76 57.3893 218.4 57.0053 219.424V217.952H55.7253V226H57.0533V221.568C57.0533 219.712 57.9653 218.848 59.1813 218.848C60.3973 218.848 60.9253 219.6 60.9253 221.104V226H62.2693V221.568C62.2693 219.712 63.1813 218.848 64.3813 218.848C65.5813 218.848 66.1253 219.6 66.1253 221.104V226H67.4693V220.816C67.4693 218.928 66.5573 217.76 64.7013 217.76C63.5173 217.76 62.4933 218.4 61.9973 219.488ZM76.6893 226V217.952H75.3453V222.384C75.3453 224.32 74.4333 225.152 73.2173 225.152C71.9533 225.152 71.3293 224.368 71.3293 222.88V217.952H69.9853V223.136C69.9853 225.088 71.0093 226.192 72.8333 226.192C74.0493 226.192 75.0093 225.552 75.3933 224.544V226H76.6893ZM83.118 224.816C82.606 224.976 82.254 225.008 81.95 225.008C81.214 225.008 80.782 224.72 80.782 223.872V218.96H82.91V217.952H80.798V215.904H79.486V217.952H78.302V218.96H79.486V223.936C79.486 225.424 80.238 226.128 81.71 226.128C82.062 226.128 82.526 226.08 83.118 225.904V224.816ZM91.6345 223.632H90.3865C90.0505 224.608 89.3945 225.136 88.3065 225.136C86.7705 225.136 85.7945 224.112 85.7305 222.256H91.6825V221.728C91.6825 219.664 90.6105 217.76 88.2265 217.76C86.0825 217.76 84.4345 219.392 84.4345 222.016C84.4345 224.608 86.0345 226.192 88.3065 226.192C89.8745 226.192 91.2665 225.344 91.6345 223.632ZM88.2265 218.832C89.6665 218.832 90.3545 219.904 90.3865 221.296H85.7785C86.0025 219.648 86.9625 218.832 88.2265 218.832ZM101.194 214.576H97.1455V226H101.194C104.506 226 106.762 223.728 106.762 220.288C106.762 216.864 104.506 214.576 101.194 214.576ZM101.194 215.728C103.85 215.728 105.338 217.536 105.338 220.288C105.338 223.056 103.85 224.848 101.194 224.848H98.5055V215.728H101.194ZM108.732 216.272H110.236V214.656H108.732V216.272ZM108.828 226H110.156V217.952H108.828V226ZM112.152 223.616C112.296 225.344 113.736 226.192 115.656 226.192C117.464 226.192 118.792 225.152 118.792 223.744C118.792 222.448 118.024 221.808 116.712 221.552L115.112 221.248C114.184 221.072 113.704 220.784 113.704 220.096C113.704 219.312 114.392 218.784 115.464 218.784C116.568 218.784 117.288 219.264 117.384 220.08H118.616C118.456 218.56 117.32 217.76 115.464 217.76C113.688 217.76 112.472 218.816 112.472 220.176C112.472 221.584 113.416 222.112 114.712 222.352L116.136 222.64C117.16 222.832 117.544 223.216 117.544 223.808C117.544 224.672 116.744 225.184 115.64 225.184C114.552 225.184 113.528 224.72 113.432 223.616H112.152ZM124.674 224.816C124.162 224.976 123.81 225.008 123.506 225.008C122.77 225.008 122.338 224.72 122.338 223.872V218.96H124.466V217.952H122.354V215.904H121.042V217.952H119.858V218.96H121.042V223.936C121.042 225.424 121.794 226.128 123.266 226.128C123.618 226.128 124.082 226.08 124.674 225.904V224.816ZM131.604 226H132.932C132.772 225.472 132.74 224.912 132.74 224.32V220.624C132.74 218.688 131.524 217.76 129.572 217.76C127.86 217.76 126.58 218.688 126.42 220.32H127.7C127.796 219.392 128.468 218.832 129.54 218.832C130.644 218.832 131.428 219.376 131.428 220.656V221.12L128.836 221.456C127.204 221.648 126.052 222.32 126.052 223.872C126.052 225.36 127.252 226.176 128.66 226.176C130.004 226.176 131.108 225.584 131.46 224.64C131.46 225.024 131.508 225.552 131.604 226ZM128.932 225.168C127.924 225.168 127.396 224.592 127.396 223.84C127.396 222.752 128.228 222.496 129.236 222.352L131.428 222.112V222.832C131.428 224.384 130.18 225.168 128.932 225.168ZM136.624 217.952H135.344V226H136.672V221.568C136.672 219.632 137.648 218.848 138.88 218.848C140.144 218.848 140.8 219.616 140.8 221.104V226H142.128V220.816C142.128 218.896 141.056 217.76 139.248 217.76C138.016 217.76 137.008 218.432 136.624 219.424V217.952ZM144.139 221.984C144.139 224.56 145.691 226.192 147.931 226.192C149.723 226.192 150.907 225.184 151.163 223.456H149.899C149.675 224.528 149.019 225.12 147.931 225.12C146.347 225.12 145.451 223.872 145.451 221.984C145.451 220.096 146.347 218.832 147.931 218.832C149.019 218.832 149.675 219.424 149.899 220.496H151.163C150.907 218.784 149.723 217.76 147.931 217.76C145.691 217.76 144.139 219.408 144.139 221.984ZM159.804 223.632H158.556C158.22 224.608 157.564 225.136 156.476 225.136C154.94 225.136 153.964 224.112 153.9 222.256H159.852V221.728C159.852 219.664 158.78 217.76 156.396 217.76C154.252 217.76 152.604 219.392 152.604 222.016C152.604 224.608 154.204 226.192 156.476 226.192C158.044 226.192 159.436 225.344 159.804 223.632ZM156.396 218.832C157.836 218.832 158.524 219.904 158.556 221.296H153.948C154.172 219.648 155.132 218.832 156.396 218.832Z" fill="#2D2828"/>
<path d="M262.32 222.579L266.469 224.388V223.407L263.229 222.03L266.469 220.644V219.672L262.32 221.481V222.579ZM267.866 220.311H269.18V225H270.368V218.556H269.549C269.396 219.222 268.964 219.519 267.866 219.519V220.311ZM271.846 221.787C271.846 223.713 272.908 225.108 274.582 225.108C276.256 225.108 277.309 223.713 277.309 221.787C277.309 219.861 276.256 218.466 274.582 218.466C272.908 218.466 271.846 219.861 271.846 221.787ZM273.052 221.787C273.052 220.329 273.556 219.402 274.582 219.402C275.599 219.402 276.103 220.329 276.103 221.787C276.103 223.245 275.599 224.172 274.582 224.172C273.556 224.172 273.052 223.245 273.052 221.787ZM282.981 225H284.421L281.514 221.364L284.169 218.574H282.801L279.831 221.805V218.574H278.634V225H279.831V223.137L280.722 222.201L282.981 225ZM289.274 225L291.101 219.951H291.119V225H292.262V218.574H290.624L288.896 223.407H288.878L287.15 218.574H285.458V225H286.556V219.951H286.574L288.41 225H289.274Z" fill="white"/>
<rect x="20" y="239" width="291" height="30.1176" fill="white"/>
<path d="M25.536 248.576H21.488V260H25.536C28.848 260 31.104 257.728 31.104 254.288C31.104 250.864 28.848 248.576 25.536 248.576ZM25.536 249.728C28.192 249.728 29.68 251.536 29.68 254.288C29.68 257.056 28.192 258.848 25.536 258.848H22.848V249.728H25.536ZM39.7783 257.632H38.5303C38.1943 258.608 37.5383 259.136 36.4503 259.136C34.9143 259.136 33.9383 258.112 33.8743 256.256H39.8263V255.728C39.8263 253.664 38.7543 251.76 36.3703 251.76C34.2263 251.76 32.5783 253.392 32.5783 256.016C32.5783 258.608 34.1783 260.192 36.4503 260.192C38.0183 260.192 39.4103 259.344 39.7783 257.632ZM36.3703 252.832C37.8103 252.832 38.4983 253.904 38.5303 255.296H33.9223C34.1463 253.648 35.1063 252.832 36.3703 252.832ZM45.6605 258.816C45.1485 258.976 44.7965 259.008 44.4925 259.008C43.7565 259.008 43.3245 258.72 43.3245 257.872V252.96H45.4525V251.952H43.3405V249.904H42.0285V251.952H40.8445V252.96H42.0285V257.936C42.0285 259.424 42.7805 260.128 44.2525 260.128C44.6045 260.128 45.0685 260.08 45.6605 259.904V258.816ZM52.5908 260H53.9188C53.7588 259.472 53.7268 258.912 53.7268 258.32V254.624C53.7268 252.688 52.5108 251.76 50.5588 251.76C48.8468 251.76 47.5668 252.688 47.4068 254.32H48.6868C48.7828 253.392 49.4548 252.832 50.5268 252.832C51.6308 252.832 52.4148 253.376 52.4148 254.656V255.12L49.8228 255.456C48.1908 255.648 47.0388 256.32 47.0388 257.872C47.0388 259.36 48.2388 260.176 49.6468 260.176C50.9908 260.176 52.0948 259.584 52.4468 258.64C52.4468 259.024 52.4948 259.552 52.5908 260ZM49.9188 259.168C48.9108 259.168 48.3828 258.592 48.3828 257.84C48.3828 256.752 49.2148 256.496 50.2228 256.352L52.4148 256.112V256.832C52.4148 258.384 51.1668 259.168 49.9188 259.168ZM55.7389 255.984C55.7389 258.56 57.2909 260.192 59.5309 260.192C61.3229 260.192 62.5069 259.184 62.7629 257.456H61.4989C61.2749 258.528 60.6189 259.12 59.5309 259.12C57.9469 259.12 57.0509 257.872 57.0509 255.984C57.0509 254.096 57.9469 252.832 59.5309 252.832C60.6189 252.832 61.2749 253.424 61.4989 254.496H62.7629C62.5069 252.784 61.3229 251.76 59.5309 251.76C57.2909 251.76 55.7389 253.408 55.7389 255.984ZM66.1239 253.424V248.224H64.7959V260H66.1239V255.568C66.1239 253.632 67.0999 252.848 68.3319 252.848C69.5959 252.848 70.2519 253.616 70.2519 255.104V260H71.5799V254.816C71.5799 252.896 70.5079 251.76 68.6999 251.76C67.4679 251.76 66.5079 252.4 66.1239 253.424ZM80.7908 257.632H79.5428C79.2068 258.608 78.5508 259.136 77.4628 259.136C75.9268 259.136 74.9508 258.112 74.8868 256.256H80.8388V255.728C80.8388 253.664 79.7668 251.76 77.3828 251.76C75.2388 251.76 73.5908 253.392 73.5908 256.016C73.5908 258.608 75.1908 260.192 77.4628 260.192C79.0308 260.192 80.4228 259.344 80.7908 257.632ZM77.3828 252.832C78.8228 252.832 79.5108 253.904 79.5428 255.296H74.9348C75.1588 253.648 76.1188 252.832 77.3828 252.832ZM88.6566 260H89.9366V248.224H88.6086V253.376C88.2406 252.56 87.3286 251.76 85.9366 251.76C83.8886 251.76 82.3526 253.424 82.3526 255.984C82.3526 258.528 83.8886 260.192 85.9366 260.192C87.2646 260.192 88.2566 259.408 88.6566 258.592V260ZM88.6726 256.08C88.6726 257.904 87.7766 259.152 86.2086 259.152C84.6246 259.152 83.6966 257.856 83.6966 255.984C83.6966 254.096 84.6246 252.8 86.2086 252.8C87.7766 252.8 88.6726 254.032 88.6726 255.856V256.08ZM96.0011 260H97.3771V254.768H104.065V260H105.441V248.576H104.065V253.616H97.3771V248.576H96.0011V260ZM115.255 255.984C115.255 253.392 113.655 251.76 111.431 251.76C109.207 251.76 107.607 253.392 107.607 255.984C107.607 258.576 109.207 260.192 111.431 260.192C113.655 260.192 115.255 258.576 115.255 255.984ZM108.919 255.984C108.919 254.048 109.863 252.832 111.431 252.832C112.999 252.832 113.943 254.048 113.943 255.984C113.943 257.92 112.999 259.12 111.431 259.12C109.863 259.12 108.919 257.92 108.919 255.984ZM123.623 253.488C123.271 252.416 122.535 251.76 121.175 251.76C120.007 251.76 119.015 252.4 118.631 253.424V251.952H117.351V260H118.679V255.568C118.679 253.712 119.591 252.848 120.807 252.848C122.023 252.848 122.551 253.6 122.551 255.104V260H123.895V255.568C123.895 253.712 124.807 252.848 126.007 252.848C127.207 252.848 127.751 253.6 127.751 255.104V260H129.095V254.816C129.095 252.928 128.183 251.76 126.327 251.76C125.143 251.76 124.119 252.4 123.623 253.488ZM138.3 257.632H137.052C136.716 258.608 136.06 259.136 134.972 259.136C133.436 259.136 132.46 258.112 132.396 256.256H138.348V255.728C138.348 253.664 137.276 251.76 134.892 251.76C132.748 251.76 131.1 253.392 131.1 256.016C131.1 258.608 132.7 260.192 134.972 260.192C136.54 260.192 137.932 259.344 138.3 257.632ZM134.892 252.832C136.332 252.832 137.02 253.904 137.052 255.296H132.444C132.668 253.648 133.628 252.832 134.892 252.832Z" fill="#2D2828"/>
<rect x="265" y="248" width="36" height="13" rx="6.5" fill="#E2DDD8"/>
<path d="M271.729 258H272.926V255.426H275.833V254.481H272.926V252.519H276.166V251.574H271.729V258ZM277.848 258H279.045V251.574H277.848V258ZM282.122 258V255.597H283.562L285.029 258H286.334L284.723 255.417C285.452 255.183 286.091 254.589 286.091 253.59C286.091 252.276 285.209 251.574 283.706 251.574H280.952V258H282.122ZM282.122 254.661V252.519H283.571C284.462 252.519 284.912 252.888 284.912 253.59C284.912 254.292 284.462 254.661 283.571 254.661H282.122ZM291.599 258L293.426 252.951H293.444V258H294.587V251.574H292.949L291.221 256.407H291.203L289.475 251.574H287.783V258H288.881V252.951H288.899L290.735 258H291.599Z" fill="#2D2828"/>
<rect x="20" y="273" width="291" height="30.1176" fill="white"/>
<path d="M28.368 285.712C28.368 284.016 27.152 282.384 24.752 282.384C22.352 282.384 20.976 284.08 20.864 286.096H22.16C22.256 284.72 23.168 283.536 24.736 283.536C26.432 283.536 27.056 284.624 27.056 285.712C27.056 287.04 25.824 287.888 24.304 288.864C22.608 289.92 20.64 291.344 20.64 293.376V294H28.48V292.848H22.112C22.112 291.808 23.488 290.848 24.88 289.92C26.592 288.816 28.368 287.856 28.368 285.712ZM35.009 292.592C35.409 293.408 36.401 294.192 37.729 294.192C39.777 294.192 41.313 292.528 41.313 289.984C41.313 287.424 39.777 285.76 37.729 285.76C36.337 285.76 35.425 286.56 35.057 287.376V282.224H33.729V294H35.009V292.592ZM34.993 289.856C34.993 288.032 35.889 286.8 37.457 286.8C39.041 286.8 39.969 288.096 39.969 289.984C39.969 291.856 39.041 293.152 37.457 293.152C35.889 293.152 34.993 291.904 34.993 290.08V289.856ZM50.0364 291.632H48.7884C48.4524 292.608 47.7964 293.136 46.7084 293.136C45.1724 293.136 44.1964 292.112 44.1324 290.256H50.0844V289.728C50.0844 287.664 49.0124 285.76 46.6284 285.76C44.4844 285.76 42.8364 287.392 42.8364 290.016C42.8364 292.608 44.4364 294.192 46.7084 294.192C48.2764 294.192 49.6684 293.344 50.0364 291.632ZM46.6284 286.832C48.0684 286.832 48.7564 287.904 48.7884 289.296H44.1804C44.4044 287.648 45.3644 286.832 46.6284 286.832ZM57.9023 294H59.1823V282.224H57.8543V287.376C57.4863 286.56 56.5743 285.76 55.1823 285.76C53.1343 285.76 51.5983 287.424 51.5983 289.984C51.5983 292.528 53.1343 294.192 55.1823 294.192C56.5103 294.192 57.5023 293.408 57.9023 292.592V294ZM57.9183 290.08C57.9183 291.904 57.0223 293.152 55.4543 293.152C53.8703 293.152 52.9423 291.856 52.9423 289.984C52.9423 288.096 53.8703 286.8 55.4543 286.8C57.0223 286.8 57.9183 288.032 57.9183 289.856V290.08ZM66.338 285.84C66.146 285.792 65.922 285.776 65.714 285.776C64.53 285.776 63.506 286.528 63.154 287.856V285.952H61.874V294H63.202V290.032C63.202 288 64.37 286.992 65.65 286.992C65.858 286.992 66.146 287.008 66.338 287.056V285.84ZM74.77 289.984C74.77 287.392 73.17 285.76 70.946 285.76C68.722 285.76 67.122 287.392 67.122 289.984C67.122 292.576 68.722 294.192 70.946 294.192C73.17 294.192 74.77 292.576 74.77 289.984ZM68.434 289.984C68.434 288.048 69.378 286.832 70.946 286.832C72.514 286.832 73.458 288.048 73.458 289.984C73.458 291.92 72.514 293.12 70.946 293.12C69.378 293.12 68.434 291.92 68.434 289.984ZM83.9381 289.984C83.9381 287.392 82.3381 285.76 80.1141 285.76C77.8901 285.76 76.2901 287.392 76.2901 289.984C76.2901 292.576 77.8901 294.192 80.1141 294.192C82.3381 294.192 83.9381 292.576 83.9381 289.984ZM77.6021 289.984C77.6021 288.048 78.5461 286.832 80.1141 286.832C81.6821 286.832 82.6261 288.048 82.6261 289.984C82.6261 291.92 81.6821 293.12 80.1141 293.12C78.5461 293.12 77.6021 291.92 77.6021 289.984ZM92.3066 287.488C91.9546 286.416 91.2186 285.76 89.8586 285.76C88.6906 285.76 87.6986 286.4 87.3146 287.424V285.952H86.0346V294H87.3626V289.568C87.3626 287.712 88.2746 286.848 89.4906 286.848C90.7066 286.848 91.2346 287.6 91.2346 289.104V294H92.5786V289.568C92.5786 287.712 93.4906 286.848 94.6906 286.848C95.8906 286.848 96.4346 287.6 96.4346 289.104V294H97.7786V288.816C97.7786 286.928 96.8666 285.76 95.0106 285.76C93.8266 285.76 92.8026 286.4 92.3066 287.488ZM99.6866 291.616C99.8306 293.344 101.271 294.192 103.191 294.192C104.999 294.192 106.327 293.152 106.327 291.744C106.327 290.448 105.559 289.808 104.247 289.552L102.647 289.248C101.719 289.072 101.239 288.784 101.239 288.096C101.239 287.312 101.927 286.784 102.999 286.784C104.103 286.784 104.823 287.264 104.919 288.08H106.151C105.991 286.56 104.855 285.76 102.999 285.76C101.223 285.76 100.007 286.816 100.007 288.176C100.007 289.584 100.951 290.112 102.247 290.352L103.671 290.64C104.695 290.832 105.079 291.216 105.079 291.808C105.079 292.672 104.279 293.184 103.175 293.184C102.087 293.184 101.063 292.72 100.967 291.616H99.6866Z" fill="#2D2828"/>
<rect x="265" y="282" width="36" height="13" rx="6.5" fill="#E2DDD8"/>
<path d="M271.729 292H272.926V289.426H275.833V288.481H272.926V286.519H276.166V285.574H271.729V292ZM277.848 292H279.045V285.574H277.848V292ZM282.122 292V289.597H283.562L285.029 292H286.334L284.723 289.417C285.452 289.183 286.091 288.589 286.091 287.59C286.091 286.276 285.209 285.574 283.706 285.574H280.952V292H282.122ZM282.122 288.661V286.519H283.571C284.462 286.519 284.912 286.888 284.912 287.59C284.912 288.292 284.462 288.661 283.571 288.661H282.122ZM291.599 292L293.426 286.951H293.444V292H294.587V285.574H292.949L291.221 290.407H291.203L289.475 285.574H287.783V292H288.881V286.951H288.899L290.735 292H291.599Z" fill="#2D2828"/>
<rect x="20" y="307" width="291" height="30.1176" fill="white"/>
<path d="M28.368 319.712C28.368 318.016 27.152 316.384 24.752 316.384C22.352 316.384 20.976 318.08 20.864 320.096H22.16C22.256 318.72 23.168 317.536 24.736 317.536C26.432 317.536 27.056 318.624 27.056 319.712C27.056 321.04 25.824 321.888 24.304 322.864C22.608 323.92 20.64 325.344 20.64 327.376V328H28.48V326.848H22.112C22.112 325.808 23.488 324.848 24.88 323.92C26.592 322.816 28.368 321.856 28.368 319.712ZM35.009 326.592C35.409 327.408 36.401 328.192 37.729 328.192C39.777 328.192 41.313 326.528 41.313 323.984C41.313 321.424 39.777 319.76 37.729 319.76C36.337 319.76 35.425 320.56 35.057 321.376V316.224H33.729V328H35.009V326.592ZM34.993 323.856C34.993 322.032 35.889 320.8 37.457 320.8C39.041 320.8 39.969 322.096 39.969 323.984C39.969 325.856 39.041 327.152 37.457 327.152C35.889 327.152 34.993 325.904 34.993 324.08V323.856ZM48.3408 328H49.6688C49.5088 327.472 49.4768 326.912 49.4768 326.32V322.624C49.4768 320.688 48.2608 319.76 46.3088 319.76C44.5968 319.76 43.3168 320.688 43.1568 322.32H44.4368C44.5328 321.392 45.2048 320.832 46.2768 320.832C47.3808 320.832 48.1648 321.376 48.1648 322.656V323.12L45.5728 323.456C43.9408 323.648 42.7888 324.32 42.7888 325.872C42.7888 327.36 43.9888 328.176 45.3968 328.176C46.7408 328.176 47.8448 327.584 48.1968 326.64C48.1968 327.024 48.2448 327.552 48.3408 328ZM45.6688 327.168C44.6608 327.168 44.1328 326.592 44.1328 325.84C44.1328 324.752 44.9648 324.496 45.9728 324.352L48.1648 324.112V324.832C48.1648 326.384 46.9168 327.168 45.6688 327.168ZM55.8249 326.816C55.3129 326.976 54.9609 327.008 54.6569 327.008C53.9209 327.008 53.4889 326.72 53.4889 325.872V320.96H55.6169V319.952H53.5049V317.904H52.1929V319.952H51.0089V320.96H52.1929V325.936C52.1929 327.424 52.9449 328.128 54.4169 328.128C54.7689 328.128 55.2329 328.08 55.8249 327.904V326.816ZM59.1551 321.424V316.224H57.8271V328H59.1551V323.568C59.1551 321.632 60.1311 320.848 61.3631 320.848C62.6271 320.848 63.2831 321.616 63.2831 323.104V328H64.6111V322.816C64.6111 320.896 63.5391 319.76 61.7311 319.76C60.4991 319.76 59.5391 320.4 59.1551 321.424ZM71.678 319.84C71.486 319.792 71.262 319.776 71.054 319.776C69.87 319.776 68.846 320.528 68.494 321.856V319.952H67.214V328H68.542V324.032C68.542 322 69.71 320.992 70.99 320.992C71.198 320.992 71.486 321.008 71.678 321.056V319.84ZM80.11 323.984C80.11 321.392 78.51 319.76 76.286 319.76C74.062 319.76 72.462 321.392 72.462 323.984C72.462 326.576 74.062 328.192 76.286 328.192C78.51 328.192 80.11 326.576 80.11 323.984ZM73.774 323.984C73.774 322.048 74.718 320.832 76.286 320.832C77.854 320.832 78.798 322.048 78.798 323.984C78.798 325.92 77.854 327.12 76.286 327.12C74.718 327.12 73.774 325.92 73.774 323.984ZM89.2781 323.984C89.2781 321.392 87.6781 319.76 85.4541 319.76C83.2301 319.76 81.6301 321.392 81.6301 323.984C81.6301 326.576 83.2301 328.192 85.4541 328.192C87.6781 328.192 89.2781 326.576 89.2781 323.984ZM82.9421 323.984C82.9421 322.048 83.8861 320.832 85.4541 320.832C87.0221 320.832 87.9661 322.048 87.9661 323.984C87.9661 325.92 87.0221 327.12 85.4541 327.12C83.8861 327.12 82.9421 325.92 82.9421 323.984ZM97.6466 321.488C97.2946 320.416 96.5586 319.76 95.1986 319.76C94.0306 319.76 93.0386 320.4 92.6546 321.424V319.952H91.3746V328H92.7026V323.568C92.7026 321.712 93.6146 320.848 94.8306 320.848C96.0466 320.848 96.5746 321.6 96.5746 323.104V328H97.9186V323.568C97.9186 321.712 98.8306 320.848 100.031 320.848C101.231 320.848 101.775 321.6 101.775 323.104V328H103.119V322.816C103.119 320.928 102.207 319.76 100.351 319.76C99.1666 319.76 98.1426 320.4 97.6466 321.488ZM105.027 325.616C105.171 327.344 106.611 328.192 108.531 328.192C110.339 328.192 111.667 327.152 111.667 325.744C111.667 324.448 110.899 323.808 109.587 323.552L107.987 323.248C107.059 323.072 106.579 322.784 106.579 322.096C106.579 321.312 107.267 320.784 108.339 320.784C109.443 320.784 110.163 321.264 110.259 322.08H111.491C111.331 320.56 110.195 319.76 108.339 319.76C106.563 319.76 105.347 320.816 105.347 322.176C105.347 323.584 106.291 324.112 107.587 324.352L109.011 324.64C110.035 324.832 110.419 325.216 110.419 325.808C110.419 326.672 109.619 327.184 108.515 327.184C107.427 327.184 106.403 326.72 106.307 325.616H105.027Z" fill="#2D2828"/>
<rect x="242" y="317" width="59" height="13" rx="6.5" fill="#D1DBD5"/>
<path d="M248.729 327H249.926V324.426H252.833V323.481H249.926V321.519H253.166V320.574H248.729V327ZM254.848 327H259.357V326.055H256.045V320.574H254.848V327ZM265.646 327V326.055H262.163V324.255H265.214V323.31H262.163V321.519H265.61V320.574H260.993V327H265.646ZM271.75 327H273.109L270.553 323.58L272.821 320.574H271.561L269.932 322.77L268.312 320.574H266.953L269.248 323.661L266.728 327H267.988L269.869 324.48L271.75 327ZM274.391 327H275.588V320.574H274.391V327ZM280.313 327C281.798 327 282.662 326.379 282.662 325.173C282.662 324.426 282.131 323.859 281.429 323.67C281.951 323.517 282.401 322.896 282.401 322.329C282.401 321.177 281.582 320.574 280.079 320.574H277.496V327H280.313ZM278.666 323.292V321.456H280.079C280.862 321.456 281.249 321.789 281.249 322.374C281.249 322.932 280.871 323.292 280.07 323.292H278.666ZM278.666 324.147H280.214C281.042 324.147 281.483 324.525 281.483 325.128C281.483 325.749 281.051 326.118 280.223 326.118H278.666V324.147ZM284.212 327H288.721V326.055H285.409V320.574H284.212V327ZM295.011 327V326.055H291.528V324.255H294.579V323.31H291.528V321.519H294.975V320.574H290.358V327H295.011Z" fill="#72987F"/>
<path d="M118.263 89.9665C123.046 77.4659 137.513 69.0288 150.615 63.7711C168.994 59.8582 184.728 67.2108 193.893 81.8306C200.512 93.7302 198.594 105.152 187.561 118.404C178.027 129.856 150.615 130.288 134.085 126.892C118.949 123.783 114.392 100.08 118.263 89.9665Z" fill="#72987F"/>
<path d="M158.967 115.773V95.7587M158.967 115.773H177.804V95.7587L168.385 84.574M158.967 115.773H136.597V95.7587M158.967 95.7587L168.385 84.574M158.967 95.7587H136.597M168.385 84.574H146.605L136.597 95.7587" stroke="#FBF8F5" stroke-width="1.44944"/>
<rect x="165.771" y="99.9711" width="5.67264" height="15.8023" stroke="#FBF8F5" stroke-width="1.44944"/>
<rect x="140.649" y="99.9711" width="5.67264" height="5.67264" stroke="#FBF8F5" stroke-width="1.44944"/>
<path d="M146.744 78.2932L146.26 75.3943" stroke="white" stroke-width="1.27322" stroke-linecap="round" stroke-linejoin="round"/>
<path d="M153.024 77.81L152.541 72.4954" stroke="white" stroke-width="1.27322" stroke-linecap="round" stroke-linejoin="round"/>
<path d="M159.305 77.3268L159.788 70.5627" stroke="white" stroke-width="1.27322" stroke-linecap="round" stroke-linejoin="round"/>
<path d="M164.62 77.81L166.069 73.9448" stroke="white" stroke-width="1.27322" stroke-linecap="round" stroke-linejoin="round"/>
<path d="M170.418 79.2595L171.867 76.3606" stroke="white" stroke-width="1.27322" stroke-linecap="round" stroke-linejoin="round"/>
<path d="M175.249 83.6078L177.181 81.6752" stroke="white" stroke-width="1.27322" stroke-linecap="round" stroke-linejoin="round"/>
<path d="M178.631 88.4392L181.046 86.9897" stroke="white" stroke-width="1.27322" stroke-linecap="round" stroke-linejoin="round"/>
<path d="M62.0511 154.944C65.9781 154.944 67.6791 152.718 67.6791 150.156C67.6791 147.888 66.0831 145.62 61.5471 145.62H53.9661V146.313C55.5411 146.376 56.5701 146.586 56.5701 148.056V159.564C56.5701 161.034 55.5411 161.244 53.9661 161.307V162H61.4421V161.307C59.5941 161.202 58.2711 161.034 58.2711 159.564V154.944H62.0511ZM58.2711 146.544H61.3791C64.4451 146.544 65.7891 147.972 65.7891 150.282C65.7891 152.949 64.4661 154.02 61.3371 154.02H58.2711V146.544ZM71.932 146.796L72.037 144.99H71.344L68.656 146.124V146.523L70.336 146.859V160.194C70.336 161.16 69.517 161.265 68.551 161.391V162H73.717V161.391C72.751 161.265 71.932 161.16 71.932 160.194V146.796ZM79.0101 161.097C77.8551 161.097 77.0361 160.446 77.0361 159.123C77.0361 158.22 77.5611 157.716 78.3591 157.464L82.4751 156.204V159.375C81.4041 160.32 80.3961 161.097 79.0101 161.097ZM84.0711 154.629C84.0711 151.941 82.4121 150.807 79.9761 150.807C77.7501 150.807 75.9021 151.815 75.9021 153.432C75.9021 153.81 76.0701 154.251 76.3431 154.44L77.7291 154.293C77.6241 153.978 77.6031 153.705 77.6031 153.453C77.6031 152.277 78.2751 151.773 79.5771 151.773C81.6141 151.773 82.4751 153.222 82.4751 154.839V155.343L78.3381 156.54C76.7841 156.981 75.2931 157.401 75.2931 159.396C75.2931 160.95 76.3851 162.231 78.5271 162.231C80.6061 162.231 81.7611 161.013 82.5381 160.152C82.6011 161.454 83.3571 162.21 84.3651 162.21C85.0581 162.21 85.6671 161.874 86.2761 161.307L86.0661 160.908C85.7511 161.034 85.4151 161.097 85.1421 161.097C84.4491 161.097 84.0711 160.551 84.0711 159.627V154.629ZM96.974 160.194C96.974 161.16 96.155 161.265 95.189 161.391V162H100.355V161.391C99.389 161.265 98.57 161.16 98.57 160.194V154.251C98.57 151.752 97.1 150.807 95.063 150.807C93.278 150.807 91.661 151.962 90.737 152.97L90.842 150.849H90.149L87.461 151.857V152.277L89.141 152.823V160.194C89.141 161.16 88.322 161.265 87.356 161.391V162H92.522V161.391C91.556 161.265 90.737 161.16 90.737 160.194V153.81C91.703 152.928 93.257 152.151 94.538 152.151C96.029 152.151 96.974 152.76 96.974 154.482V160.194ZM111.308 162.021L110.552 163.953C110.048 165.255 109.334 165.612 108.221 165.612H106.898V166.536C107.087 166.956 107.696 167.271 108.41 167.271C109.46 167.271 110.468 166.809 111.308 164.709L116.18 152.55C116.39 152.046 116.516 152.004 117.524 151.626V151.017H113.45V151.626C114.563 151.773 115.046 151.878 115.046 152.382C115.046 152.55 115.004 152.676 114.899 152.949L112.085 160.236L108.851 152.949C108.725 152.676 108.704 152.55 108.704 152.382C108.704 151.878 109.187 151.773 110.3 151.626V151.017H105.575V151.626C106.625 152.025 106.688 152.067 106.919 152.55L111.308 162.021ZM123.579 161.097C120.849 161.097 119.274 159.27 119.274 156.141C119.274 153.852 120.492 151.92 122.844 151.92C125.574 151.92 127.149 153.747 127.149 156.876C127.149 159.165 125.931 161.097 123.579 161.097ZM123.033 162.21C126.057 162.21 128.829 159.921 128.829 156.288C128.829 153.075 126.603 150.807 123.39 150.807C120.366 150.807 117.594 153.096 117.594 156.729C117.594 159.942 119.82 162.21 123.033 162.21ZM138.785 162.21H138.953L142.397 161.454V160.824L141.809 160.74C140.738 160.593 140.486 160.551 140.486 159.837V153.033L140.591 150.807H140.129L136.937 151.017V151.71L137.336 151.731C138.491 151.857 138.89 151.962 138.89 152.76V159.207C137.924 160.089 136.79 160.992 135.404 160.992C134.018 160.992 133.031 160.257 133.031 158.535V153.033L133.136 150.807H132.674L129.503 151.017V151.71L129.881 151.731C131.036 151.857 131.435 151.962 131.435 152.76V158.703C131.435 161.265 132.947 162.21 134.9 162.21C136.769 162.21 137.966 161.097 138.89 160.089L138.785 162.21ZM147.267 150.849H146.553L143.886 151.857V152.277L145.566 152.823V160.194C145.566 161.16 144.747 161.265 143.781 161.391V162H149.367V161.391C147.729 161.223 147.162 161.16 147.162 160.068V154.692C148.548 152.97 149.262 152.445 150.795 152.445H151.446V151.101C151.278 150.933 151.005 150.807 150.522 150.807C149.031 150.807 148.002 152.508 147.162 153.873L147.267 150.849ZM160.873 153.096L160.978 150.849H160.285L157.597 151.857V152.277L159.277 152.823V160.194C159.277 161.16 158.458 161.265 157.492 161.391V162H162.658V161.391C161.692 161.265 160.873 161.16 160.873 160.194V153.096ZM158.689 147.447C158.689 148.14 159.214 148.665 159.907 148.665C160.6 148.665 161.146 148.14 161.146 147.447C161.146 146.754 160.6 146.208 159.907 146.208C159.214 146.208 158.689 146.754 158.689 147.447ZM169.392 151.815C171.534 151.815 172.815 152.865 172.815 154.944V159.396C172.038 160.299 170.778 160.95 169.392 160.95C166.788 160.95 165.486 158.892 165.486 156.435C165.486 153.474 167.061 151.815 169.392 151.815ZM176.301 161.454V160.824L175.713 160.74C174.621 160.593 174.39 160.551 174.39 159.837V146.796L174.495 144.99H173.781L171.135 146.124V146.523L172.815 146.859V151.794C172.143 151.248 171.114 150.807 169.644 150.807C166.515 150.807 163.827 153.201 163.827 157.044C163.827 159.774 165.633 162.21 168.93 162.21C170.463 162.21 171.807 161.433 172.815 160.299L172.71 162.21H172.857L176.301 161.454ZM182.6 150.807C179.366 150.807 177.203 153.306 177.203 156.876C177.203 159.669 179.072 162.21 182.558 162.21C185.183 162.21 186.611 160.782 187.199 159.165L186.674 158.976C185.729 160.173 184.763 160.866 182.957 160.866C180.248 160.866 178.463 158.829 178.673 155.7H187.157V155.196C187.157 152.697 185.603 150.807 182.6 150.807ZM182.18 151.878C184.28 151.878 185.414 153.138 185.414 154.797H178.82C179.177 153.075 180.458 151.878 182.18 151.878ZM192.42 161.097C191.265 161.097 190.446 160.446 190.446 159.123C190.446 158.22 190.971 157.716 191.769 157.464L195.885 156.204V159.375C194.814 160.32 193.806 161.097 192.42 161.097ZM197.481 154.629C197.481 151.941 195.822 150.807 193.386 150.807C191.16 150.807 189.312 151.815 189.312 153.432C189.312 153.81 189.48 154.251 189.753 154.44L191.139 154.293C191.034 153.978 191.013 153.705 191.013 153.453C191.013 152.277 191.685 151.773 192.987 151.773C195.024 151.773 195.885 153.222 195.885 154.839V155.343L191.748 156.54C190.194 156.981 188.703 157.401 188.703 159.396C188.703 160.95 189.795 162.231 191.937 162.231C194.016 162.231 195.171 161.013 195.948 160.152C196.011 161.454 196.767 162.21 197.775 162.21C198.468 162.21 199.077 161.874 199.686 161.307L199.476 160.908C199.161 161.034 198.825 161.097 198.552 161.097C197.859 161.097 197.481 160.551 197.481 159.627V154.629ZM203.79 146.796L203.895 144.99H203.202L200.514 146.124V146.523L202.194 146.859V160.194C202.194 161.16 201.375 161.265 200.409 161.391V162H205.575V161.391C204.609 161.265 203.79 161.16 203.79 160.194V146.796ZM213.444 146.859V160.194C213.444 161.16 212.625 161.265 211.659 161.391V162H216.804V161.391C215.838 161.265 215.04 161.16 215.04 160.194V153.81C216.006 152.928 217.56 152.151 218.841 152.151C220.332 152.151 221.277 152.76 221.277 154.482V160.194C221.277 161.16 220.458 161.265 219.492 161.391V162H224.658V161.391C223.692 161.265 222.873 161.16 222.873 160.194V154.251C222.873 151.752 221.403 150.807 219.366 150.807C217.581 150.807 215.964 151.962 215.04 152.97V146.796L215.145 144.99H214.431L211.764 146.124V146.523L213.444 146.859ZM231.636 161.097C228.906 161.097 227.331 159.27 227.331 156.141C227.331 153.852 228.549 151.92 230.901 151.92C233.631 151.92 235.206 153.747 235.206 156.876C235.206 159.165 233.988 161.097 231.636 161.097ZM231.09 162.21C234.114 162.21 236.886 159.921 236.886 156.288C236.886 153.075 234.66 150.807 231.447 150.807C228.423 150.807 225.651 153.096 225.651 156.729C225.651 159.942 227.877 162.21 231.09 162.21ZM248.984 153.033C248.648 151.584 247.619 150.807 245.981 150.807C244.07 150.807 242.705 151.962 241.781 152.97L241.886 150.849H241.193L238.505 151.857V152.277L240.185 152.823V160.194C240.185 161.16 239.366 161.265 238.4 161.391V162H243.566V161.391C242.6 161.265 241.781 161.16 241.781 160.194V153.81C242.747 152.928 244.049 152.151 245.33 152.151C246.821 152.151 247.493 152.844 247.493 154.482V160.194C247.493 161.16 246.674 161.265 245.708 161.391V162H250.874V161.391C249.908 161.265 249.089 161.16 249.089 160.194V153.81C250.055 152.928 251.357 152.151 252.638 152.151C254.129 152.151 254.801 152.844 254.801 154.482V160.194C254.801 161.16 253.982 161.265 253.016 161.391V162H258.182V161.391C257.216 161.265 256.397 161.16 256.397 160.194V154.125C256.397 151.962 255.305 150.807 253.289 150.807C251.378 150.807 249.908 152.025 248.984 153.033ZM264.569 150.807C261.335 150.807 259.172 153.306 259.172 156.876C259.172 159.669 261.041 162.21 264.527 162.21C267.152 162.21 268.58 160.782 269.168 159.165L268.643 158.976C267.698 160.173 266.732 160.866 264.926 160.866C262.217 160.866 260.432 158.829 260.642 155.7H269.126V155.196C269.126 152.697 267.572 150.807 264.569 150.807ZM264.149 151.878C266.249 151.878 267.383 153.138 267.383 154.797H260.789C261.146 153.075 262.427 151.878 264.149 151.878Z" fill="#2D2828"/>
<line x1="20" y1="183.75" x2="300" y2="183.75" stroke="#E0DFDD" stroke-width="0.5"/>
</g>
</svg>
