<svg fill="none" height="330" viewBox="0 0 315 330" width="315" xmlns="http://www.w3.org/2000/svg" xmlns:xlink="http://www.w3.org/1999/xlink"><filter id="a" color-interpolation-filters="sRGB" filterUnits="userSpaceOnUse" height="87.0936" width="273.842" x="20.936" y="217.734"><feFlood flood-opacity="0" result="BackgroundImageFix"/><feColorMatrix in="SourceAlpha" type="matrix" values="0 0 0 0 0 0 0 0 0 0 0 0 0 0 0 0 0 0 127 0"/><feOffset dy=".837438"/><feGaussianBlur stdDeviation=".837438"/><feColorMatrix type="matrix" values="0 0 0 0 0 0 0 0 0 0 0 0 0 0 0 0 0 0 0.02 0"/><feBlend in2="BackgroundImageFix" mode="normal" result="effect1_dropShadow"/><feBlend in="SourceGraphic" in2="effect1_dropShadow" mode="normal" result="shape"/></filter><linearGradient id="b" gradientUnits="userSpaceOnUse" x1="155.763" x2="155.763" y1="187.685" y2="171.675"><stop offset="0" stop-color="#fbf8f5"/><stop offset="1" stop-color="#fbf8f5" stop-opacity="0"/></linearGradient><mask id="c" height="658" maskUnits="userSpaceOnUse" width="294" x="10" y="10"><rect fill="#fbf8f5" height="656.552" rx="23.4483" width="292.266" x="10.8867" y="10.8867"/></mask><rect fill="#2d2828" height="680" rx="31.8227" width="314.039"/><g mask="url(#c)"><rect fill="#fbf8f5" height="656.552" rx="23.4483" width="292.266" x="10.8867" y="10.8867"/><path d="m5.8623 256.256h303.99v419.557h-303.99z" fill="#fff"/><path d="m92.9556 9.21182h128.9654v11.12258c0 7.4001-5.999 13.399-13.399 13.399h-102.167c-7.4005 0-13.3994-5.9989-13.3994-13.399z" fill="#2d2828"/><path d="m35.3936 68.9458c1.8524 0 2.9428-.809 2.9428-2.3448 0-.9848-.6448-1.7469-1.6766-2.0048.7152-.2111 1.3014-1.0083 1.3014-1.7821 0-1.4655-1.0786-2.2393-2.9427-2.2393h-2.9428v8.371zm-2.3214-4.6779v-2.8724h2.0166c1.2428 0 1.8524.5041 1.8524 1.4303 0 .9145-.6214 1.4421-1.8641 1.4421zm0 .7855h2.2511c1.2779 0 2.0048.5862 2.0048 1.5476s-.7034 1.5241-1.9814 1.5241h-2.2745zm12.0842.9497c0-1.8994-1.1724-3.0952-2.802-3.0952-1.6297 0-2.8021 1.1958-2.8021 3.0952 0 1.8993 1.1724 3.0834 2.8021 3.0834 1.6296 0 2.802-1.1841 2.802-3.0834zm-4.6427 0c0-1.4187.6917-2.3097 1.8407-2.3097 1.1489 0 1.8407.891 1.8407 2.3097 0 1.4186-.6918 2.2979-1.8407 2.2979-1.149 0-1.8407-.8793-1.8407-2.2979zm11.478 0c0-1.8994-1.1724-3.0952-2.8021-3.0952-1.6296 0-2.802 1.1958-2.802 3.0952 0 1.8993 1.1724 3.0834 2.802 3.0834 1.6297 0 2.8021-1.1841 2.8021-3.0834zm-4.6427 0c0-1.4187.6917-2.3097 1.8406-2.3097 1.149 0 1.8407.891 1.8407 2.3097 0 1.4186-.6917 2.2979-1.8407 2.2979-1.1489 0-1.8406-.8793-1.8406-2.2979zm5.792 1.1958c.1056 1.2662 1.1607 1.8876 2.5676 1.8876 1.3249 0 2.298-.7621 2.298-1.7938 0-.9496-.5628-1.4186-1.5242-1.6062l-1.1724-.2228c-.68-.1289-1.0317-.34-1.0317-.8441 0-.5745.5041-.9614 1.2896-.9614.809 0 1.3366.3518 1.4069.9497h.9028c-.1172-1.1138-.9497-1.7-2.3097-1.7-1.3013 0-2.1924.7738-2.1924 1.7703 0 1.0318.6917 1.4186 1.6414 1.5945l1.0435.211c.7503.1407 1.0317.4221 1.0317.8559 0 .6331-.5862 1.0083-1.3952 1.0083-.7972 0-1.5476-.34-1.6179-1.149zm9.2929.8793c-.3752.1173-.6331.1407-.8559.1407-.5393 0-.8558-.211-.8558-.8324v-3.5993h1.5593v-.7386h-1.5476v-1.5007h-.9614v1.5007h-.8676v.7386h.8676v3.6462c0 1.0903.551 1.6062 1.6297 1.6062.2579 0 .5979-.0352 1.0317-.1641zm6.3578-.8676h-.9145c-.2462.7152-.7269 1.1021-1.5242 1.1021-1.1255 0-1.8406-.7503-1.8875-2.1103h4.3613v-.3869c0-1.5124-.7855-2.9076-2.5324-2.9076-1.571 0-2.7786 1.1958-2.7786 3.1186 0 1.8993 1.1724 3.06 2.8372 3.06 1.149 0 2.169-.6214 2.4387-1.8759zm-2.4973-3.5172c1.0552 0 1.5593.7855 1.5828 1.8055h-3.3766c.1642-1.2076.8676-1.8055 1.7938-1.8055zm8.3783 5.2524h.9379v-8.629h-.9731v3.7752c-.2696-.5979-.9379-1.1841-1.9579-1.1841-1.5007 0-2.6262 1.2193-2.6262 3.0952 0 1.8641 1.1255 3.0834 2.6262 3.0834.9731 0 1.7-.5745 1.9931-1.1724zm.0117-2.8724c0 1.3366-.6565 2.251-1.8055 2.251-1.1607 0-1.8407-.9496-1.8407-2.3213 0-1.3835.68-2.3331 1.8407-2.3331 1.149 0 1.8055.9027 1.8055 2.2393zm5.0652.3986c.1173 1.829 1.6414 2.6145 3.4586 2.6145 1.7704 0 3.0366-1.0083 3.0366-2.4386 0-1.3248-.8207-1.9228-2.1104-2.1807l-1.6413-.34c-1.02-.1993-1.489-.4924-1.489-1.3248 0-.8793.7269-1.5593 1.9462-1.5593 1.1959 0 2.0166.5393 2.1572 1.4772h.9731c-.1641-1.5124-1.3482-2.2862-3.142-2.2862-1.7352 0-2.9193 1.0317-2.9193 2.4034 0 1.4421 1.0082 1.958 2.1338 2.169l1.5944.3166c1.1373.211 1.5242.6682 1.5242 1.3717 0 1.0083-.8793 1.5827-2.0752 1.5827-1.2427 0-2.3448-.4572-2.4738-1.8055zm11.8203 2.4738h.9731c-.1172-.3869-.1407-.7972-.1407-1.231v-2.7083c0-1.4186-.891-2.0986-2.3213-2.0986-1.2545 0-2.1925.68-2.3097 1.8758h.9379c.0704-.68.5628-1.0903 1.3483-1.0903.809 0 1.3835.3986 1.3835 1.3366v.34l-1.8994.2462c-1.1958.1406-2.04.6331-2.04 1.7703 0 1.0903.8794 1.6883 1.9111 1.6883.9848 0 1.7938-.4338 2.0517-1.1255 0 .2813.0352.6682.1055.9965zm-1.9579-.6096c-.7386 0-1.1255-.4221-1.1255-.9731 0-.7973.6096-.9849 1.3482-1.0904l1.6063-.1759v.5276c0 1.1373-.9145 1.7118-1.829 1.7118zm6.3198.6096h1.0903l2.2628-5.8972h-.9731l-1.8173 4.9358h-.0234l-1.8993-4.9358h-.9966zm4.6652-7.1283h1.102v-1.1841h-1.102zm.071 7.1283h.973v-5.8972h-.973zm3.995-5.8972h-.938v5.8972h.973v-3.2476c0-1.4186.715-1.9931 1.618-1.9931.926 0 1.407.5628 1.407 1.6531v3.5876h.973v-3.7986c0-1.4069-.786-2.2393-2.111-2.2393-.902 0-1.641.4924-1.922 1.2193zm10.184 5.522c0 1.2311-.656 1.8525-1.817 1.8525-.797 0-1.419-.2345-1.618-.9731h-.985c.235 1.1489 1.196 1.7234 2.615 1.7234 1.571 0 2.79-.7972 2.79-2.6731v-5.4517h-.95v1.0317c-.281-.5628-.961-1.1724-1.993-1.1724-1.512 0-2.614 1.1841-2.614 2.9545 0 1.8407 1.102 2.9779 2.614 2.9779 1.032 0 1.688-.5628 1.958-1.1372zm.07-2.5675c0 1.2193-.762 2.0634-1.852 2.0634-1.149 0-1.829-.9028-1.829-2.2041 0-1.3131.68-2.1924 1.829-2.1924 1.09 0 1.852.8324 1.852 2.0517zm2.501 1.1958c.105 1.2662 1.16 1.8876 2.567 1.8876 1.325 0 2.298-.7621 2.298-1.7938 0-.9496-.563-1.4186-1.524-1.6062l-1.172-.2228c-.68-.1289-1.032-.34-1.032-.8441 0-.5745.504-.9614 1.29-.9614.809 0 1.336.3518 1.406.9497h.903c-.117-1.1138-.949-1.7-2.309-1.7-1.302 0-2.193.7738-2.193 1.7703 0 1.0318.692 1.4186 1.642 1.5945l1.043.211c.75.1407 1.032.4221 1.032.8559 0 .6331-.586 1.0083-1.395 1.0083-.798 0-1.548-.34-1.618-1.149z" fill="#625451"/><path d="m33.3185 198.752h-1.2428v8.371h.9848v-7.14h.0235l4.76 7.14h.9379v-8.371h-.9731v6.683h-.0234zm12.4485 6.636h-.9145c-.2462.715-.7269 1.102-1.5241 1.102-1.1255 0-1.8407-.75-1.8876-2.11h4.3614v-.387c0-1.513-.7855-2.908-2.5324-2.908-1.5711 0-2.7786 1.196-2.7786 3.119 0 1.899 1.1724 3.06 2.8372 3.06 1.149 0 2.169-.622 2.4386-1.876zm-2.4972-3.517c1.0551 0 1.5593.785 1.5827 1.805h-3.3765c.1641-1.207.8676-1.805 1.7938-1.805zm4.3635 5.252 1.7117-2.368 1.7469 2.368h1.1372l-2.2745-3.083 2.0869-2.814h-1.0551l-1.5593 2.169-1.5711-2.169h-1.1489l2.122 2.861-2.2393 3.036zm8.8126-.867c-.3752.117-.6331.14-.8559.14-.5393 0-.8559-.211-.8559-.832v-3.599h1.5594v-.739h-1.5476v-1.501h-.9614v1.501h-.8676v.739h.8676v3.646c0 1.09.551 1.606 1.6296 1.606.258 0 .598-.035 1.0318-.164zm5.1696.867v-3.388h2.2276l2.1689 3.388h1.1373l-2.298-3.541c.9849-.222 1.9345-.984 1.9345-2.344 0-1.607-1.0669-2.486-2.9427-2.486h-3.2242v8.371zm0-4.232v-3.295h2.1689c1.2663 0 1.9814.586 1.9814 1.642 0 1.09-.7151 1.653-1.9814 1.653zm11.8818 2.497h-.9144c-.2462.715-.7269 1.102-1.5242 1.102-1.1255 0-1.8407-.75-1.8876-2.11h4.3614v-.387c0-1.513-.7855-2.908-2.5324-2.908-1.571 0-2.7786 1.196-2.7786 3.119 0 1.899 1.1724 3.06 2.8372 3.06 1.149 0 2.169-.622 2.4386-1.876zm-2.4972-3.517c1.0552 0 1.5593.785 1.5828 1.805h-3.3766c.1642-1.207.8676-1.805 1.7938-1.805zm8.0637-.645h-.9849l-1.3131 4.842h-.0352l-1.3717-4.842h-.9614l1.7821 5.897h1.02l1.3366-4.772h.0351l1.36 4.772h1.0083l1.7821-5.897h-.9379l-1.36 4.842h-.0235zm8.5561 5.897h.9731c-.1172-.387-.1407-.797-.1407-1.231v-2.708c0-1.419-.891-2.099-2.3214-2.099-1.2545 0-2.1924.68-2.3096 1.876h.9379c.0704-.68.5628-1.09 1.3483-1.09.8089 0 1.3834.398 1.3834 1.336v.34l-1.8993.246c-1.1958.141-2.04.634-2.04 1.771 0 1.09.8793 1.688 1.9111 1.688.9848 0 1.7937-.434 2.0517-1.125 0 .281.0352.668.1055.996zm-1.9579-.61c-.7387 0-1.1256-.422-1.1256-.973 0-.797.6097-.984 1.3483-1.09l1.6062-.176v.528c0 1.137-.9145 1.711-1.8289 1.711zm8.0868-5.369c-.1407-.035-.3048-.047-.4573-.047-.8675 0-1.6179.551-1.8758 1.524v-1.395h-.938v5.897h.9732v-2.907c0-1.489.8558-2.228 1.7937-2.228.1525 0 .3635.012.5042.047zm5.311 5.979h.9379v-8.629h-.9731v3.775c-.2696-.598-.9379-1.184-1.9579-1.184-1.5007 0-2.6262 1.22-2.6262 3.095 0 1.865 1.1255 3.084 2.6262 3.084.9731 0 1.7-.575 1.9931-1.173zm.0117-2.872c0 1.336-.6565 2.251-1.8055 2.251-1.1607 0-1.8407-.95-1.8407-2.322 0-1.383.68-2.333 1.8407-2.333 1.149 0 1.8055.903 1.8055 2.24z" fill="#625451"/><path d="m28.873 94.9821c0 4.9944 3.3062 7.9139 7.8786 8.3009v3.271h1.7235v-3.236c4.2559-.176 7.351-2.462 7.351-6.2256 0-3.5172-2.04-5.0648-5.8738-5.8386l-1.4772-.2814v-8.7579c3.0248.5627 4.8186 2.7786 4.889 6.2607l2.0048-.1759c0-4.4669-2.5676-7.2807-6.8938-7.8434v-3.2711h-1.7235v3.1655c-4.502.0704-7.2103 2.5325-7.2103 6.1552 0 3.3414 2.1807 5.1704 5.2759 5.8035l1.9344.3869v8.8631c-3.3765-.422-5.7682-2.7783-5.9089-6.7528zm10.3759-1.7938c3.1303.6331 4.4317 1.8289 4.4317 4.08 0 2.6027-2.1103 4.1857-5.2055 4.3617v-8.5824zm-7.6324-6.7531c0-2.7083 1.7938-4.2911 5.1351-4.3614v8.5469l-.6331-.1407c-2.8841-.5628-4.502-1.5476-4.502-4.0448zm19.3662 16.4958h13.5062v-1.864h-5.5572v-20.4705h-1.231c-.598 2.6732-1.6531 3.2711-5.4518 3.2711h-.8441v1.5827h5.311v15.6167h-5.7331zm32.0284-5.9793c0 2.9897-2.2159 4.6073-5.5221 4.6073-3.7283 0-6.0848-2.0397-6.1904-5.9438l-2.1806-.1407c0 4.9245 3.2006 7.8785 8.3358 7.8785 4.8186 0 7.7731-2.673 7.7731-6.2254 0-2.9545-2.1455-5.0297-4.7834-5.3814 2.1807-.3517 4.3614-2.3565 4.3614-5.2407 0-3.6579-2.638-6.1552-7.4214-6.1552-4.8186 0-7.8435 3.2359-7.8435 7.8083l2.1807.1055c0-3.9393 2.2159-6.12 5.6628-6.12s5.2055 1.8642 5.2055 4.5021c0 3.2359-2.3917 4.2207-4.9945 4.2207-1.1255 0-1.7234-.0352-2.251-.1055v2.0048c.5276-.0703 1.231-.1407 2.251-.1407 3.0952 0 5.4166 1.5476 5.4166 4.3262zm7.7593 5.9793h1.3717c0 1.583-.1406 2.04-1.3717 2.146v1.442c2.5324 0 2.8138-1.372 2.8138-3.553v-2.849h-2.8138zm15.3636-1.337c-3.341 0-4.959-2.0395-5.417-4.9588l-2.1452.1055c.3518 4.0803 3.2712 6.6123 7.5622 6.6123 6.155 0 9.004-5.0296 9.004-12.0289 0-6.6827-3.06-10.9738-8.863-10.9738-4.96 0-7.9494 3.2007-7.9494 7.7028 0 4.4317 3.0244 7.5972 7.8084 7.5972 3.974 0 6.331-2.3213 7.034-5.2406.141 6.5068-1.969 11.1843-7.034 11.1843zm6.19-13.6112c0 3.5172-2.145 5.7682-5.909 5.7682-3.763 0-5.909-2.251-5.909-5.7682 0-3.4821 2.146-5.8035 5.769-5.8035 3.728 0 6.049 2.3214 6.049 5.8035zm19.648-7.2104h-2.744l-11.501 13.7524v2.1455h12.064v6.2607h2.181v-6.2607h4.396v-1.7938h-4.396zm-2.181 2.04v12.0641h-9.989zm12.824 18.1486 4.573-3.8334c3.095-2.6028 6.929-6.0497 6.929-10.0945 0-3.6579-2.181-6.6828-7.281-6.6828-4.608 0-7.527 2.849-7.527 7.3511 0 .6683.071 1.3717.211 2.0751l2.251.1407c-.176-.7386-.246-1.442-.246-2.0751 0-3.6228 1.97-5.698 5.311-5.698 3.271 0 4.959 2.04 4.959 4.9945 0 3.5173-2.989 6.0848-6.507 9.18l-6.295 5.5574v1.055h16.038v-1.97z" fill="#e1ab54"/><g filter="url(#a)"><rect fill="#faf7f5" height="83.7438" rx="6.69951" width="270.493" x="22.6108" y="218.571"/><rect height="83.3251" rx="6.49015" stroke="#d5d0cc" stroke-width=".418719" width="270.074" x="22.8202" y="218.781"/></g><path d="m129.832 286.68v-3.223l2.972-4.55h-1.035l-2.351 3.712h-.022l-2.428-3.712h-1.034l2.961 4.55v3.223zm8.13-2.733c0-1.763-1.089-2.874-2.602-2.874s-2.602 1.111-2.602 2.874c0 1.764 1.089 2.863 2.602 2.863s2.602-1.099 2.602-2.863zm-4.311 0c0-1.317.642-2.144 1.709-2.144s1.709.827 1.709 2.144c0 1.318-.642 2.134-1.709 2.134s-1.709-.816-1.709-2.134zm10.353 2.733v-5.476h-.914v3.015c0 1.318-.621 1.884-1.448 1.884-.86 0-1.285-.534-1.285-1.546v-3.353h-.914v3.527c0 1.328.696 2.079 1.938 2.079.827 0 1.48-.435 1.741-1.121v.991zm2.056-6.946h.555v.152c0 .708-.338.969-.893.969v.545c.98 0 1.524-.621 1.524-1.524v-1.209h-1.186zm5.82 1.394c-.131-.033-.283-.044-.425-.044-.806 0-1.502.512-1.742 1.415v-1.295h-.871v5.476h.904v-2.7c0-1.383.795-2.069 1.666-2.069.141 0 .337.011.468.044zm5.541 3.941h-.849c-.229.664-.675 1.023-1.415 1.023-1.046 0-1.71-.697-1.753-1.96h4.05v-.359c0-1.404-.73-2.7-2.352-2.7-1.459 0-2.58 1.111-2.58 2.896 0 1.764 1.089 2.841 2.635 2.841 1.066 0 2.014-.577 2.264-1.741zm-2.319-3.266c.98 0 1.448.729 1.47 1.676h-3.136c.153-1.121.806-1.676 1.666-1.676zm9.596 4.877h.904c-.109-.359-.131-.741-.131-1.143v-2.515c0-1.317-.827-1.949-2.156-1.949-1.164 0-2.035.632-2.144 1.742h.871c.065-.631.522-1.012 1.252-1.012.751 0 1.284.37 1.284 1.241v.315l-1.763.229c-1.111.131-1.895.588-1.895 1.644 0 1.012.817 1.568 1.775 1.568.914 0 1.666-.403 1.905-1.046 0 .262.033.621.098.926zm-1.818-.566c-.686 0-1.045-.392-1.045-.904 0-.74.566-.914 1.252-1.012l1.491-.164v.49c0 1.056-.849 1.59-1.698 1.59zm5.375.566v-8.013h-.903v8.013zm6.203-4.431c-.24-.73-.74-1.176-1.666-1.176-.794 0-1.469.436-1.731 1.132v-1.001h-.871v5.476h.904v-3.016c0-1.263.621-1.851 1.448-1.851s1.187.512 1.187 1.535v3.332h.914v-3.016c0-1.263.621-1.851 1.437-1.851.817 0 1.187.512 1.187 1.535v3.332h.914v-3.527c0-1.285-.62-2.08-1.883-2.08-.806 0-1.503.436-1.84 1.176zm10.4 1.698c0-1.763-1.089-2.874-2.602-2.874-1.514 0-2.602 1.111-2.602 2.874 0 1.764 1.088 2.863 2.602 2.863 1.513 0 2.602-1.099 2.602-2.863zm-4.312 0c0-1.317.643-2.144 1.71-2.144 1.066 0 1.709.827 1.709 2.144 0 1.318-.643 2.134-1.709 2.134-1.067 0-1.71-.816-1.71-2.134zm5.379 1.111c.098 1.175 1.078 1.752 2.384 1.752 1.23 0 2.134-.707 2.134-1.665 0-.882-.523-1.318-1.416-1.492l-1.088-.207c-.632-.119-.958-.315-.958-.783 0-.534.468-.893 1.197-.893.751 0 1.241.326 1.307.882h.838c-.109-1.035-.882-1.579-2.145-1.579-1.208 0-2.036.719-2.036 1.644 0 .958.643 1.317 1.525 1.481l.969.196c.696.13.958.392.958.794 0 .588-.545.937-1.296.937-.74 0-1.437-.316-1.502-1.067zm8.629.816c-.349.109-.588.131-.795.131-.501 0-.795-.196-.795-.773v-3.342h1.448v-.686h-1.437v-1.394h-.892v1.394h-.806v.686h.806v3.385c0 1.013.511 1.492 1.513 1.492.239 0 .555-.033.958-.153zm6.379 0c-.349.109-.588.131-.795.131-.501 0-.795-.196-.795-.773v-3.342h1.448v-.686h-1.437v-1.394h-.893v1.394h-.805v.686h.805v3.385c0 1.013.512 1.492 1.514 1.492.239 0 .555-.033.958-.153zm2.375-3.669v-3.538h-.904v8.013h.904v-3.016c0-1.317.664-1.851 1.502-1.851.86 0 1.306.523 1.306 1.535v3.332h.904v-3.527c0-1.307-.729-2.08-1.96-2.08-.838 0-1.491.436-1.752 1.132zm10.088 2.864h-.849c-.229.664-.675 1.023-1.415 1.023-1.046 0-1.71-.697-1.753-1.96h4.05v-.359c0-1.404-.73-2.7-2.352-2.7-1.459 0-2.58 1.111-2.58 2.896 0 1.764 1.089 2.841 2.635 2.841 1.067 0 2.014-.577 2.264-1.741zm-2.319-3.266c.98 0 1.448.729 1.47 1.676h-3.135c.152-1.121.805-1.676 1.665-1.676zm6.92-.675c-.13-.033-.283-.044-.424-.044-.806 0-1.503.512-1.742 1.415v-1.295h-.871v5.476h.903v-2.7c0-1.383.795-2.069 1.666-2.069.142 0 .338.011.468.044zm5.542 3.941h-.85c-.228.664-.675 1.023-1.415 1.023-1.045 0-1.709-.697-1.753-1.96h4.05v-.359c0-1.404-.729-2.7-2.351-2.7-1.459 0-2.58 1.111-2.58 2.896 0 1.764 1.088 2.841 2.634 2.841 1.067 0 2.014-.577 2.265-1.741zm-2.319-3.266c.979 0 1.448.729 1.469 1.676h-3.135c.152-1.121.806-1.676 1.666-1.676zm4.057-2.896.174 5.41h.729l.163-5.41zm-.066 7.773h1.187v-1.176h-1.187z" fill="#625451"/><g stroke="#625451" stroke-width="1.25616"><path d="m97.834 290.591s-.112-4.327-.3313-6.8m0 0c-.1404-1.74-.2192-2.715-.3596-4.455l5.2969-.469-.272 1.675 3.957-.503-1.382 2.345 1.612 2.111-5.862.653.46-1.642s-1.792.102-3.4503.285z"/><path d="m93.3746 288.079-1.6749.837" stroke-linecap="round" stroke-linejoin="round"/><path d="m92.9557 279.704-2.5123-.837" stroke-linecap="round" stroke-linejoin="round"/><path d="m92.1183 283.892-3.3497.418" stroke-linecap="round" stroke-linejoin="round"/><path d="m109.705 288.079 1.674.837" stroke-linecap="round" stroke-linejoin="round"/><path d="m110.123 279.286 2.931-1.675" stroke-linecap="round" stroke-linejoin="round"/><path d="m110.123 283.473 4.188.419" stroke-linecap="round" stroke-linejoin="round"/><path d="m95.468 275.936-.4187-.837" stroke-linecap="round" stroke-linejoin="round"/><path d="m105.936 275.517 1.256-1.256" stroke-linecap="round" stroke-linejoin="round"/><path d="m100.074 274.68v-.838" stroke-linecap="round" stroke-linejoin="round"/></g><path d="m60.2706 243.133v-1.319h-4.8613v-2.512h4.2584v-1.319h-4.2584v-2.5h4.8111v-1.319h-6.4441v8.969zm5.6792 0h1.5451c-.1005-.515-.1256-1.005-.1256-1.595v-2.462c0-1.659-.9924-2.475-2.7259-2.475-1.5702 0-2.6379.804-2.7761 2.173h1.5451c.0502-.59.4773-.98 1.1808-.98.7285 0 1.2059.377 1.2059 1.156v.301l-1.9094.214c-1.2938.151-2.2987.678-2.2987 1.96 0 1.155.9044 1.846 2.148 1.846 1.0175 0 1.8214-.414 2.1229-1.143 0 .314.0251.653.0879 1.005zm-1.7712-.98c-.6406 0-.9923-.314-.9923-.816 0-.666.515-.817 1.1933-.905l1.4195-.163v.389c0 1.005-.7914 1.495-1.6205 1.495zm9.1099-5.464c-.1382-.038-.314-.05-.4773-.05-.917 0-1.6581.552-1.9596 1.545v-1.432h-1.5828v6.381h1.6079v-2.952c0-1.382.8165-2.06 1.7963-2.06.201 0 .4271.012.6155.05zm2.8134.063h-1.5827v6.381h1.6078v-3.467c0-1.281.6281-1.796 1.4321-1.796.8416 0 1.2812.527 1.2812 1.545v3.718h1.6079v-4.095c0-1.533-.8793-2.437-2.3364-2.437-.9673 0-1.7084.502-2.0099 1.231zm15.7149 3.818c0-1.432-.8667-2.16-2.3113-2.437l-.8039-.15v-2.676c.8416.138 1.3566.565 1.4446 1.307h1.5073c-.1633-1.483-1.2059-2.387-2.9519-2.563v-1.206h-.917v1.193c-1.7712.101-3.0274 1.156-3.0274 2.663 0 1.571 1.0678 2.186 2.3742 2.425l.6532.113v2.776c-.917-.126-1.6833-.603-1.7712-1.583h-1.5325c.1382 1.709 1.4948 2.638 3.3037 2.801v1.269h.917v-1.256c1.7963-.113 3.1152-1.143 3.1152-2.676zm-4.1453-2.788c-.9798-.189-1.4069-.44-1.4069-1.181 0-.716.5527-1.231 1.52-1.319v2.525zm1.1808 1.658c1.1054.201 1.4572.59 1.4572 1.243 0 .779-.603 1.257-1.6079 1.357v-2.625zm7.5109-1.093c1.1682 0 1.7209.854 1.7209 1.847 0 .979-.5653 1.834-1.7209 1.834-1.0552 0-1.721-.679-1.7963-1.621h-1.6582c.1382 1.734 1.432 2.877 3.4545 2.877 2.0726 0 3.3162-1.369 3.3162-3.103 0-1.759-1.1933-3.09-3.0524-3.09-.8417 0-1.5451.352-1.8843.728l.2387-2.336h4.183v-1.319h-5.3764l-.515 5.012h1.4948c.2764-.44.804-.829 1.5954-.829zm4.4478.302c0 2.688 1.482 4.635 3.818 4.635 2.337 0 3.806-1.947 3.806-4.635 0-2.689-1.469-4.636-3.806-4.636-2.336 0-3.818 1.947-3.818 4.636zm1.683 0c0-2.035.703-3.329 2.135-3.329 1.42 0 2.123 1.294 2.123 3.329 0 2.034-.703 3.328-2.123 3.328-1.432 0-2.135-1.294-2.135-3.328zm7.1 0c0 2.688 1.482 4.635 3.819 4.635 2.336 0 3.806-1.947 3.806-4.635 0-2.689-1.47-4.636-3.806-4.636-2.337 0-3.819 1.947-3.819 4.636zm1.683 0c0-2.035.704-3.329 2.136-3.329 1.419 0 2.122 1.294 2.122 3.329 0 2.034-.703 3.328-2.122 3.328-1.432 0-2.136-1.294-2.136-3.328z" fill="#2d2828"/><path d="m125.788 236.815h-1.055l-1.407 5.187h-.038l-1.469-5.187h-1.031l1.91 6.318h1.093l1.432-5.113h.037l1.458 5.113h1.08l1.909-6.318h-1.005l-1.457 5.187h-.025zm6.415 1.155v-4.082h-1.043v9.245h1.043v-3.48c0-1.52.766-2.135 1.733-2.135.992 0 1.507.603 1.507 1.771v3.844h1.043v-4.07c0-1.507-.842-2.399-2.261-2.399-.967 0-1.721.502-2.022 1.306zm11.64 3.304h-.98c-.264.766-.779 1.181-1.633 1.181-1.206 0-1.972-.804-2.022-2.261h4.673v-.415c0-1.62-.842-3.115-2.714-3.115-1.683 0-2.977 1.281-2.977 3.341 0 2.035 1.257 3.279 3.04 3.279 1.231 0 2.324-.666 2.613-2.01zm-2.676-3.769c1.131 0 1.671.842 1.696 1.935h-3.617c.175-1.294.929-1.935 1.921-1.935zm5.485-.69h-1.005v6.318h1.043v-3.48c0-1.52.766-2.135 1.734-2.135.992 0 1.507.603 1.507 1.771v3.844h1.043v-4.07c0-1.507-.842-2.399-2.262-2.399-.967 0-1.758.527-2.06 1.306zm10.985 6.368c-.414 1.068-.703 1.42-1.331 1.42-.164 0-.302 0-.503-.051v.855c.201.037.44.062.616.062 1.155-.012 1.658-.64 2.236-2.148l2.55-6.506h-1.081l-1.896 5.162h-.026l-2.009-5.162h-1.093zm10.368-3.203c0-2.035-1.256-3.316-3.002-3.316s-3.002 1.281-3.002 3.316 1.256 3.304 3.002 3.304 3.002-1.269 3.002-3.304zm-4.974 0c0-1.52.741-2.475 1.972-2.475s1.972.955 1.972 2.475-.741 2.462-1.972 2.462-1.972-.942-1.972-2.462zm11.946 3.153v-6.318h-1.055v3.479c0 1.52-.716 2.173-1.67 2.173-.993 0-1.483-.615-1.483-1.784v-3.868h-1.055v4.069c0 1.533.804 2.4 2.236 2.4.955 0 1.708-.503 2.01-1.294v1.143zm8.462-6.406c-.151-.038-.327-.051-.49-.051-.93 0-1.734.591-2.01 1.633v-1.494h-1.005v6.318h1.043v-3.115c0-1.596.917-2.387 1.922-2.387.163 0 .389.013.54.05zm6.394 4.547h-.98c-.264.766-.779 1.181-1.633 1.181-1.206 0-1.972-.804-2.023-2.261h4.673v-.415c0-1.62-.841-3.115-2.713-3.115-1.683 0-2.977 1.281-2.977 3.341 0 2.035 1.256 3.279 3.04 3.279 1.231 0 2.324-.666 2.613-2.01zm-2.676-3.769c1.131 0 1.671.842 1.696 1.935h-3.618c.176-1.294.93-1.935 1.922-1.935zm8.484 5.628h1.043c-.126-.415-.151-.854-.151-1.319v-2.902c0-1.52-.955-2.248-2.487-2.248-1.344 0-2.349.728-2.475 2.01h1.005c.075-.729.603-1.169 1.444-1.169.867 0 1.483.428 1.483 1.432v.365l-2.035.264c-1.282.15-2.186.678-2.186 1.896 0 1.169.942 1.809 2.048 1.809 1.055 0 1.922-.465 2.198-1.206 0 .302.038.716.113 1.068zm-2.098-.653c-.791 0-1.206-.452-1.206-1.043 0-.854.653-1.055 1.445-1.168l1.721-.188v.565c0 1.218-.98 1.834-1.96 1.834zm4.695-2.5c0 2.022 1.219 3.304 2.977 3.304 1.407 0 2.337-.792 2.538-2.148h-.993c-.176.841-.691 1.306-1.545 1.306-1.243 0-1.947-.98-1.947-2.462s.704-2.475 1.947-2.475c.854 0 1.369.465 1.545 1.307h.993c-.201-1.344-1.131-2.148-2.538-2.148-1.758 0-2.977 1.294-2.977 3.316zm8.279-2.01v-4.082h-1.043v9.245h1.043v-3.48c0-1.52.766-2.135 1.733-2.135.993 0 1.508.603 1.508 1.771v3.844h1.042v-4.07c0-1.507-.841-2.399-2.261-2.399-.967 0-1.721.502-2.022 1.306zm15.532 2.701c0-1.407-.854-2.073-2.198-2.349l-.729-.138v-3.241c.993.125 1.633.628 1.746 1.507h.993c-.151-1.444-1.169-2.248-2.739-2.399v-1.206h-.753v1.181c-1.709.075-2.852 1.13-2.852 2.55 0 1.545 1.043 2.098 2.223 2.336l.629.126v3.341c-1.106-.125-2.023-.691-2.136-1.884h-1.005c.101 1.683 1.482 2.6 3.141 2.738v1.269h.753v-1.256c1.709-.1 2.927-1.156 2.927-2.575zm-3.982-2.701c-1.068-.213-1.558-.54-1.558-1.432s.679-1.557 1.86-1.62v3.115zm1.382 1.269c1.206.226 1.595.728 1.595 1.482 0 .98-.766 1.583-1.922 1.671v-3.216zm3.684-3.027h1.884v6.921h1.08v-9.007h-.666c-.213.93-.766 1.357-2.298 1.357zm8.13 1.834c1.419 0 2.085 1.03 2.085 2.173s-.666 2.185-2.073 2.185c-1.268 0-2.097-.791-2.185-1.934h-1.068c.138 1.733 1.432 2.814 3.241 2.814 1.959 0 3.128-1.357 3.128-3.065 0-1.696-1.169-3.053-3.04-3.053-.829 0-1.608.402-1.985.88l.301-2.965h4.271v-.917h-5.049l-.503 4.886h.967c.34-.54.968-1.004 1.91-1.004zm4.661 5.074h.603v.227c0 .829-.364 1.118-1.005 1.118v.64c1.144 0 1.772-.716 1.772-1.758v-1.583h-1.37zm2.735-4.471c0 2.688 1.394 4.635 3.568 4.635 2.185 0 3.567-1.947 3.567-4.635 0-2.689-1.382-4.636-3.567-4.636-2.174 0-3.568 1.947-3.568 4.636zm1.105 0c0-2.199.83-3.706 2.463-3.706 1.645 0 2.474 1.507 2.474 3.706 0 2.198-.829 3.705-2.474 3.705-1.633 0-2.463-1.507-2.463-3.705zm7.396 0c0 2.688 1.395 4.635 3.568 4.635 2.185 0 3.567-1.947 3.567-4.635 0-2.689-1.382-4.636-3.567-4.636-2.173 0-3.568 1.947-3.568 4.636zm1.106 0c0-2.199.829-3.706 2.462-3.706 1.645 0 2.474 1.507 2.474 3.706 0 2.198-.829 3.705-2.474 3.705-1.633 0-2.462-1.507-2.462-3.705zm7.395 0c0 2.688 1.395 4.635 3.568 4.635 2.186 0 3.567-1.947 3.567-4.635 0-2.689-1.381-4.636-3.567-4.636-2.173 0-3.568 1.947-3.568 4.636zm1.106 0c0-2.199.829-3.706 2.462-3.706 1.645 0 2.474 1.507 2.474 3.706 0 2.198-.829 3.705-2.474 3.705-1.633 0-2.462-1.507-2.462-3.705z" fill="#625451"/><rect fill="#e2ddd8" height="6.69951" rx="3.34975" width="248.719" x="32.6602" y="256.256"/><rect fill="#72987f" height="6.69951" rx="3.34975" width="204.335" x="32.6602" y="256.256"/><circle cx="38.5223" cy="238.67" fill="#e1ab54" r="6.69951"/><path d="m35.3753 239.299 3.3884-4.431c.1835-.24.567-.1.5533.202l-.1086 2.388c-.0079.175.1324.322.3083.322h1.9072c.2555 0 .4003.293.2451.496l-3.3884 4.431c-.1835.24-.567.1-.5533-.201l.1086-2.388c.0079-.176-.1324-.323-.3083-.323h-1.9072c-.2555 0-.4003-.293-.2451-.496z" fill="#fbf8f5"/><path d="m30.1479 170 1.9384-.562 1.9383-.281 1.9384-.562 1.9383-.842 1.9384-.281 1.9383-.281 1.9383-.281 1.9384-1.686 1.9383-.281 1.9384-.562 1.9383-.28 1.9383-.562 1.9384-.281 1.9383-.281h1.9384l1.9383-.562 1.9383-.281 1.9384-.281 1.9383-.562 1.9384-.562 1.9383-.28 1.9383-.281 1.9384-.281 1.9383-.281 1.9384-.562 1.9383-.281 1.9383-.562 1.9384-.281 1.9383-.281 1.9384-.562 1.9383-.28 1.9383-.281 1.9384-.281 1.9383-.562 1.9384-.562 1.9383-.281 1.9388-.281 1.938-.281 1.938-.562 1.939-2.247.969-1.124 1.938-.562 1.938-1.123 1.939-.281 1.938-.562 1.938-.562 1.939-.843 1.938-.561 1.938-.281 1.939-.562 1.938-.562 1.938-.281 1.939-.562 1.938-.562 1.939-.281 1.938-.562 1.938-.28 1.939-.281 1.938-.562 1.938-.562 1.939-.562 1.938-.843 2.907-.281 1.939-.561 1.938-.281 1.938-.281 1.939-1.405 1.938-1.124 1.938-2.528 1.939-.281 1.938-.562 1.938-.562 1.939-.561 1.938-.281 1.938-.281 1.939-.281 1.938-.394 1.939-.394 1.938-.788 1.938-.393 1.939-.394 1.938-.788 1.938-.394 1.939-.394 1.938-.393 1.938-.788 1.939-.394 1.938-.394 1.938-.788 1.939-.393 1.938-.394h1.938l1.939-.394 1.938-.394 1.938-.394h1.939l1.938-.787 1.938-.394 1.939-.394h1.938l1.938-.788 1.939-.394 1.938-.787 1.938-.788 1.939-.394 1.938-.394 1.938-.787 1.939-.394 1.938-.394 1.938-.394 1.939-.394 1.938-.788 1.938-.393 1.939-.394 1.938-.394 1.938-.788 1.939-1.575 1.938-1.575 1.938-1.97 1.939-1.181 1.938-1.182 1.939-.787 1.938-1.576 1.938-.788 1.939-.3934 1.938-1.1815 1.938-1.5754 1.939-1.1815 1.938-1.1816 1.938-.7877 2.423-1.5753 2.423-.7877 1.938-1.1816" stroke="#e1ab54" stroke-width="1.67488"/><path d="m30.1479 190.099v-20.547l75.1421-15.582 3.957-4.635 50.625-12.281 3.981-4.138 90.727-21.236 12.563-9.931 10.468-5.0249 11.305-6.6995v100.0744z" fill="#e1ab54" fill-opacity=".05"/><path d="m25.123 171.675h267.98v21.7734h-267.98z" fill="url(#b)"/><circle cx="288.916" cy="90.8621" fill="#e1ab54" r="2.51232"/></g></svg>