<svg width="315" height="330" viewBox="0 0 315 330" fill="none" xmlns="http://www.w3.org/2000/svg">
<rect width="314.039" height="680" rx="31.8227" fill="#2D2828"/>
<mask id="mask0" mask-type="alpha" maskUnits="userSpaceOnUse" x="10" y="10" width="294" height="658">
<rect x="10.8867" y="10.8867" width="292.266" height="656.552" rx="23.4483" fill="#FBF8F5"/>
</mask>
<g mask="url(#mask0)">
<rect x="10.8867" y="10.8867" width="292.266" height="656.552" rx="23.4483" fill="#FBF8F5"/>
<rect x="5.8623" y="256.256" width="303.99" height="419.557" fill="white"/>
<path d="M92.9556 9.21182H221.921V20.3344C221.921 27.7345 215.922 33.7334 208.522 33.7334H106.355C98.9545 33.7334 92.9556 27.7345 92.9556 20.3344V9.21182Z" fill="#2D2828"/>
<path d="M35.3936 68.9458C37.246 68.9458 38.3364 68.1368 38.3364 66.601C38.3364 65.6162 37.6916 64.8541 36.6598 64.5962C37.375 64.3851 37.9612 63.5879 37.9612 62.8141C37.9612 61.3486 36.8826 60.5748 35.0185 60.5748H32.0757V68.9458H35.3936ZM33.0722 64.2679V61.3955H35.0888C36.3316 61.3955 36.9412 61.8996 36.9412 62.8258C36.9412 63.7403 36.3198 64.2679 35.0771 64.2679H33.0722ZM33.0722 65.0534H35.3233C36.6012 65.0534 37.3281 65.6396 37.3281 66.601C37.3281 67.5624 36.6247 68.1251 35.3467 68.1251H33.0722V65.0534ZM45.1564 66.0031C45.1564 64.1037 43.984 62.9079 42.3544 62.9079C40.7247 62.9079 39.5523 64.1037 39.5523 66.0031C39.5523 67.9024 40.7247 69.0865 42.3544 69.0865C43.984 69.0865 45.1564 67.9024 45.1564 66.0031ZM40.5137 66.0031C40.5137 64.5844 41.2054 63.6934 42.3544 63.6934C43.5033 63.6934 44.1951 64.5844 44.1951 66.0031C44.1951 67.4217 43.5033 68.301 42.3544 68.301C41.2054 68.301 40.5137 67.4217 40.5137 66.0031ZM51.9917 66.0031C51.9917 64.1037 50.8193 62.9079 49.1896 62.9079C47.56 62.9079 46.3876 64.1037 46.3876 66.0031C46.3876 67.9024 47.56 69.0865 49.1896 69.0865C50.8193 69.0865 51.9917 67.9024 51.9917 66.0031ZM47.349 66.0031C47.349 64.5844 48.0407 63.6934 49.1896 63.6934C50.3386 63.6934 51.0303 64.5844 51.0303 66.0031C51.0303 67.4217 50.3386 68.301 49.1896 68.301C48.0407 68.301 47.349 67.4217 47.349 66.0031ZM53.141 67.1989C53.2466 68.4651 54.3017 69.0865 55.7086 69.0865C57.0335 69.0865 58.0066 68.3244 58.0066 67.2927C58.0066 66.3431 57.4438 65.8741 56.4824 65.6865L55.31 65.4637C54.63 65.3348 54.2783 65.1237 54.2783 64.6196C54.2783 64.0451 54.7824 63.6582 55.5679 63.6582C56.3769 63.6582 56.9045 64.01 56.9748 64.6079H57.8776C57.7604 63.4941 56.9279 62.9079 55.5679 62.9079C54.2666 62.9079 53.3755 63.6817 53.3755 64.6782C53.3755 65.71 54.0672 66.0968 55.0169 66.2727L56.0604 66.4837C56.8107 66.6244 57.0921 66.9058 57.0921 67.3396C57.0921 67.9727 56.5059 68.3479 55.6969 68.3479C54.8997 68.3479 54.1493 68.0079 54.079 67.1989H53.141ZM62.4339 68.0782C62.0587 68.1955 61.8008 68.2189 61.578 68.2189C61.0387 68.2189 60.7222 68.0079 60.7222 67.3865V63.7872H62.2815V63.0486H60.7339V61.5479H59.7725V63.0486H58.9049V63.7872H59.7725V67.4334C59.7725 68.5237 60.3235 69.0396 61.4022 69.0396C61.6601 69.0396 62.0001 69.0044 62.4339 68.8755V68.0782ZM68.7917 67.2106H67.8772C67.631 67.9258 67.1503 68.3127 66.353 68.3127C65.2275 68.3127 64.5124 67.5624 64.4655 66.2024H68.8268V65.8155C68.8268 64.3031 68.0413 62.9079 66.2944 62.9079C64.7234 62.9079 63.5158 64.1037 63.5158 66.0265C63.5158 67.9258 64.6882 69.0865 66.353 69.0865C67.502 69.0865 68.522 68.4651 68.7917 67.2106ZM66.2944 63.6934C67.3496 63.6934 67.8537 64.4789 67.8772 65.4989H64.5006C64.6648 64.2913 65.3682 63.6934 66.2944 63.6934ZM74.6727 68.9458H75.6106V60.3168H74.6375V64.092C74.3679 63.4941 73.6996 62.9079 72.6796 62.9079C71.1789 62.9079 70.0534 64.1272 70.0534 66.0031C70.0534 67.8672 71.1789 69.0865 72.6796 69.0865C73.6527 69.0865 74.3796 68.512 74.6727 67.9141V68.9458ZM74.6844 66.0734C74.6844 67.41 74.0279 68.3244 72.8789 68.3244C71.7182 68.3244 71.0382 67.3748 71.0382 66.0031C71.0382 64.6196 71.7182 63.67 72.8789 63.67C74.0279 63.67 74.6844 64.5727 74.6844 65.9093V66.0734ZM79.7496 66.472C79.8669 68.301 81.391 69.0865 83.2082 69.0865C84.9786 69.0865 86.2448 68.0782 86.2448 66.6479C86.2448 65.3231 85.4241 64.7251 84.1344 64.4672L82.4931 64.1272C81.4731 63.9279 81.0041 63.6348 81.0041 62.8024C81.0041 61.9231 81.731 61.2431 82.9503 61.2431C84.1462 61.2431 84.9669 61.7824 85.1075 62.7203H86.0806C85.9165 61.2079 84.7324 60.4341 82.9386 60.4341C81.2034 60.4341 80.0193 61.4658 80.0193 62.8375C80.0193 64.2796 81.0275 64.7955 82.1531 65.0065L83.7475 65.3231C84.8848 65.5341 85.2717 65.9913 85.2717 66.6948C85.2717 67.7031 84.3924 68.2775 83.1965 68.2775C81.9538 68.2775 80.8517 67.8203 80.7227 66.472H79.7496ZM91.5699 68.9458H92.543C92.4258 68.5589 92.4023 68.1486 92.4023 67.7148V65.0065C92.4023 63.5879 91.5113 62.9079 90.081 62.9079C88.8265 62.9079 87.8885 63.5879 87.7713 64.7837H88.7092C88.7796 64.1037 89.272 63.6934 90.0575 63.6934C90.8665 63.6934 91.441 64.092 91.441 65.03V65.37L89.5416 65.6162C88.3458 65.7568 87.5016 66.2493 87.5016 67.3865C87.5016 68.4768 88.381 69.0748 89.4127 69.0748C90.3975 69.0748 91.2065 68.641 91.4644 67.9493C91.4644 68.2306 91.4996 68.6175 91.5699 68.9458ZM89.612 68.3362C88.8734 68.3362 88.4865 67.9141 88.4865 67.3631C88.4865 66.5658 89.0961 66.3782 89.8347 66.2727L91.441 66.0968V66.6244C91.441 67.7617 90.5265 68.3362 89.612 68.3362ZM95.9318 68.9458H97.0221L99.2849 63.0486H98.3118L96.4945 67.9844H96.4711L94.5718 63.0486H93.5752L95.9318 68.9458ZM100.597 61.8175H101.699V60.6334H100.597V61.8175ZM100.668 68.9458H101.641V63.0486H100.668V68.9458ZM104.663 63.0486H103.725V68.9458H104.698V65.6982C104.698 64.2796 105.413 63.7051 106.316 63.7051C107.242 63.7051 107.723 64.2679 107.723 65.3582V68.9458H108.696V65.1472C108.696 63.7403 107.91 62.9079 106.585 62.9079C105.683 62.9079 104.944 63.4003 104.663 64.1272V63.0486ZM114.847 68.5706C114.847 69.8017 114.191 70.4231 113.03 70.4231C112.233 70.4231 111.611 70.1886 111.412 69.45H110.427C110.662 70.5989 111.623 71.1734 113.042 71.1734C114.613 71.1734 115.832 70.3762 115.832 68.5003V63.0486H114.882V64.0803C114.601 63.5175 113.921 62.9079 112.889 62.9079C111.377 62.9079 110.275 64.092 110.275 65.8624C110.275 67.7031 111.377 68.8403 112.889 68.8403C113.921 68.8403 114.577 68.2775 114.847 67.7031V68.5706ZM114.917 66.0031C114.917 67.2224 114.155 68.0665 113.065 68.0665C111.916 68.0665 111.236 67.1637 111.236 65.8624C111.236 64.5493 111.916 63.67 113.065 63.67C114.155 63.67 114.917 64.5024 114.917 65.7217V66.0031ZM117.418 67.1989C117.523 68.4651 118.578 69.0865 119.985 69.0865C121.31 69.0865 122.283 68.3244 122.283 67.2927C122.283 66.3431 121.72 65.8741 120.759 65.6865L119.587 65.4637C118.907 65.3348 118.555 65.1237 118.555 64.6196C118.555 64.0451 119.059 63.6582 119.845 63.6582C120.654 63.6582 121.181 64.01 121.251 64.6079H122.154C122.037 63.4941 121.205 62.9079 119.845 62.9079C118.543 62.9079 117.652 63.6817 117.652 64.6782C117.652 65.71 118.344 66.0968 119.294 66.2727L120.337 66.4837C121.087 66.6244 121.369 66.9058 121.369 67.3396C121.369 67.9727 120.783 68.3479 119.974 68.3479C119.176 68.3479 118.426 68.0079 118.356 67.1989H117.418Z" fill="#625451"/>
<path d="M33.3185 198.752H32.0757V207.123H33.0605V199.983H33.084L37.844 207.123H38.7819V198.752H37.8088V205.435H37.7854L33.3185 198.752ZM45.767 205.388H44.8525C44.6063 206.103 44.1256 206.49 43.3284 206.49C42.2029 206.49 41.4877 205.74 41.4408 204.38H45.8022V203.993C45.8022 202.48 45.0167 201.085 43.2698 201.085C41.6987 201.085 40.4912 202.281 40.4912 204.204C40.4912 206.103 41.6636 207.264 43.3284 207.264C44.4774 207.264 45.4974 206.642 45.767 205.388ZM43.2698 201.871C44.3249 201.871 44.8291 202.656 44.8525 203.676H41.476C41.6401 202.469 42.3436 201.871 43.2698 201.871ZM47.6333 207.123L49.345 204.755L51.0919 207.123H52.2291L49.9546 204.04L52.0415 201.226H50.9864L49.4271 203.395L47.856 201.226H46.7071L48.8291 204.087L46.5898 207.123H47.6333ZM56.4459 206.256C56.0707 206.373 55.8128 206.396 55.59 206.396C55.0507 206.396 54.7341 206.185 54.7341 205.564V201.965H56.2935V201.226H54.7459V199.725H53.7845V201.226H52.9169V201.965H53.7845V205.611C53.7845 206.701 54.3355 207.217 55.4141 207.217C55.6721 207.217 56.0121 207.182 56.4459 207.053V206.256ZM61.6155 207.123V203.735H63.8431L66.012 207.123H67.1493L64.8513 203.582C65.8362 203.36 66.7858 202.598 66.7858 201.238C66.7858 199.631 65.7189 198.752 63.8431 198.752H60.6189V207.123H61.6155ZM61.6155 202.891V199.596H63.7844C65.0507 199.596 65.7658 200.182 65.7658 201.238C65.7658 202.328 65.0507 202.891 63.7844 202.891H61.6155ZM73.4973 205.388H72.5829C72.3367 206.103 71.856 206.49 71.0587 206.49C69.9332 206.49 69.218 205.74 69.1711 204.38H73.5325V203.993C73.5325 202.48 72.747 201.085 71.0001 201.085C69.4291 201.085 68.2215 202.281 68.2215 204.204C68.2215 206.103 69.3939 207.264 71.0587 207.264C72.2077 207.264 73.2277 206.642 73.4973 205.388ZM71.0001 201.871C72.0553 201.871 72.5594 202.656 72.5829 203.676H69.2063C69.3705 202.469 70.0739 201.871 71.0001 201.871ZM79.0638 201.226H78.0789L76.7658 206.068H76.7306L75.3589 201.226H74.3975L76.1796 207.123H77.1996L78.5362 202.351H78.5713L79.9313 207.123H80.9396L82.7217 201.226H81.7838L80.4238 206.068H80.4003L79.0638 201.226ZM87.6199 207.123H88.593C88.4758 206.736 88.4523 206.326 88.4523 205.892V203.184C88.4523 201.765 87.5613 201.085 86.1309 201.085C84.8764 201.085 83.9385 201.765 83.8213 202.961H84.7592C84.8296 202.281 85.322 201.871 86.1075 201.871C86.9164 201.871 87.4909 202.269 87.4909 203.207V203.547L85.5916 203.793C84.3958 203.934 83.5516 204.427 83.5516 205.564C83.5516 206.654 84.4309 207.252 85.4627 207.252C86.4475 207.252 87.2564 206.818 87.5144 206.127C87.5144 206.408 87.5496 206.795 87.6199 207.123ZM85.662 206.513C84.9233 206.513 84.5364 206.091 84.5364 205.54C84.5364 204.743 85.1461 204.556 85.8847 204.45L87.4909 204.274V204.802C87.4909 205.939 86.5764 206.513 85.662 206.513ZM93.7488 201.144C93.6081 201.109 93.444 201.097 93.2915 201.097C92.424 201.097 91.6736 201.648 91.4157 202.621V201.226H90.4777V207.123H91.4509V204.216C91.4509 202.727 92.3067 201.988 93.2446 201.988C93.3971 201.988 93.6081 202 93.7488 202.035V201.144ZM99.0598 207.123H99.9977V198.494H99.0246V202.269C98.755 201.671 98.0867 201.085 97.0667 201.085C95.566 201.085 94.4405 202.305 94.4405 204.18C94.4405 206.045 95.566 207.264 97.0667 207.264C98.0398 207.264 98.7667 206.689 99.0598 206.091V207.123ZM99.0715 204.251C99.0715 205.587 98.415 206.502 97.266 206.502C96.1053 206.502 95.4253 205.552 95.4253 204.18C95.4253 202.797 96.1053 201.847 97.266 201.847C98.415 201.847 99.0715 202.75 99.0715 204.087V204.251Z" fill="#625451"/>
<path d="M28.873 94.9821C28.873 99.9765 32.1792 102.896 36.7516 103.283V106.554H38.4751V103.318C42.731 103.142 45.8261 100.856 45.8261 97.0924C45.8261 93.5752 43.7861 92.0276 39.9523 91.2538L38.4751 90.9724V82.2145C41.4999 82.7772 43.2937 84.9931 43.3641 88.4752L45.3689 88.2993C45.3689 83.8324 42.8013 81.0186 38.4751 80.4559V77.1848H36.7516V80.3503C32.2496 80.4207 29.5413 82.8828 29.5413 86.5055C29.5413 89.8469 31.722 91.6759 34.8172 92.309L36.7516 92.6959V101.559C33.3751 101.137 30.9834 98.7807 30.8427 94.8062L28.873 94.9821ZM39.2489 93.1883C42.3792 93.8214 43.6806 95.0172 43.6806 97.2683C43.6806 99.871 41.5703 101.454 38.4751 101.63V93.0476L39.2489 93.1883ZM31.6165 86.4352C31.6165 83.7269 33.4103 82.1441 36.7516 82.0738V90.6207L36.1185 90.48C33.2344 89.9172 31.6165 88.9324 31.6165 86.4352ZM50.9827 102.931H64.4889V101.067H58.9317V80.5965H57.7007C57.1027 83.2697 56.0476 83.8676 52.2489 83.8676H51.4048V85.4503H56.7158V101.067H50.9827V102.931ZM83.0111 96.9517C83.0111 99.9414 80.7952 101.559 77.489 101.559C73.7607 101.559 71.4042 99.5193 71.2986 95.6152L69.118 95.4745C69.118 100.399 72.3186 103.353 77.4538 103.353C82.2724 103.353 85.2269 100.68 85.2269 97.1276C85.2269 94.1731 83.0814 92.0979 80.4435 91.7462C82.6242 91.3945 84.8049 89.3897 84.8049 86.5055C84.8049 82.8476 82.1669 80.3503 77.3835 80.3503C72.5649 80.3503 69.54 83.5862 69.54 88.1586L71.7207 88.2641C71.7207 84.3248 73.9366 82.1441 77.3835 82.1441C80.8304 82.1441 82.589 84.0083 82.589 86.6462C82.589 89.8821 80.1973 90.8669 77.5945 90.8669C76.469 90.8669 75.8711 90.8317 75.3435 90.7614V92.7662C75.8711 92.6959 76.5745 92.6255 77.5945 92.6255C80.6897 92.6255 83.0111 94.1731 83.0111 96.9517ZM90.7704 102.931H92.1421C92.1421 104.514 92.0015 104.971 90.7704 105.077V106.519C93.3028 106.519 93.5842 105.147 93.5842 102.966V100.117H90.7704V102.931ZM106.134 101.594C102.793 101.594 101.175 99.5545 100.717 96.6352L98.5718 96.7407C98.9236 100.821 101.843 103.353 106.134 103.353C112.289 103.353 115.138 98.3234 115.138 91.3241C115.138 84.6414 112.078 80.3503 106.275 80.3503C101.315 80.3503 98.3256 83.551 98.3256 88.0531C98.3256 92.4848 101.35 95.6503 106.134 95.6503C110.108 95.6503 112.465 93.329 113.168 90.4097C113.309 96.9165 111.199 101.594 106.134 101.594ZM112.324 87.9828C112.324 91.5 110.179 93.751 106.415 93.751C102.652 93.751 100.506 91.5 100.506 87.9828C100.506 84.5007 102.652 82.1793 106.275 82.1793C110.003 82.1793 112.324 84.5007 112.324 87.9828ZM131.972 80.7724H129.228L117.727 94.5248V96.6703H129.791V102.931H131.972V96.6703H136.368V94.8765H131.972V80.7724ZM129.791 82.8124V94.8765H119.802L129.791 82.8124ZM142.615 100.961L147.188 97.1276C150.283 94.5248 154.117 91.0779 154.117 87.0331C154.117 83.3752 151.936 80.3503 146.836 80.3503C142.228 80.3503 139.309 83.1993 139.309 87.7014C139.309 88.3697 139.38 89.0731 139.52 89.7765L141.771 89.9172C141.595 89.1786 141.525 88.4752 141.525 87.8421C141.525 84.2193 143.495 82.1441 146.836 82.1441C150.107 82.1441 151.795 84.1841 151.795 87.1386C151.795 90.6559 148.806 93.2234 145.288 96.3186L138.993 101.876V102.931H155.031V100.961H142.615Z" fill="#E1AB54"/>
<g filter="url(#filter0_d)">
<rect x="22.6108" y="218.571" width="270.493" height="83.7438" rx="6.69951" fill="#FAF7F5"/>
<rect x="22.8202" y="218.781" width="270.074" height="83.3251" rx="6.49015" stroke="#D5D0CC" stroke-width="0.418719"/>
</g>
<path d="M129.832 286.68V283.457L132.804 278.907H131.769L129.418 282.619H129.396L126.968 278.907H125.934L128.895 283.457V286.68H129.832ZM137.962 283.947C137.962 282.184 136.873 281.073 135.36 281.073C133.847 281.073 132.758 282.184 132.758 283.947C132.758 285.711 133.847 286.81 135.36 286.81C136.873 286.81 137.962 285.711 137.962 283.947ZM133.651 283.947C133.651 282.63 134.293 281.803 135.36 281.803C136.427 281.803 137.069 282.63 137.069 283.947C137.069 285.265 136.427 286.081 135.36 286.081C134.293 286.081 133.651 285.265 133.651 283.947ZM144.004 286.68V281.204H143.09V284.219C143.09 285.537 142.469 286.103 141.642 286.103C140.782 286.103 140.357 285.569 140.357 284.557V281.204H139.443V284.731C139.443 286.059 140.139 286.81 141.381 286.81C142.208 286.81 142.861 286.375 143.122 285.689V286.68H144.004ZM146.06 279.734H146.615V279.886C146.615 280.594 146.277 280.855 145.722 280.855V281.4C146.702 281.4 147.246 280.779 147.246 279.876V278.667H146.06V279.734ZM151.88 281.128C151.749 281.095 151.597 281.084 151.455 281.084C150.649 281.084 149.953 281.596 149.713 282.499V281.204H148.842V286.68H149.746V283.98C149.746 282.597 150.541 281.911 151.412 281.911C151.553 281.911 151.749 281.922 151.88 281.955V281.128ZM157.421 285.069H156.572C156.343 285.733 155.897 286.092 155.157 286.092C154.111 286.092 153.447 285.395 153.404 284.132H157.454V283.773C157.454 282.369 156.724 281.073 155.102 281.073C153.643 281.073 152.522 282.184 152.522 283.969C152.522 285.733 153.611 286.81 155.157 286.81C156.223 286.81 157.171 286.233 157.421 285.069ZM155.102 281.803C156.082 281.803 156.55 282.532 156.572 283.479H153.436C153.589 282.358 154.242 281.803 155.102 281.803ZM164.698 286.68H165.602C165.493 286.321 165.471 285.939 165.471 285.537V283.022C165.471 281.705 164.644 281.073 163.315 281.073C162.151 281.073 161.28 281.705 161.171 282.815H162.042C162.107 282.184 162.564 281.803 163.294 281.803C164.045 281.803 164.578 282.173 164.578 283.044V283.359L162.815 283.588C161.704 283.719 160.92 284.176 160.92 285.232C160.92 286.244 161.737 286.8 162.695 286.8C163.609 286.8 164.361 286.397 164.6 285.754C164.6 286.016 164.633 286.375 164.698 286.68ZM162.88 286.114C162.194 286.114 161.835 285.722 161.835 285.21C161.835 284.47 162.401 284.296 163.087 284.198L164.578 284.034V284.524C164.578 285.58 163.729 286.114 162.88 286.114ZM168.255 286.68V278.667H167.352V286.68H168.255ZM174.458 282.249C174.218 281.519 173.718 281.073 172.792 281.073C171.998 281.073 171.323 281.509 171.061 282.205V281.204H170.19V286.68H171.094V283.664C171.094 282.401 171.715 281.813 172.542 281.813C173.369 281.813 173.729 282.325 173.729 283.348V286.68H174.643V283.664C174.643 282.401 175.264 281.813 176.08 281.813C176.897 281.813 177.267 282.325 177.267 283.348V286.68H178.181V283.153C178.181 281.868 177.561 281.073 176.298 281.073C175.492 281.073 174.795 281.509 174.458 282.249ZM184.858 283.947C184.858 282.184 183.769 281.073 182.256 281.073C180.742 281.073 179.654 282.184 179.654 283.947C179.654 285.711 180.742 286.81 182.256 286.81C183.769 286.81 184.858 285.711 184.858 283.947ZM180.546 283.947C180.546 282.63 181.189 281.803 182.256 281.803C183.322 281.803 183.965 282.63 183.965 283.947C183.965 285.265 183.322 286.081 182.256 286.081C181.189 286.081 180.546 285.265 180.546 283.947ZM185.925 285.058C186.023 286.233 187.003 286.81 188.309 286.81C189.539 286.81 190.443 286.103 190.443 285.145C190.443 284.263 189.92 283.827 189.027 283.653L187.939 283.446C187.307 283.327 186.981 283.131 186.981 282.663C186.981 282.129 187.449 281.77 188.178 281.77C188.929 281.77 189.419 282.096 189.485 282.652H190.323C190.214 281.617 189.441 281.073 188.178 281.073C186.97 281.073 186.142 281.792 186.142 282.717C186.142 283.675 186.785 284.034 187.667 284.198L188.636 284.394C189.332 284.524 189.594 284.786 189.594 285.188C189.594 285.776 189.049 286.125 188.298 286.125C187.558 286.125 186.861 285.809 186.796 285.058H185.925ZM194.554 285.874C194.205 285.983 193.966 286.005 193.759 286.005C193.258 286.005 192.964 285.809 192.964 285.232V281.89H194.412V281.204H192.975V279.81H192.083V281.204H191.277V281.89H192.083V285.275C192.083 286.288 192.594 286.767 193.596 286.767C193.835 286.767 194.151 286.734 194.554 286.614V285.874ZM200.933 285.874C200.584 285.983 200.345 286.005 200.138 286.005C199.637 286.005 199.343 285.809 199.343 285.232V281.89H200.791V281.204H199.354V279.81H198.461V281.204H197.656V281.89H198.461V285.275C198.461 286.288 198.973 286.767 199.975 286.767C200.214 286.767 200.53 286.734 200.933 286.614V285.874ZM203.308 282.205V278.667H202.404V286.68H203.308V283.664C203.308 282.347 203.972 281.813 204.81 281.813C205.67 281.813 206.116 282.336 206.116 283.348V286.68H207.02V283.153C207.02 281.846 206.291 281.073 205.06 281.073C204.222 281.073 203.569 281.509 203.308 282.205ZM213.396 285.069H212.547C212.318 285.733 211.872 286.092 211.132 286.092C210.086 286.092 209.422 285.395 209.379 284.132H213.429V283.773C213.429 282.369 212.699 281.073 211.077 281.073C209.618 281.073 208.497 282.184 208.497 283.969C208.497 285.733 209.586 286.81 211.132 286.81C212.199 286.81 213.146 286.233 213.396 285.069ZM211.077 281.803C212.057 281.803 212.525 282.532 212.547 283.479H209.412C209.564 282.358 210.217 281.803 211.077 281.803ZM217.997 281.128C217.867 281.095 217.714 281.084 217.573 281.084C216.767 281.084 216.07 281.596 215.831 282.499V281.204H214.96V286.68H215.863V283.98C215.863 282.597 216.658 281.911 217.529 281.911C217.671 281.911 217.867 281.922 217.997 281.955V281.128ZM223.539 285.069H222.689C222.461 285.733 222.014 286.092 221.274 286.092C220.229 286.092 219.565 285.395 219.521 284.132H223.571V283.773C223.571 282.369 222.842 281.073 221.22 281.073C219.761 281.073 218.64 282.184 218.64 283.969C218.64 285.733 219.728 286.81 221.274 286.81C222.341 286.81 223.288 286.233 223.539 285.069ZM221.22 281.803C222.199 281.803 222.668 282.532 222.689 283.479H219.554C219.706 282.358 220.36 281.803 221.22 281.803ZM225.277 278.907L225.451 284.317H226.18L226.343 278.907H225.277ZM225.211 286.68H226.398V285.504H225.211V286.68Z" fill="#625451"/>
<path d="M97.834 290.591C97.834 290.591 97.722 286.264 97.5027 283.791M97.5027 283.791C97.3623 282.051 97.2835 281.076 97.1431 279.336L102.44 278.867L102.168 280.542L106.125 280.039L104.743 282.384L106.355 284.495L100.493 285.148L100.953 283.506C100.953 283.506 99.161 283.608 97.5027 283.791Z" stroke="#625451" stroke-width="1.25616"/>
<path d="M93.3746 288.079L91.6997 288.916" stroke="#625451" stroke-width="1.25616" stroke-linecap="round" stroke-linejoin="round"/>
<path d="M92.9557 279.704L90.4434 278.867" stroke="#625451" stroke-width="1.25616" stroke-linecap="round" stroke-linejoin="round"/>
<path d="M92.1183 283.892L88.7686 284.31" stroke="#625451" stroke-width="1.25616" stroke-linecap="round" stroke-linejoin="round"/>
<path d="M109.705 288.079L111.379 288.916" stroke="#625451" stroke-width="1.25616" stroke-linecap="round" stroke-linejoin="round"/>
<path d="M110.123 279.286L113.054 277.611" stroke="#625451" stroke-width="1.25616" stroke-linecap="round" stroke-linejoin="round"/>
<path d="M110.123 283.473L114.311 283.892" stroke="#625451" stroke-width="1.25616" stroke-linecap="round" stroke-linejoin="round"/>
<path d="M95.468 275.936L95.0493 275.099" stroke="#625451" stroke-width="1.25616" stroke-linecap="round" stroke-linejoin="round"/>
<path d="M105.936 275.517L107.192 274.261" stroke="#625451" stroke-width="1.25616" stroke-linecap="round" stroke-linejoin="round"/>
<path d="M100.074 274.68V273.842" stroke="#625451" stroke-width="1.25616" stroke-linecap="round" stroke-linejoin="round"/>
<path d="M60.2706 243.133V241.814H55.4093V239.302H59.6677V237.983H55.4093V235.483H60.2204V234.164H53.7763V243.133H60.2706ZM65.9498 243.133H67.4949C67.3944 242.618 67.3693 242.128 67.3693 241.538V239.076C67.3693 237.417 66.3769 236.601 64.6434 236.601C63.0732 236.601 62.0055 237.405 61.8673 238.774H63.4124C63.4626 238.184 63.8897 237.794 64.5932 237.794C65.3217 237.794 65.7991 238.171 65.7991 238.95V239.251L63.8897 239.465C62.5959 239.616 61.591 240.143 61.591 241.425C61.591 242.58 62.4954 243.271 63.739 243.271C64.7565 243.271 65.5604 242.857 65.8619 242.128C65.8619 242.442 65.887 242.781 65.9498 243.133ZM64.1786 242.153C63.538 242.153 63.1863 241.839 63.1863 241.337C63.1863 240.671 63.7013 240.52 64.3796 240.432L65.7991 240.269V240.658C65.7991 241.663 65.0077 242.153 64.1786 242.153ZM73.2885 236.689C73.1503 236.651 72.9745 236.639 72.8112 236.639C71.8942 236.639 71.1531 237.191 70.8516 238.184V236.752H69.2688V243.133H70.8767V240.181C70.8767 238.799 71.6932 238.121 72.673 238.121C72.874 238.121 73.1001 238.133 73.2885 238.171V236.689ZM76.1019 236.752H74.5192V243.133H76.127V239.666C76.127 238.385 76.7551 237.87 77.5591 237.87C78.4007 237.87 78.8403 238.397 78.8403 239.415V243.133H80.4482V239.038C80.4482 237.505 79.5689 236.601 78.1118 236.601C77.1445 236.601 76.4034 237.103 76.1019 237.832V236.752ZM91.8168 240.57C91.8168 239.138 90.9501 238.41 89.5055 238.133L88.7016 237.983V235.307C89.5432 235.445 90.0582 235.872 90.1462 236.614H91.6535C91.4902 235.131 90.4476 234.227 88.7016 234.051V232.845H87.7846V234.038C86.0134 234.139 84.7572 235.194 84.7572 236.701C84.7572 238.272 85.825 238.887 87.1314 239.126L87.7846 239.239V242.015C86.8676 241.889 86.1013 241.412 86.0134 240.432H84.4809C84.6191 242.141 85.9757 243.07 87.7846 243.233V244.502H88.7016V243.246C90.4979 243.133 91.8168 242.103 91.8168 240.57ZM87.6715 237.782C86.6917 237.593 86.2646 237.342 86.2646 236.601C86.2646 235.885 86.8173 235.37 87.7846 235.282V237.807L87.6715 237.782ZM88.8523 239.44C89.9577 239.641 90.3095 240.03 90.3095 240.683C90.3095 241.462 89.7065 241.94 88.7016 242.04V239.415L88.8523 239.44ZM96.3632 238.347C97.5314 238.347 98.0841 239.201 98.0841 240.194C98.0841 241.173 97.5188 242.028 96.3632 242.028C95.308 242.028 94.6422 241.349 94.5669 240.407H92.9087C93.0469 242.141 94.3407 243.284 96.3632 243.284C98.4358 243.284 99.6794 241.915 99.6794 240.181C99.6794 238.422 98.4861 237.091 96.627 237.091C95.7853 237.091 95.0819 237.443 94.7427 237.819L94.9814 235.483H99.1644V234.164H93.788L93.273 239.176H94.7678C95.0442 238.736 95.5718 238.347 96.3632 238.347ZM100.811 238.649C100.811 241.337 102.293 243.284 104.629 243.284C106.966 243.284 108.435 241.337 108.435 238.649C108.435 235.96 106.966 234.013 104.629 234.013C102.293 234.013 100.811 235.96 100.811 238.649ZM102.494 238.649C102.494 236.614 103.197 235.32 104.629 235.32C106.049 235.32 106.752 236.614 106.752 238.649C106.752 240.683 106.049 241.977 104.629 241.977C103.197 241.977 102.494 240.683 102.494 238.649ZM109.594 238.649C109.594 241.337 111.076 243.284 113.413 243.284C115.749 243.284 117.219 241.337 117.219 238.649C117.219 235.96 115.749 234.013 113.413 234.013C111.076 234.013 109.594 235.96 109.594 238.649ZM111.277 238.649C111.277 236.614 111.981 235.32 113.413 235.32C114.832 235.32 115.535 236.614 115.535 238.649C115.535 240.683 114.832 241.977 113.413 241.977C111.981 241.977 111.277 240.683 111.277 238.649Z" fill="#2D2828"/>
<path d="M125.788 236.815H124.733L123.326 242.002H123.288L121.819 236.815H120.788L122.698 243.133H123.791L125.223 238.02H125.26L126.718 243.133H127.798L129.707 236.815H128.702L127.245 242.002H127.22L125.788 236.815ZM132.203 237.97V233.888H131.16V243.133H132.203V239.653C132.203 238.133 132.969 237.518 133.936 237.518C134.928 237.518 135.443 238.121 135.443 239.289V243.133H136.486V239.063C136.486 237.556 135.644 236.664 134.225 236.664C133.258 236.664 132.504 237.166 132.203 237.97ZM143.843 241.274H142.863C142.599 242.04 142.084 242.455 141.23 242.455C140.024 242.455 139.258 241.651 139.208 240.194H143.881V239.779C143.881 238.159 143.039 236.664 141.167 236.664C139.484 236.664 138.19 237.945 138.19 240.005C138.19 242.04 139.447 243.284 141.23 243.284C142.461 243.284 143.554 242.618 143.843 241.274ZM141.167 237.505C142.298 237.505 142.838 238.347 142.863 239.44H139.246C139.421 238.146 140.175 237.505 141.167 237.505ZM146.652 236.815H145.647V243.133H146.69V239.653C146.69 238.133 147.456 237.518 148.424 237.518C149.416 237.518 149.931 238.121 149.931 239.289V243.133H150.974V239.063C150.974 237.556 150.132 236.664 148.712 236.664C147.745 236.664 146.954 237.191 146.652 237.97V236.815ZM157.637 243.183C157.223 244.251 156.934 244.603 156.306 244.603C156.142 244.603 156.004 244.603 155.803 244.552V245.407C156.004 245.444 156.243 245.469 156.419 245.469C157.574 245.457 158.077 244.829 158.655 243.321L161.205 236.815H160.124L158.228 241.977H158.202L156.193 236.815H155.1L157.637 243.183ZM168.005 239.98C168.005 237.945 166.749 236.664 165.003 236.664C163.257 236.664 162.001 237.945 162.001 239.98C162.001 242.015 163.257 243.284 165.003 243.284C166.749 243.284 168.005 242.015 168.005 239.98ZM163.031 239.98C163.031 238.46 163.772 237.505 165.003 237.505C166.234 237.505 166.975 238.46 166.975 239.98C166.975 241.5 166.234 242.442 165.003 242.442C163.772 242.442 163.031 241.5 163.031 239.98ZM174.977 243.133V236.815H173.922V240.294C173.922 241.814 173.206 242.467 172.252 242.467C171.259 242.467 170.769 241.852 170.769 240.683V236.815H169.714V240.884C169.714 242.417 170.518 243.284 171.95 243.284C172.905 243.284 173.658 242.781 173.96 241.99V243.133H174.977ZM183.439 236.727C183.288 236.689 183.112 236.676 182.949 236.676C182.019 236.676 181.215 237.267 180.939 238.309V236.815H179.934V243.133H180.977V240.018C180.977 238.422 181.894 237.631 182.899 237.631C183.062 237.631 183.288 237.644 183.439 237.681V236.727ZM189.833 241.274H188.853C188.589 242.04 188.074 242.455 187.22 242.455C186.014 242.455 185.248 241.651 185.197 240.194H189.87V239.779C189.87 238.159 189.029 236.664 187.157 236.664C185.474 236.664 184.18 237.945 184.18 240.005C184.18 242.04 185.436 243.284 187.22 243.284C188.451 243.284 189.544 242.618 189.833 241.274ZM187.157 237.505C188.288 237.505 188.828 238.347 188.853 239.44H185.235C185.411 238.146 186.165 237.505 187.157 237.505ZM195.641 243.133H196.684C196.558 242.718 196.533 242.279 196.533 241.814V238.912C196.533 237.392 195.578 236.664 194.046 236.664C192.702 236.664 191.697 237.392 191.571 238.674H192.576C192.651 237.945 193.179 237.505 194.02 237.505C194.887 237.505 195.503 237.933 195.503 238.937V239.302L193.468 239.566C192.186 239.716 191.282 240.244 191.282 241.462C191.282 242.631 192.224 243.271 193.33 243.271C194.385 243.271 195.252 242.806 195.528 242.065C195.528 242.367 195.566 242.781 195.641 243.133ZM193.543 242.48C192.752 242.48 192.337 242.028 192.337 241.437C192.337 240.583 192.99 240.382 193.782 240.269L195.503 240.081V240.646C195.503 241.864 194.523 242.48 193.543 242.48ZM198.238 239.98C198.238 242.002 199.457 243.284 201.215 243.284C202.622 243.284 203.552 242.492 203.753 241.136H202.76C202.584 241.977 202.069 242.442 201.215 242.442C199.972 242.442 199.268 241.462 199.268 239.98C199.268 238.498 199.972 237.505 201.215 237.505C202.069 237.505 202.584 237.97 202.76 238.812H203.753C203.552 237.468 202.622 236.664 201.215 236.664C199.457 236.664 198.238 237.958 198.238 239.98ZM206.517 237.97V233.888H205.474V243.133H206.517V239.653C206.517 238.133 207.283 237.518 208.25 237.518C209.243 237.518 209.758 238.121 209.758 239.289V243.133H210.8V239.063C210.8 237.556 209.959 236.664 208.539 236.664C207.572 236.664 206.818 237.166 206.517 237.97ZM222.049 240.671C222.049 239.264 221.195 238.598 219.851 238.322L219.122 238.184V234.943C220.115 235.068 220.755 235.571 220.868 236.45H221.861C221.71 235.006 220.692 234.202 219.122 234.051V232.845H218.369V234.026C216.66 234.101 215.517 235.156 215.517 236.576C215.517 238.121 216.56 238.674 217.74 238.912L218.369 239.038V242.379C217.263 242.254 216.346 241.688 216.233 240.495H215.228C215.329 242.178 216.71 243.095 218.369 243.233V244.502H219.122V243.246C220.831 243.146 222.049 242.09 222.049 240.671ZM218.067 237.97C216.999 237.757 216.509 237.43 216.509 236.538C216.509 235.646 217.188 234.981 218.369 234.918V238.033L218.067 237.97ZM219.449 239.239C220.655 239.465 221.044 239.967 221.044 240.721C221.044 241.701 220.278 242.304 219.122 242.392V239.176L219.449 239.239ZM223.133 236.212H225.017V243.133H226.097V234.126H225.431C225.218 235.056 224.665 235.483 223.133 235.483V236.212ZM231.263 238.046C232.682 238.046 233.348 239.076 233.348 240.219C233.348 241.362 232.682 242.404 231.275 242.404C230.007 242.404 229.178 241.613 229.09 240.47H228.022C228.16 242.203 229.454 243.284 231.263 243.284C233.222 243.284 234.391 241.927 234.391 240.219C234.391 238.523 233.222 237.166 231.351 237.166C230.522 237.166 229.743 237.568 229.366 238.046L229.667 235.081H233.938V234.164H228.889L228.386 239.05H229.353C229.693 238.51 230.321 238.046 231.263 238.046ZM235.924 243.12H236.527V243.347C236.527 244.176 236.163 244.465 235.522 244.465V245.105C236.666 245.105 237.294 244.389 237.294 243.347V241.764H235.924V243.12ZM238.659 238.649C238.659 241.337 240.053 243.284 242.227 243.284C244.412 243.284 245.794 241.337 245.794 238.649C245.794 235.96 244.412 234.013 242.227 234.013C240.053 234.013 238.659 235.96 238.659 238.649ZM239.764 238.649C239.764 236.45 240.594 234.943 242.227 234.943C243.872 234.943 244.701 236.45 244.701 238.649C244.701 240.847 243.872 242.354 242.227 242.354C240.594 242.354 239.764 240.847 239.764 238.649ZM247.16 238.649C247.16 241.337 248.555 243.284 250.728 243.284C252.913 243.284 254.295 241.337 254.295 238.649C254.295 235.96 252.913 234.013 250.728 234.013C248.555 234.013 247.16 235.96 247.16 238.649ZM248.266 238.649C248.266 236.45 249.095 234.943 250.728 234.943C252.373 234.943 253.202 236.45 253.202 238.649C253.202 240.847 252.373 242.354 250.728 242.354C249.095 242.354 248.266 240.847 248.266 238.649ZM255.661 238.649C255.661 241.337 257.056 243.284 259.229 243.284C261.415 243.284 262.796 241.337 262.796 238.649C262.796 235.96 261.415 234.013 259.229 234.013C257.056 234.013 255.661 235.96 255.661 238.649ZM256.767 238.649C256.767 236.45 257.596 234.943 259.229 234.943C260.874 234.943 261.703 236.45 261.703 238.649C261.703 240.847 260.874 242.354 259.229 242.354C257.596 242.354 256.767 240.847 256.767 238.649Z" fill="#625451"/>
<rect x="32.6602" y="256.256" width="248.719" height="6.69951" rx="3.34975" fill="#E2DDD8"/>
<rect x="32.6602" y="256.256" width="204.335" height="6.69951" rx="3.34975" fill="#72987F"/>
<circle cx="38.5223" cy="238.67" r="6.69951" fill="#E1AB54"/>
<path d="M35.3753 239.299L38.7637 234.868C38.9472 234.628 39.3307 234.768 39.317 235.07L39.2084 237.458C39.2005 237.633 39.3408 237.78 39.5167 237.78H41.4239C41.6794 237.78 41.8242 238.073 41.669 238.276L38.2806 242.707C38.0971 242.947 37.7136 242.807 37.7273 242.506L37.8359 240.118C37.8438 239.942 37.7035 239.795 37.5276 239.795H35.6204C35.3649 239.795 35.2201 239.502 35.3753 239.299Z" fill="#FBF8F5"/>
<path d="M30.1479 170L32.0863 169.438L34.0246 169.157L35.963 168.595L37.9013 167.753L39.8397 167.472L41.778 167.191L43.7163 166.91L45.6547 165.224L47.593 164.943L49.5314 164.381L51.4697 164.101L53.408 163.539L55.3464 163.258L57.2847 162.977H59.2231L61.1614 162.415L63.0997 162.134L65.0381 161.853L66.9764 161.291L68.9148 160.729L70.8531 160.449L72.7914 160.168L74.7298 159.887L76.6681 159.606L78.6065 159.044L80.5448 158.763L82.4831 158.201L84.4215 157.92L86.3598 157.639L88.2982 157.077L90.2365 156.797L92.1748 156.516L94.1132 156.235L96.0515 155.673L97.9899 155.111L99.9282 154.83L101.867 154.549L103.805 154.268L105.743 153.706L107.682 151.459L108.651 150.335L110.589 149.773L112.527 148.65L114.466 148.369L116.404 147.807L118.342 147.245L120.281 146.402L122.219 145.841L124.157 145.56L126.096 144.998L128.034 144.436L129.972 144.155L131.911 143.593L133.849 143.031L135.788 142.75L137.726 142.188L139.664 141.908L141.603 141.627L143.541 141.065L145.479 140.503L147.418 139.941L149.356 139.098L152.263 138.817L154.202 138.256L156.14 137.975L158.078 137.694L160.017 136.289L161.955 135.165L163.893 132.637L165.832 132.356L167.77 131.794L169.708 131.232L171.647 130.671L173.585 130.39L175.523 130.109L177.462 129.828L179.4 129.434L181.339 129.04L183.277 128.252L185.215 127.859L187.154 127.465L189.092 126.677L191.03 126.283L192.969 125.889L194.907 125.496L196.845 124.708L198.784 124.314L200.722 123.92L202.66 123.132L204.599 122.739L206.537 122.345H208.475L210.414 121.951L212.352 121.557L214.29 121.163H216.229L218.167 120.376L220.105 119.982L222.044 119.588H223.982L225.92 118.8L227.859 118.406L229.797 117.619L231.735 116.831L233.674 116.437L235.612 116.043L237.55 115.256L239.489 114.862L241.427 114.468L243.365 114.074L245.304 113.68L247.242 112.892L249.18 112.499L251.119 112.105L253.057 111.711L254.995 110.923L256.934 109.348L258.872 107.773L260.81 105.803L262.749 104.622L264.687 103.44L266.626 102.653L268.564 101.077L270.502 100.289L272.441 99.8956L274.379 98.7141L276.317 97.1387L278.256 95.9572L280.194 94.7756L282.132 93.9879L284.555 92.4126L286.978 91.6249L288.916 90.4433" stroke="#E1AB54" stroke-width="1.67488"/>
<path d="M30.1479 190.099V169.552L105.29 153.97L109.247 149.335L159.872 137.054L163.853 132.916L254.58 111.68L267.143 101.749L277.611 96.7241L288.916 90.0246V190.099H30.1479Z" fill="#E1AB54" fill-opacity="0.05"/>
<rect x="25.123" y="171.675" width="267.98" height="21.7734" fill="url(#paint0_linear)"/>
<circle cx="288.916" cy="90.8621" r="2.51232" fill="#E1AB54"/>
</g>
<defs>
<filter id="filter0_d" x="20.936" y="217.734" width="273.842" height="87.0936" filterUnits="userSpaceOnUse" color-interpolation-filters="sRGB">
<feFlood flood-opacity="0" result="BackgroundImageFix"/>
<feColorMatrix in="SourceAlpha" type="matrix" values="0 0 0 0 0 0 0 0 0 0 0 0 0 0 0 0 0 0 127 0"/>
<feOffset dy="0.837438"/>
<feGaussianBlur stdDeviation="0.837438"/>
<feColorMatrix type="matrix" values="0 0 0 0 0 0 0 0 0 0 0 0 0 0 0 0 0 0 0.02 0"/>
<feBlend mode="normal" in2="BackgroundImageFix" result="effect1_dropShadow"/>
<feBlend mode="normal" in="SourceGraphic" in2="effect1_dropShadow" result="shape"/>
</filter>
<linearGradient id="paint0_linear" x1="155.763" y1="187.685" x2="155.763" y2="171.675" gradientUnits="userSpaceOnUse">
<stop stop-color="#FBF8F5"/>
<stop offset="1" stop-color="#FBF8F5" stop-opacity="0"/>
</linearGradient>
</defs>
</svg>
