<svg width="392" height="201" viewBox="0 0 392 201" fill="none" xmlns="http://www.w3.org/2000/svg">
<rect x="320.671" y="163.821" width="70.8728" height="37.1792" rx="3.48555" fill="#72987F"/>
<rect x="240.503" y="106.89" width="70.8728" height="94.1098" rx="3.48555" fill="#D1DBD5"/>
<rect x="160.335" y="132.451" width="70.8728" height="68.5491" rx="3.48555" fill="#D1DBD5"/>
<rect x="80.1677" y="191.705" width="70.8728" height="9.2948" rx="3.48555" fill="#D1DBD5"/>
<rect y="195.191" width="70.8728" height="5.80925" rx="2.90462" fill="#D1DBD5"/>
<rect x="320.671" y="31.3699" width="70.8728" height="126.642" rx="3.48555" fill="#E1AB54"/>
<rect x="327.642" width="58.0925" height="23.237" rx="11.6185" fill="#1E5741"/>
<path d="M350.036 16.5189C351.321 16.5189 352.362 16.2423 353.078 15.7218C353.793 15.2013 354.167 14.4694 354.167 13.5747C354.167 12.9404 353.923 12.3711 353.5 11.9319C353.078 11.4927 352.541 11.1836 351.955 11.0698C352.525 10.8746 352.98 10.5818 353.322 10.1914C353.663 9.80104 353.858 9.2968 353.858 8.71123C353.858 7.83287 353.484 7.11717 352.801 6.61293C352.118 6.10869 351.191 5.84843 350.085 5.84843C348.995 5.84843 348.068 6.10869 347.384 6.61293C346.701 7.11717 346.327 7.83287 346.327 8.71123C346.327 9.2968 346.522 9.80104 346.848 10.1914C347.173 10.5818 347.628 10.8746 348.198 11.0698C347.628 11.1836 347.075 11.4927 346.653 11.9319C346.23 12.3711 345.969 12.9404 345.969 13.5747C345.969 14.4694 346.343 15.2013 347.059 15.7218C347.775 16.2423 348.8 16.5189 350.085 16.5189H350.036ZM350.085 10.3866C349.564 10.3866 349.141 10.2565 348.832 10.0125C348.523 9.76851 348.36 9.3944 348.36 8.93895C348.36 8.43471 348.523 8.04433 348.832 7.78407C349.141 7.52382 349.564 7.39369 350.085 7.39369C350.605 7.39369 351.044 7.52382 351.353 7.78407C351.662 8.04433 351.825 8.43471 351.825 8.93895C351.825 9.3944 351.662 9.76851 351.353 10.0125C351.044 10.2565 350.621 10.3866 350.101 10.3866H350.085ZM350.101 14.9899C349.467 14.9899 348.962 14.8435 348.621 14.567C348.279 14.2904 348.1 13.8838 348.1 13.3795C348.1 12.8753 348.279 12.4849 348.621 12.2084C348.962 11.9319 349.467 11.8017 350.101 11.8017C350.735 11.8017 351.24 11.9319 351.581 12.2084C351.923 12.4849 352.102 12.8753 352.102 13.3795C352.102 13.8838 351.923 14.2904 351.581 14.567C351.24 14.8435 350.735 14.9899 350.101 14.9899ZM358.31 5.88096C357.562 5.88096 356.879 6.17375 356.374 6.67799C355.87 7.18224 355.577 7.84914 355.577 8.59737C355.577 9.3456 355.87 10.0288 356.374 10.533C356.879 11.0373 357.562 11.33 358.31 11.33C359.058 11.33 359.758 11.0373 360.262 10.533C360.766 10.0288 361.059 9.3456 361.059 8.59737C361.059 7.84914 360.766 7.18224 360.262 6.67799C359.758 6.17375 359.058 5.88096 358.31 5.88096ZM358.212 16.3237H359.644L366.036 6.07615H364.605L358.212 16.3237ZM358.31 7.11717C358.7 7.11717 359.074 7.27983 359.335 7.55635C359.595 7.83287 359.758 8.20699 359.758 8.61363C359.758 9.02028 359.595 9.37813 359.335 9.63839C359.074 9.89864 358.7 10.0613 358.31 10.0613C357.92 10.0613 357.562 9.89864 357.301 9.63839C357.041 9.37813 356.879 9.02028 356.879 8.61363C356.879 8.20699 357.041 7.83287 357.301 7.55635C357.562 7.27983 357.92 7.11717 358.31 7.11717ZM365.939 16.5189C366.687 16.5189 367.37 16.2261 367.874 15.7218C368.379 15.2176 368.671 14.5507 368.671 13.8025C368.671 13.0542 368.379 12.3711 367.874 11.8668C367.37 11.3626 366.687 11.0698 365.939 11.0698C365.19 11.0698 364.491 11.3626 363.987 11.8668C363.483 12.3711 363.19 13.0542 363.19 13.8025C363.19 14.5507 363.483 15.2176 363.987 15.7218C364.491 16.2261 365.19 16.5189 365.939 16.5189ZM365.939 15.2827C365.548 15.2827 365.174 15.12 364.914 14.8435C364.654 14.567 364.491 14.1928 364.491 13.7862C364.491 13.3795 364.654 13.0217 364.914 12.7614C365.174 12.5012 365.548 12.3385 365.939 12.3385C366.329 12.3385 366.687 12.5012 366.947 12.7614C367.207 13.0217 367.37 13.3795 367.37 13.7862C367.37 14.1928 367.207 14.567 366.947 14.8435C366.687 15.12 366.329 15.2827 365.939 15.2827Z" fill="#FBF8F5"/>
<path d="M25.1513 179.766C25.1513 178.424 24.8446 177.389 24.2695 176.673C23.6944 175.958 22.8636 175.587 21.8029 175.587C20.7421 175.587 19.9241 175.958 19.3363 176.673C18.7484 177.389 18.4544 178.424 18.4544 179.766C18.4544 181.108 18.7484 182.143 19.3363 182.859C19.9241 183.575 20.7421 183.945 21.8029 183.945C22.8636 183.945 23.6944 183.575 24.2695 182.859C24.8446 182.143 25.1513 181.108 25.1513 179.766ZM24.0011 179.766C24.0011 180.865 23.8222 181.683 23.4643 182.233C23.1065 182.782 22.5569 183.051 21.8156 183.051C21.0744 183.051 20.5248 182.782 20.167 182.233C19.8091 181.683 19.6302 180.865 19.6302 179.766C19.6302 178.667 19.8091 177.849 20.167 177.299C20.5248 176.75 21.0744 176.482 21.8156 176.482C22.5569 176.482 23.1065 176.75 23.4643 177.299C23.8222 177.849 24.0011 178.667 24.0011 179.766ZM26.3209 183.792H27.6756V182.437H26.3209V183.792ZM35.5229 179.766C35.5229 178.424 35.2161 177.389 34.641 176.673C34.0659 175.958 33.2352 175.587 32.1744 175.587C31.1136 175.587 30.2957 175.958 29.7078 176.673C29.1199 177.389 28.826 178.424 28.826 179.766C28.826 181.108 29.1199 182.143 29.7078 182.859C30.2957 183.575 31.1136 183.945 32.1744 183.945C33.2352 183.945 34.0659 183.575 34.641 182.859C35.2161 182.143 35.5229 181.108 35.5229 179.766ZM34.3726 179.766C34.3726 180.865 34.1937 181.683 33.8359 182.233C33.478 182.782 32.9285 183.051 32.1872 183.051C31.4459 183.051 30.8964 182.782 30.5385 182.233C30.1807 181.683 30.0018 180.865 30.0018 179.766C30.0018 178.667 30.1807 177.849 30.5385 177.299C30.8964 176.75 31.4459 176.482 32.1872 176.482C32.9285 176.482 33.478 176.75 33.8359 177.299C34.1937 177.849 34.3726 178.667 34.3726 179.766ZM42.0637 175.74H40.6834L36.7343 180.571V181.645H40.9902V183.792H42.0637V181.645H43.5079V180.737H42.0637V175.74ZM40.9902 176.699V180.737H37.68L40.9902 176.699ZM45.9952 175.574C45.4456 175.574 44.9344 175.804 44.5638 176.175C44.1931 176.545 43.9631 177.057 43.9631 177.606C43.9631 178.156 44.1931 178.667 44.5638 179.038C44.9344 179.408 45.4456 179.638 45.9952 179.638C46.5575 179.638 47.0559 179.408 47.4266 179.038C47.7972 178.667 48.0272 178.143 48.0272 177.593C48.0272 177.044 47.7972 176.533 47.4266 176.162C47.0559 175.791 46.5575 175.561 45.9952 175.561V175.574ZM45.7907 183.779H46.6597L51.8486 175.727H50.9795L45.7907 183.779ZM45.9952 176.328C46.3402 176.328 46.647 176.456 46.877 176.699C47.107 176.942 47.2349 177.248 47.2349 177.593C47.2349 177.951 47.107 178.258 46.877 178.488C46.647 178.718 46.3402 178.846 45.9952 178.846C45.6757 178.846 45.3689 178.718 45.1389 178.488C44.9088 178.258 44.781 177.951 44.781 177.593C44.781 177.248 44.9088 176.942 45.1389 176.699C45.3689 176.456 45.6757 176.328 45.9952 176.328ZM51.6441 183.945C52.1936 183.945 52.7048 183.715 53.0755 183.345C53.4461 182.974 53.6761 182.463 53.6761 181.913C53.6761 181.364 53.4461 180.852 53.0755 180.482C52.7048 180.111 52.1936 179.881 51.6441 179.881C51.0817 179.881 50.5833 180.111 50.2127 180.482C49.842 180.852 49.612 181.376 49.612 181.926C49.612 182.475 49.842 182.987 50.2127 183.357C50.5833 183.728 51.0817 183.958 51.6441 183.958V183.945ZM51.6441 183.191C51.299 183.191 50.9923 183.063 50.7622 182.821C50.5322 182.578 50.4044 182.271 50.4044 181.926C50.4044 181.568 50.5322 181.261 50.7622 181.031C50.9923 180.801 51.299 180.673 51.6441 180.673C51.9636 180.673 52.2703 180.801 52.5004 181.031C52.7304 181.261 52.8582 181.568 52.8582 181.926C52.8582 182.271 52.7304 182.578 52.5004 182.821C52.2703 183.063 51.9636 183.191 51.6441 183.191Z" fill="#625451"/>
<path d="M105.094 175.119C105.094 173.777 104.788 172.742 104.212 172.026C103.637 171.31 102.807 170.94 101.746 170.94C100.685 170.94 99.8671 171.31 99.2792 172.026C98.6913 172.742 98.3974 173.777 98.3974 175.119C98.3974 176.461 98.6913 177.496 99.2792 178.212C99.8671 178.927 100.685 179.298 101.746 179.298C102.807 179.298 103.637 178.927 104.212 178.212C104.788 177.496 105.094 176.461 105.094 175.119ZM103.944 175.119C103.944 176.218 103.765 177.036 103.407 177.585C103.049 178.135 102.5 178.403 101.759 178.403C101.017 178.403 100.468 178.135 100.11 177.585C99.7521 177.036 99.5731 176.218 99.5731 175.119C99.5731 174.02 99.7521 173.202 100.11 172.652C100.468 172.103 101.017 171.834 101.759 171.834C102.5 171.834 103.049 172.103 103.407 172.652C103.765 173.202 103.944 174.02 103.944 175.119ZM106.264 179.145H107.619V177.79H106.264V179.145ZM115.466 175.119C115.466 173.777 115.159 172.742 114.584 172.026C114.009 171.31 113.178 170.94 112.117 170.94C111.057 170.94 110.239 171.31 109.651 172.026C109.063 172.742 108.769 173.777 108.769 175.119C108.769 176.461 109.063 177.496 109.651 178.212C110.239 178.927 111.057 179.298 112.117 179.298C113.178 179.298 114.009 178.927 114.584 178.212C115.159 177.496 115.466 176.461 115.466 175.119ZM114.316 175.119C114.316 176.218 114.137 177.036 113.779 177.585C113.421 178.135 112.871 178.403 112.13 178.403C111.389 178.403 110.839 178.135 110.481 177.585C110.124 177.036 109.945 176.218 109.945 175.119C109.945 174.02 110.124 173.202 110.481 172.652C110.839 172.103 111.389 171.834 112.13 171.834C112.871 171.834 113.421 172.103 113.779 172.652C114.137 173.202 114.316 174.02 114.316 175.119ZM123.016 172.895C122.876 172.294 122.556 171.809 122.083 171.464C121.61 171.118 121.01 170.94 120.294 170.94C119.182 170.94 118.313 171.374 117.738 172.154C117.163 172.933 116.869 174.007 116.869 175.272C116.869 176.499 117.15 177.509 117.712 178.212C118.275 178.914 119.106 179.298 120.166 179.298C121.061 179.298 121.789 179.03 122.301 178.544C122.812 178.058 123.093 177.381 123.093 176.576C123.093 175.809 122.837 175.157 122.339 174.671C121.841 174.186 121.15 173.93 120.332 173.93C119.668 173.93 119.118 174.109 118.709 174.416C118.3 174.723 118.032 175.132 117.891 175.617C117.853 174.544 118.032 173.636 118.415 172.946C118.799 172.256 119.412 171.86 120.269 171.86C120.767 171.86 121.163 171.988 121.444 172.23C121.725 172.473 121.904 172.818 122.007 173.253L123.016 172.895ZM118.185 176.614C118.185 176.064 118.351 175.617 118.684 175.298C119.016 174.978 119.489 174.799 120.09 174.799C120.69 174.799 121.163 174.978 121.495 175.298C121.828 175.617 121.994 176.064 121.994 176.614C121.994 177.164 121.828 177.598 121.495 177.93C121.163 178.263 120.703 178.429 120.115 178.429C119.527 178.429 119.042 178.237 118.697 177.918C118.351 177.598 118.173 177.151 118.173 176.601L118.185 176.614ZM126.387 170.927C125.838 170.927 125.327 171.157 124.956 171.527C124.585 171.898 124.355 172.409 124.355 172.959C124.355 173.508 124.585 174.02 124.956 174.39C125.327 174.761 125.838 174.991 126.387 174.991C126.95 174.991 127.448 174.761 127.819 174.39C128.189 174.02 128.419 173.496 128.419 172.946C128.419 172.397 128.189 171.885 127.819 171.515C127.448 171.144 126.95 170.914 126.387 170.914V170.927ZM126.183 179.132H127.052L132.241 171.08H131.372L126.183 179.132ZM126.387 171.681C126.732 171.681 127.039 171.809 127.269 172.051C127.499 172.294 127.627 172.601 127.627 172.946C127.627 173.304 127.499 173.611 127.269 173.841C127.039 174.071 126.732 174.199 126.387 174.199C126.068 174.199 125.761 174.071 125.531 173.841C125.301 173.611 125.173 173.304 125.173 172.946C125.173 172.601 125.301 172.294 125.531 172.051C125.761 171.809 126.068 171.681 126.387 171.681ZM132.036 179.298C132.586 179.298 133.097 179.068 133.468 178.697C133.838 178.327 134.068 177.815 134.068 177.266C134.068 176.716 133.838 176.205 133.468 175.834C133.097 175.464 132.586 175.234 132.036 175.234C131.474 175.234 130.976 175.464 130.605 175.834C130.234 176.205 130.004 176.729 130.004 177.279C130.004 177.828 130.234 178.339 130.605 178.71C130.976 179.081 131.474 179.311 132.036 179.311V179.298ZM132.036 178.544C131.691 178.544 131.385 178.416 131.154 178.173C130.924 177.93 130.797 177.624 130.797 177.279C130.797 176.921 130.924 176.614 131.154 176.384C131.385 176.154 131.691 176.026 132.036 176.026C132.356 176.026 132.663 176.154 132.893 176.384C133.123 176.614 133.25 176.921 133.25 177.279C133.25 177.624 133.123 177.93 132.893 178.173C132.663 178.416 132.356 178.544 132.036 178.544Z" fill="#625451"/>
<path d="M188.582 118.932L190.077 117.679C190.793 117.079 191.266 116.644 191.739 116.069C192.211 115.494 192.518 114.842 192.518 114.139C192.518 113.436 192.288 112.835 191.828 112.375C191.368 111.915 190.678 111.66 189.758 111.66C188.901 111.66 188.198 111.915 187.687 112.401C187.176 112.887 186.908 113.551 186.908 114.369C186.908 114.484 186.908 114.612 186.933 114.74C186.959 114.868 186.971 114.995 187.023 115.11L188.109 115.161C188.058 115.046 188.045 114.931 188.019 114.816C187.994 114.701 187.994 114.574 187.994 114.459C187.994 113.871 188.147 113.411 188.454 113.091C188.761 112.772 189.195 112.605 189.745 112.605C190.282 112.605 190.691 112.759 190.959 113.04C191.227 113.321 191.381 113.705 191.381 114.19C191.381 114.752 191.151 115.251 190.754 115.737C190.358 116.222 189.975 116.567 189.119 117.283L186.831 119.238V119.877H192.774V118.919L188.582 118.932ZM195.902 111.672C195.352 111.672 194.841 111.902 194.47 112.273C194.099 112.644 193.869 113.155 193.869 113.705C193.869 114.254 194.099 114.765 194.47 115.136C194.841 115.507 195.352 115.737 195.902 115.737C196.464 115.737 196.962 115.507 197.333 115.136C197.704 114.765 197.934 114.241 197.934 113.692C197.934 113.142 197.704 112.631 197.333 112.26C196.962 111.89 196.464 111.66 195.902 111.66V111.672ZM195.697 119.877H196.566L201.755 111.826H200.886L195.697 119.877ZM195.902 112.426C196.247 112.426 196.553 112.554 196.783 112.797C197.013 113.04 197.141 113.347 197.141 113.692C197.141 114.05 197.013 114.356 196.783 114.586C196.553 114.816 196.247 114.944 195.902 114.944C195.582 114.944 195.275 114.816 195.045 114.586C194.815 114.356 194.687 114.05 194.687 113.692C194.687 113.347 194.815 113.04 195.045 112.797C195.275 112.554 195.582 112.426 195.902 112.426ZM201.55 120.044C202.1 120.044 202.611 119.814 202.982 119.443C203.352 119.072 203.582 118.561 203.582 118.011C203.582 117.462 203.352 116.951 202.982 116.58C202.611 116.209 202.1 115.979 201.55 115.979C200.988 115.979 200.49 116.209 200.119 116.58C199.748 116.951 199.518 117.475 199.518 118.024C199.518 118.574 199.748 119.085 200.119 119.456C200.49 119.826 200.988 120.056 201.55 120.056V120.044ZM201.55 119.29C201.205 119.29 200.899 119.162 200.669 118.919C200.439 118.676 200.311 118.369 200.311 118.024C200.311 117.666 200.439 117.36 200.669 117.13C200.899 116.9 201.205 116.772 201.55 116.772C201.87 116.772 202.177 116.9 202.407 117.13C202.637 117.36 202.765 117.666 202.765 118.024C202.765 118.369 202.637 118.676 202.407 118.919C202.177 119.162 201.87 119.29 201.55 119.29Z" fill="#625451"/>
<path d="M261.799 93.3709L263.295 92.1185C264.01 91.5178 264.483 91.0833 264.956 90.5081C265.429 89.933 265.736 89.2812 265.736 88.5783C265.736 87.8754 265.506 87.2747 265.045 86.8146C264.585 86.3545 263.895 86.0989 262.975 86.0989C262.119 86.0989 261.416 86.3545 260.905 86.8402C260.393 87.3258 260.125 87.9904 260.125 88.8084C260.125 88.9234 260.125 89.0512 260.151 89.179C260.176 89.3068 260.189 89.4346 260.24 89.5496L261.326 89.6007C261.275 89.4857 261.263 89.3707 261.237 89.2557C261.211 89.1406 261.211 89.0128 261.211 88.8978C261.211 88.3099 261.365 87.8498 261.671 87.5303C261.978 87.2108 262.413 87.0447 262.962 87.0447C263.499 87.0447 263.908 87.198 264.176 87.4792C264.445 87.7604 264.598 88.1438 264.598 88.6294C264.598 89.1918 264.368 89.6902 263.972 90.1759C263.576 90.6615 263.192 91.0066 262.336 91.7223L260.048 93.6777V94.3167H265.991V93.3582L261.799 93.3709ZM267.579 94.3295H268.934V92.9748H267.579V94.3295ZM271.407 88.8978C271.446 88.3099 271.637 87.8371 271.957 87.5175C272.276 87.198 272.724 87.0191 273.273 87.0191C273.823 87.0191 274.245 87.1725 274.538 87.4281C274.832 87.6837 274.973 88.0415 274.973 88.4888C274.973 88.9873 274.769 89.3451 274.449 89.5624C274.13 89.7797 273.721 89.8691 273.26 89.8691C273.094 89.8691 272.941 89.8563 272.826 89.8436C272.711 89.8308 272.532 89.7924 272.494 89.7924V90.8021C272.545 90.8021 272.724 90.7638 272.839 90.751C272.954 90.7382 273.107 90.7254 273.26 90.7254C273.772 90.7254 274.232 90.8404 274.577 91.0833C274.922 91.3261 275.114 91.6839 275.114 92.1312C275.114 92.6169 274.935 92.9875 274.615 93.2304C274.296 93.4732 273.861 93.601 273.324 93.601C272.724 93.601 272.212 93.4348 271.842 93.1153C271.471 92.7958 271.254 92.3357 271.216 91.7351L270.155 92.0673C270.244 92.8214 270.589 93.4348 271.139 93.8566C271.688 94.2783 272.443 94.5084 273.312 94.5084C274.181 94.5084 274.922 94.2783 275.433 93.8694C275.944 93.4604 276.225 92.8853 276.225 92.2207C276.225 91.7095 276.034 91.2494 275.689 90.9043C275.344 90.5593 274.896 90.3548 274.385 90.3037C274.82 90.2398 275.229 90.0353 275.548 89.7158C275.868 89.3963 276.072 88.9617 276.072 88.4505C276.072 87.7859 275.842 87.2108 275.356 86.8146C274.871 86.4184 274.181 86.2012 273.312 86.2012C272.494 86.2012 271.803 86.444 271.292 86.8785C270.781 87.3131 270.462 87.9137 270.372 88.6294L271.407 88.8978ZM279.185 93.3709L280.68 92.1185C281.396 91.5178 281.869 91.0833 282.342 90.5081C282.815 89.933 283.121 89.2812 283.121 88.5783C283.121 87.8754 282.891 87.2747 282.431 86.8146C281.971 86.3545 281.281 86.0989 280.361 86.0989C279.505 86.0989 278.802 86.3545 278.29 86.8402C277.779 87.3258 277.511 87.9904 277.511 88.8084C277.511 88.9234 277.511 89.0512 277.536 89.179C277.562 89.3068 277.575 89.4346 277.626 89.5496L278.712 89.6007C278.661 89.4857 278.648 89.3707 278.623 89.2557C278.597 89.1406 278.597 89.0128 278.597 88.8978C278.597 88.3099 278.751 87.8498 279.057 87.5303C279.364 87.2108 279.799 87.0447 280.348 87.0447C280.885 87.0447 281.294 87.198 281.562 87.4792C281.831 87.7604 281.984 88.1438 281.984 88.6294C281.984 89.1918 281.754 89.6902 281.358 90.1759C280.962 90.6615 280.578 91.0066 279.722 91.7223L277.434 93.6777V94.3167H283.377V93.3582L279.185 93.3709ZM286.505 86.1117C285.955 86.1117 285.444 86.3418 285.073 86.7124C284.703 87.083 284.473 87.5942 284.473 88.1438C284.473 88.6933 284.703 89.2045 285.073 89.5752C285.444 89.9458 285.955 90.1759 286.505 90.1759C287.067 90.1759 287.566 89.9458 287.936 89.5752C288.307 89.2045 288.537 88.6806 288.537 88.131C288.537 87.5814 288.307 87.0702 287.936 86.6996C287.566 86.329 287.067 86.0989 286.505 86.0989V86.1117ZM286.3 94.3167H287.169L292.358 86.2651H291.489L286.3 94.3167ZM286.505 86.8657C286.85 86.8657 287.157 86.9935 287.387 87.2364C287.617 87.4792 287.744 87.7859 287.744 88.131C287.744 88.4888 287.617 88.7956 287.387 89.0256C287.157 89.2557 286.85 89.3835 286.505 89.3835C286.185 89.3835 285.879 89.2557 285.649 89.0256C285.418 88.7956 285.291 88.4888 285.291 88.131C285.291 87.7859 285.418 87.4792 285.649 87.2364C285.879 86.9935 286.185 86.8657 286.505 86.8657ZM292.154 94.4828C292.703 94.4828 293.214 94.2528 293.585 93.8822C293.956 93.5115 294.186 93.0003 294.186 92.4508C294.186 91.9012 293.956 91.39 293.585 91.0194C293.214 90.6487 292.703 90.4187 292.154 90.4187C291.591 90.4187 291.093 90.6487 290.722 91.0194C290.352 91.39 290.122 91.914 290.122 92.4635C290.122 93.0131 290.352 93.5243 290.722 93.8949C291.093 94.2656 291.591 94.4956 292.154 94.4956V94.4828ZM292.154 93.7288C291.809 93.7288 291.502 93.601 291.272 93.3582C291.042 93.1153 290.914 92.8086 290.914 92.4635C290.914 92.1057 291.042 91.799 291.272 91.5689C291.502 91.3389 291.809 91.2111 292.154 91.2111C292.473 91.2111 292.78 91.3389 293.01 91.5689C293.24 91.799 293.368 92.1057 293.368 92.4635C293.368 92.8086 293.24 93.1153 293.01 93.3582C292.78 93.601 292.473 93.7288 292.154 93.7288Z" fill="#625451"/>
</svg>
