<svg width="307" height="400" viewBox="0 0 307 400" fill="none" xmlns="http://www.w3.org/2000/svg">
<g filter="url(#filter0_d)">
<path d="M288.059 370.922C289.332 369.031 291.454 369.504 294 369.976L294 25C294 18.3726 288.627 13 282 13L25.0025 13C18.3741 13 13.0011 18.3742 13.0025 25.0026L13.0711 346.806C13.354 346.49 15.0524 345.86 16.0708 345.86C17.3437 345.86 19.4654 345.86 19.8897 346.806C20.314 347.751 23.7086 348.224 24.5572 348.224L28.3761 348.224C29.649 348.224 31.3463 351.061 32.195 352.007C33.0436 352.953 37.2868 352.48 37.7111 352.48C38.1354 352.48 41.53 351.534 42.3786 351.061C43.2272 350.589 44.9245 352.48 45.7732 352.953C46.4521 353.331 48.0362 353.741 48.7434 353.899C50.4407 355.002 54.005 357.303 54.6839 357.682C55.5325 358.155 55.9568 358.155 57.6541 358.155C59.3514 358.155 60.2001 358.155 61.473 357.682C62.746 357.209 64.8676 357.682 66.5648 357.682C68.2621 357.682 70.8078 358.155 71.6565 357.682C72.5051 357.209 76.7483 356.263 77.1726 356.736C77.5121 357.114 79.5771 356.578 80.5672 356.263L83.5374 356.263C84.386 356.263 85.659 358.155 86.0833 358.155C86.5076 358.155 87.7806 357.682 88.6292 356.736C89.4779 355.79 90.7509 356.736 91.5995 356.736C92.4481 356.736 92.8724 356.736 94.1454 356.263C95.4183 355.79 96.6913 354.844 97.5399 355.317C98.3886 355.79 99.2372 356.263 100.934 356.263C102.632 356.263 104.329 354.844 105.602 354.844C106.62 354.844 107.724 353.583 108.148 352.953C108.572 353.583 109.591 354.844 110.27 354.844C111.118 354.844 112.391 356.736 112.815 357.682C113.24 358.627 114.088 356.736 115.361 356.736C116.634 356.736 117.483 357.209 117.907 357.682C118.332 358.155 119.605 360.519 120.453 360.519C121.132 360.519 123.565 361.149 124.696 361.465L127.242 360.046L128.94 360.519L131.486 361.938L132.334 359.1L133.607 358.155L134.88 361.465L137.85 361.465C138.084 361.855 140.068 362.615 140.184 362.829C140.016 362.861 139.934 362.881 139.972 362.883C140.15 362.896 140.209 362.875 140.184 362.829C141.023 362.67 144.004 362.2 145.064 361.938L146.337 360.992L148.034 360.992L149.731 363.356C150.438 363.514 152.023 363.829 152.701 363.829C153.55 363.829 155.672 361.938 156.096 361.938L159.491 361.938C160.764 361.938 160.764 362.883 163.309 362.883C165.855 362.883 165.556 360.992 166.28 360.992C166.483 360.992 167.977 362.883 168.401 363.829C168.542 364.143 170.425 366.089 170.657 365.572C170.984 364.843 174.766 365.721 175.19 367.139C175.332 367.612 176.888 368.558 179.009 367.612C181.131 366.666 184.525 370.449 185.374 371.868C186.223 373.287 190.89 375.651 191.739 376.597C192.587 377.542 198.104 378.961 199.377 379.907C200.649 380.853 202.347 381.798 203.195 382.744C204.044 383.69 205.741 383.69 207.439 382.271C209.136 380.853 211.682 381.325 213.803 380.853C215.925 380.38 215.925 381.798 217.622 381.798L225.26 381.798C226.957 381.798 229.928 383.217 231.2 383.69C232.473 384.163 235.868 383.69 237.99 383.69C240.111 383.69 242.657 384.636 243.93 385.108C245.203 385.581 244.354 387 245.627 387C246.9 387 248.173 386.054 250.295 385.108C252.416 384.163 253.265 384.636 254.114 384.636C254.962 384.636 256.235 387 257.933 387C259.63 387 261.327 386.054 262.6 386.054C263.873 386.054 265.995 386.054 267.268 385.108C268.541 384.163 268.965 383.217 270.662 382.744C272.36 382.271 272.784 382.744 274.481 381.798C276.178 380.853 277.876 380.853 279.149 380.853C280.422 380.853 281.695 377.07 283.392 376.597C285.089 376.124 286.786 372.814 288.059 370.922Z" fill="#E2DDD8"/>
</g>
<mask id="mask0" mask-type="alpha" maskUnits="userSpaceOnUse" x="13" y="13" width="281" height="374">
<path d="M288.059 370.922C289.332 369.031 291.454 369.504 294 369.976L294 25C294 18.3726 288.627 13 282 13L25.0025 13C18.3741 13 13.0011 18.3742 13.0025 25.0026L13.0711 346.806C13.354 346.49 15.0524 345.86 16.0708 345.86C17.3437 345.86 19.4654 345.86 19.8897 346.806C20.314 347.751 23.7086 348.224 24.5572 348.224L28.3761 348.224C29.649 348.224 31.3463 351.061 32.195 352.007C33.0436 352.953 37.2868 352.48 37.7111 352.48C38.1354 352.48 41.53 351.534 42.3786 351.061C43.2272 350.589 44.9245 352.48 45.7732 352.953C46.4521 353.331 48.0362 353.741 48.7434 353.899C50.4407 355.002 54.005 357.303 54.6839 357.682C55.5325 358.155 55.9568 358.155 57.6541 358.155C59.3514 358.155 60.2001 358.155 61.473 357.682C62.746 357.209 64.8676 357.682 66.5648 357.682C68.2621 357.682 70.8078 358.155 71.6565 357.682C72.5051 357.209 76.7483 356.263 77.1726 356.736C77.5121 357.114 79.5771 356.578 80.5672 356.263L83.5374 356.263C84.386 356.263 85.659 358.155 86.0833 358.155C86.5076 358.155 87.7806 357.682 88.6292 356.736C89.4779 355.79 90.7509 356.736 91.5995 356.736C92.4481 356.736 92.8724 356.736 94.1454 356.263C95.4183 355.79 96.6913 354.844 97.5399 355.317C98.3886 355.79 99.2372 356.263 100.934 356.263C102.632 356.263 104.329 354.844 105.602 354.844C106.62 354.844 107.724 353.583 108.148 352.953C108.572 353.583 109.591 354.844 110.27 354.844C111.118 354.844 112.391 356.736 112.815 357.682C113.24 358.627 114.088 356.736 115.361 356.736C116.634 356.736 117.483 357.209 117.907 357.682C118.332 358.155 119.605 360.519 120.453 360.519C121.132 360.519 123.565 361.149 124.696 361.465L127.242 360.046L128.94 360.519L131.486 361.938L132.334 359.1L133.607 358.155L134.88 361.465L137.85 361.465C138.084 361.855 140.068 362.615 140.184 362.829C140.016 362.861 139.934 362.881 139.972 362.883C140.15 362.896 140.209 362.875 140.184 362.829C141.023 362.67 144.004 362.2 145.064 361.938L146.337 360.992L148.034 360.992L149.731 363.356C150.438 363.514 152.023 363.829 152.701 363.829C153.55 363.829 155.672 361.938 156.096 361.938L159.491 361.938C160.764 361.938 160.764 362.883 163.309 362.883C165.855 362.883 165.556 360.992 166.28 360.992C166.483 360.992 167.977 362.883 168.401 363.829C168.542 364.143 170.425 366.089 170.657 365.572C170.984 364.843 174.766 365.721 175.19 367.139C175.332 367.612 176.888 368.558 179.009 367.612C181.131 366.666 184.525 370.449 185.374 371.868C186.223 373.287 190.89 375.651 191.739 376.597C192.587 377.542 198.104 378.961 199.377 379.907C200.649 380.853 202.347 381.798 203.195 382.744C204.044 383.69 205.741 383.69 207.439 382.271C209.136 380.853 211.682 381.325 213.803 380.853C215.925 380.38 215.925 381.798 217.622 381.798L225.26 381.798C226.957 381.798 229.928 383.217 231.2 383.69C232.473 384.163 235.868 383.69 237.99 383.69C240.111 383.69 242.657 384.636 243.93 385.108C245.203 385.581 244.354 387 245.627 387C246.9 387 248.173 386.054 250.295 385.108C252.416 384.163 253.265 384.636 254.114 384.636C254.962 384.636 256.235 387 257.933 387C259.63 387 261.327 386.054 262.6 386.054C263.873 386.054 265.995 386.054 267.268 385.108C268.541 384.163 268.965 383.217 270.662 382.744C272.36 382.271 272.784 382.744 274.481 381.798C276.178 380.853 277.876 380.853 279.149 380.853C280.422 380.853 281.695 377.07 283.392 376.597C285.089 376.124 286.786 372.814 288.059 370.922Z" fill="#E2DDD8"/>
</mask>
<g mask="url(#mask0)">
<rect x="13.0005" y="-6" width="281" height="421" fill="#FDFCFB"/>
<path d="M166.136 75C167.874 75 168.897 74.241 168.897 72.8C168.897 71.876 168.292 71.161 167.324 70.919C167.995 70.721 168.545 69.973 168.545 69.247C168.545 67.872 167.533 67.146 165.784 67.146H163.023V75H166.136ZM163.958 70.611V67.916H165.85C167.016 67.916 167.588 68.389 167.588 69.258C167.588 70.116 167.005 70.611 165.839 70.611H163.958ZM163.958 71.348H166.07C167.269 71.348 167.951 71.898 167.951 72.8C167.951 73.702 167.291 74.23 166.092 74.23H163.958V71.348ZM175.186 72.239C175.186 70.457 174.086 69.335 172.557 69.335C171.028 69.335 169.928 70.457 169.928 72.239C169.928 74.021 171.028 75.132 172.557 75.132C174.086 75.132 175.186 74.021 175.186 72.239ZM170.83 72.239C170.83 70.908 171.479 70.072 172.557 70.072C173.635 70.072 174.284 70.908 174.284 72.239C174.284 73.57 173.635 74.395 172.557 74.395C171.479 74.395 170.83 73.57 170.83 72.239ZM181.489 72.239C181.489 70.457 180.389 69.335 178.86 69.335C177.331 69.335 176.231 70.457 176.231 72.239C176.231 74.021 177.331 75.132 178.86 75.132C180.389 75.132 181.489 74.021 181.489 72.239ZM177.133 72.239C177.133 70.908 177.782 70.072 178.86 70.072C179.938 70.072 180.587 70.908 180.587 72.239C180.587 73.57 179.938 74.395 178.86 74.395C177.782 74.395 177.133 73.57 177.133 72.239ZM182.457 73.361C182.556 74.549 183.546 75.132 184.866 75.132C186.109 75.132 187.022 74.417 187.022 73.449C187.022 72.558 186.494 72.118 185.592 71.942L184.492 71.733C183.854 71.612 183.524 71.414 183.524 70.941C183.524 70.402 183.997 70.039 184.734 70.039C185.493 70.039 185.988 70.369 186.054 70.93H186.901C186.791 69.885 186.01 69.335 184.734 69.335C183.513 69.335 182.677 70.061 182.677 70.996C182.677 71.964 183.326 72.327 184.217 72.492L185.196 72.69C185.9 72.822 186.164 73.086 186.164 73.493C186.164 74.087 185.614 74.439 184.855 74.439C184.107 74.439 183.403 74.12 183.337 73.361H182.457ZM191.066 74.186C190.714 74.296 190.472 74.318 190.263 74.318C189.757 74.318 189.46 74.12 189.46 73.537V70.16H190.923V69.467H189.471V68.059H188.569V69.467H187.755V70.16H188.569V73.581C188.569 74.604 189.086 75.088 190.098 75.088C190.34 75.088 190.659 75.055 191.066 74.934V74.186ZM196.921 73.372H196.063C195.832 74.043 195.381 74.406 194.633 74.406C193.577 74.406 192.906 73.702 192.862 72.426H196.954V72.063C196.954 70.644 196.217 69.335 194.578 69.335C193.104 69.335 191.971 70.457 191.971 72.261C191.971 74.043 193.071 75.132 194.633 75.132C195.711 75.132 196.668 74.549 196.921 73.372ZM194.578 70.072C195.568 70.072 196.041 70.809 196.063 71.766H192.895C193.049 70.633 193.709 70.072 194.578 70.072ZM202.329 75H203.209V66.904H202.296V70.446C202.043 69.885 201.416 69.335 200.459 69.335C199.051 69.335 197.995 70.479 197.995 72.239C197.995 73.988 199.051 75.132 200.459 75.132C201.372 75.132 202.054 74.593 202.329 74.032V75ZM202.34 72.305C202.34 73.559 201.724 74.417 200.646 74.417C199.557 74.417 198.919 73.526 198.919 72.239C198.919 70.941 199.557 70.05 200.646 70.05C201.724 70.05 202.34 70.897 202.34 72.151V72.305ZM206.872 72.679C206.982 74.395 208.412 75.132 210.117 75.132C211.778 75.132 212.966 74.186 212.966 72.844C212.966 71.601 212.196 71.04 210.986 70.798L209.446 70.479C208.489 70.292 208.049 70.017 208.049 69.236C208.049 68.411 208.731 67.773 209.875 67.773C210.997 67.773 211.767 68.279 211.899 69.159H212.812C212.658 67.74 211.547 67.014 209.864 67.014C208.236 67.014 207.125 67.982 207.125 69.269C207.125 70.622 208.071 71.106 209.127 71.304L210.623 71.601C211.69 71.799 212.053 72.228 212.053 72.888C212.053 73.834 211.228 74.373 210.106 74.373C208.94 74.373 207.906 73.944 207.785 72.679H206.872ZM217.853 75H218.766C218.656 74.637 218.634 74.252 218.634 73.845V71.304C218.634 69.973 217.798 69.335 216.456 69.335C215.279 69.335 214.399 69.973 214.289 71.095H215.169C215.235 70.457 215.697 70.072 216.434 70.072C217.193 70.072 217.732 70.446 217.732 71.326V71.645L215.95 71.876C214.828 72.008 214.036 72.47 214.036 73.537C214.036 74.56 214.861 75.121 215.829 75.121C216.753 75.121 217.512 74.714 217.754 74.065C217.754 74.329 217.787 74.692 217.853 75ZM216.016 74.428C215.323 74.428 214.96 74.032 214.96 73.515C214.96 72.767 215.532 72.591 216.225 72.492L217.732 72.327V72.822C217.732 73.889 216.874 74.428 216.016 74.428ZM221.835 75H222.858L224.981 69.467H224.068L222.363 74.098H222.341L220.559 69.467H219.624L221.835 75ZM226.102 68.312H227.136V67.201H226.102V68.312ZM226.168 75H227.081V69.467H226.168V75ZM229.807 69.467H228.927V75H229.84V71.953C229.84 70.622 230.511 70.083 231.358 70.083C232.227 70.083 232.678 70.611 232.678 71.634V75H233.591V71.436C233.591 70.116 232.854 69.335 231.611 69.335C230.764 69.335 230.071 69.797 229.807 70.479V69.467ZM239.252 74.648C239.252 75.803 238.636 76.386 237.547 76.386C236.799 76.386 236.216 76.166 236.029 75.473H235.105C235.325 76.551 236.227 77.09 237.558 77.09C239.032 77.09 240.176 76.342 240.176 74.582V69.467H239.285V70.435C239.021 69.907 238.383 69.335 237.415 69.335C235.996 69.335 234.962 70.446 234.962 72.107C234.962 73.834 235.996 74.901 237.415 74.901C238.383 74.901 238.999 74.373 239.252 73.834V74.648ZM239.318 72.239C239.318 73.383 238.603 74.175 237.58 74.175C236.502 74.175 235.864 73.328 235.864 72.107C235.864 70.875 236.502 70.05 237.58 70.05C238.603 70.05 239.318 70.831 239.318 71.975V72.239ZM241.554 73.361C241.653 74.549 242.643 75.132 243.963 75.132C245.206 75.132 246.119 74.417 246.119 73.449C246.119 72.558 245.591 72.118 244.689 71.942L243.589 71.733C242.951 71.612 242.621 71.414 242.621 70.941C242.621 70.402 243.094 70.039 243.831 70.039C244.59 70.039 245.085 70.369 245.151 70.93H245.998C245.888 69.885 245.107 69.335 243.831 69.335C242.61 69.335 241.774 70.061 241.774 70.996C241.774 71.964 242.423 72.327 243.314 72.492L244.293 72.69C244.997 72.822 245.261 73.086 245.261 73.493C245.261 74.087 244.711 74.439 243.952 74.439C243.204 74.439 242.5 74.12 242.434 73.361H241.554Z" fill="#625451"/>
<path d="M177.248 109H191.072V107.092H185.384V86.14H184.124C183.512 88.876 182.432 89.488 178.544 89.488H177.68V91.108H183.116V107.092H177.248V109ZM209.67 102.88C209.67 105.94 207.402 107.596 204.018 107.596C200.202 107.596 197.79 105.508 197.682 101.512L195.45 101.368C195.45 106.408 198.726 109.432 203.982 109.432C208.914 109.432 211.938 106.696 211.938 103.06C211.938 100.036 209.742 97.912 207.042 97.552C209.274 97.192 211.506 95.14 211.506 92.188C211.506 88.444 208.806 85.888 203.91 85.888C198.978 85.888 195.882 89.2 195.882 93.88L198.114 93.988C198.114 89.956 200.382 87.724 203.91 87.724C207.438 87.724 209.238 89.632 209.238 92.332C209.238 95.644 206.79 96.652 204.126 96.652C202.974 96.652 202.362 96.616 201.822 96.544V98.596C202.362 98.524 203.082 98.452 204.126 98.452C207.294 98.452 209.67 100.036 209.67 102.88ZM217.252 109H220.132V106.12H217.252V109ZM232.617 107.632C229.197 107.632 227.541 105.544 227.073 102.556L224.877 102.664C225.237 106.84 228.225 109.432 232.617 109.432C238.917 109.432 241.833 104.284 241.833 97.12C241.833 90.28 238.701 85.888 232.761 85.888C227.685 85.888 224.625 89.164 224.625 93.772C224.625 98.308 227.721 101.548 232.617 101.548C236.685 101.548 239.097 99.172 239.817 96.184C239.961 102.844 237.801 107.632 232.617 107.632ZM238.953 93.7C238.953 97.3 236.757 99.604 232.905 99.604C229.053 99.604 226.857 97.3 226.857 93.7C226.857 90.136 229.053 87.76 232.761 87.76C236.577 87.76 238.953 90.136 238.953 93.7ZM247.147 103.132L249.595 101.08L256.327 109H258.991L251.215 99.856L258.631 93.376H255.751L247.147 100.936V86.32H244.951V109H247.147V103.132Z" fill="#E1AB54"/>
<path d="M162.816 94.4C162.816 96.624 164.32 97.952 166.448 98.16V99.632H167.344V98.176C169.328 98.08 170.784 97.04 170.784 95.264C170.784 93.648 169.856 92.88 168.032 92.528L167.344 92.4V88.864C168.56 89.104 169.296 90 169.344 91.408L170.576 91.344C170.56 89.312 169.376 88.016 167.344 87.776V86.336H166.448V87.728C164.368 87.792 163.104 88.928 163.104 90.64C163.104 92.208 164.128 93.056 165.6 93.328L166.448 93.504V97.088C165.088 96.88 164.112 95.936 164.048 94.32L162.816 94.4ZM167.584 93.712C168.88 93.968 169.456 94.432 169.456 95.36C169.456 96.4 168.624 97.056 167.344 97.136V93.664L167.584 93.712ZM164.4 90.56C164.4 89.456 165.12 88.832 166.448 88.784V92.224L166.24 92.176C165.088 91.952 164.4 91.568 164.4 90.56Z" fill="#E1AB54"/>
<rect x="13.0005" y="133" width="281" height="293" fill="white"/>
<rect x="28.0005" y="202" width="245" height="5" rx="2.5" fill="#E2DDD8"/>
<rect x="28.0005" y="202" width="190.669" height="5" rx="2.5" fill="#72987F"/>
<path d="M42.1255 75V71.744L45.1285 67.146H44.0835L41.7075 70.897H41.6855L39.2325 67.146H38.1875L41.1795 71.744V75H42.1255ZM50.2303 72.239C50.2303 70.457 49.1303 69.335 47.6013 69.335C46.0723 69.335 44.9723 70.457 44.9723 72.239C44.9723 74.021 46.0723 75.132 47.6013 75.132C49.1303 75.132 50.2303 74.021 50.2303 72.239ZM45.8743 72.239C45.8743 70.908 46.5233 70.072 47.6013 70.072C48.6793 70.072 49.3283 70.908 49.3283 72.239C49.3283 73.57 48.6793 74.395 47.6013 74.395C46.5233 74.395 45.8743 73.57 45.8743 72.239ZM56.2256 75V69.467H55.3016V72.514C55.3016 73.845 54.6746 74.417 53.8386 74.417C52.9696 74.417 52.5406 73.878 52.5406 72.855V69.467H51.6166V73.031C51.6166 74.373 52.3206 75.132 53.5746 75.132C54.4106 75.132 55.0706 74.692 55.3346 73.999V75H56.2256ZM61.1404 69.39C61.0084 69.357 60.8544 69.346 60.7114 69.346C59.8974 69.346 59.1934 69.863 58.9514 70.776V69.467H58.0714V75H58.9844V72.272C58.9844 70.875 59.7874 70.182 60.6674 70.182C60.8104 70.182 61.0084 70.193 61.1404 70.226V69.39ZM64.0066 72.679C64.1166 74.395 65.5466 75.132 67.2516 75.132C68.9126 75.132 70.1006 74.186 70.1006 72.844C70.1006 71.601 69.3306 71.04 68.1206 70.798L66.5806 70.479C65.6236 70.292 65.1836 70.017 65.1836 69.236C65.1836 68.411 65.8656 67.773 67.0096 67.773C68.1316 67.773 68.9016 68.279 69.0336 69.159H69.9466C69.7926 67.74 68.6816 67.014 66.9986 67.014C65.3706 67.014 64.2596 67.982 64.2596 69.269C64.2596 70.622 65.2056 71.106 66.2616 71.304L67.7576 71.601C68.8246 71.799 69.1876 72.228 69.1876 72.888C69.1876 73.834 68.3626 74.373 67.2406 74.373C66.0746 74.373 65.0406 73.944 64.9196 72.679H64.0066ZM74.9868 75H75.8998C75.7898 74.637 75.7678 74.252 75.7678 73.845V71.304C75.7678 69.973 74.9318 69.335 73.5898 69.335C72.4128 69.335 71.5328 69.973 71.4228 71.095H72.3028C72.3688 70.457 72.8308 70.072 73.5678 70.072C74.3268 70.072 74.8658 70.446 74.8658 71.326V71.645L73.0838 71.876C71.9618 72.008 71.1698 72.47 71.1698 73.537C71.1698 74.56 71.9948 75.121 72.9628 75.121C73.8868 75.121 74.6458 74.714 74.8878 74.065C74.8878 74.329 74.9208 74.692 74.9868 75ZM73.1498 74.428C72.4568 74.428 72.0938 74.032 72.0938 73.515C72.0938 72.767 72.6658 72.591 73.3588 72.492L74.8658 72.327V72.822C74.8658 73.889 74.0078 74.428 73.1498 74.428ZM78.9692 75H79.9922L82.1152 69.467H81.2022L79.4972 74.098H79.4752L77.6932 69.467H76.7582L78.9692 75ZM83.2366 68.312H84.2706V67.201H83.2366V68.312ZM83.3026 75H84.2156V69.467H83.3026V75ZM86.9408 69.467H86.0608V75H86.9738V71.953C86.9738 70.622 87.6448 70.083 88.4918 70.083C89.3608 70.083 89.8118 70.611 89.8118 71.634V75H90.7248V71.436C90.7248 70.116 89.9878 69.335 88.7448 69.335C87.8978 69.335 87.2048 69.797 86.9408 70.479V69.467ZM96.3863 74.648C96.3863 75.803 95.7703 76.386 94.6813 76.386C93.9333 76.386 93.3503 76.166 93.1633 75.473H92.2393C92.4593 76.551 93.3613 77.09 94.6923 77.09C96.1663 77.09 97.3103 76.342 97.3103 74.582V69.467H96.4193V70.435C96.1553 69.907 95.5173 69.335 94.5493 69.335C93.1303 69.335 92.0963 70.446 92.0963 72.107C92.0963 73.834 93.1303 74.901 94.5493 74.901C95.5173 74.901 96.1333 74.373 96.3863 73.834V74.648ZM96.4523 72.239C96.4523 73.383 95.7373 74.175 94.7143 74.175C93.6363 74.175 92.9983 73.328 92.9983 72.107C92.9983 70.875 93.6363 70.05 94.7143 70.05C95.7373 70.05 96.4523 70.831 96.4523 71.975V72.239ZM98.6881 73.361C98.7871 74.549 99.7771 75.132 101.097 75.132C102.34 75.132 103.253 74.417 103.253 73.449C103.253 72.558 102.725 72.118 101.823 71.942L100.723 71.733C100.085 71.612 99.7551 71.414 99.7551 70.941C99.7551 70.402 100.228 70.039 100.965 70.039C101.724 70.039 102.219 70.369 102.285 70.93H103.132C103.022 69.885 102.241 69.335 100.965 69.335C99.7441 69.335 98.9081 70.061 98.9081 70.996C98.9081 71.964 99.5571 72.327 100.448 72.492L101.427 72.69C102.131 72.822 102.395 73.086 102.395 73.493C102.395 74.087 101.845 74.439 101.086 74.439C100.338 74.439 99.6341 74.12 99.5681 73.361H98.6881Z" fill="#625451"/>
<path d="M47.2485 109H61.0725V107.092H55.3845V86.14H54.1245C53.5125 88.876 52.4325 89.488 48.5445 89.488H47.6805V91.108H53.1165V107.092H47.2485V109ZM83.1264 97.66C83.1264 90.136 79.8144 85.888 73.9464 85.888C68.0784 85.888 64.7664 90.136 64.7664 97.66C64.7664 105.184 68.0784 109.432 73.9464 109.432C79.8144 109.432 83.1264 105.184 83.1264 97.66ZM80.7504 97.66C80.7504 104.248 78.5184 107.596 73.9464 107.596C69.3744 107.596 67.1424 104.248 67.1424 97.66C67.1424 91.072 69.3744 87.724 73.9464 87.724C78.5184 87.724 80.7504 91.072 80.7504 97.66ZM87.2524 109H90.1324V106.12H87.2524V109ZM108.737 88.408C104.201 93.124 101.105 100.792 100.997 109H103.445C103.517 101.116 105.821 93.34 111.401 87.436V86.32H95.1653V88.408H108.737ZM117.147 103.132L119.595 101.08L126.327 109H128.991L121.215 99.856L128.631 93.376H125.751L117.147 100.936V86.32H114.951V109H117.147V103.132Z" fill="#72987F"/>
<path d="M35.8165 94.4C35.8165 96.624 37.3205 97.952 39.4485 98.16V99.632H40.3445V98.176C42.3285 98.08 43.7845 97.04 43.7845 95.264C43.7845 93.648 42.8565 92.88 41.0325 92.528L40.3445 92.4V88.864C41.5605 89.104 42.2965 90 42.3445 91.408L43.5765 91.344C43.5605 89.312 42.3765 88.016 40.3445 87.776V86.336H39.4485V87.728C37.3685 87.792 36.1045 88.928 36.1045 90.64C36.1045 92.208 37.1285 93.056 38.6005 93.328L39.4485 93.504V97.088C38.0885 96.88 37.1125 95.936 37.0485 94.32L35.8165 94.4ZM40.5845 93.712C41.8805 93.968 42.4565 94.432 42.4565 95.36C42.4565 96.4 41.6245 97.056 40.3445 97.136V93.664L40.5845 93.712ZM37.4005 90.56C37.4005 89.456 38.1205 88.832 39.4485 88.784V92.224L39.2405 92.176C38.0885 91.952 37.4005 91.568 37.4005 90.56Z" fill="#72987F"/>
<line x1="13.0005" y1="132.875" x2="294" y2="132.875" stroke="#CECCCA" stroke-width="0.25"/>
<line x1="13.0005" y1="266.875" x2="294" y2="266.875" stroke="#CECCCA" stroke-width="0.25"/>
<path d="M53.6115 286.257C53.7415 288.285 55.4315 289.156 57.4465 289.156C59.4095 289.156 60.8135 288.038 60.8135 286.452C60.8135 284.983 59.9035 284.32 58.4735 284.034L56.6535 283.657C55.5225 283.436 55.0025 283.111 55.0025 282.188C55.0025 281.213 55.8085 280.459 57.1605 280.459C58.4865 280.459 59.3965 281.057 59.5525 282.097H60.6315C60.4495 280.42 59.1365 279.562 57.1475 279.562C55.2235 279.562 53.9105 280.706 53.9105 282.227C53.9105 283.826 55.0285 284.398 56.2765 284.632L58.0445 284.983C59.3055 285.217 59.7345 285.724 59.7345 286.504C59.7345 287.622 58.7595 288.259 57.4335 288.259C56.0555 288.259 54.8335 287.752 54.6905 286.257H53.6115ZM66.7181 289H67.7971C67.6671 288.571 67.6411 288.116 67.6411 287.635V284.632C67.6411 283.059 66.6531 282.305 65.0671 282.305C63.6761 282.305 62.6361 283.059 62.5061 284.385H63.5461C63.6241 283.631 64.1701 283.176 65.0411 283.176C65.9381 283.176 66.5751 283.618 66.5751 284.658V285.035L64.4691 285.308C63.1431 285.464 62.2071 286.01 62.2071 287.271C62.2071 288.48 63.1821 289.143 64.3261 289.143C65.4181 289.143 66.3151 288.662 66.6011 287.895C66.6011 288.207 66.6401 288.636 66.7181 289ZM64.5471 288.324C63.7281 288.324 63.2991 287.856 63.2991 287.245C63.2991 286.361 63.9751 286.153 64.7941 286.036L66.5751 285.841V286.426C66.5751 287.687 65.5611 288.324 64.5471 288.324ZM71.5546 289H72.7636L75.2726 282.461H74.1936L72.1786 287.934H72.1526L70.0466 282.461H68.9416L71.5546 289ZM81.9591 287.076H80.9451C80.6721 287.869 80.1391 288.298 79.2551 288.298C78.0071 288.298 77.2141 287.466 77.1621 285.958H81.9981V285.529C81.9981 283.852 81.1271 282.305 79.1901 282.305C77.4481 282.305 76.1091 283.631 76.1091 285.763C76.1091 287.869 77.4091 289.156 79.2551 289.156C80.5291 289.156 81.6601 288.467 81.9591 287.076ZM79.1901 283.176C80.3601 283.176 80.9191 284.047 80.9451 285.178H77.2011C77.3831 283.839 78.1631 283.176 79.1901 283.176ZM93.2228 286.452C93.2228 284.996 92.3388 284.307 90.9478 284.021L90.1938 283.878V280.524C91.2208 280.654 91.8838 281.174 92.0008 282.084H93.0278C92.8718 280.589 91.8188 279.757 90.1938 279.601V278.353H89.4138V279.575C87.6458 279.653 86.4628 280.745 86.4628 282.214C86.4628 283.813 87.5418 284.385 88.7638 284.632L89.4138 284.762V288.22C88.2698 288.09 87.3208 287.505 87.2038 286.27H86.1638C86.2678 288.012 87.6978 288.961 89.4138 289.104V290.417H90.1938V289.117C91.9618 289.013 93.2228 287.921 93.2228 286.452ZM89.1018 283.657C87.9968 283.436 87.4898 283.098 87.4898 282.175C87.4898 281.252 88.1918 280.563 89.4138 280.498V283.722L89.1018 283.657ZM90.5318 284.97C91.7798 285.204 92.1828 285.724 92.1828 286.504C92.1828 287.518 91.3898 288.142 90.1938 288.233V284.905L90.5318 284.97ZM94.344 281.837H96.294V289H97.412V279.679H96.723C96.502 280.641 95.93 281.083 94.344 281.083V281.837ZM99.4691 284.359C99.4691 287.141 100.912 289.156 103.161 289.156C105.423 289.156 106.853 287.141 106.853 284.359C106.853 281.577 105.423 279.562 103.161 279.562C100.912 279.562 99.4691 281.577 99.4691 284.359ZM100.613 284.359C100.613 282.084 101.471 280.524 103.161 280.524C104.864 280.524 105.722 282.084 105.722 284.359C105.722 286.634 104.864 288.194 103.161 288.194C101.471 288.194 100.613 286.634 100.613 284.359ZM108.281 288.987H108.905V289.221C108.905 290.079 108.528 290.378 107.865 290.378V291.041C109.048 291.041 109.698 290.3 109.698 289.221V287.583H108.281V288.987ZM111.111 284.359C111.111 287.141 112.554 289.156 114.803 289.156C117.065 289.156 118.495 287.141 118.495 284.359C118.495 281.577 117.065 279.562 114.803 279.562C112.554 279.562 111.111 281.577 111.111 284.359ZM112.255 284.359C112.255 282.084 113.113 280.524 114.803 280.524C116.506 280.524 117.364 282.084 117.364 284.359C117.364 286.634 116.506 288.194 114.803 288.194C113.113 288.194 112.255 286.634 112.255 284.359ZM119.909 284.359C119.909 287.141 121.352 289.156 123.601 289.156C125.863 289.156 127.293 287.141 127.293 284.359C127.293 281.577 125.863 279.562 123.601 279.562C121.352 279.562 119.909 281.577 119.909 284.359ZM121.053 284.359C121.053 282.084 121.911 280.524 123.601 280.524C125.304 280.524 126.162 282.084 126.162 284.359C126.162 286.634 125.304 288.194 123.601 288.194C121.911 288.194 121.053 286.634 121.053 284.359ZM128.706 284.359C128.706 287.141 130.149 289.156 132.398 289.156C134.66 289.156 136.09 287.141 136.09 284.359C136.09 281.577 134.66 279.562 132.398 279.562C130.149 279.562 128.706 281.577 128.706 284.359ZM129.85 284.359C129.85 282.084 130.708 280.524 132.398 280.524C134.101 280.524 134.959 282.084 134.959 284.359C134.959 286.634 134.101 288.194 132.398 288.194C130.708 288.194 129.85 286.634 129.85 284.359Z" fill="#625451"/>
<path d="M245.725 286.452C245.725 284.996 244.841 284.307 243.45 284.021L242.696 283.878V280.524C243.723 280.654 244.386 281.174 244.503 282.084H245.53C245.374 280.589 244.321 279.757 242.696 279.601V278.353H241.916V279.575C240.148 279.653 238.965 280.745 238.965 282.214C238.965 283.813 240.044 284.385 241.266 284.632L241.916 284.762V288.22C240.772 288.09 239.823 287.505 239.706 286.27H238.666C238.77 288.012 240.2 288.961 241.916 289.104V290.417H242.696V289.117C244.464 289.013 245.725 287.921 245.725 286.452ZM241.604 283.657C240.499 283.436 239.992 283.098 239.992 282.175C239.992 281.252 240.694 280.563 241.916 280.498V283.722L241.604 283.657ZM243.034 284.97C244.282 285.204 244.685 285.724 244.685 286.504C244.685 287.518 243.892 288.142 242.696 288.233V284.905L243.034 284.97ZM250.512 283.735C251.981 283.735 252.67 284.801 252.67 285.984C252.67 287.167 251.981 288.246 250.525 288.246C249.212 288.246 248.354 287.427 248.263 286.244H247.158C247.301 288.038 248.64 289.156 250.512 289.156C252.54 289.156 253.749 287.752 253.749 285.984C253.749 284.229 252.54 282.825 250.603 282.825C249.745 282.825 248.939 283.241 248.549 283.735L248.861 280.667H253.281V279.718H248.055L247.535 284.775H248.536C248.887 284.216 249.537 283.735 250.512 283.735ZM255.107 284.359C255.107 287.141 256.55 289.156 258.799 289.156C261.061 289.156 262.491 287.141 262.491 284.359C262.491 281.577 261.061 279.562 258.799 279.562C256.55 279.562 255.107 281.577 255.107 284.359ZM256.251 284.359C256.251 282.084 257.109 280.524 258.799 280.524C260.502 280.524 261.36 282.084 261.36 284.359C261.36 286.634 260.502 288.194 258.799 288.194C257.109 288.194 256.251 286.634 256.251 284.359ZM263.905 284.359C263.905 287.141 265.348 289.156 267.597 289.156C269.859 289.156 271.289 287.141 271.289 284.359C271.289 281.577 269.859 279.562 267.597 279.562C265.348 279.562 263.905 281.577 263.905 284.359ZM265.049 284.359C265.049 282.084 265.907 280.524 267.597 280.524C269.3 280.524 270.158 282.084 270.158 284.359C270.158 286.634 269.3 288.194 267.597 288.194C265.907 288.194 265.049 286.634 265.049 284.359Z" fill="#E1AB54"/>
<line x1="13.0005" y1="300.875" x2="294" y2="300.875" stroke="#CECCCA" stroke-width="0.25"/>
<path d="M53.6115 373.257C53.7415 375.285 55.4315 376.156 57.4465 376.156C59.4095 376.156 60.8135 375.038 60.8135 373.452C60.8135 371.983 59.9035 371.32 58.4735 371.034L56.6535 370.657C55.5225 370.436 55.0025 370.111 55.0025 369.188C55.0025 368.213 55.8085 367.459 57.1605 367.459C58.4865 367.459 59.3965 368.057 59.5525 369.097H60.6315C60.4495 367.42 59.1365 366.562 57.1475 366.562C55.2235 366.562 53.9105 367.706 53.9105 369.227C53.9105 370.826 55.0285 371.398 56.2765 371.632L58.0445 371.983C59.3055 372.217 59.7345 372.724 59.7345 373.504C59.7345 374.622 58.7595 375.259 57.4335 375.259C56.0555 375.259 54.8335 374.752 54.6905 373.257H53.6115ZM66.7181 376H67.7971C67.6671 375.571 67.6411 375.116 67.6411 374.635V371.632C67.6411 370.059 66.6531 369.305 65.0671 369.305C63.6761 369.305 62.6361 370.059 62.5061 371.385H63.5461C63.6241 370.631 64.1701 370.176 65.0411 370.176C65.9381 370.176 66.5751 370.618 66.5751 371.658V372.035L64.4691 372.308C63.1431 372.464 62.2071 373.01 62.2071 374.271C62.2071 375.48 63.1821 376.143 64.3261 376.143C65.4181 376.143 66.3151 375.662 66.6011 374.895C66.6011 375.207 66.6401 375.636 66.7181 376ZM64.5471 375.324C63.7281 375.324 63.2991 374.856 63.2991 374.245C63.2991 373.361 63.9751 373.153 64.7941 373.036L66.5751 372.841V373.426C66.5751 374.687 65.5611 375.324 64.5471 375.324ZM71.5546 376H72.7636L75.2726 369.461H74.1936L72.1786 374.934H72.1526L70.0466 369.461H68.9416L71.5546 376ZM81.9591 374.076H80.9451C80.6721 374.869 80.1391 375.298 79.2551 375.298C78.0071 375.298 77.2141 374.466 77.1621 372.958H81.9981V372.529C81.9981 370.852 81.1271 369.305 79.1901 369.305C77.4481 369.305 76.1091 370.631 76.1091 372.763C76.1091 374.869 77.4091 376.156 79.2551 376.156C80.5291 376.156 81.6601 375.467 81.9591 374.076ZM79.1901 370.176C80.3601 370.176 80.9191 371.047 80.9451 372.178H77.2011C77.3831 370.839 78.1631 370.176 79.1901 370.176ZM93.2228 373.452C93.2228 371.996 92.3388 371.307 90.9478 371.021L90.1938 370.878V367.524C91.2208 367.654 91.8838 368.174 92.0008 369.084H93.0278C92.8718 367.589 91.8188 366.757 90.1938 366.601V365.353H89.4138V366.575C87.6458 366.653 86.4628 367.745 86.4628 369.214C86.4628 370.813 87.5418 371.385 88.7638 371.632L89.4138 371.762V375.22C88.2698 375.09 87.3208 374.505 87.2038 373.27H86.1638C86.2678 375.012 87.6978 375.961 89.4138 376.104V377.417H90.1938V376.117C91.9618 376.013 93.2228 374.921 93.2228 373.452ZM89.1018 370.657C87.9968 370.436 87.4898 370.098 87.4898 369.175C87.4898 368.252 88.1918 367.563 89.4138 367.498V370.722L89.1018 370.657ZM90.5318 371.97C91.7798 372.204 92.1828 372.724 92.1828 373.504C92.1828 374.518 91.3898 375.142 90.1938 375.233V371.905L90.5318 371.97ZM99.674 367.667C97.919 369.903 96.736 372.711 96.697 376H97.867C97.906 372.841 98.686 370.189 100.896 367.511V366.718H94.37V367.667H99.674ZM101.603 375.987H102.227V376.221C102.227 377.079 101.85 377.378 101.187 377.378V378.041C102.37 378.041 103.02 377.3 103.02 376.221V374.583H101.603V375.987ZM108.154 370.735C109.623 370.735 110.312 371.801 110.312 372.984C110.312 374.167 109.623 375.246 108.167 375.246C106.854 375.246 105.996 374.427 105.905 373.244H104.8C104.943 375.038 106.282 376.156 108.154 376.156C110.182 376.156 111.391 374.752 111.391 372.984C111.391 371.229 110.182 369.825 108.245 369.825C107.387 369.825 106.581 370.241 106.191 370.735L106.503 367.667H110.923V366.718H105.697L105.177 371.775H106.178C106.529 371.216 107.179 370.735 108.154 370.735ZM112.748 371.359C112.748 374.141 114.191 376.156 116.44 376.156C118.702 376.156 120.132 374.141 120.132 371.359C120.132 368.577 118.702 366.562 116.44 366.562C114.191 366.562 112.748 368.577 112.748 371.359ZM113.892 371.359C113.892 369.084 114.75 367.524 116.44 367.524C118.143 367.524 119.001 369.084 119.001 371.359C119.001 373.634 118.143 375.194 116.44 375.194C114.75 375.194 113.892 373.634 113.892 371.359ZM121.546 371.359C121.546 374.141 122.989 376.156 125.238 376.156C127.5 376.156 128.93 374.141 128.93 371.359C128.93 368.577 127.5 366.562 125.238 366.562C122.989 366.562 121.546 368.577 121.546 371.359ZM122.69 371.359C122.69 369.084 123.548 367.524 125.238 367.524C126.941 367.524 127.799 369.084 127.799 371.359C127.799 373.634 126.941 375.194 125.238 375.194C123.548 375.194 122.69 373.634 122.69 371.359Z" fill="#625451"/>
<path d="M247.083 373.452C247.083 371.996 246.199 371.307 244.808 371.021L244.054 370.878V367.524C245.081 367.654 245.744 368.174 245.861 369.084H246.888C246.732 367.589 245.679 366.757 244.054 366.601V365.353H243.274V366.575C241.506 366.653 240.323 367.745 240.323 369.214C240.323 370.813 241.402 371.385 242.624 371.632L243.274 371.762V375.22C242.13 375.09 241.181 374.505 241.064 373.27H240.024C240.128 375.012 241.558 375.961 243.274 376.104V377.417H244.054V376.117C245.822 376.013 247.083 374.921 247.083 373.452ZM242.962 370.657C241.857 370.436 241.35 370.098 241.35 369.175C241.35 368.252 242.052 367.563 243.274 367.498V370.722L242.962 370.657ZM244.392 371.97C245.64 372.204 246.043 372.724 246.043 373.504C246.043 374.518 245.25 375.142 244.054 375.233V371.905L244.392 371.97ZM254.678 369.266C254.678 367.888 253.69 366.562 251.74 366.562C249.79 366.562 248.672 367.94 248.581 369.578H249.634C249.712 368.46 250.453 367.498 251.727 367.498C253.105 367.498 253.612 368.382 253.612 369.266C253.612 370.345 252.611 371.034 251.376 371.827C249.998 372.685 248.399 373.842 248.399 375.493V376H254.769V375.064H249.595C249.595 374.219 250.713 373.439 251.844 372.685C253.235 371.788 254.678 371.008 254.678 369.266ZM259.31 370.735C260.779 370.735 261.468 371.801 261.468 372.984C261.468 374.167 260.779 375.246 259.323 375.246C258.01 375.246 257.152 374.427 257.061 373.244H255.956C256.099 375.038 257.438 376.156 259.31 376.156C261.338 376.156 262.547 374.752 262.547 372.984C262.547 371.229 261.338 369.825 259.401 369.825C258.543 369.825 257.737 370.241 257.347 370.735L257.659 367.667H262.079V366.718H256.853L256.333 371.775H257.334C257.685 371.216 258.335 370.735 259.31 370.735ZM263.905 371.359C263.905 374.141 265.348 376.156 267.597 376.156C269.859 376.156 271.289 374.141 271.289 371.359C271.289 368.577 269.859 366.562 267.597 366.562C265.348 366.562 263.905 368.577 263.905 371.359ZM265.049 371.359C265.049 369.084 265.907 367.524 267.597 367.524C269.3 367.524 270.158 369.084 270.158 371.359C270.158 373.634 269.3 375.194 267.597 375.194C265.907 375.194 265.049 373.634 265.049 371.359Z" fill="#E1AB54"/>
<path d="M54.7945 318.346C54.7945 316.032 55.8995 314.511 57.8105 314.511C59.3705 314.511 60.0465 315.382 60.2545 316.422H61.3465C61.0475 314.732 59.8385 313.562 57.8105 313.562C55.4185 313.562 53.6505 315.434 53.6505 318.346C53.6505 321.271 55.4185 323.156 57.8105 323.156C59.8385 323.156 61.0475 321.986 61.3465 320.296H60.2545C60.0465 321.336 59.3705 322.207 57.8105 322.207C55.8995 322.207 54.7945 320.66 54.7945 318.346ZM68.8026 319.737C68.8026 317.631 67.5026 316.305 65.6956 316.305C63.8886 316.305 62.5886 317.631 62.5886 319.737C62.5886 321.843 63.8886 323.156 65.6956 323.156C67.5026 323.156 68.8026 321.843 68.8026 319.737ZM63.6546 319.737C63.6546 318.164 64.4216 317.176 65.6956 317.176C66.9696 317.176 67.7366 318.164 67.7366 319.737C67.7366 321.31 66.9696 322.285 65.6956 322.285C64.4216 322.285 63.6546 321.31 63.6546 319.737ZM75.732 317.709C75.446 316.838 74.848 316.305 73.743 316.305C72.794 316.305 71.988 316.825 71.676 317.657V316.461H70.636V323H71.715V319.399C71.715 317.891 72.456 317.189 73.444 317.189C74.432 317.189 74.861 317.8 74.861 319.022V323H75.953V319.399C75.953 317.891 76.694 317.189 77.669 317.189C78.644 317.189 79.086 317.8 79.086 319.022V323H80.178V318.788C80.178 317.254 79.437 316.305 77.929 316.305C76.967 316.305 76.135 316.825 75.732 317.709ZM83.4963 321.856C83.8213 322.519 84.5883 323.156 85.6673 323.156C87.3313 323.156 88.5793 321.804 88.5793 319.737C88.5793 317.657 87.3313 316.305 85.6673 316.305C84.5363 316.305 83.7563 316.994 83.4573 317.657V316.461H82.4173V325.314H83.4963V321.856ZM83.4443 319.633C83.4443 318.151 84.1723 317.15 85.4463 317.15C86.7333 317.15 87.4873 318.203 87.4873 319.737C87.4873 321.258 86.7333 322.311 85.4463 322.311C84.1723 322.311 83.4443 321.297 83.4443 319.815V319.633ZM91.4943 323V313.432H90.4153V323H91.4943ZM99.1739 321.076H98.1599C97.8869 321.869 97.3539 322.298 96.4699 322.298C95.2219 322.298 94.4289 321.466 94.3769 319.958H99.2129V319.529C99.2129 317.852 98.3419 316.305 96.4049 316.305C94.6629 316.305 93.3239 317.631 93.3239 319.763C93.3239 321.869 94.6239 323.156 96.4699 323.156C97.7439 323.156 98.8749 322.467 99.1739 321.076ZM96.4049 317.176C97.5749 317.176 98.1339 318.047 98.1599 319.178H94.4159C94.5979 317.839 95.3779 317.176 96.4049 317.176ZM104.083 322.038C103.667 322.168 103.381 322.194 103.134 322.194C102.536 322.194 102.185 321.96 102.185 321.271V317.28H103.914V316.461H102.198V314.797H101.132V316.461H100.17V317.28H101.132V321.323C101.132 322.532 101.743 323.104 102.939 323.104C103.225 323.104 103.602 323.065 104.083 322.922V322.038ZM111.133 321.076H110.119C109.846 321.869 109.313 322.298 108.429 322.298C107.181 322.298 106.388 321.466 106.336 319.958H111.172V319.529C111.172 317.852 110.301 316.305 108.364 316.305C106.622 316.305 105.283 317.631 105.283 319.763C105.283 321.869 106.583 323.156 108.429 323.156C109.703 323.156 110.834 322.467 111.133 321.076ZM108.364 317.176C109.534 317.176 110.093 318.047 110.119 319.178H106.375C106.557 317.839 107.337 317.176 108.364 317.176ZM117.652 323.052C117.223 324.157 116.924 324.521 116.274 324.521C116.105 324.521 115.962 324.521 115.754 324.469V325.353C115.962 325.392 116.209 325.418 116.391 325.418C117.587 325.405 118.107 324.755 118.705 323.195L121.344 316.461H120.226L118.263 321.804H118.237L116.157 316.461H115.026L117.652 323.052ZM128.382 319.737C128.382 317.631 127.082 316.305 125.275 316.305C123.468 316.305 122.168 317.631 122.168 319.737C122.168 321.843 123.468 323.156 125.275 323.156C127.082 323.156 128.382 321.843 128.382 319.737ZM123.234 319.737C123.234 318.164 124.001 317.176 125.275 317.176C126.549 317.176 127.316 318.164 127.316 319.737C127.316 321.31 126.549 322.285 125.275 322.285C124.001 322.285 123.234 321.31 123.234 319.737ZM135.597 323V316.461H134.505V320.062C134.505 321.635 133.764 322.311 132.776 322.311C131.749 322.311 131.242 321.674 131.242 320.465V316.461H130.15V320.673C130.15 322.259 130.982 323.156 132.464 323.156C133.452 323.156 134.232 322.636 134.544 321.817V323H135.597ZM141.535 316.37C141.379 316.331 141.197 316.318 141.028 316.318C140.066 316.318 139.234 316.929 138.948 318.008V316.461H137.908V323H138.987V319.776C138.987 318.125 139.936 317.306 140.976 317.306C141.145 317.306 141.379 317.319 141.535 317.358V316.37ZM55.2365 335.657V331.432H54.1575V341H55.2365V337.399C55.2365 335.826 56.0295 335.189 57.0305 335.189C58.0575 335.189 58.5905 335.813 58.5905 337.022V341H59.6695V336.788C59.6695 335.228 58.7985 334.305 57.3295 334.305C56.3285 334.305 55.5485 334.825 55.2365 335.657ZM67.6473 337.737C67.6473 335.631 66.3473 334.305 64.5403 334.305C62.7333 334.305 61.4333 335.631 61.4333 337.737C61.4333 339.843 62.7333 341.156 64.5403 341.156C66.3473 341.156 67.6473 339.843 67.6473 337.737ZM62.4993 337.737C62.4993 336.164 63.2663 335.176 64.5403 335.176C65.8143 335.176 66.5813 336.164 66.5813 337.737C66.5813 339.31 65.8143 340.285 64.5403 340.285C63.2663 340.285 62.4993 339.31 62.4993 337.737ZM74.5767 335.709C74.2907 334.838 73.6927 334.305 72.5877 334.305C71.6387 334.305 70.8327 334.825 70.5207 335.657V334.461H69.4807V341H70.5597V337.399C70.5597 335.891 71.3007 335.189 72.2887 335.189C73.2767 335.189 73.7057 335.8 73.7057 337.022V341H74.7977V337.399C74.7977 335.891 75.5387 335.189 76.5137 335.189C77.4887 335.189 77.9307 335.8 77.9307 337.022V341H79.0227V336.788C79.0227 335.254 78.2817 334.305 76.7737 334.305C75.8117 334.305 74.9797 334.825 74.5767 335.709ZM86.631 339.076H85.617C85.344 339.869 84.811 340.298 83.927 340.298C82.679 340.298 81.886 339.466 81.834 337.958H86.67V337.529C86.67 335.852 85.799 334.305 83.862 334.305C82.12 334.305 80.781 335.631 80.781 337.763C80.781 339.869 82.081 341.156 83.927 341.156C85.201 341.156 86.332 340.467 86.631 339.076ZM83.862 335.176C85.032 335.176 85.591 336.047 85.617 337.178H81.873C82.055 335.839 82.835 335.176 83.862 335.176ZM89.5383 339.856C89.8633 340.519 90.6693 341.156 91.7483 341.156C93.4123 341.156 94.6603 339.804 94.6603 337.737C94.6603 335.657 93.4123 334.305 91.7483 334.305C90.6173 334.305 89.8763 334.955 89.5773 335.618V331.432H88.4983V341H89.5383V339.856ZM89.5253 337.633C89.5253 336.151 90.2533 335.15 91.5273 335.15C92.8143 335.15 93.5683 336.203 93.5683 337.737C93.5683 339.258 92.8143 340.311 91.5273 340.311C90.2533 340.311 89.5253 339.297 89.5253 337.815V337.633ZM101.878 341V334.461H100.786V338.062C100.786 339.635 100.045 340.311 99.0574 340.311C98.0304 340.311 97.5234 339.674 97.5234 338.465V334.461H96.4314V338.673C96.4314 340.259 97.2634 341.156 98.7454 341.156C99.7334 341.156 100.513 340.636 100.825 339.817V341H101.878ZM106.023 341.052C105.594 342.157 105.295 342.521 104.645 342.521C104.476 342.521 104.333 342.521 104.125 342.469V343.353C104.333 343.392 104.58 343.418 104.762 343.418C105.958 343.405 106.478 342.755 107.076 341.195L109.715 334.461H108.597L106.634 339.804H106.608L104.528 334.461H103.397L106.023 341.052ZM116.389 339.076H115.375C115.102 339.869 114.569 340.298 113.685 340.298C112.437 340.298 111.644 339.466 111.592 337.958H116.428V337.529C116.428 335.852 115.557 334.305 113.62 334.305C111.878 334.305 110.539 335.631 110.539 337.763C110.539 339.869 111.839 341.156 113.685 341.156C114.959 341.156 116.09 340.467 116.389 339.076ZM113.62 335.176C114.79 335.176 115.349 336.047 115.375 337.178H111.631C111.813 335.839 112.593 335.176 113.62 335.176ZM121.883 334.37C121.727 334.331 121.545 334.318 121.376 334.318C120.414 334.318 119.582 334.929 119.296 336.008V334.461H118.256V341H119.335V337.776C119.335 336.125 120.284 335.306 121.324 335.306C121.493 335.306 121.727 335.319 121.883 335.358V334.37ZM123.972 332.706H124.635V332.888C124.635 333.733 124.232 334.045 123.569 334.045V334.695C124.739 334.695 125.389 333.954 125.389 332.875V331.432H123.972V332.706ZM126.406 339.063C126.523 340.467 127.693 341.156 129.253 341.156C130.722 341.156 131.801 340.311 131.801 339.167C131.801 338.114 131.177 337.594 130.111 337.386L128.811 337.139C128.057 336.996 127.667 336.762 127.667 336.203C127.667 335.566 128.226 335.137 129.097 335.137C129.994 335.137 130.579 335.527 130.657 336.19H131.658C131.528 334.955 130.605 334.305 129.097 334.305C127.654 334.305 126.666 335.163 126.666 336.268C126.666 337.412 127.433 337.841 128.486 338.036L129.643 338.27C130.475 338.426 130.787 338.738 130.787 339.219C130.787 339.921 130.137 340.337 129.24 340.337C128.356 340.337 127.524 339.96 127.446 339.063H126.406ZM137.566 339.856C137.891 340.519 138.658 341.156 139.737 341.156C141.401 341.156 142.649 339.804 142.649 337.737C142.649 335.657 141.401 334.305 139.737 334.305C138.606 334.305 137.826 334.994 137.527 335.657V334.461H136.487V343.314H137.566V339.856ZM137.514 337.633C137.514 336.151 138.242 335.15 139.516 335.15C140.803 335.15 141.557 336.203 141.557 337.737C141.557 339.258 140.803 340.311 139.516 340.311C138.242 340.311 137.514 339.297 137.514 337.815V337.633ZM148.112 334.37C147.956 334.331 147.774 334.318 147.605 334.318C146.643 334.318 145.811 334.929 145.525 336.008V334.461H144.485V341H145.564V337.776C145.564 336.125 146.513 335.306 147.553 335.306C147.722 335.306 147.956 335.319 148.112 335.358V334.37ZM155.093 337.737C155.093 335.631 153.793 334.305 151.986 334.305C150.179 334.305 148.879 335.631 148.879 337.737C148.879 339.843 150.179 341.156 151.986 341.156C153.793 341.156 155.093 339.843 155.093 337.737ZM149.945 337.737C149.945 336.164 150.712 335.176 151.986 335.176C153.26 335.176 154.027 336.164 154.027 337.737C154.027 339.31 153.26 340.285 151.986 340.285C150.712 340.285 149.945 339.31 149.945 337.737ZM157.095 335.28V341H158.161V335.28H159.565V334.461H158.161V333.252C158.161 332.511 158.59 332.277 159.058 332.277C159.292 332.277 159.552 332.29 159.721 332.316V331.458C159.526 331.419 159.227 331.393 158.993 331.393C157.875 331.393 157.095 332.017 157.095 333.239V334.461H156.146V335.28H157.095ZM160.885 333.096H162.107V331.783H160.885V333.096ZM160.963 341H162.042V334.461H160.963V341ZM165.432 341V331.432H164.353V341H165.432ZM173.111 339.076H172.097C171.824 339.869 171.291 340.298 170.407 340.298C169.159 340.298 168.366 339.466 168.314 337.958H173.15V337.529C173.15 335.852 172.279 334.305 170.342 334.305C168.6 334.305 167.261 335.631 167.261 337.763C167.261 339.869 168.561 341.156 170.407 341.156C171.681 341.156 172.812 340.467 173.111 339.076ZM170.342 335.176C171.512 335.176 172.071 336.047 172.097 337.178H168.353C168.535 335.839 169.315 335.176 170.342 335.176Z" fill="#625451"/>
<path d="M254.523 320.452C254.523 318.996 253.639 318.307 252.248 318.021L251.494 317.878V314.524C252.521 314.654 253.184 315.174 253.301 316.084H254.328C254.172 314.589 253.119 313.757 251.494 313.601V312.353H250.714V313.575C248.946 313.653 247.763 314.745 247.763 316.214C247.763 317.813 248.842 318.385 250.064 318.632L250.714 318.762V322.22C249.57 322.09 248.621 321.505 248.504 320.27H247.464C247.568 322.012 248.998 322.961 250.714 323.104V324.417H251.494V323.117C253.262 323.013 254.523 321.921 254.523 320.452ZM250.402 317.657C249.297 317.436 248.79 317.098 248.79 316.175C248.79 315.252 249.492 314.563 250.714 314.498V317.722L250.402 317.657ZM251.832 318.97C253.08 319.204 253.483 319.724 253.483 320.504C253.483 321.518 252.69 322.142 251.494 322.233V318.905L251.832 318.97ZM259.31 317.735C260.779 317.735 261.468 318.801 261.468 319.984C261.468 321.167 260.779 322.246 259.323 322.246C258.01 322.246 257.152 321.427 257.061 320.244H255.956C256.099 322.038 257.438 323.156 259.31 323.156C261.338 323.156 262.547 321.752 262.547 319.984C262.547 318.229 261.338 316.825 259.401 316.825C258.543 316.825 257.737 317.241 257.347 317.735L257.659 314.667H262.079V313.718H256.853L256.333 318.775H257.334C257.685 318.216 258.335 317.735 259.31 317.735ZM263.905 318.359C263.905 321.141 265.348 323.156 267.597 323.156C269.859 323.156 271.289 321.141 271.289 318.359C271.289 315.577 269.859 313.562 267.597 313.562C265.348 313.562 263.905 315.577 263.905 318.359ZM265.049 318.359C265.049 316.084 265.907 314.524 267.597 314.524C269.3 314.524 270.158 316.084 270.158 318.359C270.158 320.634 269.3 322.194 267.597 322.194C265.907 322.194 265.049 320.634 265.049 318.359Z" fill="#E1AB54"/>
<line x1="13.0005" y1="353.875" x2="294" y2="353.875" stroke="#CECCCA" stroke-width="0.25"/>
<g opacity="0.75">
<path d="M40.6673 280.5L34.2507 286.917L31.334 284" stroke="#E1AB54" stroke-width="1.16667" stroke-linecap="round" stroke-linejoin="round"/>
</g>
<g opacity="0.75">
<path d="M40.6673 315.5L34.2507 321.917L31.334 319" stroke="#E1AB54" stroke-width="1.16667" stroke-linecap="round" stroke-linejoin="round"/>
</g>
<g opacity="0.75">
<path d="M40.6673 367.5L34.2507 373.917L31.334 371" stroke="#E1AB54" stroke-width="1.16667" stroke-linecap="round" stroke-linejoin="round"/>
</g>
<rect opacity="0.3" x="28.25" y="219.25" width="244.5" height="30.5" rx="3.75" fill="#DBEAE0" stroke="#A2CAAF" stroke-width="0.5"/>
<path d="M124.129 239V235.744L127.132 231.146H126.087L123.711 234.897H123.689L121.236 231.146H120.191L123.183 235.744V239H124.129ZM132.344 236.239C132.344 234.457 131.244 233.335 129.715 233.335C128.186 233.335 127.086 234.457 127.086 236.239C127.086 238.021 128.186 239.132 129.715 239.132C131.244 239.132 132.344 238.021 132.344 236.239ZM127.988 236.239C127.988 234.908 128.637 234.072 129.715 234.072C130.793 234.072 131.442 234.908 131.442 236.239C131.442 237.57 130.793 238.395 129.715 238.395C128.637 238.395 127.988 237.57 127.988 236.239ZM138.449 239V233.467H137.525V236.514C137.525 237.845 136.898 238.417 136.062 238.417C135.193 238.417 134.764 237.878 134.764 236.855V233.467H133.84V237.031C133.84 238.373 134.544 239.132 135.798 239.132C136.634 239.132 137.294 238.692 137.558 237.999V239H138.449ZM140.526 231.982H141.087V232.136C141.087 232.851 140.746 233.115 140.185 233.115V233.665C141.175 233.665 141.725 233.038 141.725 232.125V230.904H140.526V231.982ZM146.406 233.39C146.274 233.357 146.12 233.346 145.977 233.346C145.163 233.346 144.459 233.863 144.217 234.776V233.467H143.337V239H144.25V236.272C144.25 234.875 145.053 234.182 145.933 234.182C146.076 234.182 146.274 234.193 146.406 234.226V233.39ZM152.005 237.372H151.147C150.916 238.043 150.465 238.406 149.717 238.406C148.661 238.406 147.99 237.702 147.946 236.426H152.038V236.063C152.038 234.644 151.301 233.335 149.662 233.335C148.188 233.335 147.055 234.457 147.055 236.261C147.055 238.043 148.155 239.132 149.717 239.132C150.795 239.132 151.752 238.549 152.005 237.372ZM149.662 234.072C150.652 234.072 151.125 234.809 151.147 235.766H147.979C148.133 234.633 148.793 234.072 149.662 234.072ZM159.358 239H160.271C160.161 238.637 160.139 238.252 160.139 237.845V235.304C160.139 233.973 159.303 233.335 157.961 233.335C156.784 233.335 155.904 233.973 155.794 235.095H156.674C156.74 234.457 157.202 234.072 157.939 234.072C158.698 234.072 159.237 234.446 159.237 235.326V235.645L157.455 235.876C156.333 236.008 155.541 236.47 155.541 237.537C155.541 238.56 156.366 239.121 157.334 239.121C158.258 239.121 159.017 238.714 159.259 238.065C159.259 238.329 159.292 238.692 159.358 239ZM157.521 238.428C156.828 238.428 156.465 238.032 156.465 237.515C156.465 236.767 157.037 236.591 157.73 236.492L159.237 236.327V236.822C159.237 237.889 158.379 238.428 157.521 238.428ZM162.953 239V230.904H162.04V239H162.953ZM169.22 234.523C168.978 233.786 168.472 233.335 167.537 233.335C166.734 233.335 166.052 233.775 165.788 234.479V233.467H164.908V239H165.821V235.953C165.821 234.677 166.448 234.083 167.284 234.083C168.12 234.083 168.483 234.6 168.483 235.634V239H169.407V235.953C169.407 234.677 170.034 234.083 170.859 234.083C171.684 234.083 172.058 234.6 172.058 235.634V239H172.982V235.436C172.982 234.138 172.355 233.335 171.079 233.335C170.265 233.335 169.561 233.775 169.22 234.523ZM179.727 236.239C179.727 234.457 178.627 233.335 177.098 233.335C175.569 233.335 174.469 234.457 174.469 236.239C174.469 238.021 175.569 239.132 177.098 239.132C178.627 239.132 179.727 238.021 179.727 236.239ZM175.371 236.239C175.371 234.908 176.02 234.072 177.098 234.072C178.176 234.072 178.825 234.908 178.825 236.239C178.825 237.57 178.176 238.395 177.098 238.395C176.02 238.395 175.371 237.57 175.371 236.239ZM180.806 237.361C180.905 238.549 181.895 239.132 183.215 239.132C184.458 239.132 185.371 238.417 185.371 237.449C185.371 236.558 184.843 236.118 183.941 235.942L182.841 235.733C182.203 235.612 181.873 235.414 181.873 234.941C181.873 234.402 182.346 234.039 183.083 234.039C183.842 234.039 184.337 234.369 184.403 234.93H185.25C185.14 233.885 184.359 233.335 183.083 233.335C181.862 233.335 181.026 234.061 181.026 234.996C181.026 235.964 181.675 236.327 182.566 236.492L183.545 236.69C184.249 236.822 184.513 237.086 184.513 237.493C184.513 238.087 183.963 238.439 183.204 238.439C182.456 238.439 181.752 238.12 181.686 237.361H180.806ZM189.525 238.186C189.173 238.296 188.931 238.318 188.722 238.318C188.216 238.318 187.919 238.12 187.919 237.537V234.16H189.382V233.467H187.93V232.059H187.028V233.467H186.214V234.16H187.028V237.581C187.028 238.604 187.545 239.088 188.557 239.088C188.799 239.088 189.118 239.055 189.525 238.934V238.186ZM195.97 238.186C195.618 238.296 195.376 238.318 195.167 238.318C194.661 238.318 194.364 238.12 194.364 237.537V234.16H195.827V233.467H194.375V232.059H193.473V233.467H192.659V234.16H193.473V237.581C193.473 238.604 193.99 239.088 195.002 239.088C195.244 239.088 195.563 239.055 195.97 238.934V238.186ZM198.37 234.479V230.904H197.457V239H198.37V235.953C198.37 234.622 199.041 234.083 199.888 234.083C200.757 234.083 201.208 234.611 201.208 235.634V239H202.121V235.436C202.121 234.116 201.384 233.335 200.141 233.335C199.294 233.335 198.634 233.775 198.37 234.479ZM208.563 237.372H207.705C207.474 238.043 207.023 238.406 206.275 238.406C205.219 238.406 204.548 237.702 204.504 236.426H208.596V236.063C208.596 234.644 207.859 233.335 206.22 233.335C204.746 233.335 203.613 234.457 203.613 236.261C203.613 238.043 204.713 239.132 206.275 239.132C207.353 239.132 208.31 238.549 208.563 237.372ZM206.22 234.072C207.21 234.072 207.683 234.809 207.705 235.766H204.537C204.691 234.633 205.351 234.072 206.22 234.072ZM213.212 233.39C213.08 233.357 212.926 233.346 212.783 233.346C211.969 233.346 211.265 233.863 211.023 234.776V233.467H210.143V239H211.056V236.272C211.056 234.875 211.859 234.182 212.739 234.182C212.882 234.182 213.08 234.193 213.212 234.226V233.39ZM218.811 237.372H217.953C217.722 238.043 217.271 238.406 216.523 238.406C215.467 238.406 214.796 237.702 214.752 236.426H218.844V236.063C218.844 234.644 218.107 233.335 216.468 233.335C214.994 233.335 213.861 234.457 213.861 236.261C213.861 238.043 214.961 239.132 216.523 239.132C217.601 239.132 218.558 238.549 218.811 237.372ZM216.468 234.072C217.458 234.072 217.931 234.809 217.953 235.766H214.785C214.939 234.633 215.599 234.072 216.468 234.072ZM220.567 231.146L220.743 236.613H221.48L221.645 231.146H220.567ZM220.501 239H221.7V237.812H220.501V239Z" fill="#625451"/>
<path d="M91.66 243C91.66 243 91.5531 238.866 91.3436 236.504M91.3436 236.504C91.2094 234.842 91.1342 233.91 91 232.248L96.06 231.8L95.8 233.4L99.58 232.92L98.26 235.16L99.8 237.176L94.2 237.8L94.64 236.232C94.64 236.232 92.9277 236.329 91.3436 236.504Z" stroke="#625451"/>
<path d="M87.3998 240.6L85.7998 241.4" stroke="#625451" stroke-linecap="round" stroke-linejoin="round"/>
<path d="M87.0001 232.6L84.6001 231.8" stroke="#625451" stroke-linecap="round" stroke-linejoin="round"/>
<path d="M86.2 236.6L83 237" stroke="#625451" stroke-linecap="round" stroke-linejoin="round"/>
<path d="M103 240.6L104.6 241.4" stroke="#625451" stroke-linecap="round" stroke-linejoin="round"/>
<path d="M103.4 232.2L106.2 230.6" stroke="#625451" stroke-linecap="round" stroke-linejoin="round"/>
<path d="M103.4 236.2L107.4 236.6" stroke="#625451" stroke-linecap="round" stroke-linejoin="round"/>
<path d="M89.4 229L89 228.2" stroke="#625451" stroke-linecap="round" stroke-linejoin="round"/>
<path d="M99.3999 228.6L100.6 227.4" stroke="#625451" stroke-linecap="round" stroke-linejoin="round"/>
<path d="M93.7998 227.8V227" stroke="#625451" stroke-linecap="round" stroke-linejoin="round"/>
<path d="M60.488 159V158.064H55.314V154.84H59.903V153.891H55.314V150.654H60.475V149.718H54.209V159H60.488ZM66.5653 159H67.6443C67.5143 158.571 67.4883 158.116 67.4883 157.635V154.632C67.4883 153.059 66.5003 152.305 64.9143 152.305C63.5233 152.305 62.4833 153.059 62.3533 154.385H63.3933C63.4713 153.631 64.0173 153.176 64.8883 153.176C65.7853 153.176 66.4223 153.618 66.4223 154.658V155.035L64.3163 155.308C62.9903 155.464 62.0543 156.01 62.0543 157.271C62.0543 158.48 63.0293 159.143 64.1733 159.143C65.2653 159.143 66.1623 158.662 66.4483 157.895C66.4483 158.207 66.4873 158.636 66.5653 159ZM64.3943 158.324C63.5753 158.324 63.1463 157.856 63.1463 157.245C63.1463 156.361 63.8223 156.153 64.6413 156.036L66.4223 155.841V156.426C66.4223 157.687 65.4083 158.324 64.3943 158.324ZM73.3611 152.37C73.2051 152.331 73.0231 152.318 72.8541 152.318C71.8921 152.318 71.0601 152.929 70.7741 154.008V152.461H69.7341V159H70.8131V155.776C70.8131 154.125 71.7621 153.306 72.8021 153.306C72.9711 153.306 73.2051 153.319 73.3611 153.358V152.37ZM75.7761 152.461H74.7361V159H75.8151V155.399C75.8151 153.826 76.6081 153.189 77.6091 153.189C78.6361 153.189 79.1691 153.813 79.1691 155.022V159H80.2481V154.788C80.2481 153.228 79.3771 152.305 77.9081 152.305C76.9071 152.305 76.0881 152.851 75.7761 153.657V152.461ZM87.1443 159.052C86.7153 160.157 86.4163 160.521 85.7663 160.521C85.5973 160.521 85.4543 160.521 85.2463 160.469V161.353C85.4543 161.392 85.7013 161.418 85.8833 161.418C87.0793 161.405 87.5993 160.755 88.1973 159.195L90.8363 152.461H89.7183L87.7553 157.804H87.7293L85.6493 152.461H84.5183L87.1443 159.052ZM97.8744 155.737C97.8744 153.631 96.5744 152.305 94.7674 152.305C92.9604 152.305 91.6604 153.631 91.6604 155.737C91.6604 157.843 92.9604 159.156 94.7674 159.156C96.5744 159.156 97.8744 157.843 97.8744 155.737ZM92.7264 155.737C92.7264 154.164 93.4934 153.176 94.7674 153.176C96.0414 153.176 96.8084 154.164 96.8084 155.737C96.8084 157.31 96.0414 158.285 94.7674 158.285C93.4934 158.285 92.7264 157.31 92.7264 155.737ZM105.09 159V152.461H103.998V156.062C103.998 157.635 103.257 158.311 102.269 158.311C101.242 158.311 100.735 157.674 100.735 156.465V152.461H99.6428V156.673C99.6428 158.259 100.475 159.156 101.957 159.156C102.945 159.156 103.725 158.636 104.037 157.817V159H105.09ZM111.028 152.37C110.872 152.331 110.69 152.318 110.521 152.318C109.559 152.318 108.727 152.929 108.441 154.008V152.461H107.401V159H108.48V155.776C108.48 154.125 109.429 153.306 110.469 153.306C110.638 153.306 110.872 153.319 111.028 153.358V152.37ZM116.261 152.461H115.221V159H116.3V155.399C116.3 153.826 117.093 153.189 118.094 153.189C119.121 153.189 119.654 153.813 119.654 155.022V159H120.733V154.788C120.733 153.228 119.862 152.305 118.393 152.305C117.392 152.305 116.573 152.851 116.261 153.657V152.461ZM128.347 157.076H127.333C127.06 157.869 126.527 158.298 125.643 158.298C124.395 158.298 123.602 157.466 123.55 155.958H128.386V155.529C128.386 153.852 127.515 152.305 125.578 152.305C123.836 152.305 122.497 153.631 122.497 155.763C122.497 157.869 123.797 159.156 125.643 159.156C126.917 159.156 128.048 158.467 128.347 157.076ZM125.578 153.176C126.748 153.176 127.307 154.047 127.333 155.178H123.589C123.771 153.839 124.551 153.176 125.578 153.176ZM130.417 159L132.315 156.374L134.252 159H135.513L132.991 155.581L135.305 152.461H134.135L132.406 154.866L130.664 152.461H129.39L131.743 155.633L129.26 159H130.417ZM140.188 158.038C139.772 158.168 139.486 158.194 139.239 158.194C138.641 158.194 138.29 157.96 138.29 157.271V153.28H140.019V152.461H138.303V150.797H137.237V152.461H136.275V153.28H137.237V157.323C137.237 158.532 137.848 159.104 139.044 159.104C139.33 159.104 139.707 159.065 140.188 158.922V158.038ZM148.39 152.37C148.234 152.331 148.052 152.318 147.883 152.318C146.921 152.318 146.089 152.929 145.803 154.008V152.461H144.763V159H145.842V155.776C145.842 154.125 146.791 153.306 147.831 153.306C148 153.306 148.234 153.319 148.39 153.358V152.37ZM155.007 157.076H153.993C153.72 157.869 153.187 158.298 152.303 158.298C151.055 158.298 150.262 157.466 150.21 155.958H155.046V155.529C155.046 153.852 154.175 152.305 152.238 152.305C150.496 152.305 149.157 153.631 149.157 155.763C149.157 157.869 150.457 159.156 152.303 159.156C153.577 159.156 154.708 158.467 155.007 157.076ZM152.238 153.176C153.408 153.176 153.967 154.047 153.993 155.178H150.249C150.431 153.839 151.211 153.176 152.238 153.176ZM161.18 152.461H160.088L158.632 157.83H158.593L157.072 152.461H156.006L157.982 159H159.113L160.595 153.709H160.634L162.142 159H163.26L165.236 152.461H164.196L162.688 157.83H162.662L161.18 152.461ZM170.667 159H171.746C171.616 158.571 171.59 158.116 171.59 157.635V154.632C171.59 153.059 170.602 152.305 169.016 152.305C167.625 152.305 166.585 153.059 166.455 154.385H167.495C167.573 153.631 168.119 153.176 168.99 153.176C169.887 153.176 170.524 153.618 170.524 154.658V155.035L168.418 155.308C167.092 155.464 166.156 156.01 166.156 157.271C166.156 158.48 167.131 159.143 168.275 159.143C169.367 159.143 170.264 158.662 170.55 157.895C170.55 158.207 170.589 158.636 170.667 159ZM168.496 158.324C167.677 158.324 167.248 157.856 167.248 157.245C167.248 156.361 167.924 156.153 168.743 156.036L170.524 155.841V156.426C170.524 157.687 169.51 158.324 168.496 158.324ZM177.463 152.37C177.307 152.331 177.125 152.318 176.956 152.318C175.994 152.318 175.162 152.929 174.876 154.008V152.461H173.836V159H174.915V155.776C174.915 154.125 175.864 153.306 176.904 153.306C177.073 153.306 177.307 153.319 177.463 153.358V152.37ZM183.352 159H184.392V149.432H183.313V153.618C183.014 152.955 182.273 152.305 181.142 152.305C179.478 152.305 178.23 153.657 178.23 155.737C178.23 157.804 179.478 159.156 181.142 159.156C182.221 159.156 183.027 158.519 183.352 157.856V159ZM183.365 155.815C183.365 157.297 182.637 158.311 181.363 158.311C180.076 158.311 179.322 157.258 179.322 155.737C179.322 154.203 180.076 153.15 181.363 153.15C182.637 153.15 183.365 154.151 183.365 155.633V155.815ZM58.538 170.461H57.446L55.99 175.83H55.951L54.43 170.461H53.364L55.34 177H56.471L57.953 171.709H57.992L59.5 177H60.618L62.594 170.461H61.554L60.046 175.83H60.02L58.538 170.461ZM65.1764 171.657V167.432H64.0974V177H65.1764V173.399C65.1764 171.826 65.9694 171.189 66.9704 171.189C67.9974 171.189 68.5304 171.813 68.5304 173.022V177H69.6094V172.788C69.6094 171.228 68.7384 170.305 67.2694 170.305C66.2684 170.305 65.4884 170.825 65.1764 171.657ZM77.2233 175.076H76.2093C75.9363 175.869 75.4033 176.298 74.5193 176.298C73.2713 176.298 72.4783 175.466 72.4263 173.958H77.2623V173.529C77.2623 171.852 76.3913 170.305 74.4543 170.305C72.7123 170.305 71.3733 171.631 71.3733 173.763C71.3733 175.869 72.6733 177.156 74.5193 177.156C75.7933 177.156 76.9243 176.467 77.2233 175.076ZM74.4543 171.176C75.6243 171.176 76.1833 172.047 76.2093 173.178H72.4653C72.6473 171.839 73.4273 171.176 74.4543 171.176ZM80.1306 170.461H79.0906V177H80.1696V173.399C80.1696 171.826 80.9626 171.189 81.9636 171.189C82.9906 171.189 83.5236 171.813 83.5236 173.022V177H84.6026V172.788C84.6026 171.228 83.7316 170.305 82.2626 170.305C81.2616 170.305 80.4426 170.851 80.1306 171.657V170.461ZM91.4988 177.052C91.0698 178.157 90.7708 178.521 90.1208 178.521C89.9518 178.521 89.8088 178.521 89.6008 178.469V179.353C89.8088 179.392 90.0558 179.418 90.2378 179.418C91.4338 179.405 91.9538 178.755 92.5518 177.195L95.1908 170.461H94.0728L92.1098 175.804H92.0838L90.0038 170.461H88.8728L91.4988 177.052ZM102.229 173.737C102.229 171.631 100.929 170.305 99.1219 170.305C97.3149 170.305 96.0149 171.631 96.0149 173.737C96.0149 175.843 97.3149 177.156 99.1219 177.156C100.929 177.156 102.229 175.843 102.229 173.737ZM97.0809 173.737C97.0809 172.164 97.8479 171.176 99.1219 171.176C100.396 171.176 101.163 172.164 101.163 173.737C101.163 175.31 100.396 176.285 99.1219 176.285C97.8479 176.285 97.0809 175.31 97.0809 173.737ZM109.444 177V170.461H108.352V174.062C108.352 175.635 107.611 176.311 106.623 176.311C105.596 176.311 105.089 175.674 105.089 174.465V170.461H103.997V174.673C103.997 176.259 104.829 177.156 106.311 177.156C107.299 177.156 108.079 176.636 108.391 175.817V177H109.444ZM118.201 170.37C118.045 170.331 117.863 170.318 117.694 170.318C116.732 170.318 115.9 170.929 115.614 172.008V170.461H114.574V177H115.653V173.776C115.653 172.125 116.602 171.306 117.642 171.306C117.811 171.306 118.045 171.319 118.201 171.358V170.37ZM124.818 175.076H123.804C123.531 175.869 122.998 176.298 122.114 176.298C120.866 176.298 120.073 175.466 120.021 173.958H124.857V173.529C124.857 171.852 123.986 170.305 122.049 170.305C120.307 170.305 118.968 171.631 118.968 173.763C118.968 175.869 120.268 177.156 122.114 177.156C123.388 177.156 124.519 176.467 124.818 175.076ZM122.049 171.176C123.219 171.176 123.778 172.047 123.804 173.178H120.06C120.242 171.839 121.022 171.176 122.049 171.176ZM130.829 177H131.908C131.778 176.571 131.752 176.116 131.752 175.635V172.632C131.752 171.059 130.764 170.305 129.178 170.305C127.787 170.305 126.747 171.059 126.617 172.385H127.657C127.735 171.631 128.281 171.176 129.152 171.176C130.049 171.176 130.686 171.618 130.686 172.658V173.035L128.58 173.308C127.254 173.464 126.318 174.01 126.318 175.271C126.318 176.48 127.293 177.143 128.437 177.143C129.529 177.143 130.426 176.662 130.712 175.895C130.712 176.207 130.751 176.636 130.829 177ZM128.658 176.324C127.839 176.324 127.41 175.856 127.41 175.245C127.41 174.361 128.086 174.153 128.905 174.036L130.686 173.841V174.426C130.686 175.687 129.672 176.324 128.658 176.324ZM133.517 173.737C133.517 175.83 134.778 177.156 136.598 177.156C138.054 177.156 139.016 176.337 139.224 174.933H138.197C138.015 175.804 137.482 176.285 136.598 176.285C135.311 176.285 134.583 175.271 134.583 173.737C134.583 172.203 135.311 171.176 136.598 171.176C137.482 171.176 138.015 171.657 138.197 172.528H139.224C139.016 171.137 138.054 170.305 136.598 170.305C134.778 170.305 133.517 171.644 133.517 173.737ZM142.085 171.657V167.432H141.006V177H142.085V173.399C142.085 171.826 142.878 171.189 143.879 171.189C144.906 171.189 145.439 171.813 145.439 173.022V177H146.518V172.788C146.518 171.228 145.647 170.305 144.178 170.305C143.177 170.305 142.397 170.825 142.085 171.657Z" fill="#2D2828"/>
<path d="M158.159 174.452C158.159 172.996 157.275 172.307 155.884 172.021L155.13 171.878V168.524C156.157 168.654 156.82 169.174 156.937 170.084H157.964C157.808 168.589 156.755 167.757 155.13 167.601V166.353H154.35V167.575C152.582 167.653 151.399 168.745 151.399 170.214C151.399 171.813 152.478 172.385 153.7 172.632L154.35 172.762V176.22C153.206 176.09 152.257 175.505 152.14 174.27H151.1C151.204 176.012 152.634 176.961 154.35 177.104V178.417H155.13V177.117C156.898 177.013 158.159 175.921 158.159 174.452ZM154.038 171.657C152.933 171.436 152.426 171.098 152.426 170.175C152.426 169.252 153.128 168.563 154.35 168.498V171.722L154.038 171.657ZM155.468 172.97C156.716 173.204 157.119 173.724 157.119 174.504C157.119 175.518 156.326 176.142 155.13 176.233V172.905L155.468 172.97ZM159.28 169.837H161.23V177H162.348V167.679H161.659C161.438 168.641 160.866 169.083 159.28 169.083V169.837ZM167.694 171.735C169.163 171.735 169.852 172.801 169.852 173.984C169.852 175.167 169.163 176.246 167.707 176.246C166.394 176.246 165.536 175.427 165.445 174.244H164.34C164.483 176.038 165.822 177.156 167.694 177.156C169.722 177.156 170.931 175.752 170.931 173.984C170.931 172.229 169.722 170.825 167.785 170.825C166.927 170.825 166.121 171.241 165.731 171.735L166.043 168.667H170.463V167.718H165.237L164.717 172.775H165.718C166.069 172.216 166.719 171.735 167.694 171.735ZM177.151 177H178.451L175.448 173.23L178.334 170.461H177.047L173.823 173.594V167.432H172.744V177H173.823V174.738L174.668 173.919L177.151 177Z" fill="#72987F"/>
<path d="M247.724 156.452C247.724 154.996 246.84 154.307 245.449 154.021L244.695 153.878V150.524C245.722 150.654 246.385 151.174 246.502 152.084H247.529C247.373 150.589 246.32 149.757 244.695 149.601V148.353H243.915V149.575C242.147 149.653 240.964 150.745 240.964 152.214C240.964 153.813 242.043 154.385 243.265 154.632L243.915 154.762V158.22C242.771 158.09 241.822 157.505 241.705 156.27H240.665C240.769 158.012 242.199 158.961 243.915 159.104V160.417H244.695V159.117C246.463 159.013 247.724 157.921 247.724 156.452ZM243.603 153.657C242.498 153.436 241.991 153.098 241.991 152.175C241.991 151.252 242.693 150.563 243.915 150.498V153.722L243.603 153.657ZM245.033 154.97C246.281 155.204 246.684 155.724 246.684 156.504C246.684 157.518 245.891 158.142 244.695 158.233V154.905L245.033 154.97ZM252.512 153.735C253.981 153.735 254.67 154.801 254.67 155.984C254.67 157.167 253.981 158.246 252.525 158.246C251.212 158.246 250.354 157.427 250.263 156.244H249.158C249.301 158.038 250.64 159.156 252.512 159.156C254.54 159.156 255.749 157.752 255.749 155.984C255.749 154.229 254.54 152.825 252.603 152.825C251.745 152.825 250.939 153.241 250.549 153.735L250.861 150.667H255.281V149.718H250.055L249.535 154.775H250.536C250.887 154.216 251.537 153.735 252.512 153.735ZM257.106 154.359C257.106 157.141 258.549 159.156 260.798 159.156C263.06 159.156 264.49 157.141 264.49 154.359C264.49 151.577 263.06 149.562 260.798 149.562C258.549 149.562 257.106 151.577 257.106 154.359ZM258.25 154.359C258.25 152.084 259.108 150.524 260.798 150.524C262.501 150.524 263.359 152.084 263.359 154.359C263.359 156.634 262.501 158.194 260.798 158.194C259.108 158.194 258.25 156.634 258.25 154.359ZM265.904 154.359C265.904 157.141 267.347 159.156 269.596 159.156C271.858 159.156 273.288 157.141 273.288 154.359C273.288 151.577 271.858 149.562 269.596 149.562C267.347 149.562 265.904 151.577 265.904 154.359ZM267.048 154.359C267.048 152.084 267.906 150.524 269.596 150.524C271.299 150.524 272.157 152.084 272.157 154.359C272.157 156.634 271.299 158.194 269.596 158.194C267.906 158.194 267.048 156.634 267.048 154.359Z" fill="#625451"/>
<circle cx="34.5" cy="154.5" r="6" stroke="#E2DDD8"/>
</g>
<defs>
<filter id="filter0_d" x="0.984662" y="0.982221" width="305.033" height="398.036" filterUnits="userSpaceOnUse" color-interpolation-filters="sRGB">
<feFlood flood-opacity="0" result="BackgroundImageFix"/>
<feColorMatrix in="SourceAlpha" type="matrix" values="0 0 0 0 0 0 0 0 0 0 0 0 0 0 0 0 0 0 127 0"/>
<feOffset/>
<feGaussianBlur stdDeviation="6.00889"/>
<feColorMatrix type="matrix" values="0 0 0 0 0 0 0 0 0 0 0 0 0 0 0 0 0 0 0.05 0"/>
<feBlend mode="normal" in2="BackgroundImageFix" result="effect1_dropShadow"/>
<feBlend mode="normal" in="SourceGraphic" in2="effect1_dropShadow" result="shape"/>
</filter>
</defs>
</svg>
