<svg width="281" height="374" viewBox="0 0 281 374" fill="none" xmlns="http://www.w3.org/2000/svg">
<mask id="mask0" mask-type="alpha" maskUnits="userSpaceOnUse" x="0" y="0" width="281" height="374">
<path d="M275.059 357.922C276.332 356.031 278.454 356.504 281 356.976L281 12C281 5.37262 275.627 3.07524e-05 269 3.10421e-05L12.0025 1.17583e-05C5.37413 1.2048e-05 0.00114355 5.37416 0.00254765 12.0026L0.0711042 333.806C0.353972 333.49 2.05243 332.86 3.0708 332.86C4.34375 332.86 6.46539 332.86 6.88971 333.806C7.31402 334.751 10.7086 335.224 11.5572 335.224L15.3761 335.224C16.649 335.224 18.3463 338.061 19.195 339.007C20.0436 339.953 24.2868 339.48 24.7111 339.48C25.1354 339.48 28.53 338.534 29.3786 338.061C30.2272 337.589 31.9245 339.48 32.7732 339.953C33.4521 340.331 35.0362 340.741 35.7434 340.899C37.4407 342.002 41.005 344.303 41.6839 344.682C42.5325 345.155 42.9568 345.155 44.6541 345.155C46.3514 345.155 47.2001 345.155 48.473 344.682C49.746 344.209 51.8676 344.682 53.5648 344.682C55.2621 344.682 57.8078 345.155 58.6565 344.682C59.5051 344.209 63.7483 343.263 64.1726 343.736C64.5121 344.114 66.5771 343.578 67.5672 343.263L70.5374 343.263C71.386 343.263 72.659 345.155 73.0833 345.155C73.5076 345.155 74.7806 344.682 75.6292 343.736C76.4779 342.79 77.7509 343.736 78.5995 343.736C79.4481 343.736 79.8724 343.736 81.1454 343.263C82.4183 342.79 83.6913 341.844 84.5399 342.317C85.3886 342.79 86.2372 343.263 87.9345 343.263C89.6318 343.263 91.3291 341.844 92.602 341.844C93.6204 341.844 94.7236 340.583 95.1479 339.953C95.5722 340.583 96.5906 341.844 97.2695 341.844C98.1181 341.844 99.3911 343.736 99.8155 344.682C100.24 345.627 101.088 343.736 102.361 343.736C103.634 343.736 104.483 344.209 104.907 344.682C105.332 345.155 106.605 347.519 107.453 347.519C108.132 347.519 110.565 348.149 111.696 348.465L114.242 347.046L115.94 347.519L118.486 348.938L119.334 346.1L120.607 345.155L121.88 348.465L124.85 348.465C125.084 348.855 127.068 349.615 127.184 349.829C127.016 349.861 126.934 349.881 126.972 349.883C127.15 349.896 127.209 349.875 127.184 349.829C128.023 349.67 131.004 349.2 132.064 348.938L133.337 347.992L135.034 347.992L136.731 350.356C137.438 350.514 139.023 350.829 139.701 350.829C140.55 350.829 142.672 348.938 143.096 348.938L146.491 348.938C147.764 348.938 147.764 349.883 150.309 349.883C152.855 349.883 152.556 347.992 153.28 347.992C153.483 347.992 154.977 349.883 155.401 350.829C155.542 351.143 157.425 353.089 157.657 352.572C157.984 351.843 161.766 352.721 162.19 354.139C162.332 354.612 163.888 355.558 166.009 354.612C168.131 353.666 171.525 357.449 172.374 358.868C173.223 360.287 177.89 362.651 178.739 363.597C179.587 364.542 185.104 365.961 186.377 366.907C187.649 367.853 189.347 368.798 190.195 369.744C191.044 370.69 192.741 370.69 194.439 369.271C196.136 367.853 198.682 368.325 200.803 367.853C202.925 367.38 202.925 368.798 204.622 368.798L212.26 368.798C213.957 368.798 216.928 370.217 218.2 370.69C219.473 371.163 222.868 370.69 224.99 370.69C227.111 370.69 229.657 371.636 230.93 372.108C232.203 372.581 231.354 374 232.627 374C233.9 374 235.173 373.054 237.295 372.108C239.416 371.163 240.265 371.636 241.114 371.636C241.962 371.636 243.235 374 244.933 374C246.63 374 248.327 373.054 249.6 373.054C250.873 373.054 252.995 373.054 254.268 372.108C255.541 371.163 255.965 370.217 257.662 369.744C259.36 369.271 259.784 369.744 261.481 368.798C263.178 367.853 264.876 367.853 266.149 367.853C267.422 367.853 268.695 364.07 270.392 363.597C272.089 363.124 273.786 359.814 275.059 357.922Z" fill="#E2DDD8"/>
</mask>
<g mask="url(#mask0)">
<rect x="0.000488281" y="-19" width="281" height="421" fill="#FDFCFB"/>
<path d="M153.136 62C154.874 62 155.897 61.241 155.897 59.8C155.897 58.876 155.292 58.161 154.324 57.919C154.995 57.721 155.545 56.973 155.545 56.247C155.545 54.872 154.533 54.146 152.784 54.146H150.023V62H153.136ZM150.958 57.611V54.916H152.85C154.016 54.916 154.588 55.389 154.588 56.258C154.588 57.116 154.005 57.611 152.839 57.611H150.958ZM150.958 58.348H153.07C154.269 58.348 154.951 58.898 154.951 59.8C154.951 60.702 154.291 61.23 153.092 61.23H150.958V58.348ZM162.186 59.239C162.186 57.457 161.086 56.335 159.557 56.335C158.028 56.335 156.928 57.457 156.928 59.239C156.928 61.021 158.028 62.132 159.557 62.132C161.086 62.132 162.186 61.021 162.186 59.239ZM157.83 59.239C157.83 57.908 158.479 57.072 159.557 57.072C160.635 57.072 161.284 57.908 161.284 59.239C161.284 60.57 160.635 61.395 159.557 61.395C158.479 61.395 157.83 60.57 157.83 59.239ZM168.489 59.239C168.489 57.457 167.389 56.335 165.86 56.335C164.331 56.335 163.231 57.457 163.231 59.239C163.231 61.021 164.331 62.132 165.86 62.132C167.389 62.132 168.489 61.021 168.489 59.239ZM164.133 59.239C164.133 57.908 164.782 57.072 165.86 57.072C166.938 57.072 167.587 57.908 167.587 59.239C167.587 60.57 166.938 61.395 165.86 61.395C164.782 61.395 164.133 60.57 164.133 59.239ZM169.457 60.361C169.556 61.549 170.546 62.132 171.866 62.132C173.109 62.132 174.022 61.417 174.022 60.449C174.022 59.558 173.494 59.118 172.592 58.942L171.492 58.733C170.854 58.612 170.524 58.414 170.524 57.941C170.524 57.402 170.997 57.039 171.734 57.039C172.493 57.039 172.988 57.369 173.054 57.93H173.901C173.791 56.885 173.01 56.335 171.734 56.335C170.513 56.335 169.677 57.061 169.677 57.996C169.677 58.964 170.326 59.327 171.217 59.492L172.196 59.69C172.9 59.822 173.164 60.086 173.164 60.493C173.164 61.087 172.614 61.439 171.855 61.439C171.107 61.439 170.403 61.12 170.337 60.361H169.457ZM178.066 61.186C177.714 61.296 177.472 61.318 177.263 61.318C176.757 61.318 176.46 61.12 176.46 60.537V57.16H177.923V56.467H176.471V55.059H175.569V56.467H174.755V57.16H175.569V60.581C175.569 61.604 176.086 62.088 177.098 62.088C177.34 62.088 177.659 62.055 178.066 61.934V61.186ZM183.921 60.372H183.063C182.832 61.043 182.381 61.406 181.633 61.406C180.577 61.406 179.906 60.702 179.862 59.426H183.954V59.063C183.954 57.644 183.217 56.335 181.578 56.335C180.104 56.335 178.971 57.457 178.971 59.261C178.971 61.043 180.071 62.132 181.633 62.132C182.711 62.132 183.668 61.549 183.921 60.372ZM181.578 57.072C182.568 57.072 183.041 57.809 183.063 58.766H179.895C180.049 57.633 180.709 57.072 181.578 57.072ZM189.329 62H190.209V53.904H189.296V57.446C189.043 56.885 188.416 56.335 187.459 56.335C186.051 56.335 184.995 57.479 184.995 59.239C184.995 60.988 186.051 62.132 187.459 62.132C188.372 62.132 189.054 61.593 189.329 61.032V62ZM189.34 59.305C189.34 60.559 188.724 61.417 187.646 61.417C186.557 61.417 185.919 60.526 185.919 59.239C185.919 57.941 186.557 57.05 187.646 57.05C188.724 57.05 189.34 57.897 189.34 59.151V59.305ZM193.872 59.679C193.982 61.395 195.412 62.132 197.117 62.132C198.778 62.132 199.966 61.186 199.966 59.844C199.966 58.601 199.196 58.04 197.986 57.798L196.446 57.479C195.489 57.292 195.049 57.017 195.049 56.236C195.049 55.411 195.731 54.773 196.875 54.773C197.997 54.773 198.767 55.279 198.899 56.159H199.812C199.658 54.74 198.547 54.014 196.864 54.014C195.236 54.014 194.125 54.982 194.125 56.269C194.125 57.622 195.071 58.106 196.127 58.304L197.623 58.601C198.69 58.799 199.053 59.228 199.053 59.888C199.053 60.834 198.228 61.373 197.106 61.373C195.94 61.373 194.906 60.944 194.785 59.679H193.872ZM204.853 62H205.766C205.656 61.637 205.634 61.252 205.634 60.845V58.304C205.634 56.973 204.798 56.335 203.456 56.335C202.279 56.335 201.399 56.973 201.289 58.095H202.169C202.235 57.457 202.697 57.072 203.434 57.072C204.193 57.072 204.732 57.446 204.732 58.326V58.645L202.95 58.876C201.828 59.008 201.036 59.47 201.036 60.537C201.036 61.56 201.861 62.121 202.829 62.121C203.753 62.121 204.512 61.714 204.754 61.065C204.754 61.329 204.787 61.692 204.853 62ZM203.016 61.428C202.323 61.428 201.96 61.032 201.96 60.515C201.96 59.767 202.532 59.591 203.225 59.492L204.732 59.327V59.822C204.732 60.889 203.874 61.428 203.016 61.428ZM208.835 62H209.858L211.981 56.467H211.068L209.363 61.098H209.341L207.559 56.467H206.624L208.835 62ZM213.102 55.312H214.136V54.201H213.102V55.312ZM213.168 62H214.081V56.467H213.168V62ZM216.807 56.467H215.927V62H216.84V58.953C216.84 57.622 217.511 57.083 218.358 57.083C219.227 57.083 219.678 57.611 219.678 58.634V62H220.591V58.436C220.591 57.116 219.854 56.335 218.611 56.335C217.764 56.335 217.071 56.797 216.807 57.479V56.467ZM226.252 61.648C226.252 62.803 225.636 63.386 224.547 63.386C223.799 63.386 223.216 63.166 223.029 62.473H222.105C222.325 63.551 223.227 64.09 224.558 64.09C226.032 64.09 227.176 63.342 227.176 61.582V56.467H226.285V57.435C226.021 56.907 225.383 56.335 224.415 56.335C222.996 56.335 221.962 57.446 221.962 59.107C221.962 60.834 222.996 61.901 224.415 61.901C225.383 61.901 225.999 61.373 226.252 60.834V61.648ZM226.318 59.239C226.318 60.383 225.603 61.175 224.58 61.175C223.502 61.175 222.864 60.328 222.864 59.107C222.864 57.875 223.502 57.05 224.58 57.05C225.603 57.05 226.318 57.831 226.318 58.975V59.239ZM228.554 60.361C228.653 61.549 229.643 62.132 230.963 62.132C232.206 62.132 233.119 61.417 233.119 60.449C233.119 59.558 232.591 59.118 231.689 58.942L230.589 58.733C229.951 58.612 229.621 58.414 229.621 57.941C229.621 57.402 230.094 57.039 230.831 57.039C231.59 57.039 232.085 57.369 232.151 57.93H232.998C232.888 56.885 232.107 56.335 230.831 56.335C229.61 56.335 228.774 57.061 228.774 57.996C228.774 58.964 229.423 59.327 230.314 59.492L231.293 59.69C231.997 59.822 232.261 60.086 232.261 60.493C232.261 61.087 231.711 61.439 230.952 61.439C230.204 61.439 229.5 61.12 229.434 60.361H228.554Z" fill="#625451"/>
<path d="M164.248 96H178.072V94.092H172.384V73.14H171.124C170.512 75.876 169.432 76.488 165.544 76.488H164.68V78.108H170.116V94.092H164.248V96ZM196.67 89.88C196.67 92.94 194.402 94.596 191.018 94.596C187.202 94.596 184.79 92.508 184.682 88.512L182.45 88.368C182.45 93.408 185.726 96.432 190.982 96.432C195.914 96.432 198.938 93.696 198.938 90.06C198.938 87.036 196.742 84.912 194.042 84.552C196.274 84.192 198.506 82.14 198.506 79.188C198.506 75.444 195.806 72.888 190.91 72.888C185.978 72.888 182.882 76.2 182.882 80.88L185.114 80.988C185.114 76.956 187.382 74.724 190.91 74.724C194.438 74.724 196.238 76.632 196.238 79.332C196.238 82.644 193.79 83.652 191.126 83.652C189.974 83.652 189.362 83.616 188.822 83.544V85.596C189.362 85.524 190.082 85.452 191.126 85.452C194.294 85.452 196.67 87.036 196.67 89.88ZM204.252 96H207.132V93.12H204.252V96ZM219.617 94.632C216.197 94.632 214.541 92.544 214.073 89.556L211.877 89.664C212.237 93.84 215.225 96.432 219.617 96.432C225.917 96.432 228.833 91.284 228.833 84.12C228.833 77.28 225.701 72.888 219.761 72.888C214.685 72.888 211.625 76.164 211.625 80.772C211.625 85.308 214.721 88.548 219.617 88.548C223.685 88.548 226.097 86.172 226.817 83.184C226.961 89.844 224.801 94.632 219.617 94.632ZM225.953 80.7C225.953 84.3 223.757 86.604 219.905 86.604C216.053 86.604 213.857 84.3 213.857 80.7C213.857 77.136 216.053 74.76 219.761 74.76C223.577 74.76 225.953 77.136 225.953 80.7ZM234.147 90.132L236.595 88.08L243.327 96H245.991L238.215 86.856L245.631 80.376H242.751L234.147 87.936V73.32H231.951V96H234.147V90.132Z" fill="#E1AB54"/>
<path d="M149.816 81.4C149.816 83.624 151.32 84.952 153.448 85.16V86.632H154.344V85.176C156.328 85.08 157.784 84.04 157.784 82.264C157.784 80.648 156.856 79.88 155.032 79.528L154.344 79.4V75.864C155.56 76.104 156.296 77 156.344 78.408L157.576 78.344C157.56 76.312 156.376 75.016 154.344 74.776V73.336H153.448V74.728C151.368 74.792 150.104 75.928 150.104 77.64C150.104 79.208 151.128 80.056 152.6 80.328L153.448 80.504V84.088C152.088 83.88 151.112 82.936 151.048 81.32L149.816 81.4ZM154.584 80.712C155.88 80.968 156.456 81.432 156.456 82.36C156.456 83.4 155.624 84.056 154.344 84.136V80.664L154.584 80.712ZM151.4 77.56C151.4 76.456 152.12 75.832 153.448 75.784V79.224L153.24 79.176C152.088 78.952 151.4 78.568 151.4 77.56Z" fill="#E1AB54"/>
<rect x="0.000488281" y="120" width="281" height="293" fill="white"/>
<rect x="15.0005" y="189" width="245" height="5" rx="2.5" fill="#E2DDD8"/>
<rect x="15.0005" y="189" width="190.669" height="5" rx="2.5" fill="#72987F"/>
<path d="M29.1255 62V58.744L32.1285 54.146H31.0835L28.7075 57.897H28.6855L26.2325 54.146H25.1875L28.1795 58.744V62H29.1255ZM37.2303 59.239C37.2303 57.457 36.1303 56.335 34.6013 56.335C33.0723 56.335 31.9723 57.457 31.9723 59.239C31.9723 61.021 33.0723 62.132 34.6013 62.132C36.1303 62.132 37.2303 61.021 37.2303 59.239ZM32.8743 59.239C32.8743 57.908 33.5233 57.072 34.6013 57.072C35.6793 57.072 36.3283 57.908 36.3283 59.239C36.3283 60.57 35.6793 61.395 34.6013 61.395C33.5233 61.395 32.8743 60.57 32.8743 59.239ZM43.2256 62V56.467H42.3016V59.514C42.3016 60.845 41.6746 61.417 40.8386 61.417C39.9696 61.417 39.5406 60.878 39.5406 59.855V56.467H38.6166V60.031C38.6166 61.373 39.3206 62.132 40.5746 62.132C41.4106 62.132 42.0706 61.692 42.3346 60.999V62H43.2256ZM48.1404 56.39C48.0084 56.357 47.8544 56.346 47.7114 56.346C46.8974 56.346 46.1934 56.863 45.9514 57.776V56.467H45.0714V62H45.9844V59.272C45.9844 57.875 46.7874 57.182 47.6674 57.182C47.8104 57.182 48.0084 57.193 48.1404 57.226V56.39ZM51.0066 59.679C51.1166 61.395 52.5466 62.132 54.2516 62.132C55.9126 62.132 57.1006 61.186 57.1006 59.844C57.1006 58.601 56.3306 58.04 55.1206 57.798L53.5806 57.479C52.6236 57.292 52.1836 57.017 52.1836 56.236C52.1836 55.411 52.8656 54.773 54.0096 54.773C55.1316 54.773 55.9016 55.279 56.0336 56.159H56.9466C56.7926 54.74 55.6816 54.014 53.9986 54.014C52.3706 54.014 51.2596 54.982 51.2596 56.269C51.2596 57.622 52.2056 58.106 53.2616 58.304L54.7576 58.601C55.8246 58.799 56.1876 59.228 56.1876 59.888C56.1876 60.834 55.3626 61.373 54.2406 61.373C53.0746 61.373 52.0406 60.944 51.9196 59.679H51.0066ZM61.9868 62H62.8998C62.7898 61.637 62.7678 61.252 62.7678 60.845V58.304C62.7678 56.973 61.9318 56.335 60.5898 56.335C59.4128 56.335 58.5328 56.973 58.4228 58.095H59.3028C59.3688 57.457 59.8308 57.072 60.5678 57.072C61.3268 57.072 61.8658 57.446 61.8658 58.326V58.645L60.0838 58.876C58.9618 59.008 58.1698 59.47 58.1698 60.537C58.1698 61.56 58.9948 62.121 59.9628 62.121C60.8868 62.121 61.6458 61.714 61.8878 61.065C61.8878 61.329 61.9208 61.692 61.9868 62ZM60.1498 61.428C59.4568 61.428 59.0938 61.032 59.0938 60.515C59.0938 59.767 59.6658 59.591 60.3588 59.492L61.8658 59.327V59.822C61.8658 60.889 61.0078 61.428 60.1498 61.428ZM65.9692 62H66.9922L69.1152 56.467H68.2022L66.4972 61.098H66.4752L64.6932 56.467H63.7582L65.9692 62ZM70.2366 55.312H71.2706V54.201H70.2366V55.312ZM70.3026 62H71.2156V56.467H70.3026V62ZM73.9408 56.467H73.0608V62H73.9738V58.953C73.9738 57.622 74.6448 57.083 75.4918 57.083C76.3608 57.083 76.8118 57.611 76.8118 58.634V62H77.7248V58.436C77.7248 57.116 76.9878 56.335 75.7448 56.335C74.8978 56.335 74.2048 56.797 73.9408 57.479V56.467ZM83.3863 61.648C83.3863 62.803 82.7703 63.386 81.6813 63.386C80.9333 63.386 80.3503 63.166 80.1633 62.473H79.2393C79.4593 63.551 80.3613 64.09 81.6923 64.09C83.1663 64.09 84.3103 63.342 84.3103 61.582V56.467H83.4193V57.435C83.1553 56.907 82.5173 56.335 81.5493 56.335C80.1303 56.335 79.0963 57.446 79.0963 59.107C79.0963 60.834 80.1303 61.901 81.5493 61.901C82.5173 61.901 83.1333 61.373 83.3863 60.834V61.648ZM83.4523 59.239C83.4523 60.383 82.7373 61.175 81.7143 61.175C80.6363 61.175 79.9983 60.328 79.9983 59.107C79.9983 57.875 80.6363 57.05 81.7143 57.05C82.7373 57.05 83.4523 57.831 83.4523 58.975V59.239ZM85.6881 60.361C85.7871 61.549 86.7771 62.132 88.0971 62.132C89.3401 62.132 90.2531 61.417 90.2531 60.449C90.2531 59.558 89.7251 59.118 88.8231 58.942L87.7231 58.733C87.0851 58.612 86.7551 58.414 86.7551 57.941C86.7551 57.402 87.2281 57.039 87.9651 57.039C88.7241 57.039 89.2191 57.369 89.2851 57.93H90.1321C90.0221 56.885 89.2411 56.335 87.9651 56.335C86.7441 56.335 85.9081 57.061 85.9081 57.996C85.9081 58.964 86.5571 59.327 87.4481 59.492L88.4271 59.69C89.1311 59.822 89.3951 60.086 89.3951 60.493C89.3951 61.087 88.8451 61.439 88.0861 61.439C87.3381 61.439 86.6341 61.12 86.5681 60.361H85.6881Z" fill="#625451"/>
<path d="M34.2485 96H48.0725V94.092H42.3845V73.14H41.1245C40.5125 75.876 39.4325 76.488 35.5445 76.488H34.6805V78.108H40.1165V94.092H34.2485V96ZM70.1264 84.66C70.1264 77.136 66.8144 72.888 60.9464 72.888C55.0784 72.888 51.7664 77.136 51.7664 84.66C51.7664 92.184 55.0784 96.432 60.9464 96.432C66.8144 96.432 70.1264 92.184 70.1264 84.66ZM67.7504 84.66C67.7504 91.248 65.5184 94.596 60.9464 94.596C56.3744 94.596 54.1424 91.248 54.1424 84.66C54.1424 78.072 56.3744 74.724 60.9464 74.724C65.5184 74.724 67.7504 78.072 67.7504 84.66ZM74.2524 96H77.1324V93.12H74.2524V96ZM95.7373 75.408C91.2013 80.124 88.1053 87.792 87.9973 96H90.4453C90.5173 88.116 92.8213 80.34 98.4013 74.436V73.32H82.1653V75.408H95.7373ZM104.147 90.132L106.595 88.08L113.327 96H115.991L108.215 86.856L115.631 80.376H112.751L104.147 87.936V73.32H101.951V96H104.147V90.132Z" fill="#72987F"/>
<path d="M22.8165 81.4C22.8165 83.624 24.3205 84.952 26.4485 85.16V86.632H27.3445V85.176C29.3285 85.08 30.7845 84.04 30.7845 82.264C30.7845 80.648 29.8565 79.88 28.0325 79.528L27.3445 79.4V75.864C28.5605 76.104 29.2965 77 29.3445 78.408L30.5765 78.344C30.5605 76.312 29.3765 75.016 27.3445 74.776V73.336H26.4485V74.728C24.3685 74.792 23.1045 75.928 23.1045 77.64C23.1045 79.208 24.1285 80.056 25.6005 80.328L26.4485 80.504V84.088C25.0885 83.88 24.1125 82.936 24.0485 81.32L22.8165 81.4ZM27.5845 80.712C28.8805 80.968 29.4565 81.432 29.4565 82.36C29.4565 83.4 28.6245 84.056 27.3445 84.136V80.664L27.5845 80.712ZM24.4005 77.56C24.4005 76.456 25.1205 75.832 26.4485 75.784V79.224L26.2405 79.176C25.0885 78.952 24.4005 78.568 24.4005 77.56Z" fill="#72987F"/>
<line x1="0.000488281" y1="119.875" x2="281" y2="119.875" stroke="#CECCCA" stroke-width="0.25"/>
<line x1="0.000488281" y1="253.875" x2="281" y2="253.875" stroke="#CECCCA" stroke-width="0.25"/>
<path d="M40.6115 273.257C40.7415 275.285 42.4315 276.156 44.4465 276.156C46.4095 276.156 47.8135 275.038 47.8135 273.452C47.8135 271.983 46.9035 271.32 45.4735 271.034L43.6535 270.657C42.5225 270.436 42.0025 270.111 42.0025 269.188C42.0025 268.213 42.8085 267.459 44.1605 267.459C45.4865 267.459 46.3965 268.057 46.5525 269.097H47.6315C47.4495 267.42 46.1365 266.562 44.1475 266.562C42.2235 266.562 40.9105 267.706 40.9105 269.227C40.9105 270.826 42.0285 271.398 43.2765 271.632L45.0445 271.983C46.3055 272.217 46.7345 272.724 46.7345 273.504C46.7345 274.622 45.7595 275.259 44.4335 275.259C43.0555 275.259 41.8335 274.752 41.6905 273.257H40.6115ZM53.7181 276H54.7971C54.6671 275.571 54.6411 275.116 54.6411 274.635V271.632C54.6411 270.059 53.6531 269.305 52.0671 269.305C50.6761 269.305 49.6361 270.059 49.5061 271.385H50.5461C50.6241 270.631 51.1701 270.176 52.0411 270.176C52.9381 270.176 53.5751 270.618 53.5751 271.658V272.035L51.4691 272.308C50.1431 272.464 49.2071 273.01 49.2071 274.271C49.2071 275.48 50.1821 276.143 51.3261 276.143C52.4181 276.143 53.3151 275.662 53.6011 274.895C53.6011 275.207 53.6401 275.636 53.7181 276ZM51.5471 275.324C50.7281 275.324 50.2991 274.856 50.2991 274.245C50.2991 273.361 50.9751 273.153 51.7941 273.036L53.5751 272.841V273.426C53.5751 274.687 52.5611 275.324 51.5471 275.324ZM58.5546 276H59.7636L62.2726 269.461H61.1936L59.1786 274.934H59.1526L57.0466 269.461H55.9416L58.5546 276ZM68.9591 274.076H67.9451C67.6721 274.869 67.1391 275.298 66.2551 275.298C65.0071 275.298 64.2141 274.466 64.1621 272.958H68.9981V272.529C68.9981 270.852 68.1271 269.305 66.1901 269.305C64.4481 269.305 63.1091 270.631 63.1091 272.763C63.1091 274.869 64.4091 276.156 66.2551 276.156C67.5291 276.156 68.6601 275.467 68.9591 274.076ZM66.1901 270.176C67.3601 270.176 67.9191 271.047 67.9451 272.178H64.2011C64.3831 270.839 65.1631 270.176 66.1901 270.176ZM80.2228 273.452C80.2228 271.996 79.3388 271.307 77.9478 271.021L77.1938 270.878V267.524C78.2208 267.654 78.8838 268.174 79.0008 269.084H80.0278C79.8718 267.589 78.8188 266.757 77.1938 266.601V265.353H76.4138V266.575C74.6458 266.653 73.4628 267.745 73.4628 269.214C73.4628 270.813 74.5418 271.385 75.7638 271.632L76.4138 271.762V275.22C75.2698 275.09 74.3208 274.505 74.2038 273.27H73.1638C73.2678 275.012 74.6978 275.961 76.4138 276.104V277.417H77.1938V276.117C78.9618 276.013 80.2228 274.921 80.2228 273.452ZM76.1018 270.657C74.9968 270.436 74.4898 270.098 74.4898 269.175C74.4898 268.252 75.1918 267.563 76.4138 267.498V270.722L76.1018 270.657ZM77.5318 271.97C78.7798 272.204 79.1828 272.724 79.1828 273.504C79.1828 274.518 78.3898 275.142 77.1938 275.233V271.905L77.5318 271.97ZM81.344 268.837H83.294V276H84.412V266.679H83.723C83.502 267.641 82.93 268.083 81.344 268.083V268.837ZM86.4691 271.359C86.4691 274.141 87.9121 276.156 90.1611 276.156C92.4231 276.156 93.8531 274.141 93.8531 271.359C93.8531 268.577 92.4231 266.562 90.1611 266.562C87.9121 266.562 86.4691 268.577 86.4691 271.359ZM87.6131 271.359C87.6131 269.084 88.4711 267.524 90.1611 267.524C91.8641 267.524 92.7221 269.084 92.7221 271.359C92.7221 273.634 91.8641 275.194 90.1611 275.194C88.4711 275.194 87.6131 273.634 87.6131 271.359ZM95.2807 275.987H95.9047V276.221C95.9047 277.079 95.5277 277.378 94.8647 277.378V278.041C96.0477 278.041 96.6977 277.3 96.6977 276.221V274.583H95.2807V275.987ZM98.1107 271.359C98.1107 274.141 99.5537 276.156 101.803 276.156C104.065 276.156 105.495 274.141 105.495 271.359C105.495 268.577 104.065 266.562 101.803 266.562C99.5537 266.562 98.1107 268.577 98.1107 271.359ZM99.2547 271.359C99.2547 269.084 100.113 267.524 101.803 267.524C103.506 267.524 104.364 269.084 104.364 271.359C104.364 273.634 103.506 275.194 101.803 275.194C100.113 275.194 99.2547 273.634 99.2547 271.359ZM106.909 271.359C106.909 274.141 108.352 276.156 110.601 276.156C112.863 276.156 114.293 274.141 114.293 271.359C114.293 268.577 112.863 266.562 110.601 266.562C108.352 266.562 106.909 268.577 106.909 271.359ZM108.053 271.359C108.053 269.084 108.911 267.524 110.601 267.524C112.304 267.524 113.162 269.084 113.162 271.359C113.162 273.634 112.304 275.194 110.601 275.194C108.911 275.194 108.053 273.634 108.053 271.359ZM115.706 271.359C115.706 274.141 117.149 276.156 119.398 276.156C121.66 276.156 123.09 274.141 123.09 271.359C123.09 268.577 121.66 266.562 119.398 266.562C117.149 266.562 115.706 268.577 115.706 271.359ZM116.85 271.359C116.85 269.084 117.708 267.524 119.398 267.524C121.101 267.524 121.959 269.084 121.959 271.359C121.959 273.634 121.101 275.194 119.398 275.194C117.708 275.194 116.85 273.634 116.85 271.359Z" fill="#625451"/>
<path d="M232.725 273.452C232.725 271.996 231.841 271.307 230.45 271.021L229.696 270.878V267.524C230.723 267.654 231.386 268.174 231.503 269.084H232.53C232.374 267.589 231.321 266.757 229.696 266.601V265.353H228.916V266.575C227.148 266.653 225.965 267.745 225.965 269.214C225.965 270.813 227.044 271.385 228.266 271.632L228.916 271.762V275.22C227.772 275.09 226.823 274.505 226.706 273.27H225.666C225.77 275.012 227.2 275.961 228.916 276.104V277.417H229.696V276.117C231.464 276.013 232.725 274.921 232.725 273.452ZM228.604 270.657C227.499 270.436 226.992 270.098 226.992 269.175C226.992 268.252 227.694 267.563 228.916 267.498V270.722L228.604 270.657ZM230.034 271.97C231.282 272.204 231.685 272.724 231.685 273.504C231.685 274.518 230.892 275.142 229.696 275.233V271.905L230.034 271.97ZM237.512 270.735C238.981 270.735 239.67 271.801 239.67 272.984C239.67 274.167 238.981 275.246 237.525 275.246C236.212 275.246 235.354 274.427 235.263 273.244H234.158C234.301 275.038 235.64 276.156 237.512 276.156C239.54 276.156 240.749 274.752 240.749 272.984C240.749 271.229 239.54 269.825 237.603 269.825C236.745 269.825 235.939 270.241 235.549 270.735L235.861 267.667H240.281V266.718H235.055L234.535 271.775H235.536C235.887 271.216 236.537 270.735 237.512 270.735ZM242.107 271.359C242.107 274.141 243.55 276.156 245.799 276.156C248.061 276.156 249.491 274.141 249.491 271.359C249.491 268.577 248.061 266.562 245.799 266.562C243.55 266.562 242.107 268.577 242.107 271.359ZM243.251 271.359C243.251 269.084 244.109 267.524 245.799 267.524C247.502 267.524 248.36 269.084 248.36 271.359C248.36 273.634 247.502 275.194 245.799 275.194C244.109 275.194 243.251 273.634 243.251 271.359ZM250.905 271.359C250.905 274.141 252.348 276.156 254.597 276.156C256.859 276.156 258.289 274.141 258.289 271.359C258.289 268.577 256.859 266.562 254.597 266.562C252.348 266.562 250.905 268.577 250.905 271.359ZM252.049 271.359C252.049 269.084 252.907 267.524 254.597 267.524C256.3 267.524 257.158 269.084 257.158 271.359C257.158 273.634 256.3 275.194 254.597 275.194C252.907 275.194 252.049 273.634 252.049 271.359Z" fill="#E1AB54"/>
<line x1="0.000488281" y1="287.875" x2="281" y2="287.875" stroke="#CECCCA" stroke-width="0.25"/>
<path d="M40.6115 360.257C40.7415 362.285 42.4315 363.156 44.4465 363.156C46.4095 363.156 47.8135 362.038 47.8135 360.452C47.8135 358.983 46.9035 358.32 45.4735 358.034L43.6535 357.657C42.5225 357.436 42.0025 357.111 42.0025 356.188C42.0025 355.213 42.8085 354.459 44.1605 354.459C45.4865 354.459 46.3965 355.057 46.5525 356.097H47.6315C47.4495 354.42 46.1365 353.562 44.1475 353.562C42.2235 353.562 40.9105 354.706 40.9105 356.227C40.9105 357.826 42.0285 358.398 43.2765 358.632L45.0445 358.983C46.3055 359.217 46.7345 359.724 46.7345 360.504C46.7345 361.622 45.7595 362.259 44.4335 362.259C43.0555 362.259 41.8335 361.752 41.6905 360.257H40.6115ZM53.7181 363H54.7971C54.6671 362.571 54.6411 362.116 54.6411 361.635V358.632C54.6411 357.059 53.6531 356.305 52.0671 356.305C50.6761 356.305 49.6361 357.059 49.5061 358.385H50.5461C50.6241 357.631 51.1701 357.176 52.0411 357.176C52.9381 357.176 53.5751 357.618 53.5751 358.658V359.035L51.4691 359.308C50.1431 359.464 49.2071 360.01 49.2071 361.271C49.2071 362.48 50.1821 363.143 51.3261 363.143C52.4181 363.143 53.3151 362.662 53.6011 361.895C53.6011 362.207 53.6401 362.636 53.7181 363ZM51.5471 362.324C50.7281 362.324 50.2991 361.856 50.2991 361.245C50.2991 360.361 50.9751 360.153 51.7941 360.036L53.5751 359.841V360.426C53.5751 361.687 52.5611 362.324 51.5471 362.324ZM58.5546 363H59.7636L62.2726 356.461H61.1936L59.1786 361.934H59.1526L57.0466 356.461H55.9416L58.5546 363ZM68.9591 361.076H67.9451C67.6721 361.869 67.1391 362.298 66.2551 362.298C65.0071 362.298 64.2141 361.466 64.1621 359.958H68.9981V359.529C68.9981 357.852 68.1271 356.305 66.1901 356.305C64.4481 356.305 63.1091 357.631 63.1091 359.763C63.1091 361.869 64.4091 363.156 66.2551 363.156C67.5291 363.156 68.6601 362.467 68.9591 361.076ZM66.1901 357.176C67.3601 357.176 67.9191 358.047 67.9451 359.178H64.2011C64.3831 357.839 65.1631 357.176 66.1901 357.176ZM80.2228 360.452C80.2228 358.996 79.3388 358.307 77.9478 358.021L77.1938 357.878V354.524C78.2208 354.654 78.8838 355.174 79.0008 356.084H80.0278C79.8718 354.589 78.8188 353.757 77.1938 353.601V352.353H76.4138V353.575C74.6458 353.653 73.4628 354.745 73.4628 356.214C73.4628 357.813 74.5418 358.385 75.7638 358.632L76.4138 358.762V362.22C75.2698 362.09 74.3208 361.505 74.2038 360.27H73.1638C73.2678 362.012 74.6978 362.961 76.4138 363.104V364.417H77.1938V363.117C78.9618 363.013 80.2228 361.921 80.2228 360.452ZM76.1018 357.657C74.9968 357.436 74.4898 357.098 74.4898 356.175C74.4898 355.252 75.1918 354.563 76.4138 354.498V357.722L76.1018 357.657ZM77.5318 358.97C78.7798 359.204 79.1828 359.724 79.1828 360.504C79.1828 361.518 78.3898 362.142 77.1938 362.233V358.905L77.5318 358.97ZM86.674 354.667C84.919 356.903 83.736 359.711 83.697 363H84.867C84.906 359.841 85.686 357.189 87.896 354.511V353.718H81.37V354.667H86.674ZM88.6029 362.987H89.2269V363.221C89.2269 364.079 88.8499 364.378 88.1869 364.378V365.041C89.3699 365.041 90.0199 364.3 90.0199 363.221V361.583H88.6029V362.987ZM95.1536 357.735C96.6226 357.735 97.3116 358.801 97.3116 359.984C97.3116 361.167 96.6226 362.246 95.1666 362.246C93.8536 362.246 92.9956 361.427 92.9046 360.244H91.7996C91.9426 362.038 93.2816 363.156 95.1536 363.156C97.1816 363.156 98.3906 361.752 98.3906 359.984C98.3906 358.229 97.1816 356.825 95.2446 356.825C94.3866 356.825 93.5806 357.241 93.1906 357.735L93.5026 354.667H97.9226V353.718H92.6966L92.1766 358.775H93.1776C93.5286 358.216 94.1786 357.735 95.1536 357.735ZM99.7484 358.359C99.7484 361.141 101.191 363.156 103.44 363.156C105.702 363.156 107.132 361.141 107.132 358.359C107.132 355.577 105.702 353.562 103.44 353.562C101.191 353.562 99.7484 355.577 99.7484 358.359ZM100.892 358.359C100.892 356.084 101.75 354.524 103.44 354.524C105.143 354.524 106.001 356.084 106.001 358.359C106.001 360.634 105.143 362.194 103.44 362.194C101.75 362.194 100.892 360.634 100.892 358.359ZM108.546 358.359C108.546 361.141 109.989 363.156 112.238 363.156C114.5 363.156 115.93 361.141 115.93 358.359C115.93 355.577 114.5 353.562 112.238 353.562C109.989 353.562 108.546 355.577 108.546 358.359ZM109.69 358.359C109.69 356.084 110.548 354.524 112.238 354.524C113.941 354.524 114.799 356.084 114.799 358.359C114.799 360.634 113.941 362.194 112.238 362.194C110.548 362.194 109.69 360.634 109.69 358.359Z" fill="#625451"/>
<path d="M234.083 360.452C234.083 358.996 233.199 358.307 231.808 358.021L231.054 357.878V354.524C232.081 354.654 232.744 355.174 232.861 356.084H233.888C233.732 354.589 232.679 353.757 231.054 353.601V352.353H230.274V353.575C228.506 353.653 227.323 354.745 227.323 356.214C227.323 357.813 228.402 358.385 229.624 358.632L230.274 358.762V362.22C229.13 362.09 228.181 361.505 228.064 360.27H227.024C227.128 362.012 228.558 362.961 230.274 363.104V364.417H231.054V363.117C232.822 363.013 234.083 361.921 234.083 360.452ZM229.962 357.657C228.857 357.436 228.35 357.098 228.35 356.175C228.35 355.252 229.052 354.563 230.274 354.498V357.722L229.962 357.657ZM231.392 358.97C232.64 359.204 233.043 359.724 233.043 360.504C233.043 361.518 232.25 362.142 231.054 362.233V358.905L231.392 358.97ZM241.678 356.266C241.678 354.888 240.69 353.562 238.74 353.562C236.79 353.562 235.672 354.94 235.581 356.578H236.634C236.712 355.46 237.453 354.498 238.727 354.498C240.105 354.498 240.612 355.382 240.612 356.266C240.612 357.345 239.611 358.034 238.376 358.827C236.998 359.685 235.399 360.842 235.399 362.493V363H241.769V362.064H236.595C236.595 361.219 237.713 360.439 238.844 359.685C240.235 358.788 241.678 358.008 241.678 356.266ZM246.31 357.735C247.779 357.735 248.468 358.801 248.468 359.984C248.468 361.167 247.779 362.246 246.323 362.246C245.01 362.246 244.152 361.427 244.061 360.244H242.956C243.099 362.038 244.438 363.156 246.31 363.156C248.338 363.156 249.547 361.752 249.547 359.984C249.547 358.229 248.338 356.825 246.401 356.825C245.543 356.825 244.737 357.241 244.347 357.735L244.659 354.667H249.079V353.718H243.853L243.333 358.775H244.334C244.685 358.216 245.335 357.735 246.31 357.735ZM250.905 358.359C250.905 361.141 252.348 363.156 254.597 363.156C256.859 363.156 258.289 361.141 258.289 358.359C258.289 355.577 256.859 353.562 254.597 353.562C252.348 353.562 250.905 355.577 250.905 358.359ZM252.049 358.359C252.049 356.084 252.907 354.524 254.597 354.524C256.3 354.524 257.158 356.084 257.158 358.359C257.158 360.634 256.3 362.194 254.597 362.194C252.907 362.194 252.049 360.634 252.049 358.359Z" fill="#E1AB54"/>
<path d="M41.7945 305.346C41.7945 303.032 42.8995 301.511 44.8105 301.511C46.3705 301.511 47.0465 302.382 47.2545 303.422H48.3465C48.0475 301.732 46.8385 300.562 44.8105 300.562C42.4185 300.562 40.6505 302.434 40.6505 305.346C40.6505 308.271 42.4185 310.156 44.8105 310.156C46.8385 310.156 48.0475 308.986 48.3465 307.296H47.2545C47.0465 308.336 46.3705 309.207 44.8105 309.207C42.8995 309.207 41.7945 307.66 41.7945 305.346ZM55.8026 306.737C55.8026 304.631 54.5026 303.305 52.6956 303.305C50.8886 303.305 49.5886 304.631 49.5886 306.737C49.5886 308.843 50.8886 310.156 52.6956 310.156C54.5026 310.156 55.8026 308.843 55.8026 306.737ZM50.6546 306.737C50.6546 305.164 51.4216 304.176 52.6956 304.176C53.9696 304.176 54.7366 305.164 54.7366 306.737C54.7366 308.31 53.9696 309.285 52.6956 309.285C51.4216 309.285 50.6546 308.31 50.6546 306.737ZM62.732 304.709C62.446 303.838 61.848 303.305 60.743 303.305C59.794 303.305 58.988 303.825 58.676 304.657V303.461H57.636V310H58.715V306.399C58.715 304.891 59.456 304.189 60.444 304.189C61.432 304.189 61.861 304.8 61.861 306.022V310H62.953V306.399C62.953 304.891 63.694 304.189 64.669 304.189C65.644 304.189 66.086 304.8 66.086 306.022V310H67.178V305.788C67.178 304.254 66.437 303.305 64.929 303.305C63.967 303.305 63.135 303.825 62.732 304.709ZM70.4963 308.856C70.8213 309.519 71.5883 310.156 72.6673 310.156C74.3313 310.156 75.5793 308.804 75.5793 306.737C75.5793 304.657 74.3313 303.305 72.6673 303.305C71.5363 303.305 70.7563 303.994 70.4573 304.657V303.461H69.4173V312.314H70.4963V308.856ZM70.4443 306.633C70.4443 305.151 71.1723 304.15 72.4463 304.15C73.7333 304.15 74.4873 305.203 74.4873 306.737C74.4873 308.258 73.7333 309.311 72.4463 309.311C71.1723 309.311 70.4443 308.297 70.4443 306.815V306.633ZM78.4943 310V300.432H77.4153V310H78.4943ZM86.1739 308.076H85.1599C84.8869 308.869 84.3539 309.298 83.4699 309.298C82.2219 309.298 81.4289 308.466 81.3769 306.958H86.2129V306.529C86.2129 304.852 85.3419 303.305 83.4049 303.305C81.6629 303.305 80.3239 304.631 80.3239 306.763C80.3239 308.869 81.6239 310.156 83.4699 310.156C84.7439 310.156 85.8749 309.467 86.1739 308.076ZM83.4049 304.176C84.5749 304.176 85.1339 305.047 85.1599 306.178H81.4159C81.5979 304.839 82.3779 304.176 83.4049 304.176ZM91.0833 309.038C90.6673 309.168 90.3813 309.194 90.1343 309.194C89.5363 309.194 89.1853 308.96 89.1853 308.271V304.28H90.9143V303.461H89.1983V301.797H88.1323V303.461H87.1703V304.28H88.1323V308.323C88.1323 309.532 88.7433 310.104 89.9393 310.104C90.2253 310.104 90.6023 310.065 91.0833 309.922V309.038ZM98.1329 308.076H97.1189C96.8459 308.869 96.3129 309.298 95.4289 309.298C94.1809 309.298 93.3879 308.466 93.3359 306.958H98.1719V306.529C98.1719 304.852 97.3009 303.305 95.3639 303.305C93.6219 303.305 92.2829 304.631 92.2829 306.763C92.2829 308.869 93.5829 310.156 95.4289 310.156C96.7029 310.156 97.8339 309.467 98.1329 308.076ZM95.3639 304.176C96.5339 304.176 97.0929 305.047 97.1189 306.178H93.3749C93.5569 304.839 94.3369 304.176 95.3639 304.176ZM104.652 310.052C104.223 311.157 103.924 311.521 103.274 311.521C103.105 311.521 102.962 311.521 102.754 311.469V312.353C102.962 312.392 103.209 312.418 103.391 312.418C104.587 312.405 105.107 311.755 105.705 310.195L108.344 303.461H107.226L105.263 308.804H105.237L103.157 303.461H102.026L104.652 310.052ZM115.382 306.737C115.382 304.631 114.082 303.305 112.275 303.305C110.468 303.305 109.168 304.631 109.168 306.737C109.168 308.843 110.468 310.156 112.275 310.156C114.082 310.156 115.382 308.843 115.382 306.737ZM110.234 306.737C110.234 305.164 111.001 304.176 112.275 304.176C113.549 304.176 114.316 305.164 114.316 306.737C114.316 308.31 113.549 309.285 112.275 309.285C111.001 309.285 110.234 308.31 110.234 306.737ZM122.597 310V303.461H121.505V307.062C121.505 308.635 120.764 309.311 119.776 309.311C118.749 309.311 118.242 308.674 118.242 307.465V303.461H117.15V307.673C117.15 309.259 117.982 310.156 119.464 310.156C120.452 310.156 121.232 309.636 121.544 308.817V310H122.597ZM128.535 303.37C128.379 303.331 128.197 303.318 128.028 303.318C127.066 303.318 126.234 303.929 125.948 305.008V303.461H124.908V310H125.987V306.776C125.987 305.125 126.936 304.306 127.976 304.306C128.145 304.306 128.379 304.319 128.535 304.358V303.37ZM42.2365 322.657V318.432H41.1575V328H42.2365V324.399C42.2365 322.826 43.0295 322.189 44.0305 322.189C45.0575 322.189 45.5905 322.813 45.5905 324.022V328H46.6695V323.788C46.6695 322.228 45.7985 321.305 44.3295 321.305C43.3285 321.305 42.5485 321.825 42.2365 322.657ZM54.6473 324.737C54.6473 322.631 53.3473 321.305 51.5403 321.305C49.7333 321.305 48.4333 322.631 48.4333 324.737C48.4333 326.843 49.7333 328.156 51.5403 328.156C53.3473 328.156 54.6473 326.843 54.6473 324.737ZM49.4993 324.737C49.4993 323.164 50.2663 322.176 51.5403 322.176C52.8143 322.176 53.5813 323.164 53.5813 324.737C53.5813 326.31 52.8143 327.285 51.5403 327.285C50.2663 327.285 49.4993 326.31 49.4993 324.737ZM61.5767 322.709C61.2907 321.838 60.6927 321.305 59.5877 321.305C58.6387 321.305 57.8327 321.825 57.5207 322.657V321.461H56.4807V328H57.5597V324.399C57.5597 322.891 58.3007 322.189 59.2887 322.189C60.2767 322.189 60.7057 322.8 60.7057 324.022V328H61.7977V324.399C61.7977 322.891 62.5387 322.189 63.5137 322.189C64.4887 322.189 64.9307 322.8 64.9307 324.022V328H66.0227V323.788C66.0227 322.254 65.2817 321.305 63.7737 321.305C62.8117 321.305 61.9797 321.825 61.5767 322.709ZM73.631 326.076H72.617C72.344 326.869 71.811 327.298 70.927 327.298C69.679 327.298 68.886 326.466 68.834 324.958H73.67V324.529C73.67 322.852 72.799 321.305 70.862 321.305C69.12 321.305 67.781 322.631 67.781 324.763C67.781 326.869 69.081 328.156 70.927 328.156C72.201 328.156 73.332 327.467 73.631 326.076ZM70.862 322.176C72.032 322.176 72.591 323.047 72.617 324.178H68.873C69.055 322.839 69.835 322.176 70.862 322.176ZM76.5383 326.856C76.8633 327.519 77.6693 328.156 78.7483 328.156C80.4123 328.156 81.6603 326.804 81.6603 324.737C81.6603 322.657 80.4123 321.305 78.7483 321.305C77.6173 321.305 76.8763 321.955 76.5773 322.618V318.432H75.4983V328H76.5383V326.856ZM76.5253 324.633C76.5253 323.151 77.2533 322.15 78.5273 322.15C79.8143 322.15 80.5683 323.203 80.5683 324.737C80.5683 326.258 79.8143 327.311 78.5273 327.311C77.2533 327.311 76.5253 326.297 76.5253 324.815V324.633ZM88.8784 328V321.461H87.7864V325.062C87.7864 326.635 87.0454 327.311 86.0574 327.311C85.0304 327.311 84.5234 326.674 84.5234 325.465V321.461H83.4314V325.673C83.4314 327.259 84.2634 328.156 85.7454 328.156C86.7334 328.156 87.5134 327.636 87.8254 326.817V328H88.8784ZM93.0227 328.052C92.5937 329.157 92.2947 329.521 91.6447 329.521C91.4757 329.521 91.3327 329.521 91.1247 329.469V330.353C91.3327 330.392 91.5797 330.418 91.7617 330.418C92.9577 330.405 93.4777 329.755 94.0757 328.195L96.7147 321.461H95.5967L93.6337 326.804H93.6077L91.5277 321.461H90.3967L93.0227 328.052ZM103.389 326.076H102.375C102.102 326.869 101.569 327.298 100.685 327.298C99.4368 327.298 98.6438 326.466 98.5918 324.958H103.428V324.529C103.428 322.852 102.557 321.305 100.62 321.305C98.8778 321.305 97.5388 322.631 97.5388 324.763C97.5388 326.869 98.8388 328.156 100.685 328.156C101.959 328.156 103.09 327.467 103.389 326.076ZM100.62 322.176C101.79 322.176 102.349 323.047 102.375 324.178H98.6308C98.8128 322.839 99.5928 322.176 100.62 322.176ZM108.883 321.37C108.727 321.331 108.545 321.318 108.376 321.318C107.414 321.318 106.582 321.929 106.296 323.008V321.461H105.256V328H106.335V324.776C106.335 323.125 107.284 322.306 108.324 322.306C108.493 322.306 108.727 322.319 108.883 322.358V321.37ZM110.972 319.706H111.635V319.888C111.635 320.733 111.232 321.045 110.569 321.045V321.695C111.739 321.695 112.389 320.954 112.389 319.875V318.432H110.972V319.706ZM113.406 326.063C113.523 327.467 114.693 328.156 116.253 328.156C117.722 328.156 118.801 327.311 118.801 326.167C118.801 325.114 118.177 324.594 117.111 324.386L115.811 324.139C115.057 323.996 114.667 323.762 114.667 323.203C114.667 322.566 115.226 322.137 116.097 322.137C116.994 322.137 117.579 322.527 117.657 323.19H118.658C118.528 321.955 117.605 321.305 116.097 321.305C114.654 321.305 113.666 322.163 113.666 323.268C113.666 324.412 114.433 324.841 115.486 325.036L116.643 325.27C117.475 325.426 117.787 325.738 117.787 326.219C117.787 326.921 117.137 327.337 116.24 327.337C115.356 327.337 114.524 326.96 114.446 326.063H113.406ZM124.566 326.856C124.891 327.519 125.658 328.156 126.737 328.156C128.401 328.156 129.649 326.804 129.649 324.737C129.649 322.657 128.401 321.305 126.737 321.305C125.606 321.305 124.826 321.994 124.527 322.657V321.461H123.487V330.314H124.566V326.856ZM124.514 324.633C124.514 323.151 125.242 322.15 126.516 322.15C127.803 322.15 128.557 323.203 128.557 324.737C128.557 326.258 127.803 327.311 126.516 327.311C125.242 327.311 124.514 326.297 124.514 324.815V324.633ZM135.112 321.37C134.956 321.331 134.774 321.318 134.605 321.318C133.643 321.318 132.811 321.929 132.525 323.008V321.461H131.485V328H132.564V324.776C132.564 323.125 133.513 322.306 134.553 322.306C134.722 322.306 134.956 322.319 135.112 322.358V321.37ZM142.093 324.737C142.093 322.631 140.793 321.305 138.986 321.305C137.179 321.305 135.879 322.631 135.879 324.737C135.879 326.843 137.179 328.156 138.986 328.156C140.793 328.156 142.093 326.843 142.093 324.737ZM136.945 324.737C136.945 323.164 137.712 322.176 138.986 322.176C140.26 322.176 141.027 323.164 141.027 324.737C141.027 326.31 140.26 327.285 138.986 327.285C137.712 327.285 136.945 326.31 136.945 324.737ZM144.095 322.28V328H145.161V322.28H146.565V321.461H145.161V320.252C145.161 319.511 145.59 319.277 146.058 319.277C146.292 319.277 146.552 319.29 146.721 319.316V318.458C146.526 318.419 146.227 318.393 145.993 318.393C144.875 318.393 144.095 319.017 144.095 320.239V321.461H143.146V322.28H144.095ZM147.885 320.096H149.107V318.783H147.885V320.096ZM147.963 328H149.042V321.461H147.963V328ZM152.432 328V318.432H151.353V328H152.432ZM160.111 326.076H159.097C158.824 326.869 158.291 327.298 157.407 327.298C156.159 327.298 155.366 326.466 155.314 324.958H160.15V324.529C160.15 322.852 159.279 321.305 157.342 321.305C155.6 321.305 154.261 322.631 154.261 324.763C154.261 326.869 155.561 328.156 157.407 328.156C158.681 328.156 159.812 327.467 160.111 326.076ZM157.342 322.176C158.512 322.176 159.071 323.047 159.097 324.178H155.353C155.535 322.839 156.315 322.176 157.342 322.176Z" fill="#625451"/>
<path d="M241.523 307.452C241.523 305.996 240.639 305.307 239.248 305.021L238.494 304.878V301.524C239.521 301.654 240.184 302.174 240.301 303.084H241.328C241.172 301.589 240.119 300.757 238.494 300.601V299.353H237.714V300.575C235.946 300.653 234.763 301.745 234.763 303.214C234.763 304.813 235.842 305.385 237.064 305.632L237.714 305.762V309.22C236.57 309.09 235.621 308.505 235.504 307.27H234.464C234.568 309.012 235.998 309.961 237.714 310.104V311.417H238.494V310.117C240.262 310.013 241.523 308.921 241.523 307.452ZM237.402 304.657C236.297 304.436 235.79 304.098 235.79 303.175C235.79 302.252 236.492 301.563 237.714 301.498V304.722L237.402 304.657ZM238.832 305.97C240.08 306.204 240.483 306.724 240.483 307.504C240.483 308.518 239.69 309.142 238.494 309.233V305.905L238.832 305.97ZM246.31 304.735C247.779 304.735 248.468 305.801 248.468 306.984C248.468 308.167 247.779 309.246 246.323 309.246C245.01 309.246 244.152 308.427 244.061 307.244H242.956C243.099 309.038 244.438 310.156 246.31 310.156C248.338 310.156 249.547 308.752 249.547 306.984C249.547 305.229 248.338 303.825 246.401 303.825C245.543 303.825 244.737 304.241 244.347 304.735L244.659 301.667H249.079V300.718H243.853L243.333 305.775H244.334C244.685 305.216 245.335 304.735 246.31 304.735ZM250.905 305.359C250.905 308.141 252.348 310.156 254.597 310.156C256.859 310.156 258.289 308.141 258.289 305.359C258.289 302.577 256.859 300.562 254.597 300.562C252.348 300.562 250.905 302.577 250.905 305.359ZM252.049 305.359C252.049 303.084 252.907 301.524 254.597 301.524C256.3 301.524 257.158 303.084 257.158 305.359C257.158 307.634 256.3 309.194 254.597 309.194C252.907 309.194 252.049 307.634 252.049 305.359Z" fill="#E1AB54"/>
<line x1="0.000488281" y1="340.875" x2="281" y2="340.875" stroke="#CECCCA" stroke-width="0.25"/>
<g opacity="0.75">
<path d="M27.6673 267.5L21.2507 273.917L18.334 271" stroke="#E1AB54" stroke-width="1.16667" stroke-linecap="round" stroke-linejoin="round"/>
</g>
<g opacity="0.75">
<path d="M27.6673 302.5L21.2507 308.917L18.334 306" stroke="#E1AB54" stroke-width="1.16667" stroke-linecap="round" stroke-linejoin="round"/>
</g>
<g opacity="0.75">
<path d="M27.6673 354.5L21.2507 360.917L18.334 358" stroke="#E1AB54" stroke-width="1.16667" stroke-linecap="round" stroke-linejoin="round"/>
</g>
<rect opacity="0.3" x="15.25" y="206.25" width="244.5" height="30.5" rx="3.75" fill="#DBEAE0" stroke="#A2CAAF" stroke-width="0.5"/>
<path d="M111.129 226V222.744L114.132 218.146H113.087L110.711 221.897H110.689L108.236 218.146H107.191L110.183 222.744V226H111.129ZM119.344 223.239C119.344 221.457 118.244 220.335 116.715 220.335C115.186 220.335 114.086 221.457 114.086 223.239C114.086 225.021 115.186 226.132 116.715 226.132C118.244 226.132 119.344 225.021 119.344 223.239ZM114.988 223.239C114.988 221.908 115.637 221.072 116.715 221.072C117.793 221.072 118.442 221.908 118.442 223.239C118.442 224.57 117.793 225.395 116.715 225.395C115.637 225.395 114.988 224.57 114.988 223.239ZM125.449 226V220.467H124.525V223.514C124.525 224.845 123.898 225.417 123.062 225.417C122.193 225.417 121.764 224.878 121.764 223.855V220.467H120.84V224.031C120.84 225.373 121.544 226.132 122.798 226.132C123.634 226.132 124.294 225.692 124.558 224.999V226H125.449ZM127.526 218.982H128.087V219.136C128.087 219.851 127.746 220.115 127.185 220.115V220.665C128.175 220.665 128.725 220.038 128.725 219.125V217.904H127.526V218.982ZM133.406 220.39C133.274 220.357 133.12 220.346 132.977 220.346C132.163 220.346 131.459 220.863 131.217 221.776V220.467H130.337V226H131.25V223.272C131.25 221.875 132.053 221.182 132.933 221.182C133.076 221.182 133.274 221.193 133.406 221.226V220.39ZM139.005 224.372H138.147C137.916 225.043 137.465 225.406 136.717 225.406C135.661 225.406 134.99 224.702 134.946 223.426H139.038V223.063C139.038 221.644 138.301 220.335 136.662 220.335C135.188 220.335 134.055 221.457 134.055 223.261C134.055 225.043 135.155 226.132 136.717 226.132C137.795 226.132 138.752 225.549 139.005 224.372ZM136.662 221.072C137.652 221.072 138.125 221.809 138.147 222.766H134.979C135.133 221.633 135.793 221.072 136.662 221.072ZM146.358 226H147.271C147.161 225.637 147.139 225.252 147.139 224.845V222.304C147.139 220.973 146.303 220.335 144.961 220.335C143.784 220.335 142.904 220.973 142.794 222.095H143.674C143.74 221.457 144.202 221.072 144.939 221.072C145.698 221.072 146.237 221.446 146.237 222.326V222.645L144.455 222.876C143.333 223.008 142.541 223.47 142.541 224.537C142.541 225.56 143.366 226.121 144.334 226.121C145.258 226.121 146.017 225.714 146.259 225.065C146.259 225.329 146.292 225.692 146.358 226ZM144.521 225.428C143.828 225.428 143.465 225.032 143.465 224.515C143.465 223.767 144.037 223.591 144.73 223.492L146.237 223.327V223.822C146.237 224.889 145.379 225.428 144.521 225.428ZM149.953 226V217.904H149.04V226H149.953ZM156.22 221.523C155.978 220.786 155.472 220.335 154.537 220.335C153.734 220.335 153.052 220.775 152.788 221.479V220.467H151.908V226H152.821V222.953C152.821 221.677 153.448 221.083 154.284 221.083C155.12 221.083 155.483 221.6 155.483 222.634V226H156.407V222.953C156.407 221.677 157.034 221.083 157.859 221.083C158.684 221.083 159.058 221.6 159.058 222.634V226H159.982V222.436C159.982 221.138 159.355 220.335 158.079 220.335C157.265 220.335 156.561 220.775 156.22 221.523ZM166.727 223.239C166.727 221.457 165.627 220.335 164.098 220.335C162.569 220.335 161.469 221.457 161.469 223.239C161.469 225.021 162.569 226.132 164.098 226.132C165.627 226.132 166.727 225.021 166.727 223.239ZM162.371 223.239C162.371 221.908 163.02 221.072 164.098 221.072C165.176 221.072 165.825 221.908 165.825 223.239C165.825 224.57 165.176 225.395 164.098 225.395C163.02 225.395 162.371 224.57 162.371 223.239ZM167.806 224.361C167.905 225.549 168.895 226.132 170.215 226.132C171.458 226.132 172.371 225.417 172.371 224.449C172.371 223.558 171.843 223.118 170.941 222.942L169.841 222.733C169.203 222.612 168.873 222.414 168.873 221.941C168.873 221.402 169.346 221.039 170.083 221.039C170.842 221.039 171.337 221.369 171.403 221.93H172.25C172.14 220.885 171.359 220.335 170.083 220.335C168.862 220.335 168.026 221.061 168.026 221.996C168.026 222.964 168.675 223.327 169.566 223.492L170.545 223.69C171.249 223.822 171.513 224.086 171.513 224.493C171.513 225.087 170.963 225.439 170.204 225.439C169.456 225.439 168.752 225.12 168.686 224.361H167.806ZM176.525 225.186C176.173 225.296 175.931 225.318 175.722 225.318C175.216 225.318 174.919 225.12 174.919 224.537V221.16H176.382V220.467H174.93V219.059H174.028V220.467H173.214V221.16H174.028V224.581C174.028 225.604 174.545 226.088 175.557 226.088C175.799 226.088 176.118 226.055 176.525 225.934V225.186ZM182.97 225.186C182.618 225.296 182.376 225.318 182.167 225.318C181.661 225.318 181.364 225.12 181.364 224.537V221.16H182.827V220.467H181.375V219.059H180.473V220.467H179.659V221.16H180.473V224.581C180.473 225.604 180.99 226.088 182.002 226.088C182.244 226.088 182.563 226.055 182.97 225.934V225.186ZM185.37 221.479V217.904H184.457V226H185.37V222.953C185.37 221.622 186.041 221.083 186.888 221.083C187.757 221.083 188.208 221.611 188.208 222.634V226H189.121V222.436C189.121 221.116 188.384 220.335 187.141 220.335C186.294 220.335 185.634 220.775 185.37 221.479ZM195.563 224.372H194.705C194.474 225.043 194.023 225.406 193.275 225.406C192.219 225.406 191.548 224.702 191.504 223.426H195.596V223.063C195.596 221.644 194.859 220.335 193.22 220.335C191.746 220.335 190.613 221.457 190.613 223.261C190.613 225.043 191.713 226.132 193.275 226.132C194.353 226.132 195.31 225.549 195.563 224.372ZM193.22 221.072C194.21 221.072 194.683 221.809 194.705 222.766H191.537C191.691 221.633 192.351 221.072 193.22 221.072ZM200.212 220.39C200.08 220.357 199.926 220.346 199.783 220.346C198.969 220.346 198.265 220.863 198.023 221.776V220.467H197.143V226H198.056V223.272C198.056 221.875 198.859 221.182 199.739 221.182C199.882 221.182 200.08 221.193 200.212 221.226V220.39ZM205.811 224.372H204.953C204.722 225.043 204.271 225.406 203.523 225.406C202.467 225.406 201.796 224.702 201.752 223.426H205.844V223.063C205.844 221.644 205.107 220.335 203.468 220.335C201.994 220.335 200.861 221.457 200.861 223.261C200.861 225.043 201.961 226.132 203.523 226.132C204.601 226.132 205.558 225.549 205.811 224.372ZM203.468 221.072C204.458 221.072 204.931 221.809 204.953 222.766H201.785C201.939 221.633 202.599 221.072 203.468 221.072ZM207.567 218.146L207.743 223.613H208.48L208.645 218.146H207.567ZM207.501 226H208.7V224.812H207.501V226Z" fill="#625451"/>
<path d="M78.66 230C78.66 230 78.5531 225.866 78.3436 223.504M78.3436 223.504C78.2094 221.842 78.1342 220.91 78 219.248L83.06 218.8L82.8 220.4L86.58 219.92L85.26 222.16L86.8 224.176L81.2 224.8L81.64 223.232C81.64 223.232 79.9277 223.329 78.3436 223.504Z" stroke="#625451"/>
<path d="M74.3998 227.6L72.7998 228.4" stroke="#625451" stroke-linecap="round" stroke-linejoin="round"/>
<path d="M74.0001 219.6L71.6001 218.8" stroke="#625451" stroke-linecap="round" stroke-linejoin="round"/>
<path d="M73.2 223.6L70 224" stroke="#625451" stroke-linecap="round" stroke-linejoin="round"/>
<path d="M90.0001 227.6L91.6001 228.4" stroke="#625451" stroke-linecap="round" stroke-linejoin="round"/>
<path d="M90.3997 219.2L93.1997 217.6" stroke="#625451" stroke-linecap="round" stroke-linejoin="round"/>
<path d="M90.3999 223.2L94.3999 223.6" stroke="#625451" stroke-linecap="round" stroke-linejoin="round"/>
<path d="M76.4 216L76 215.2" stroke="#625451" stroke-linecap="round" stroke-linejoin="round"/>
<path d="M86.3999 215.6L87.5999 214.4" stroke="#625451" stroke-linecap="round" stroke-linejoin="round"/>
<path d="M80.7998 214.8V214" stroke="#625451" stroke-linecap="round" stroke-linejoin="round"/>
<path d="M47.488 146V145.064H42.314V141.84H46.903V140.891H42.314V137.654H47.475V136.718H41.209V146H47.488ZM53.5653 146H54.6443C54.5143 145.571 54.4883 145.116 54.4883 144.635V141.632C54.4883 140.059 53.5003 139.305 51.9143 139.305C50.5233 139.305 49.4833 140.059 49.3533 141.385H50.3933C50.4713 140.631 51.0173 140.176 51.8883 140.176C52.7853 140.176 53.4223 140.618 53.4223 141.658V142.035L51.3163 142.308C49.9903 142.464 49.0543 143.01 49.0543 144.271C49.0543 145.48 50.0293 146.143 51.1733 146.143C52.2653 146.143 53.1623 145.662 53.4483 144.895C53.4483 145.207 53.4873 145.636 53.5653 146ZM51.3943 145.324C50.5753 145.324 50.1463 144.856 50.1463 144.245C50.1463 143.361 50.8223 143.153 51.6413 143.036L53.4223 142.841V143.426C53.4223 144.687 52.4083 145.324 51.3943 145.324ZM60.3611 139.37C60.2051 139.331 60.0231 139.318 59.8541 139.318C58.8921 139.318 58.0601 139.929 57.7741 141.008V139.461H56.7341V146H57.8131V142.776C57.8131 141.125 58.7621 140.306 59.8021 140.306C59.9711 140.306 60.2051 140.319 60.3611 140.358V139.37ZM62.7761 139.461H61.7361V146H62.8151V142.399C62.8151 140.826 63.6081 140.189 64.6091 140.189C65.6361 140.189 66.1691 140.813 66.1691 142.022V146H67.2481V141.788C67.2481 140.228 66.3771 139.305 64.9081 139.305C63.9071 139.305 63.0881 139.851 62.7761 140.657V139.461ZM74.1443 146.052C73.7153 147.157 73.4163 147.521 72.7663 147.521C72.5973 147.521 72.4543 147.521 72.2463 147.469V148.353C72.4543 148.392 72.7013 148.418 72.8833 148.418C74.0793 148.405 74.5993 147.755 75.1973 146.195L77.8363 139.461H76.7183L74.7553 144.804H74.7293L72.6493 139.461H71.5183L74.1443 146.052ZM84.8744 142.737C84.8744 140.631 83.5744 139.305 81.7674 139.305C79.9604 139.305 78.6604 140.631 78.6604 142.737C78.6604 144.843 79.9604 146.156 81.7674 146.156C83.5744 146.156 84.8744 144.843 84.8744 142.737ZM79.7264 142.737C79.7264 141.164 80.4934 140.176 81.7674 140.176C83.0414 140.176 83.8084 141.164 83.8084 142.737C83.8084 144.31 83.0414 145.285 81.7674 145.285C80.4934 145.285 79.7264 144.31 79.7264 142.737ZM92.0898 146V139.461H90.9978V143.062C90.9978 144.635 90.2568 145.311 89.2688 145.311C88.2418 145.311 87.7348 144.674 87.7348 143.465V139.461H86.6428V143.673C86.6428 145.259 87.4748 146.156 88.9568 146.156C89.9448 146.156 90.7248 145.636 91.0368 144.817V146H92.0898ZM98.0281 139.37C97.8721 139.331 97.6901 139.318 97.5211 139.318C96.5591 139.318 95.7271 139.929 95.4411 141.008V139.461H94.4011V146H95.4801V142.776C95.4801 141.125 96.4291 140.306 97.4691 140.306C97.6381 140.306 97.8721 140.319 98.0281 140.358V139.37ZM103.261 139.461H102.221V146H103.3V142.399C103.3 140.826 104.093 140.189 105.094 140.189C106.121 140.189 106.654 140.813 106.654 142.022V146H107.733V141.788C107.733 140.228 106.862 139.305 105.393 139.305C104.392 139.305 103.573 139.851 103.261 140.657V139.461ZM115.347 144.076H114.333C114.06 144.869 113.527 145.298 112.643 145.298C111.395 145.298 110.602 144.466 110.55 142.958H115.386V142.529C115.386 140.852 114.515 139.305 112.578 139.305C110.836 139.305 109.497 140.631 109.497 142.763C109.497 144.869 110.797 146.156 112.643 146.156C113.917 146.156 115.048 145.467 115.347 144.076ZM112.578 140.176C113.748 140.176 114.307 141.047 114.333 142.178H110.589C110.771 140.839 111.551 140.176 112.578 140.176ZM117.417 146L119.315 143.374L121.252 146H122.513L119.991 142.581L122.305 139.461H121.135L119.406 141.866L117.664 139.461H116.39L118.743 142.633L116.26 146H117.417ZM127.188 145.038C126.772 145.168 126.486 145.194 126.239 145.194C125.641 145.194 125.29 144.96 125.29 144.271V140.28H127.019V139.461H125.303V137.797H124.237V139.461H123.275V140.28H124.237V144.323C124.237 145.532 124.848 146.104 126.044 146.104C126.33 146.104 126.707 146.065 127.188 145.922V145.038ZM135.39 139.37C135.234 139.331 135.052 139.318 134.883 139.318C133.921 139.318 133.089 139.929 132.803 141.008V139.461H131.763V146H132.842V142.776C132.842 141.125 133.791 140.306 134.831 140.306C135 140.306 135.234 140.319 135.39 140.358V139.37ZM142.007 144.076H140.993C140.72 144.869 140.187 145.298 139.303 145.298C138.055 145.298 137.262 144.466 137.21 142.958H142.046V142.529C142.046 140.852 141.175 139.305 139.238 139.305C137.496 139.305 136.157 140.631 136.157 142.763C136.157 144.869 137.457 146.156 139.303 146.156C140.577 146.156 141.708 145.467 142.007 144.076ZM139.238 140.176C140.408 140.176 140.967 141.047 140.993 142.178H137.249C137.431 140.839 138.211 140.176 139.238 140.176ZM148.18 139.461H147.088L145.632 144.83H145.593L144.072 139.461H143.006L144.982 146H146.113L147.595 140.709H147.634L149.142 146H150.26L152.236 139.461H151.196L149.688 144.83H149.662L148.18 139.461ZM157.667 146H158.746C158.616 145.571 158.59 145.116 158.59 144.635V141.632C158.59 140.059 157.602 139.305 156.016 139.305C154.625 139.305 153.585 140.059 153.455 141.385H154.495C154.573 140.631 155.119 140.176 155.99 140.176C156.887 140.176 157.524 140.618 157.524 141.658V142.035L155.418 142.308C154.092 142.464 153.156 143.01 153.156 144.271C153.156 145.48 154.131 146.143 155.275 146.143C156.367 146.143 157.264 145.662 157.55 144.895C157.55 145.207 157.589 145.636 157.667 146ZM155.496 145.324C154.677 145.324 154.248 144.856 154.248 144.245C154.248 143.361 154.924 143.153 155.743 143.036L157.524 142.841V143.426C157.524 144.687 156.51 145.324 155.496 145.324ZM164.463 139.37C164.307 139.331 164.125 139.318 163.956 139.318C162.994 139.318 162.162 139.929 161.876 141.008V139.461H160.836V146H161.915V142.776C161.915 141.125 162.864 140.306 163.904 140.306C164.073 140.306 164.307 140.319 164.463 140.358V139.37ZM170.352 146H171.392V136.432H170.313V140.618C170.014 139.955 169.273 139.305 168.142 139.305C166.478 139.305 165.23 140.657 165.23 142.737C165.23 144.804 166.478 146.156 168.142 146.156C169.221 146.156 170.027 145.519 170.352 144.856V146ZM170.365 142.815C170.365 144.297 169.637 145.311 168.363 145.311C167.076 145.311 166.322 144.258 166.322 142.737C166.322 141.203 167.076 140.15 168.363 140.15C169.637 140.15 170.365 141.151 170.365 142.633V142.815ZM45.538 157.461H44.446L42.99 162.83H42.951L41.43 157.461H40.364L42.34 164H43.471L44.953 158.709H44.992L46.5 164H47.618L49.594 157.461H48.554L47.046 162.83H47.02L45.538 157.461ZM52.1764 158.657V154.432H51.0974V164H52.1764V160.399C52.1764 158.826 52.9694 158.189 53.9704 158.189C54.9974 158.189 55.5304 158.813 55.5304 160.022V164H56.6094V159.788C56.6094 158.228 55.7384 157.305 54.2694 157.305C53.2684 157.305 52.4884 157.825 52.1764 158.657ZM64.2233 162.076H63.2093C62.9363 162.869 62.4033 163.298 61.5193 163.298C60.2713 163.298 59.4783 162.466 59.4263 160.958H64.2623V160.529C64.2623 158.852 63.3913 157.305 61.4543 157.305C59.7123 157.305 58.3733 158.631 58.3733 160.763C58.3733 162.869 59.6733 164.156 61.5193 164.156C62.7933 164.156 63.9243 163.467 64.2233 162.076ZM61.4543 158.176C62.6243 158.176 63.1833 159.047 63.2093 160.178H59.4653C59.6473 158.839 60.4273 158.176 61.4543 158.176ZM67.1306 157.461H66.0906V164H67.1696V160.399C67.1696 158.826 67.9626 158.189 68.9636 158.189C69.9906 158.189 70.5236 158.813 70.5236 160.022V164H71.6026V159.788C71.6026 158.228 70.7316 157.305 69.2626 157.305C68.2616 157.305 67.4426 157.851 67.1306 158.657V157.461ZM78.4988 164.052C78.0698 165.157 77.7708 165.521 77.1208 165.521C76.9518 165.521 76.8088 165.521 76.6008 165.469V166.353C76.8088 166.392 77.0558 166.418 77.2378 166.418C78.4338 166.405 78.9538 165.755 79.5518 164.195L82.1908 157.461H81.0728L79.1098 162.804H79.0838L77.0038 157.461H75.8728L78.4988 164.052ZM89.2289 160.737C89.2289 158.631 87.9289 157.305 86.1219 157.305C84.3149 157.305 83.0149 158.631 83.0149 160.737C83.0149 162.843 84.3149 164.156 86.1219 164.156C87.9289 164.156 89.2289 162.843 89.2289 160.737ZM84.0809 160.737C84.0809 159.164 84.8479 158.176 86.1219 158.176C87.3959 158.176 88.1629 159.164 88.1629 160.737C88.1629 162.31 87.3959 163.285 86.1219 163.285C84.8479 163.285 84.0809 162.31 84.0809 160.737ZM96.4443 164V157.461H95.3523V161.062C95.3523 162.635 94.6113 163.311 93.6233 163.311C92.5963 163.311 92.0893 162.674 92.0893 161.465V157.461H90.9973V161.673C90.9973 163.259 91.8293 164.156 93.3113 164.156C94.2993 164.156 95.0793 163.636 95.3913 162.817V164H96.4443ZM105.201 157.37C105.045 157.331 104.863 157.318 104.694 157.318C103.732 157.318 102.9 157.929 102.614 159.008V157.461H101.574V164H102.653V160.776C102.653 159.125 103.602 158.306 104.642 158.306C104.811 158.306 105.045 158.319 105.201 158.358V157.37ZM111.818 162.076H110.804C110.531 162.869 109.998 163.298 109.114 163.298C107.866 163.298 107.073 162.466 107.021 160.958H111.857V160.529C111.857 158.852 110.986 157.305 109.049 157.305C107.307 157.305 105.968 158.631 105.968 160.763C105.968 162.869 107.268 164.156 109.114 164.156C110.388 164.156 111.519 163.467 111.818 162.076ZM109.049 158.176C110.219 158.176 110.778 159.047 110.804 160.178H107.06C107.242 158.839 108.022 158.176 109.049 158.176ZM117.829 164H118.908C118.778 163.571 118.752 163.116 118.752 162.635V159.632C118.752 158.059 117.764 157.305 116.178 157.305C114.787 157.305 113.747 158.059 113.617 159.385H114.657C114.735 158.631 115.281 158.176 116.152 158.176C117.049 158.176 117.686 158.618 117.686 159.658V160.035L115.58 160.308C114.254 160.464 113.318 161.01 113.318 162.271C113.318 163.48 114.293 164.143 115.437 164.143C116.529 164.143 117.426 163.662 117.712 162.895C117.712 163.207 117.751 163.636 117.829 164ZM115.658 163.324C114.839 163.324 114.41 162.856 114.41 162.245C114.41 161.361 115.086 161.153 115.905 161.036L117.686 160.841V161.426C117.686 162.687 116.672 163.324 115.658 163.324ZM120.517 160.737C120.517 162.83 121.778 164.156 123.598 164.156C125.054 164.156 126.016 163.337 126.224 161.933H125.197C125.015 162.804 124.482 163.285 123.598 163.285C122.311 163.285 121.583 162.271 121.583 160.737C121.583 159.203 122.311 158.176 123.598 158.176C124.482 158.176 125.015 158.657 125.197 159.528H126.224C126.016 158.137 125.054 157.305 123.598 157.305C121.778 157.305 120.517 158.644 120.517 160.737ZM129.085 158.657V154.432H128.006V164H129.085V160.399C129.085 158.826 129.878 158.189 130.879 158.189C131.906 158.189 132.439 158.813 132.439 160.022V164H133.518V159.788C133.518 158.228 132.647 157.305 131.178 157.305C130.177 157.305 129.397 157.825 129.085 158.657Z" fill="#2D2828"/>
<path d="M145.159 161.452C145.159 159.996 144.275 159.307 142.884 159.021L142.13 158.878V155.524C143.157 155.654 143.82 156.174 143.937 157.084H144.964C144.808 155.589 143.755 154.757 142.13 154.601V153.353H141.35V154.575C139.582 154.653 138.399 155.745 138.399 157.214C138.399 158.813 139.478 159.385 140.7 159.632L141.35 159.762V163.22C140.206 163.09 139.257 162.505 139.14 161.27H138.1C138.204 163.012 139.634 163.961 141.35 164.104V165.417H142.13V164.117C143.898 164.013 145.159 162.921 145.159 161.452ZM141.038 158.657C139.933 158.436 139.426 158.098 139.426 157.175C139.426 156.252 140.128 155.563 141.35 155.498V158.722L141.038 158.657ZM142.468 159.97C143.716 160.204 144.119 160.724 144.119 161.504C144.119 162.518 143.326 163.142 142.13 163.233V159.905L142.468 159.97ZM146.28 156.837H148.23V164H149.348V154.679H148.659C148.438 155.641 147.866 156.083 146.28 156.083V156.837ZM154.694 158.735C156.163 158.735 156.852 159.801 156.852 160.984C156.852 162.167 156.163 163.246 154.707 163.246C153.394 163.246 152.536 162.427 152.445 161.244H151.34C151.483 163.038 152.822 164.156 154.694 164.156C156.722 164.156 157.931 162.752 157.931 160.984C157.931 159.229 156.722 157.825 154.785 157.825C153.927 157.825 153.121 158.241 152.731 158.735L153.043 155.667H157.463V154.718H152.237L151.717 159.775H152.718C153.069 159.216 153.719 158.735 154.694 158.735ZM164.151 164H165.451L162.448 160.23L165.334 157.461H164.047L160.823 160.594V154.432H159.744V164H160.823V161.738L161.668 160.919L164.151 164Z" fill="#72987F"/>
<path d="M234.724 143.452C234.724 141.996 233.84 141.307 232.449 141.021L231.695 140.878V137.524C232.722 137.654 233.385 138.174 233.502 139.084H234.529C234.373 137.589 233.32 136.757 231.695 136.601V135.353H230.915V136.575C229.147 136.653 227.964 137.745 227.964 139.214C227.964 140.813 229.043 141.385 230.265 141.632L230.915 141.762V145.22C229.771 145.09 228.822 144.505 228.705 143.27H227.665C227.769 145.012 229.199 145.961 230.915 146.104V147.417H231.695V146.117C233.463 146.013 234.724 144.921 234.724 143.452ZM230.603 140.657C229.498 140.436 228.991 140.098 228.991 139.175C228.991 138.252 229.693 137.563 230.915 137.498V140.722L230.603 140.657ZM232.033 141.97C233.281 142.204 233.684 142.724 233.684 143.504C233.684 144.518 232.891 145.142 231.695 145.233V141.905L232.033 141.97ZM239.512 140.735C240.981 140.735 241.67 141.801 241.67 142.984C241.67 144.167 240.981 145.246 239.525 145.246C238.212 145.246 237.354 144.427 237.263 143.244H236.158C236.301 145.038 237.64 146.156 239.512 146.156C241.54 146.156 242.749 144.752 242.749 142.984C242.749 141.229 241.54 139.825 239.603 139.825C238.745 139.825 237.939 140.241 237.549 140.735L237.861 137.667H242.281V136.718H237.055L236.535 141.775H237.536C237.887 141.216 238.537 140.735 239.512 140.735ZM244.106 141.359C244.106 144.141 245.549 146.156 247.798 146.156C250.06 146.156 251.49 144.141 251.49 141.359C251.49 138.577 250.06 136.562 247.798 136.562C245.549 136.562 244.106 138.577 244.106 141.359ZM245.25 141.359C245.25 139.084 246.108 137.524 247.798 137.524C249.501 137.524 250.359 139.084 250.359 141.359C250.359 143.634 249.501 145.194 247.798 145.194C246.108 145.194 245.25 143.634 245.25 141.359ZM252.904 141.359C252.904 144.141 254.347 146.156 256.596 146.156C258.858 146.156 260.288 144.141 260.288 141.359C260.288 138.577 258.858 136.562 256.596 136.562C254.347 136.562 252.904 138.577 252.904 141.359ZM254.048 141.359C254.048 139.084 254.906 137.524 256.596 137.524C258.299 137.524 259.157 139.084 259.157 141.359C259.157 143.634 258.299 145.194 256.596 145.194C254.906 145.194 254.048 143.634 254.048 141.359Z" fill="#625451"/>
<circle cx="21.5" cy="141.5" r="6" stroke="#E2DDD8"/>
</g>
</svg>
