<svg fill="none" height="400" viewBox="0 0 307 400" width="307" xmlns="http://www.w3.org/2000/svg" xmlns:xlink="http://www.w3.org/1999/xlink"><filter id="a" color-interpolation-filters="sRGB" filterUnits="userSpaceOnUse" height="398.036" width="305.033" x=".984662" y=".982221"><feFlood flood-opacity="0" result="BackgroundImageFix"/><feColorMatrix in="SourceAlpha" type="matrix" values="0 0 0 0 0 0 0 0 0 0 0 0 0 0 0 0 0 0 127 0"/><feOffset/><feGaussianBlur stdDeviation="6.00889"/><feColorMatrix type="matrix" values="0 0 0 0 0 0 0 0 0 0 0 0 0 0 0 0 0 0 0.05 0"/><feBlend in2="BackgroundImageFix" mode="normal" result="effect1_dropShadow"/><feBlend in="SourceGraphic" in2="effect1_dropShadow" mode="normal" result="shape"/></filter><mask id="b" height="374" maskUnits="userSpaceOnUse" width="281" x="13" y="13"><path d="m288.059 370.922c1.273-1.891 3.395-1.418 5.941-.946v-344.976c0-6.6274-5.373-12-12-12h-256.9975c-6.6284 0-12.0014 5.3742-12 12.0026l.0686 321.8034c.2829-.316 1.9813-.946 2.9997-.946 1.2729 0 3.3946 0 3.8189.946.4243.945 3.8189 1.418 4.6675 1.418h3.8189c1.2729 0 2.9702 2.837 3.8189 3.783.8486.946 5.0918.473 5.5161.473s3.8189-.946 4.6675-1.419c.8486-.472 2.5459 1.419 3.3946 1.892.6789.378 2.263.788 2.9702.946 1.6973 1.103 5.2616 3.404 5.9405 3.783.8486.473 1.2729.473 2.9702.473s2.546 0 3.8189-.473c1.273-.473 3.3946 0 5.0918 0 1.6973 0 4.243.473 5.0917 0 .8486-.473 5.0918-1.419 5.5161-.946.3395.378 2.4045-.158 3.3946-.473h2.9702c.8486 0 2.1216 1.892 2.5459 1.892s1.6973-.473 2.5459-1.419c.8487-.946 2.1217 0 2.9703 0s1.2729 0 2.5459-.473c1.2729-.473 2.5459-1.419 3.3945-.946.8487.473 1.6973.946 3.3941.946 1.698 0 3.395-1.419 4.668-1.419 1.018 0 2.122-1.261 2.546-1.891.424.63 1.443 1.891 2.122 1.891.848 0 2.121 1.892 2.545 2.838.425.945 1.273-.946 2.546-.946s2.122.473 2.546.946c.425.473 1.698 2.837 2.546 2.837.679 0 3.112.63 4.243.946l2.546-1.419 1.698.473 2.546 1.419.848-2.838 1.273-.945 1.273 3.31h2.97c.234.39 2.218 1.15 2.334 1.364-.168.032-.25.052-.212.054.178.013.237-.008.212-.054.839-.159 3.82-.629 4.88-.891l1.273-.946h1.697l1.697 2.364c.707.158 2.292.473 2.97.473.849 0 2.971-1.891 3.395-1.891h3.395c1.273 0 1.273.945 3.818.945 2.546 0 2.247-1.891 2.971-1.891.203 0 1.697 1.891 2.121 2.837.141.314 2.024 2.26 2.256 1.743.327-.729 4.109.149 4.533 1.567.142.473 1.698 1.419 3.819.473 2.122-.946 5.516 2.837 6.365 4.256s5.516 3.783 6.365 4.729c.848.945 6.365 2.364 7.638 3.31 1.272.946 2.97 1.891 3.818 2.837.849.946 2.546.946 4.244-.473 1.697-1.418 4.243-.946 6.364-1.418 2.122-.473 2.122.945 3.819.945h7.638c1.697 0 4.668 1.419 5.94 1.892 1.273.473 4.668 0 6.79 0 2.121 0 4.667.946 5.94 1.418 1.273.473.424 1.892 1.697 1.892s2.546-.946 4.668-1.892c2.121-.945 2.97-.472 3.819-.472.848 0 2.121 2.364 3.819 2.364 1.697 0 3.394-.946 4.667-.946s3.395 0 4.668-.946c1.273-.945 1.697-1.891 3.394-2.364 1.698-.473 2.122 0 3.819-.946 1.697-.945 3.395-.945 4.668-.945s2.546-3.783 4.243-4.256 3.394-3.783 4.667-5.675z" fill="#e2ddd8"/></mask><g filter="url(#a)"><path d="m288.059 370.922c1.273-1.891 3.395-1.418 5.941-.946v-344.976c0-6.6274-5.373-12-12-12h-256.9975c-6.6284 0-12.0014 5.3742-12 12.0026l.0686 321.8034c.2829-.316 1.9813-.946 2.9997-.946 1.2729 0 3.3946 0 3.8189.946.4243.945 3.8189 1.418 4.6675 1.418h3.8189c1.2729 0 2.9702 2.837 3.8189 3.783.8486.946 5.0918.473 5.5161.473s3.8189-.946 4.6675-1.419c.8486-.472 2.5459 1.419 3.3946 1.892.6789.378 2.263.788 2.9702.946 1.6973 1.103 5.2616 3.404 5.9405 3.783.8486.473 1.2729.473 2.9702.473s2.546 0 3.8189-.473c1.273-.473 3.3946 0 5.0918 0 1.6973 0 4.243.473 5.0917 0 .8486-.473 5.0918-1.419 5.5161-.946.3395.378 2.4045-.158 3.3946-.473h2.9702c.8486 0 2.1216 1.892 2.5459 1.892s1.6973-.473 2.5459-1.419c.8487-.946 2.1217 0 2.9703 0s1.2729 0 2.5459-.473c1.2729-.473 2.5459-1.419 3.3945-.946.8487.473 1.6973.946 3.3941.946 1.698 0 3.395-1.419 4.668-1.419 1.018 0 2.122-1.261 2.546-1.891.424.63 1.443 1.891 2.122 1.891.848 0 2.121 1.892 2.545 2.838.425.945 1.273-.946 2.546-.946s2.122.473 2.546.946c.425.473 1.698 2.837 2.546 2.837.679 0 3.112.63 4.243.946l2.546-1.419 1.698.473 2.546 1.419.848-2.838 1.273-.945 1.273 3.31h2.97c.234.39 2.218 1.15 2.334 1.364-.168.032-.25.052-.212.054.178.013.237-.008.212-.054.839-.159 3.82-.629 4.88-.891l1.273-.946h1.697l1.697 2.364c.707.158 2.292.473 2.97.473.849 0 2.971-1.891 3.395-1.891h3.395c1.273 0 1.273.945 3.818.945 2.546 0 2.247-1.891 2.971-1.891.203 0 1.697 1.891 2.121 2.837.141.314 2.024 2.26 2.256 1.743.327-.729 4.109.149 4.533 1.567.142.473 1.698 1.419 3.819.473 2.122-.946 5.516 2.837 6.365 4.256s5.516 3.783 6.365 4.729c.848.945 6.365 2.364 7.638 3.31 1.272.946 2.97 1.891 3.818 2.837.849.946 2.546.946 4.244-.473 1.697-1.418 4.243-.946 6.364-1.418 2.122-.473 2.122.945 3.819.945h7.638c1.697 0 4.668 1.419 5.94 1.892 1.273.473 4.668 0 6.79 0 2.121 0 4.667.946 5.94 1.418 1.273.473.424 1.892 1.697 1.892s2.546-.946 4.668-1.892c2.121-.945 2.97-.472 3.819-.472.848 0 2.121 2.364 3.819 2.364 1.697 0 3.394-.946 4.667-.946s3.395 0 4.668-.946c1.273-.945 1.697-1.891 3.394-2.364 1.698-.473 2.122 0 3.819-.946 1.697-.945 3.395-.945 4.668-.945s2.546-3.783 4.243-4.256 3.394-3.783 4.667-5.675z" fill="#e2ddd8"/></g><g mask="url(#b)"><path d="m13.0005-6h281v421h-281z" fill="#fdfcfb"/><path d="m166.136 75c1.738 0 2.761-.759 2.761-2.2 0-.924-.605-1.639-1.573-1.881.671-.198 1.221-.946 1.221-1.672 0-1.375-1.012-2.101-2.761-2.101h-2.761v7.854zm-2.178-4.389v-2.695h1.892c1.166 0 1.738.473 1.738 1.342 0 .858-.583 1.353-1.749 1.353zm0 .737h2.112c1.199 0 1.881.55 1.881 1.452s-.66 1.43-1.859 1.43h-2.134zm11.228.891c0-1.782-1.1-2.904-2.629-2.904s-2.629 1.122-2.629 2.904 1.1 2.893 2.629 2.893 2.629-1.111 2.629-2.893zm-4.356 0c0-1.331.649-2.167 1.727-2.167s1.727.836 1.727 2.167-.649 2.156-1.727 2.156-1.727-.825-1.727-2.156zm10.659 0c0-1.782-1.1-2.904-2.629-2.904s-2.629 1.122-2.629 2.904 1.1 2.893 2.629 2.893 2.629-1.111 2.629-2.893zm-4.356 0c0-1.331.649-2.167 1.727-2.167s1.727.836 1.727 2.167-.649 2.156-1.727 2.156-1.727-.825-1.727-2.156zm5.324 1.122c.099 1.188 1.089 1.771 2.409 1.771 1.243 0 2.156-.715 2.156-1.683 0-.891-.528-1.331-1.43-1.507l-1.1-.209c-.638-.121-.968-.319-.968-.792 0-.539.473-.902 1.21-.902.759 0 1.254.33 1.32.891h.847c-.11-1.045-.891-1.595-2.167-1.595-1.221 0-2.057.726-2.057 1.661 0 .968.649 1.331 1.54 1.496l.979.198c.704.132.968.396.968.803 0 .594-.55.946-1.309.946-.748 0-1.452-.319-1.518-1.078zm8.609.825c-.352.11-.594.132-.803.132-.506 0-.803-.198-.803-.781v-3.377h1.463v-.693h-1.452v-1.408h-.902v1.408h-.814v.693h.814v3.421c0 1.023.517 1.507 1.529 1.507.242 0 .561-.033.968-.154zm5.855-.814h-.858c-.231.671-.682 1.034-1.43 1.034-1.056 0-1.727-.704-1.771-1.98h4.092v-.363c0-1.419-.737-2.728-2.376-2.728-1.474 0-2.607 1.122-2.607 2.926 0 1.782 1.1 2.871 2.662 2.871 1.078 0 2.035-.583 2.288-1.76zm-2.343-3.3c.99 0 1.463.737 1.485 1.694h-3.168c.154-1.133.814-1.694 1.683-1.694zm7.751 4.928h.88v-8.096h-.913v3.542c-.253-.561-.88-1.111-1.837-1.111-1.408 0-2.464 1.144-2.464 2.904 0 1.749 1.056 2.893 2.464 2.893.913 0 1.595-.539 1.87-1.1zm.011-2.695c0 1.254-.616 2.112-1.694 2.112-1.089 0-1.727-.891-1.727-2.178 0-1.298.638-2.189 1.727-2.189 1.078 0 1.694.847 1.694 2.101zm4.532.374c.11 1.716 1.54 2.453 3.245 2.453 1.661 0 2.849-.946 2.849-2.288 0-1.243-.77-1.804-1.98-2.046l-1.54-.319c-.957-.187-1.397-.462-1.397-1.243 0-.825.682-1.463 1.826-1.463 1.122 0 1.892.506 2.024 1.386h.913c-.154-1.419-1.265-2.145-2.948-2.145-1.628 0-2.739.968-2.739 2.255 0 1.353.946 1.837 2.002 2.035l1.496.297c1.067.198 1.43.627 1.43 1.287 0 .946-.825 1.485-1.947 1.485-1.166 0-2.2-.429-2.321-1.694zm10.981 2.321h.913c-.11-.363-.132-.748-.132-1.155v-2.541c0-1.331-.836-1.969-2.178-1.969-1.177 0-2.057.638-2.167 1.76h.88c.066-.638.528-1.023 1.265-1.023.759 0 1.298.374 1.298 1.254v.319l-1.782.231c-1.122.132-1.914.594-1.914 1.661 0 1.023.825 1.584 1.793 1.584.924 0 1.683-.407 1.925-1.056 0 .264.033.627.099.935zm-1.837-.572c-.693 0-1.056-.396-1.056-.913 0-.748.572-.924 1.265-1.023l1.507-.165v.495c0 1.067-.858 1.606-1.716 1.606zm5.819.572h1.023l2.123-5.533h-.913l-1.705 4.631h-.022l-1.782-4.631h-.935zm4.267-6.688h1.034v-1.111h-1.034zm.066 6.688h.913v-5.533h-.913zm3.639-5.533h-.88v5.533h.913v-3.047c0-1.331.671-1.87 1.518-1.87.869 0 1.32.528 1.32 1.551v3.366h.913v-3.564c0-1.32-.737-2.101-1.98-2.101-.847 0-1.54.462-1.804 1.144zm9.445 5.181c0 1.155-.616 1.738-1.705 1.738-.748 0-1.331-.22-1.518-.913h-.924c.22 1.078 1.122 1.617 2.453 1.617 1.474 0 2.618-.748 2.618-2.508v-5.115h-.891v.968c-.264-.528-.902-1.1-1.87-1.1-1.419 0-2.453 1.111-2.453 2.772 0 1.727 1.034 2.794 2.453 2.794.968 0 1.584-.528 1.837-1.067zm.066-2.409c0 1.144-.715 1.936-1.738 1.936-1.078 0-1.716-.847-1.716-2.068 0-1.232.638-2.057 1.716-2.057 1.023 0 1.738.781 1.738 1.925zm2.236 1.122c.099 1.188 1.089 1.771 2.409 1.771 1.243 0 2.156-.715 2.156-1.683 0-.891-.528-1.331-1.43-1.507l-1.1-.209c-.638-.121-.968-.319-.968-.792 0-.539.473-.902 1.21-.902.759 0 1.254.33 1.32.891h.847c-.11-1.045-.891-1.595-2.167-1.595-1.221 0-2.057.726-2.057 1.661 0 .968.649 1.331 1.54 1.496l.979.198c.704.132.968.396.968.803 0 .594-.55.946-1.309.946-.748 0-1.452-.319-1.518-1.078z" fill="#625451"/><path d="m177.248 109h13.824v-1.908h-5.688v-20.952h-1.26c-.612 2.736-1.692 3.348-5.58 3.348h-.864v1.62h5.436v15.984h-5.868zm32.422-6.12c0 3.06-2.268 4.716-5.652 4.716-3.816 0-6.228-2.088-6.336-6.084l-2.232-.144c0 5.04 3.276 8.064 8.532 8.064 4.932 0 7.956-2.736 7.956-6.372 0-3.024-2.196-5.148-4.896-5.508 2.232-.36 4.464-2.412 4.464-5.364 0-3.744-2.7-6.3-7.596-6.3-4.932 0-8.028 3.312-8.028 7.992l2.232.108c0-4.032 2.268-6.264 5.796-6.264s5.328 1.908 5.328 4.608c0 3.312-2.448 4.32-5.112 4.32-1.152 0-1.764-.036-2.304-.108v2.052c.54-.072 1.26-.144 2.304-.144 3.168 0 5.544 1.584 5.544 4.428zm7.582 6.12h2.88v-2.88h-2.88zm15.365-1.368c-3.42 0-5.076-2.088-5.544-5.076l-2.196.108c.36 4.176 3.348 6.768 7.74 6.768 6.3 0 9.216-5.148 9.216-12.312 0-6.84-3.132-11.232-9.072-11.232-5.076 0-8.136 3.276-8.136 7.884 0 4.536 3.096 7.776 7.992 7.776 4.068 0 6.48-2.376 7.2-5.364.144 6.66-2.016 11.448-7.2 11.448zm6.336-13.932c0 3.6-2.196 5.904-6.048 5.904s-6.048-2.304-6.048-5.904c0-3.564 2.196-5.94 5.904-5.94 3.816 0 6.192 2.376 6.192 5.94zm8.194 9.432 2.448-2.052 6.732 7.92h2.664l-7.776-9.144 7.416-6.48h-2.88l-8.604 7.56v-14.616h-2.196v22.68h2.196z" fill="#e1ab54"/><path d="m162.816 94.4c0 2.224 1.504 3.552 3.632 3.76v1.472h.896v-1.456c1.984-.096 3.44-1.136 3.44-2.912 0-1.616-.928-2.384-2.752-2.736l-.688-.128v-3.536c1.216.24 1.952 1.136 2 2.544l1.232-.064c-.016-2.032-1.2-3.328-3.232-3.568v-1.44h-.896v1.392c-2.08.064-3.344 1.2-3.344 2.912 0 1.568 1.024 2.416 2.496 2.688l.848.176v3.584c-1.36-.208-2.336-1.152-2.4-2.768zm4.768-.688c1.296.256 1.872.72 1.872 1.648 0 1.04-.832 1.696-2.112 1.776v-3.472zm-3.184-3.152c0-1.104.72-1.728 2.048-1.776v3.44l-.208-.048c-1.152-.224-1.84-.608-1.84-1.616z" fill="#e1ab54"/><path d="m13.0005 133h281v293h-281z" fill="#fff"/><rect fill="#e2ddd8" height="5" rx="2.5" width="245" x="28.0005" y="202"/><rect fill="#72987f" height="5" rx="2.5" width="190.669" x="28.0005" y="202"/><path d="m42.1255 75v-3.256l3.003-4.598h-1.045l-2.376 3.751h-.022l-2.453-3.751h-1.045l2.992 4.598v3.256zm8.1048-2.761c0-1.782-1.1-2.904-2.629-2.904s-2.629 1.122-2.629 2.904 1.1 2.893 2.629 2.893 2.629-1.111 2.629-2.893zm-4.356 0c0-1.331.649-2.167 1.727-2.167s1.727.836 1.727 2.167-.649 2.156-1.727 2.156-1.727-.825-1.727-2.156zm10.3513 2.761v-5.533h-.924v3.047c0 1.331-.627 1.903-1.463 1.903-.869 0-1.298-.539-1.298-1.562v-3.388h-.924v3.564c0 1.342.704 2.101 1.958 2.101.836 0 1.496-.44 1.76-1.133v1.001zm4.9148-5.61c-.132-.033-.286-.044-.429-.044-.814 0-1.518.517-1.76 1.43v-1.309h-.88v5.533h.913v-2.728c0-1.397.803-2.09 1.683-2.09.143 0 .341.011.473.044zm2.8662 3.289c.11 1.716 1.54 2.453 3.245 2.453 1.661 0 2.849-.946 2.849-2.288 0-1.243-.77-1.804-1.98-2.046l-1.54-.319c-.957-.187-1.397-.462-1.397-1.243 0-.825.682-1.463 1.826-1.463 1.122 0 1.892.506 2.024 1.386h.913c-.154-1.419-1.265-2.145-2.948-2.145-1.628 0-2.739.968-2.739 2.255 0 1.353.946 1.837 2.002 2.035l1.496.297c1.067.198 1.43.627 1.43 1.287 0 .946-.825 1.485-1.947 1.485-1.166 0-2.2-.429-2.321-1.694zm10.9802 2.321h.913c-.11-.363-.132-.748-.132-1.155v-2.541c0-1.331-.836-1.969-2.178-1.969-1.177 0-2.057.638-2.167 1.76h.88c.066-.638.528-1.023 1.265-1.023.759 0 1.298.374 1.298 1.254v.319l-1.782.231c-1.122.132-1.914.594-1.914 1.661 0 1.023.825 1.584 1.793 1.584.924 0 1.683-.407 1.925-1.056 0 .264.033.627.099.935zm-1.837-.572c-.693 0-1.056-.396-1.056-.913 0-.748.572-.924 1.265-1.023l1.507-.165v.495c0 1.067-.858 1.606-1.716 1.606zm5.8194.572h1.023l2.123-5.533h-.913l-1.705 4.631h-.022l-1.782-4.631h-.935zm4.2674-6.688h1.034v-1.111h-1.034zm.066 6.688h.913v-5.533h-.913zm3.6382-5.533h-.88v5.533h.913v-3.047c0-1.331.671-1.87 1.518-1.87.869 0 1.32.528 1.32 1.551v3.366h.913v-3.564c0-1.32-.737-2.101-1.98-2.101-.847 0-1.54.462-1.804 1.144zm9.4455 5.181c0 1.155-.616 1.738-1.705 1.738-.748 0-1.331-.22-1.518-.913h-.924c.22 1.078 1.122 1.617 2.453 1.617 1.474 0 2.618-.748 2.618-2.508v-5.115h-.891v.968c-.264-.528-.902-1.1-1.87-1.1-1.419 0-2.453 1.111-2.453 2.772 0 1.727 1.034 2.794 2.453 2.794.968 0 1.584-.528 1.837-1.067zm.066-2.409c0 1.144-.715 1.936-1.738 1.936-1.078 0-1.716-.847-1.716-2.068 0-1.232.638-2.057 1.716-2.057 1.023 0 1.738.781 1.738 1.925zm2.2358 1.122c.099 1.188 1.089 1.771 2.4089 1.771 1.243 0 2.156-.715 2.156-1.683 0-.891-.528-1.331-1.43-1.507l-1.1-.209c-.638-.121-.9679-.319-.9679-.792 0-.539.4729-.902 1.2099-.902.759 0 1.254.33 1.32.891h.847c-.11-1.045-.891-1.595-2.167-1.595-1.2209 0-2.0569.726-2.0569 1.661 0 .968.649 1.331 1.5399 1.496l.979.198c.704.132.968.396.968.803 0 .594-.55.946-1.309.946-.748 0-1.4519-.319-1.5179-1.078z" fill="#625451"/><path d="m47.2485 109h13.824v-1.908h-5.688v-20.952h-1.26c-.612 2.736-1.692 3.348-5.58 3.348h-.864v1.62h5.436v15.984h-5.868zm35.8779-11.34c0-7.524-3.312-11.772-9.18-11.772s-9.18 4.248-9.18 11.772 3.312 11.772 9.18 11.772 9.18-4.248 9.18-11.772zm-2.376 0c0 6.588-2.232 9.936-6.804 9.936s-6.804-3.348-6.804-9.936 2.232-9.936 6.804-9.936 6.804 3.348 6.804 9.936zm6.502 11.34h2.88v-2.88h-2.88zm21.4846-20.592c-4.536 4.716-7.632 12.384-7.74 20.592h2.448c.072-7.884 2.376-15.66 7.956-21.564v-1.116h-16.2357v2.088zm8.41 14.724 2.448-2.052 6.732 7.92h2.664l-7.776-9.144 7.416-6.48h-2.88l-8.604 7.56v-14.616h-2.196v22.68h2.196z" fill="#72987f"/><path d="m35.8165 94.4c0 2.224 1.504 3.552 3.632 3.76v1.472h.896v-1.456c1.984-.096 3.44-1.136 3.44-2.912 0-1.616-.928-2.384-2.752-2.736l-.688-.128v-3.536c1.216.24 1.952 1.136 2 2.544l1.232-.064c-.016-2.032-1.2-3.328-3.232-3.568v-1.44h-.896v1.392c-2.08.064-3.344 1.2-3.344 2.912 0 1.568 1.024 2.416 2.496 2.688l.848.176v3.584c-1.36-.208-2.336-1.152-2.4-2.768zm4.768-.688c1.296.256 1.872.72 1.872 1.648 0 1.04-.832 1.696-2.112 1.776v-3.472zm-3.184-3.152c0-1.104.72-1.728 2.048-1.776v3.44l-.208-.048c-1.152-.224-1.84-.608-1.84-1.616z" fill="#72987f"/><path d="m13.0005 132.875h280.9995" stroke="#ceccca" stroke-width=".25"/><path d="m13.0005 266.875h280.9995" stroke="#ceccca" stroke-width=".25"/><path d="m53.6115 286.257c.13 2.028 1.82 2.899 3.835 2.899 1.963 0 3.367-1.118 3.367-2.704 0-1.469-.91-2.132-2.34-2.418l-1.82-.377c-1.131-.221-1.651-.546-1.651-1.469 0-.975.806-1.729 2.158-1.729 1.326 0 2.236.598 2.392 1.638h1.079c-.182-1.677-1.495-2.535-3.484-2.535-1.924 0-3.237 1.144-3.237 2.665 0 1.599 1.118 2.171 2.366 2.405l1.768.351c1.261.234 1.69.741 1.69 1.521 0 1.118-.975 1.755-2.301 1.755-1.378 0-2.6-.507-2.743-2.002zm13.1066 2.743h1.079c-.13-.429-.156-.884-.156-1.365v-3.003c0-1.573-.988-2.327-2.574-2.327-1.391 0-2.431.754-2.561 2.08h1.04c.078-.754.624-1.209 1.495-1.209.897 0 1.534.442 1.534 1.482v.377l-2.106.273c-1.326.156-2.262.702-2.262 1.963 0 1.209.975 1.872 2.119 1.872 1.092 0 1.989-.481 2.275-1.248 0 .312.039.741.117 1.105zm-2.171-.676c-.819 0-1.248-.468-1.248-1.079 0-.884.676-1.092 1.495-1.209l1.781-.195v.585c0 1.261-1.014 1.898-2.028 1.898zm7.0075.676h1.209l2.509-6.539h-1.079l-2.015 5.473h-.026l-2.106-5.473h-1.105zm10.4045-1.924h-1.014c-.273.793-.806 1.222-1.69 1.222-1.248 0-2.041-.832-2.093-2.34h4.836v-.429c0-1.677-.871-3.224-2.808-3.224-1.742 0-3.081 1.326-3.081 3.458 0 2.106 1.3 3.393 3.146 3.393 1.274 0 2.405-.689 2.704-2.08zm-2.769-3.9c1.17 0 1.729.871 1.755 2.002h-3.744c.182-1.339.962-2.002 1.989-2.002zm14.0327 3.276c0-1.456-.884-2.145-2.275-2.431l-.754-.143v-3.354c1.027.13 1.69.65 1.807 1.56h1.027c-.156-1.495-1.209-2.327-2.834-2.483v-1.248h-.78v1.222c-1.768.078-2.951 1.17-2.951 2.639 0 1.599 1.079 2.171 2.301 2.418l.65.13v3.458c-1.144-.13-2.093-.715-2.21-1.95h-1.04c.104 1.742 1.534 2.691 3.25 2.834v1.313h.78v-1.3c1.768-.104 3.029-1.196 3.029-2.665zm-4.121-2.795c-1.105-.221-1.612-.559-1.612-1.482s.702-1.612 1.924-1.677v3.224zm1.43 1.313c1.248.234 1.651.754 1.651 1.534 0 1.014-.793 1.638-1.989 1.729v-3.328zm3.8122-3.133h1.95v7.163h1.118v-9.321h-.689c-.221.962-.793 1.404-2.379 1.404zm5.1251 2.522c0 2.782 1.4429 4.797 3.6919 4.797 2.262 0 3.692-2.015 3.692-4.797s-1.43-4.797-3.692-4.797c-2.249 0-3.6919 2.015-3.6919 4.797zm1.1439 0c0-2.275.858-3.835 2.548-3.835 1.703 0 2.561 1.56 2.561 3.835s-.858 3.835-2.561 3.835c-1.69 0-2.548-1.56-2.548-3.835zm7.668 4.628h.624v.234c0 .858-.377 1.157-1.04 1.157v.663c1.183 0 1.833-.741 1.833-1.82v-1.638h-1.417zm2.83-4.628c0 2.782 1.443 4.797 3.692 4.797 2.262 0 3.692-2.015 3.692-4.797s-1.43-4.797-3.692-4.797c-2.249 0-3.692 2.015-3.692 4.797zm1.144 0c0-2.275.858-3.835 2.548-3.835 1.703 0 2.561 1.56 2.561 3.835s-.858 3.835-2.561 3.835c-1.69 0-2.548-1.56-2.548-3.835zm7.654 0c0 2.782 1.443 4.797 3.692 4.797 2.262 0 3.692-2.015 3.692-4.797s-1.43-4.797-3.692-4.797c-2.249 0-3.692 2.015-3.692 4.797zm1.144 0c0-2.275.858-3.835 2.548-3.835 1.703 0 2.561 1.56 2.561 3.835s-.858 3.835-2.561 3.835c-1.69 0-2.548-1.56-2.548-3.835zm7.653 0c0 2.782 1.443 4.797 3.692 4.797 2.262 0 3.692-2.015 3.692-4.797s-1.43-4.797-3.692-4.797c-2.249 0-3.692 2.015-3.692 4.797zm1.144 0c0-2.275.858-3.835 2.548-3.835 1.703 0 2.561 1.56 2.561 3.835s-.858 3.835-2.561 3.835c-1.69 0-2.548-1.56-2.548-3.835z" fill="#625451"/><path d="m245.725 286.452c0-1.456-.884-2.145-2.275-2.431l-.754-.143v-3.354c1.027.13 1.69.65 1.807 1.56h1.027c-.156-1.495-1.209-2.327-2.834-2.483v-1.248h-.78v1.222c-1.768.078-2.951 1.17-2.951 2.639 0 1.599 1.079 2.171 2.301 2.418l.65.13v3.458c-1.144-.13-2.093-.715-2.21-1.95h-1.04c.104 1.742 1.534 2.691 3.25 2.834v1.313h.78v-1.3c1.768-.104 3.029-1.196 3.029-2.665zm-4.121-2.795c-1.105-.221-1.612-.559-1.612-1.482s.702-1.612 1.924-1.677v3.224zm1.43 1.313c1.248.234 1.651.754 1.651 1.534 0 1.014-.793 1.638-1.989 1.729v-3.328zm7.478-1.235c1.469 0 2.158 1.066 2.158 2.249s-.689 2.262-2.145 2.262c-1.313 0-2.171-.819-2.262-2.002h-1.105c.143 1.794 1.482 2.912 3.354 2.912 2.028 0 3.237-1.404 3.237-3.172 0-1.755-1.209-3.159-3.146-3.159-.858 0-1.664.416-2.054.91l.312-3.068h4.42v-.949h-5.226l-.52 5.057h1.001c.351-.559 1.001-1.04 1.976-1.04zm4.595.624c0 2.782 1.443 4.797 3.692 4.797 2.262 0 3.692-2.015 3.692-4.797s-1.43-4.797-3.692-4.797c-2.249 0-3.692 2.015-3.692 4.797zm1.144 0c0-2.275.858-3.835 2.548-3.835 1.703 0 2.561 1.56 2.561 3.835s-.858 3.835-2.561 3.835c-1.69 0-2.548-1.56-2.548-3.835zm7.654 0c0 2.782 1.443 4.797 3.692 4.797 2.262 0 3.692-2.015 3.692-4.797s-1.43-4.797-3.692-4.797c-2.249 0-3.692 2.015-3.692 4.797zm1.144 0c0-2.275.858-3.835 2.548-3.835 1.703 0 2.561 1.56 2.561 3.835s-.858 3.835-2.561 3.835c-1.69 0-2.548-1.56-2.548-3.835z" fill="#e1ab54"/><path d="m13.0005 300.875h280.9995" stroke="#ceccca" stroke-width=".25"/><path d="m53.6115 373.257c.13 2.028 1.82 2.899 3.835 2.899 1.963 0 3.367-1.118 3.367-2.704 0-1.469-.91-2.132-2.34-2.418l-1.82-.377c-1.131-.221-1.651-.546-1.651-1.469 0-.975.806-1.729 2.158-1.729 1.326 0 2.236.598 2.392 1.638h1.079c-.182-1.677-1.495-2.535-3.484-2.535-1.924 0-3.237 1.144-3.237 2.665 0 1.599 1.118 2.171 2.366 2.405l1.768.351c1.261.234 1.69.741 1.69 1.521 0 1.118-.975 1.755-2.301 1.755-1.378 0-2.6-.507-2.743-2.002zm13.1066 2.743h1.079c-.13-.429-.156-.884-.156-1.365v-3.003c0-1.573-.988-2.327-2.574-2.327-1.391 0-2.431.754-2.561 2.08h1.04c.078-.754.624-1.209 1.495-1.209.897 0 1.534.442 1.534 1.482v.377l-2.106.273c-1.326.156-2.262.702-2.262 1.963 0 1.209.975 1.872 2.119 1.872 1.092 0 1.989-.481 2.275-1.248 0 .312.039.741.117 1.105zm-2.171-.676c-.819 0-1.248-.468-1.248-1.079 0-.884.676-1.092 1.495-1.209l1.781-.195v.585c0 1.261-1.014 1.898-2.028 1.898zm7.0075.676h1.209l2.509-6.539h-1.079l-2.015 5.473h-.026l-2.106-5.473h-1.105zm10.4045-1.924h-1.014c-.273.793-.806 1.222-1.69 1.222-1.248 0-2.041-.832-2.093-2.34h4.836v-.429c0-1.677-.871-3.224-2.808-3.224-1.742 0-3.081 1.326-3.081 3.458 0 2.106 1.3 3.393 3.146 3.393 1.274 0 2.405-.689 2.704-2.08zm-2.769-3.9c1.17 0 1.729.871 1.755 2.002h-3.744c.182-1.339.962-2.002 1.989-2.002zm14.0327 3.276c0-1.456-.884-2.145-2.275-2.431l-.754-.143v-3.354c1.027.13 1.69.65 1.807 1.56h1.027c-.156-1.495-1.209-2.327-2.834-2.483v-1.248h-.78v1.222c-1.768.078-2.951 1.17-2.951 2.639 0 1.599 1.079 2.171 2.301 2.418l.65.13v3.458c-1.144-.13-2.093-.715-2.21-1.95h-1.04c.104 1.742 1.534 2.691 3.25 2.834v1.313h.78v-1.3c1.768-.104 3.029-1.196 3.029-2.665zm-4.121-2.795c-1.105-.221-1.612-.559-1.612-1.482s.702-1.612 1.924-1.677v3.224zm1.43 1.313c1.248.234 1.651.754 1.651 1.534 0 1.014-.793 1.638-1.989 1.729v-3.328zm9.1422-4.303c-1.755 2.236-2.938 5.044-2.977 8.333h1.17c.039-3.159.819-5.811 3.029-8.489v-.793h-6.526v.949zm1.929 8.32h.624v.234c0 .858-.377 1.157-1.04 1.157v.663c1.183 0 1.833-.741 1.833-1.82v-1.638h-1.417zm6.551-5.252c1.469 0 2.158 1.066 2.158 2.249s-.689 2.262-2.145 2.262c-1.313 0-2.171-.819-2.262-2.002h-1.105c.143 1.794 1.482 2.912 3.354 2.912 2.028 0 3.237-1.404 3.237-3.172 0-1.755-1.209-3.159-3.146-3.159-.858 0-1.664.416-2.054.91l.312-3.068h4.42v-.949h-5.226l-.52 5.057h1.001c.351-.559 1.001-1.04 1.976-1.04zm4.594.624c0 2.782 1.443 4.797 3.692 4.797 2.262 0 3.692-2.015 3.692-4.797s-1.43-4.797-3.692-4.797c-2.249 0-3.692 2.015-3.692 4.797zm1.144 0c0-2.275.858-3.835 2.548-3.835 1.703 0 2.561 1.56 2.561 3.835s-.858 3.835-2.561 3.835c-1.69 0-2.548-1.56-2.548-3.835zm7.654 0c0 2.782 1.443 4.797 3.692 4.797 2.262 0 3.692-2.015 3.692-4.797s-1.43-4.797-3.692-4.797c-2.249 0-3.692 2.015-3.692 4.797zm1.144 0c0-2.275.858-3.835 2.548-3.835 1.703 0 2.561 1.56 2.561 3.835s-.858 3.835-2.561 3.835c-1.69 0-2.548-1.56-2.548-3.835z" fill="#625451"/><path d="m247.083 373.452c0-1.456-.884-2.145-2.275-2.431l-.754-.143v-3.354c1.027.13 1.69.65 1.807 1.56h1.027c-.156-1.495-1.209-2.327-2.834-2.483v-1.248h-.78v1.222c-1.768.078-2.951 1.17-2.951 2.639 0 1.599 1.079 2.171 2.301 2.418l.65.13v3.458c-1.144-.13-2.093-.715-2.21-1.95h-1.04c.104 1.742 1.534 2.691 3.25 2.834v1.313h.78v-1.3c1.768-.104 3.029-1.196 3.029-2.665zm-4.121-2.795c-1.105-.221-1.612-.559-1.612-1.482s.702-1.612 1.924-1.677v3.224zm1.43 1.313c1.248.234 1.651.754 1.651 1.534 0 1.014-.793 1.638-1.989 1.729v-3.328zm10.286-2.704c0-1.378-.988-2.704-2.938-2.704s-3.068 1.378-3.159 3.016h1.053c.078-1.118.819-2.08 2.093-2.08 1.378 0 1.885.884 1.885 1.768 0 1.079-1.001 1.768-2.236 2.561-1.378.858-2.977 2.015-2.977 3.666v.507h6.37v-.936h-5.174c0-.845 1.118-1.625 2.249-2.379 1.391-.897 2.834-1.677 2.834-3.419zm4.632 1.469c1.469 0 2.158 1.066 2.158 2.249s-.689 2.262-2.145 2.262c-1.313 0-2.171-.819-2.262-2.002h-1.105c.143 1.794 1.482 2.912 3.354 2.912 2.028 0 3.237-1.404 3.237-3.172 0-1.755-1.209-3.159-3.146-3.159-.858 0-1.664.416-2.054.91l.312-3.068h4.42v-.949h-5.226l-.52 5.057h1.001c.351-.559 1.001-1.04 1.976-1.04zm4.595.624c0 2.782 1.443 4.797 3.692 4.797 2.262 0 3.692-2.015 3.692-4.797s-1.43-4.797-3.692-4.797c-2.249 0-3.692 2.015-3.692 4.797zm1.144 0c0-2.275.858-3.835 2.548-3.835 1.703 0 2.561 1.56 2.561 3.835s-.858 3.835-2.561 3.835c-1.69 0-2.548-1.56-2.548-3.835z" fill="#e1ab54"/><path d="m54.7945 318.346c0-2.314 1.105-3.835 3.016-3.835 1.56 0 2.236.871 2.444 1.911h1.092c-.299-1.69-1.508-2.86-3.536-2.86-2.392 0-4.16 1.872-4.16 4.784 0 2.925 1.768 4.81 4.16 4.81 2.028 0 3.237-1.17 3.536-2.86h-1.092c-.208 1.04-.884 1.911-2.444 1.911-1.911 0-3.016-1.547-3.016-3.861zm14.0081 1.391c0-2.106-1.3-3.432-3.107-3.432s-3.107 1.326-3.107 3.432 1.3 3.419 3.107 3.419 3.107-1.313 3.107-3.419zm-5.148 0c0-1.573.767-2.561 2.041-2.561s2.041.988 2.041 2.561-.767 2.548-2.041 2.548-2.041-.975-2.041-2.548zm12.0774-2.028c-.286-.871-.884-1.404-1.989-1.404-.949 0-1.755.52-2.067 1.352v-1.196h-1.04v6.539h1.079v-3.601c0-1.508.741-2.21 1.729-2.21s1.417.611 1.417 1.833v3.978h1.092v-3.601c0-1.508.741-2.21 1.716-2.21s1.417.611 1.417 1.833v3.978h1.092v-4.212c0-1.534-.741-2.483-2.249-2.483-.962 0-1.794.52-2.197 1.404zm7.7643 4.147c.325.663 1.092 1.3 2.171 1.3 1.664 0 2.912-1.352 2.912-3.419 0-2.08-1.248-3.432-2.912-3.432-1.131 0-1.911.689-2.21 1.352v-1.196h-1.04v8.853h1.079zm-.052-2.223c0-1.482.728-2.483 2.002-2.483 1.287 0 2.041 1.053 2.041 2.587 0 1.521-.754 2.574-2.041 2.574-1.274 0-2.002-1.014-2.002-2.496zm8.05 3.367v-9.568h-1.079v9.568zm7.6796-1.924h-1.014c-.273.793-.806 1.222-1.69 1.222-1.248 0-2.041-.832-2.093-2.34h4.836v-.429c0-1.677-.871-3.224-2.808-3.224-1.742 0-3.081 1.326-3.081 3.458 0 2.106 1.3 3.393 3.146 3.393 1.274 0 2.405-.689 2.704-2.08zm-2.769-3.9c1.17 0 1.729.871 1.755 2.002h-3.744c.182-1.339.962-2.002 1.989-2.002zm7.6781 4.862c-.416.13-.702.156-.949.156-.598 0-.949-.234-.949-.923v-3.991h1.729v-.819h-1.716v-1.664h-1.066v1.664h-.962v.819h.962v4.043c0 1.209.611 1.781 1.807 1.781.286 0 .663-.039 1.144-.182zm7.05-.962h-1.014c-.273.793-.806 1.222-1.69 1.222-1.248 0-2.041-.832-2.093-2.34h4.836v-.429c0-1.677-.871-3.224-2.808-3.224-1.742 0-3.081 1.326-3.081 3.458 0 2.106 1.3 3.393 3.146 3.393 1.274 0 2.405-.689 2.704-2.08zm-2.769-3.9c1.17 0 1.729.871 1.755 2.002h-3.744c.182-1.339.962-2.002 1.989-2.002zm9.288 5.876c-.429 1.105-.728 1.469-1.378 1.469-.169 0-.312 0-.52-.052v.884c.208.039.455.065.637.065 1.196-.013 1.716-.663 2.314-2.223l2.639-6.734h-1.118l-1.963 5.343h-.026l-2.08-5.343h-1.131zm10.73-3.315c0-2.106-1.3-3.432-3.107-3.432s-3.107 1.326-3.107 3.432 1.3 3.419 3.107 3.419 3.107-1.313 3.107-3.419zm-5.148 0c0-1.573.767-2.561 2.041-2.561s2.041.988 2.041 2.561-.767 2.548-2.041 2.548-2.041-.975-2.041-2.548zm12.363 3.263v-6.539h-1.092v3.601c0 1.573-.741 2.249-1.729 2.249-1.027 0-1.534-.637-1.534-1.846v-4.004h-1.092v4.212c0 1.586.832 2.483 2.314 2.483.988 0 1.768-.52 2.08-1.339v1.183zm5.938-6.63c-.156-.039-.338-.052-.507-.052-.962 0-1.794.611-2.08 1.69v-1.547h-1.04v6.539h1.079v-3.224c0-1.651.949-2.47 1.989-2.47.169 0 .403.013.559.052zm-86.2985 19.287v-4.225h-1.079v9.568h1.079v-3.601c0-1.573.793-2.21 1.794-2.21 1.027 0 1.56.624 1.56 1.833v3.978h1.079v-4.212c0-1.56-.871-2.483-2.34-2.483-1.001 0-1.781.52-2.093 1.352zm12.4108 2.08c0-2.106-1.3-3.432-3.107-3.432s-3.107 1.326-3.107 3.432 1.3 3.419 3.107 3.419 3.107-1.313 3.107-3.419zm-5.148 0c0-1.573.767-2.561 2.041-2.561s2.041.988 2.041 2.561-.767 2.548-2.041 2.548-2.041-.975-2.041-2.548zm12.0774-2.028c-.286-.871-.884-1.404-1.989-1.404-.949 0-1.755.52-2.067 1.352v-1.196h-1.04v6.539h1.079v-3.601c0-1.508.741-2.21 1.729-2.21s1.417.611 1.417 1.833v3.978h1.092v-3.601c0-1.508.741-2.21 1.716-2.21s1.417.611 1.417 1.833v3.978h1.092v-4.212c0-1.534-.741-2.483-2.249-2.483-.962 0-1.794.52-2.197 1.404zm12.0543 3.367h-1.014c-.273.793-.806 1.222-1.69 1.222-1.248 0-2.041-.832-2.093-2.34h4.836v-.429c0-1.677-.871-3.224-2.808-3.224-1.742 0-3.081 1.326-3.081 3.458 0 2.106 1.3 3.393 3.146 3.393 1.274 0 2.405-.689 2.704-2.08zm-2.769-3.9c1.17 0 1.729.871 1.755 2.002h-3.744c.182-1.339.962-2.002 1.989-2.002zm5.6763 4.68c.325.663 1.131 1.3 2.21 1.3 1.664 0 2.912-1.352 2.912-3.419 0-2.08-1.248-3.432-2.912-3.432-1.131 0-1.872.65-2.171 1.313v-4.186h-1.079v9.568h1.04zm-.013-2.223c0-1.482.728-2.483 2.002-2.483 1.287 0 2.041 1.053 2.041 2.587 0 1.521-.754 2.574-2.041 2.574-1.274 0-2.002-1.014-2.002-2.496zm12.3527 3.367v-6.539h-1.092v3.601c0 1.573-.741 2.249-1.7286 2.249-1.027 0-1.534-.637-1.534-1.846v-4.004h-1.092v4.212c0 1.586.832 2.483 2.314 2.483.988 0 1.7676-.52 2.0796-1.339v1.183zm4.145.052c-.429 1.105-.728 1.469-1.378 1.469-.169 0-.312 0-.52-.052v.884c.208.039.455.065.637.065 1.196-.013 1.716-.663 2.314-2.223l2.639-6.734h-1.118l-1.963 5.343h-.026l-2.08-5.343h-1.131zm10.366-1.976h-1.014c-.273.793-.806 1.222-1.69 1.222-1.248 0-2.041-.832-2.093-2.34h4.836v-.429c0-1.677-.871-3.224-2.808-3.224-1.742 0-3.081 1.326-3.081 3.458 0 2.106 1.3 3.393 3.146 3.393 1.274 0 2.405-.689 2.704-2.08zm-2.769-3.9c1.17 0 1.729.871 1.755 2.002h-3.744c.182-1.339.962-2.002 1.989-2.002zm8.263-.806c-.156-.039-.338-.052-.507-.052-.962 0-1.794.611-2.08 1.69v-1.547h-1.04v6.539h1.079v-3.224c0-1.651.949-2.47 1.989-2.47.169 0 .403.013.559.052zm2.089-1.664h.663v.182c0 .845-.403 1.157-1.066 1.157v.65c1.17 0 1.82-.741 1.82-1.82v-1.443h-1.417zm2.434 6.357c.117 1.404 1.287 2.093 2.847 2.093 1.469 0 2.548-.845 2.548-1.989 0-1.053-.624-1.573-1.69-1.781l-1.3-.247c-.754-.143-1.144-.377-1.144-.936 0-.637.559-1.066 1.43-1.066.897 0 1.482.39 1.56 1.053h1.001c-.13-1.235-1.053-1.885-2.561-1.885-1.443 0-2.431.858-2.431 1.963 0 1.144.767 1.573 1.82 1.768l1.157.234c.832.156 1.144.468 1.144.949 0 .702-.65 1.118-1.547 1.118-.884 0-1.716-.377-1.794-1.274zm11.16.793c.325.663 1.092 1.3 2.171 1.3 1.664 0 2.912-1.352 2.912-3.419 0-2.08-1.248-3.432-2.912-3.432-1.131 0-1.911.689-2.21 1.352v-1.196h-1.04v8.853h1.079zm-.052-2.223c0-1.482.728-2.483 2.002-2.483 1.287 0 2.041 1.053 2.041 2.587 0 1.521-.754 2.574-2.041 2.574-1.274 0-2.002-1.014-2.002-2.496zm10.598-3.263c-.156-.039-.338-.052-.507-.052-.962 0-1.794.611-2.08 1.69v-1.547h-1.04v6.539h1.079v-3.224c0-1.651.949-2.47 1.989-2.47.169 0 .403.013.559.052zm6.981 3.367c0-2.106-1.3-3.432-3.107-3.432s-3.107 1.326-3.107 3.432 1.3 3.419 3.107 3.419 3.107-1.313 3.107-3.419zm-5.148 0c0-1.573.767-2.561 2.041-2.561s2.041.988 2.041 2.561-.767 2.548-2.041 2.548-2.041-.975-2.041-2.548zm7.15-2.457v5.72h1.066v-5.72h1.404v-.819h-1.404v-1.209c0-.741.429-.975.897-.975.234 0 .494.013.663.039v-.858c-.195-.039-.494-.065-.728-.065-1.118 0-1.898.624-1.898 1.846v1.222h-.949v.819zm3.79-2.184h1.222v-1.313h-1.222zm.078 7.904h1.079v-6.539h-1.079zm4.469 0v-9.568h-1.079v9.568zm7.679-1.924h-1.014c-.273.793-.806 1.222-1.69 1.222-1.248 0-2.041-.832-2.093-2.34h4.836v-.429c0-1.677-.871-3.224-2.808-3.224-1.742 0-3.081 1.326-3.081 3.458 0 2.106 1.3 3.393 3.146 3.393 1.274 0 2.405-.689 2.704-2.08zm-2.769-3.9c1.17 0 1.729.871 1.755 2.002h-3.744c.182-1.339.962-2.002 1.989-2.002z" fill="#625451"/><path d="m254.523 320.452c0-1.456-.884-2.145-2.275-2.431l-.754-.143v-3.354c1.027.13 1.69.65 1.807 1.56h1.027c-.156-1.495-1.209-2.327-2.834-2.483v-1.248h-.78v1.222c-1.768.078-2.951 1.17-2.951 2.639 0 1.599 1.079 2.171 2.301 2.418l.65.13v3.458c-1.144-.13-2.093-.715-2.21-1.95h-1.04c.104 1.742 1.534 2.691 3.25 2.834v1.313h.78v-1.3c1.768-.104 3.029-1.196 3.029-2.665zm-4.121-2.795c-1.105-.221-1.612-.559-1.612-1.482s.702-1.612 1.924-1.677v3.224zm1.43 1.313c1.248.234 1.651.754 1.651 1.534 0 1.014-.793 1.638-1.989 1.729v-3.328zm7.478-1.235c1.469 0 2.158 1.066 2.158 2.249s-.689 2.262-2.145 2.262c-1.313 0-2.171-.819-2.262-2.002h-1.105c.143 1.794 1.482 2.912 3.354 2.912 2.028 0 3.237-1.404 3.237-3.172 0-1.755-1.209-3.159-3.146-3.159-.858 0-1.664.416-2.054.91l.312-3.068h4.42v-.949h-5.226l-.52 5.057h1.001c.351-.559 1.001-1.04 1.976-1.04zm4.595.624c0 2.782 1.443 4.797 3.692 4.797 2.262 0 3.692-2.015 3.692-4.797s-1.43-4.797-3.692-4.797c-2.249 0-3.692 2.015-3.692 4.797zm1.144 0c0-2.275.858-3.835 2.548-3.835 1.703 0 2.561 1.56 2.561 3.835s-.858 3.835-2.561 3.835c-1.69 0-2.548-1.56-2.548-3.835z" fill="#e1ab54"/><path d="m13.0005 353.875h280.9995" stroke="#ceccca" stroke-width=".25"/><path d="m40.6673 280.5-6.4166 6.417-2.9167-2.917" opacity=".75" stroke="#e1ab54" stroke-linecap="round" stroke-linejoin="round" stroke-width="1.16667"/><path d="m40.6673 315.5-6.4166 6.417-2.9167-2.917" opacity=".75" stroke="#e1ab54" stroke-linecap="round" stroke-linejoin="round" stroke-width="1.16667"/><path d="m40.6673 367.5-6.4166 6.417-2.9167-2.917" opacity=".75" stroke="#e1ab54" stroke-linecap="round" stroke-linejoin="round" stroke-width="1.16667"/><rect fill="#dbeae0" height="30.5" opacity=".3" rx="3.75" stroke="#a2caaf" stroke-width=".5" width="244.5" x="28.25" y="219.25"/><path d="m124.129 239v-3.256l3.003-4.598h-1.045l-2.376 3.751h-.022l-2.453-3.751h-1.045l2.992 4.598v3.256zm8.215-2.761c0-1.782-1.1-2.904-2.629-2.904s-2.629 1.122-2.629 2.904 1.1 2.893 2.629 2.893 2.629-1.111 2.629-2.893zm-4.356 0c0-1.331.649-2.167 1.727-2.167s1.727.836 1.727 2.167-.649 2.156-1.727 2.156-1.727-.825-1.727-2.156zm10.461 2.761v-5.533h-.924v3.047c0 1.331-.627 1.903-1.463 1.903-.869 0-1.298-.539-1.298-1.562v-3.388h-.924v3.564c0 1.342.704 2.101 1.958 2.101.836 0 1.496-.44 1.76-1.133v1.001zm2.077-7.018h.561v.154c0 .715-.341.979-.902.979v.55c.99 0 1.54-.627 1.54-1.54v-1.221h-1.199zm5.88 1.408c-.132-.033-.286-.044-.429-.044-.814 0-1.518.517-1.76 1.43v-1.309h-.88v5.533h.913v-2.728c0-1.397.803-2.09 1.683-2.09.143 0 .341.011.473.044zm5.599 3.982h-.858c-.231.671-.682 1.034-1.43 1.034-1.056 0-1.727-.704-1.771-1.98h4.092v-.363c0-1.419-.737-2.728-2.376-2.728-1.474 0-2.607 1.122-2.607 2.926 0 1.782 1.1 2.871 2.662 2.871 1.078 0 2.035-.583 2.288-1.76zm-2.343-3.3c.99 0 1.463.737 1.485 1.694h-3.168c.154-1.133.814-1.694 1.683-1.694zm9.696 4.928h.913c-.11-.363-.132-.748-.132-1.155v-2.541c0-1.331-.836-1.969-2.178-1.969-1.177 0-2.057.638-2.167 1.76h.88c.066-.638.528-1.023 1.265-1.023.759 0 1.298.374 1.298 1.254v.319l-1.782.231c-1.122.132-1.914.594-1.914 1.661 0 1.023.825 1.584 1.793 1.584.924 0 1.683-.407 1.925-1.056 0 .264.033.627.099.935zm-1.837-.572c-.693 0-1.056-.396-1.056-.913 0-.748.572-.924 1.265-1.023l1.507-.165v.495c0 1.067-.858 1.606-1.716 1.606zm5.432.572v-8.096h-.913v8.096zm6.267-4.477c-.242-.737-.748-1.188-1.683-1.188-.803 0-1.485.44-1.749 1.144v-1.012h-.88v5.533h.913v-3.047c0-1.276.627-1.87 1.463-1.87s1.199.517 1.199 1.551v3.366h.924v-3.047c0-1.276.627-1.87 1.452-1.87s1.199.517 1.199 1.551v3.366h.924v-3.564c0-1.298-.627-2.101-1.903-2.101-.814 0-1.518.44-1.859 1.188zm10.507 1.716c0-1.782-1.1-2.904-2.629-2.904s-2.629 1.122-2.629 2.904 1.1 2.893 2.629 2.893 2.629-1.111 2.629-2.893zm-4.356 0c0-1.331.649-2.167 1.727-2.167s1.727.836 1.727 2.167-.649 2.156-1.727 2.156-1.727-.825-1.727-2.156zm5.435 1.122c.099 1.188 1.089 1.771 2.409 1.771 1.243 0 2.156-.715 2.156-1.683 0-.891-.528-1.331-1.43-1.507l-1.1-.209c-.638-.121-.968-.319-.968-.792 0-.539.473-.902 1.21-.902.759 0 1.254.33 1.32.891h.847c-.11-1.045-.891-1.595-2.167-1.595-1.221 0-2.057.726-2.057 1.661 0 .968.649 1.331 1.54 1.496l.979.198c.704.132.968.396.968.803 0 .594-.55.946-1.309.946-.748 0-1.452-.319-1.518-1.078zm8.719.825c-.352.11-.594.132-.803.132-.506 0-.803-.198-.803-.781v-3.377h1.463v-.693h-1.452v-1.408h-.902v1.408h-.814v.693h.814v3.421c0 1.023.517 1.507 1.529 1.507.242 0 .561-.033.968-.154zm6.445 0c-.352.11-.594.132-.803.132-.506 0-.803-.198-.803-.781v-3.377h1.463v-.693h-1.452v-1.408h-.902v1.408h-.814v.693h.814v3.421c0 1.023.517 1.507 1.529 1.507.242 0 .561-.033.968-.154zm2.4-3.707v-3.575h-.913v8.096h.913v-3.047c0-1.331.671-1.87 1.518-1.87.869 0 1.32.528 1.32 1.551v3.366h.913v-3.564c0-1.32-.737-2.101-1.98-2.101-.847 0-1.507.44-1.771 1.144zm10.193 2.893h-.858c-.231.671-.682 1.034-1.43 1.034-1.056 0-1.727-.704-1.771-1.98h4.092v-.363c0-1.419-.737-2.728-2.376-2.728-1.474 0-2.607 1.122-2.607 2.926 0 1.782 1.1 2.871 2.662 2.871 1.078 0 2.035-.583 2.288-1.76zm-2.343-3.3c.99 0 1.463.737 1.485 1.694h-3.168c.154-1.133.814-1.694 1.683-1.694zm6.992-.682c-.132-.033-.286-.044-.429-.044-.814 0-1.518.517-1.76 1.43v-1.309h-.88v5.533h.913v-2.728c0-1.397.803-2.09 1.683-2.09.143 0 .341.011.473.044zm5.599 3.982h-.858c-.231.671-.682 1.034-1.43 1.034-1.056 0-1.727-.704-1.771-1.98h4.092v-.363c0-1.419-.737-2.728-2.376-2.728-1.474 0-2.607 1.122-2.607 2.926 0 1.782 1.1 2.871 2.662 2.871 1.078 0 2.035-.583 2.288-1.76zm-2.343-3.3c.99 0 1.463.737 1.485 1.694h-3.168c.154-1.133.814-1.694 1.683-1.694zm4.099-2.926.176 5.467h.737l.165-5.467zm-.066 7.854h1.199v-1.188h-1.199z" fill="#625451"/><g stroke="#625451"><path d="m91.66 243s-.1069-4.134-.3164-6.496m0 0c-.1342-1.662-.2094-2.594-.3436-4.256l5.06-.448-.26 1.6 3.78-.48-1.32 2.24 1.54 2.016-5.6.624.44-1.568s-1.7123.097-3.2964.272z"/><path d="m87.3998 240.6-1.6.8" stroke-linecap="round" stroke-linejoin="round"/><path d="m87.0001 232.6-2.4-.8" stroke-linecap="round" stroke-linejoin="round"/><path d="m86.2 236.6-3.2.4" stroke-linecap="round" stroke-linejoin="round"/><path d="m103 240.6 1.6.8" stroke-linecap="round" stroke-linejoin="round"/><path d="m103.4 232.2 2.8-1.6" stroke-linecap="round" stroke-linejoin="round"/><path d="m103.4 236.2 4 .4" stroke-linecap="round" stroke-linejoin="round"/><path d="m89.4 229-.4-.8" stroke-linecap="round" stroke-linejoin="round"/><path d="m99.3999 228.6 1.2001-1.2" stroke-linecap="round" stroke-linejoin="round"/><path d="m93.7998 227.8v-.8" stroke-linecap="round" stroke-linejoin="round"/></g><path d="m60.488 159v-.936h-5.174v-3.224h4.589v-.949h-4.589v-3.237h5.161v-.936h-6.266v9.282zm6.0773 0h1.079c-.13-.429-.156-.884-.156-1.365v-3.003c0-1.573-.988-2.327-2.574-2.327-1.391 0-2.431.754-2.561 2.08h1.04c.078-.754.624-1.209 1.495-1.209.897 0 1.534.442 1.534 1.482v.377l-2.106.273c-1.326.156-2.262.702-2.262 1.963 0 1.209.975 1.872 2.119 1.872 1.092 0 1.989-.481 2.275-1.248 0 .312.039.741.117 1.105zm-2.171-.676c-.819 0-1.248-.468-1.248-1.079 0-.884.676-1.092 1.495-1.209l1.781-.195v.585c0 1.261-1.014 1.898-2.028 1.898zm8.9668-5.954c-.156-.039-.338-.052-.507-.052-.962 0-1.794.611-2.08 1.69v-1.547h-1.04v6.539h1.079v-3.224c0-1.651.949-2.47 1.989-2.47.169 0 .403.013.559.052zm2.415.091h-1.04v6.539h1.079v-3.601c0-1.573.793-2.21 1.794-2.21 1.027 0 1.56.624 1.56 1.833v3.978h1.079v-4.212c0-1.56-.871-2.483-2.34-2.483-1.001 0-1.82.546-2.132 1.352zm11.3682 6.591c-.429 1.105-.728 1.469-1.378 1.469-.169 0-.312 0-.52-.052v.884c.208.039.455.065.637.065 1.196-.013 1.716-.663 2.314-2.223l2.639-6.734h-1.118l-1.963 5.343h-.026l-2.08-5.343h-1.131zm10.7301-3.315c0-2.106-1.3-3.432-3.107-3.432s-3.107 1.326-3.107 3.432 1.3 3.419 3.107 3.419 3.107-1.313 3.107-3.419zm-5.148 0c0-1.573.767-2.561 2.041-2.561s2.041.988 2.041 2.561-.767 2.548-2.041 2.548-2.041-.975-2.041-2.548zm12.3636 3.263v-6.539h-1.092v3.601c0 1.573-.741 2.249-1.729 2.249-1.027 0-1.534-.637-1.534-1.846v-4.004h-1.0922v4.212c0 1.586.8322 2.483 2.3142 2.483.988 0 1.768-.52 2.08-1.339v1.183zm5.938-6.63c-.156-.039-.338-.052-.507-.052-.962 0-1.794.611-2.08 1.69v-1.547h-1.04v6.539h1.079v-3.224c0-1.651.949-2.47 1.989-2.47.169 0 .403.013.559.052zm5.233.091h-1.04v6.539h1.079v-3.601c0-1.573.793-2.21 1.794-2.21 1.027 0 1.56.624 1.56 1.833v3.978h1.079v-4.212c0-1.56-.871-2.483-2.34-2.483-1.001 0-1.82.546-2.132 1.352zm12.086 4.615h-1.014c-.273.793-.806 1.222-1.69 1.222-1.248 0-2.041-.832-2.093-2.34h4.836v-.429c0-1.677-.871-3.224-2.808-3.224-1.742 0-3.081 1.326-3.081 3.458 0 2.106 1.3 3.393 3.146 3.393 1.274 0 2.405-.689 2.704-2.08zm-2.769-3.9c1.17 0 1.729.871 1.755 2.002h-3.744c.182-1.339.962-2.002 1.989-2.002zm4.839 5.824 1.898-2.626 1.937 2.626h1.261l-2.522-3.419 2.314-3.12h-1.17l-1.729 2.405-1.742-2.405h-1.274l2.353 3.172-2.483 3.367zm9.771-.962c-.416.13-.702.156-.949.156-.598 0-.949-.234-.949-.923v-3.991h1.729v-.819h-1.716v-1.664h-1.066v1.664h-.962v.819h.962v4.043c0 1.209.611 1.781 1.807 1.781.286 0 .663-.039 1.144-.182zm8.202-5.668c-.156-.039-.338-.052-.507-.052-.962 0-1.794.611-2.08 1.69v-1.547h-1.04v6.539h1.079v-3.224c0-1.651.949-2.47 1.989-2.47.169 0 .403.013.559.052zm6.617 4.706h-1.014c-.273.793-.806 1.222-1.69 1.222-1.248 0-2.041-.832-2.093-2.34h4.836v-.429c0-1.677-.871-3.224-2.808-3.224-1.742 0-3.081 1.326-3.081 3.458 0 2.106 1.3 3.393 3.146 3.393 1.274 0 2.405-.689 2.704-2.08zm-2.769-3.9c1.17 0 1.729.871 1.755 2.002h-3.744c.182-1.339.962-2.002 1.989-2.002zm8.942-.715h-1.092l-1.456 5.369h-.039l-1.521-5.369h-1.066l1.976 6.539h1.131l1.482-5.291h.039l1.508 5.291h1.118l1.976-6.539h-1.04l-1.508 5.369h-.026zm9.487 6.539h1.079c-.13-.429-.156-.884-.156-1.365v-3.003c0-1.573-.988-2.327-2.574-2.327-1.391 0-2.431.754-2.561 2.08h1.04c.078-.754.624-1.209 1.495-1.209.897 0 1.534.442 1.534 1.482v.377l-2.106.273c-1.326.156-2.262.702-2.262 1.963 0 1.209.975 1.872 2.119 1.872 1.092 0 1.989-.481 2.275-1.248 0 .312.039.741.117 1.105zm-2.171-.676c-.819 0-1.248-.468-1.248-1.079 0-.884.676-1.092 1.495-1.209l1.781-.195v.585c0 1.261-1.014 1.898-2.028 1.898zm8.967-5.954c-.156-.039-.338-.052-.507-.052-.962 0-1.794.611-2.08 1.69v-1.547h-1.04v6.539h1.079v-3.224c0-1.651.949-2.47 1.989-2.47.169 0 .403.013.559.052zm5.889 6.63h1.04v-9.568h-1.079v4.186c-.299-.663-1.04-1.313-2.171-1.313-1.664 0-2.912 1.352-2.912 3.432 0 2.067 1.248 3.419 2.912 3.419 1.079 0 1.885-.637 2.21-1.3zm.013-3.185c0 1.482-.728 2.496-2.002 2.496-1.287 0-2.041-1.053-2.041-2.574 0-1.534.754-2.587 2.041-2.587 1.274 0 2.002 1.001 2.002 2.483zm-124.827 14.646h-1.092l-1.456 5.369h-.039l-1.521-5.369h-1.066l1.976 6.539h1.131l1.482-5.291h.039l1.508 5.291h1.118l1.976-6.539h-1.04l-1.508 5.369h-.026zm6.6384 1.196v-4.225h-1.079v9.568h1.079v-3.601c0-1.573.793-2.21 1.794-2.21 1.027 0 1.56.624 1.56 1.833v3.978h1.079v-4.212c0-1.56-.871-2.483-2.34-2.483-1.001 0-1.781.52-2.093 1.352zm12.0469 3.419h-1.014c-.273.793-.806 1.222-1.69 1.222-1.248 0-2.041-.832-2.093-2.34h4.836v-.429c0-1.677-.871-3.224-2.808-3.224-1.742 0-3.081 1.326-3.081 3.458 0 2.106 1.3 3.393 3.146 3.393 1.274 0 2.405-.689 2.704-2.08zm-2.769-3.9c1.17 0 1.729.871 1.755 2.002h-3.744c.182-1.339.962-2.002 1.989-2.002zm5.6763-.715h-1.04v6.539h1.079v-3.601c0-1.573.793-2.21 1.794-2.21 1.027 0 1.56.624 1.56 1.833v3.978h1.079v-4.212c0-1.56-.871-2.483-2.34-2.483-1.001 0-1.82.546-2.132 1.352zm11.3682 6.591c-.429 1.105-.728 1.469-1.378 1.469-.169 0-.312 0-.52-.052v.884c.208.039.455.065.637.065 1.196-.013 1.716-.663 2.314-2.223l2.639-6.734h-1.118l-1.963 5.343h-.026l-2.08-5.343h-1.131zm10.7302-3.315c0-2.106-1.3-3.432-3.1071-3.432-1.807 0-3.107 1.326-3.107 3.432s1.3 3.419 3.107 3.419c1.8071 0 3.1071-1.313 3.1071-3.419zm-5.1481 0c0-1.573.767-2.561 2.041-2.561 1.2741 0 2.0411.988 2.0411 2.561s-.767 2.548-2.0411 2.548c-1.274 0-2.041-.975-2.041-2.548zm12.3631 3.263v-6.539h-1.092v3.601c0 1.573-.741 2.249-1.729 2.249-1.027 0-1.534-.637-1.534-1.846v-4.004h-1.092v4.212c0 1.586.832 2.483 2.314 2.483.988 0 1.768-.52 2.08-1.339v1.183zm8.757-6.63c-.156-.039-.338-.052-.507-.052-.962 0-1.794.611-2.08 1.69v-1.547h-1.04v6.539h1.079v-3.224c0-1.651.949-2.47 1.989-2.47.169 0 .403.013.559.052zm6.617 4.706h-1.014c-.273.793-.806 1.222-1.69 1.222-1.248 0-2.041-.832-2.093-2.34h4.836v-.429c0-1.677-.871-3.224-2.808-3.224-1.742 0-3.081 1.326-3.081 3.458 0 2.106 1.3 3.393 3.146 3.393 1.274 0 2.405-.689 2.704-2.08zm-2.769-3.9c1.17 0 1.729.871 1.755 2.002h-3.744c.182-1.339.962-2.002 1.989-2.002zm8.78 5.824h1.079c-.13-.429-.156-.884-.156-1.365v-3.003c0-1.573-.988-2.327-2.574-2.327-1.391 0-2.431.754-2.561 2.08h1.04c.078-.754.624-1.209 1.495-1.209.897 0 1.534.442 1.534 1.482v.377l-2.106.273c-1.326.156-2.262.702-2.262 1.963 0 1.209.975 1.872 2.119 1.872 1.092 0 1.989-.481 2.275-1.248 0 .312.039.741.117 1.105zm-2.171-.676c-.819 0-1.248-.468-1.248-1.079 0-.884.676-1.092 1.495-1.209l1.781-.195v.585c0 1.261-1.014 1.898-2.028 1.898zm4.859-2.587c0 2.093 1.261 3.419 3.081 3.419 1.456 0 2.418-.819 2.626-2.223h-1.027c-.182.871-.715 1.352-1.599 1.352-1.287 0-2.015-1.014-2.015-2.548s.728-2.561 2.015-2.561c.884 0 1.417.481 1.599 1.352h1.027c-.208-1.391-1.17-2.223-2.626-2.223-1.82 0-3.081 1.339-3.081 3.432zm8.568-2.08v-4.225h-1.079v9.568h1.079v-3.601c0-1.573.793-2.21 1.794-2.21 1.027 0 1.56.624 1.56 1.833v3.978h1.079v-4.212c0-1.56-.871-2.483-2.34-2.483-1.001 0-1.781.52-2.093 1.352z" fill="#2d2828"/><path d="m158.159 174.452c0-1.456-.884-2.145-2.275-2.431l-.754-.143v-3.354c1.027.13 1.69.65 1.807 1.56h1.027c-.156-1.495-1.209-2.327-2.834-2.483v-1.248h-.78v1.222c-1.768.078-2.951 1.17-2.951 2.639 0 1.599 1.079 2.171 2.301 2.418l.65.13v3.458c-1.144-.13-2.093-.715-2.21-1.95h-1.04c.104 1.742 1.534 2.691 3.25 2.834v1.313h.78v-1.3c1.768-.104 3.029-1.196 3.029-2.665zm-4.121-2.795c-1.105-.221-1.612-.559-1.612-1.482s.702-1.612 1.924-1.677v3.224zm1.43 1.313c1.248.234 1.651.754 1.651 1.534 0 1.014-.793 1.638-1.989 1.729v-3.328zm3.812-3.133h1.95v7.163h1.118v-9.321h-.689c-.221.962-.793 1.404-2.379 1.404zm8.414 1.898c1.469 0 2.158 1.066 2.158 2.249s-.689 2.262-2.145 2.262c-1.313 0-2.171-.819-2.262-2.002h-1.105c.143 1.794 1.482 2.912 3.354 2.912 2.028 0 3.237-1.404 3.237-3.172 0-1.755-1.209-3.159-3.146-3.159-.858 0-1.664.416-2.054.91l.312-3.068h4.42v-.949h-5.226l-.52 5.057h1.001c.351-.559 1.001-1.04 1.976-1.04zm9.457 5.265h1.3l-3.003-3.77 2.886-2.769h-1.287l-3.224 3.133v-6.162h-1.079v9.568h1.079v-2.262l.845-.819z" fill="#72987f"/><path d="m247.724 156.452c0-1.456-.884-2.145-2.275-2.431l-.754-.143v-3.354c1.027.13 1.69.65 1.807 1.56h1.027c-.156-1.495-1.209-2.327-2.834-2.483v-1.248h-.78v1.222c-1.768.078-2.951 1.17-2.951 2.639 0 1.599 1.079 2.171 2.301 2.418l.65.13v3.458c-1.144-.13-2.093-.715-2.21-1.95h-1.04c.104 1.742 1.534 2.691 3.25 2.834v1.313h.78v-1.3c1.768-.104 3.029-1.196 3.029-2.665zm-4.121-2.795c-1.105-.221-1.612-.559-1.612-1.482s.702-1.612 1.924-1.677v3.224zm1.43 1.313c1.248.234 1.651.754 1.651 1.534 0 1.014-.793 1.638-1.989 1.729v-3.328zm7.479-1.235c1.469 0 2.158 1.066 2.158 2.249s-.689 2.262-2.145 2.262c-1.313 0-2.171-.819-2.262-2.002h-1.105c.143 1.794 1.482 2.912 3.354 2.912 2.028 0 3.237-1.404 3.237-3.172 0-1.755-1.209-3.159-3.146-3.159-.858 0-1.664.416-2.054.91l.312-3.068h4.42v-.949h-5.226l-.52 5.057h1.001c.351-.559 1.001-1.04 1.976-1.04zm4.594.624c0 2.782 1.443 4.797 3.692 4.797 2.262 0 3.692-2.015 3.692-4.797s-1.43-4.797-3.692-4.797c-2.249 0-3.692 2.015-3.692 4.797zm1.144 0c0-2.275.858-3.835 2.548-3.835 1.703 0 2.561 1.56 2.561 3.835s-.858 3.835-2.561 3.835c-1.69 0-2.548-1.56-2.548-3.835zm7.654 0c0 2.782 1.443 4.797 3.692 4.797 2.262 0 3.692-2.015 3.692-4.797s-1.43-4.797-3.692-4.797c-2.249 0-3.692 2.015-3.692 4.797zm1.144 0c0-2.275.858-3.835 2.548-3.835 1.703 0 2.561 1.56 2.561 3.835s-.858 3.835-2.561 3.835c-1.69 0-2.548-1.56-2.548-3.835z" fill="#625451"/><circle cx="34.5" cy="154.5" r="6" stroke="#e2ddd8"/></g></svg>